G04 DipTrace 2.4.0.2*
%INBottomMask.gbr*%
%MOMM*%
%ADD67O,1.4X2.2*%
%ADD69R,5.2X5.2*%
%ADD73C,1.419*%
%ADD75C,1.8*%
%ADD77R,1.8X1.8*%
%ADD83C,4.2*%
%ADD103O,2.181X4.181*%
%ADD105R,1.2X3.2*%
%ADD111C,1.7*%
%ADD113R,1.7X1.7*%
%ADD115R,1.4X2.2*%
%ADD129R,1.724X1.724*%
%ADD131C,1.724*%
%FSLAX53Y53*%
G04*
G71*
G90*
G75*
G01*
%LNBotMask*%
%LPD*%
D131*
X15191Y80299D3*
D129*
Y77759D3*
D131*
X20461Y58829D3*
D129*
X17921D3*
D115*
X50682Y34618D3*
D113*
X111966Y105428D3*
D111*
Y102888D3*
Y100348D3*
Y97808D3*
D113*
X61161Y57798D3*
X63701D3*
X66241D3*
X68781D3*
X75401Y111990D3*
X72861D3*
X70321D3*
X67781D3*
X61161Y111937D3*
X58621D3*
X56081D3*
X53541D3*
X78943Y26521D3*
X81483D3*
X84023D3*
X86563D3*
D105*
X97901Y15167D3*
X100441D3*
X102981D3*
X105521D3*
X108061D3*
X110601D3*
X113141D3*
X115681D3*
Y24692D3*
X113141D3*
X110601D3*
X108061D3*
X105521D3*
X102981D3*
X100441D3*
X97901D3*
D103*
X44808Y25251D3*
Y17758D3*
X59820Y25251D3*
X64798D3*
X69802D3*
X59820Y17758D3*
X64798D3*
X69802D3*
D83*
X13531Y123845D3*
D77*
X33377Y38904D3*
D75*
Y36364D3*
Y33824D3*
D73*
X101329Y71769D3*
Y66943D3*
D83*
X12896Y13343D3*
Y48907D3*
X122445Y124321D3*
X122921Y13184D3*
X123080Y77008D3*
D69*
X43915Y116521D3*
Y94137D3*
D67*
X52111Y34618D3*
X53540D3*
M02*
