G04 DipTrace 2.4.0.2*
%INBottom.gbr*%
%MOMM*%
%ADD12C,0.381*%
%ADD17C,1.524*%
%ADD18R,1.524X1.524*%
%ADD25R,1.2X2.0*%
%ADD26R,1.5X1.5*%
%ADD27C,1.5*%
%ADD31R,1.0X3.0*%
%ADD32O,1.981X3.981*%
%ADD44C,4.0*%
%ADD48R,1.6X1.6*%
%ADD49C,1.6*%
%ADD50C,1.219*%
%ADD52R,5.0X5.0*%
%ADD53O,1.2X2.0*%
%ADD54C,0.635*%
%FSLAX53Y53*%
G04*
G71*
G90*
G75*
G01*
%LNBottom*%
%LPD*%
X92221Y59499D2*
D12*
X89554D1*
Y64470D1*
X86331D1*
X85569D1*
Y47332D1*
X86331Y46570D1*
X92177D1*
X86431Y90191D2*
Y110223D1*
X85241Y79167D2*
Y75010D1*
X86752Y73499D1*
X87877D1*
Y69232D1*
X86331D1*
X85569Y68470D1*
Y65232D1*
X86331Y64470D1*
X92177Y46570D2*
Y22962D1*
X97901Y17238D1*
X98663Y18000D1*
X99679D1*
X100441Y17238D1*
Y15167D1*
X89846Y67820D2*
X88639D1*
X87877Y68582D1*
Y69232D1*
X79695Y68503D2*
Y74248D1*
X80457Y75010D1*
X85241D1*
X115681Y15167D2*
Y12333D1*
X116762D1*
X117524Y13095D1*
Y64558D1*
X113141Y15167D2*
Y17238D1*
X115681D1*
Y15167D1*
X110601D2*
Y13095D1*
X113141D1*
Y15167D1*
X108061D2*
Y17238D1*
X108823Y18000D1*
X109839D1*
X110601Y17238D1*
Y15167D1*
X105521D2*
Y13095D1*
X108061D1*
Y15167D1*
X102981D2*
Y17238D1*
X105521D1*
Y15167D1*
X100441D2*
Y13095D1*
X102981D1*
Y15167D1*
X97901D2*
Y17238D1*
X86431Y110223D2*
X84664Y111990D1*
X75401D1*
X87877Y69232D2*
X89757D1*
X91722Y71197D1*
X61161Y111937D2*
X59227Y113871D1*
X55474D1*
X53541Y111937D1*
Y101766D1*
X51266Y99491D1*
X74740Y52508D2*
Y58901D1*
X80664Y44907D2*
Y72233D1*
X83124Y36081D2*
X77092Y42113D1*
Y46558D1*
X100021Y70461D2*
X102510D1*
X102059Y56918D2*
X98737D1*
X15191Y80299D2*
Y84207D1*
X100289Y94029D2*
Y90878D1*
X81689Y71721D2*
Y66251D1*
X90833Y71915D2*
Y74315D1*
X29285Y23663D2*
Y33375D1*
X24645Y38015D1*
X77642Y80379D2*
Y83178D1*
X70321Y90500D1*
Y110057D1*
X67781D1*
Y111990D1*
X98737Y56918D2*
X95368D1*
X94606D1*
Y60989D1*
X93844Y61751D1*
X90938D1*
X86130Y83940D2*
X78404D1*
X77642Y83178D1*
X77092Y60429D2*
Y64929D1*
X77642Y65479D1*
Y80379D1*
X77092Y46558D2*
Y60429D1*
X107218Y68847D2*
X105085Y66714D1*
Y65800D1*
X102510Y70461D2*
X107218D1*
Y68847D1*
X94606Y54868D2*
Y56029D1*
X95368D1*
Y56918D1*
X112823Y72629D2*
X110166Y75286D1*
X102535D1*
X100675Y73426D1*
X94892D1*
X84508Y40145D2*
Y63126D1*
X82705Y64929D1*
Y68424D1*
X86892Y72610D1*
X87506Y116129D2*
Y89028D1*
X86130D1*
X87506Y87652D1*
Y74893D1*
X90160Y94029D2*
Y79294D1*
X89144Y78278D1*
X85542Y96369D2*
X72861Y109050D1*
Y111990D1*
X94427Y71026D2*
X98510Y66943D1*
X101329D1*
X110280Y53924D2*
X95794D1*
X33377Y36364D2*
X35510Y34231D1*
Y27813D1*
X97901Y24692D2*
Y43263D1*
X44808Y25251D2*
X50079D1*
X50682Y25854D1*
Y34618D1*
X75629Y51790D2*
Y79179D1*
X63542Y83200D2*
Y75579D1*
X67412Y71709D1*
Y50901D1*
X21152Y24166D2*
Y41038D1*
X21806D1*
Y42080D1*
X51047Y63652D2*
Y93811D1*
X51809Y94573D1*
X56017D1*
X21806Y42080D2*
X43379Y63652D1*
X51047D1*
X22060Y31780D2*
Y40180D1*
X28475D1*
X28572Y40276D1*
X51393D1*
X52155Y41038D1*
Y91213D1*
X63542Y71868D2*
X61161Y69487D1*
Y57798D1*
X66241Y30331D2*
Y57798D1*
X74239Y80401D2*
X68781Y74942D1*
Y57798D1*
X81483Y26521D2*
X80213Y25251D1*
X69802D1*
X86563Y26521D2*
X85270Y27813D1*
X59820D1*
Y25251D1*
X98992Y28581D2*
X100441Y27133D1*
Y24692D1*
X102981D2*
Y32617D1*
X105521Y24692D2*
Y28581D1*
X111292Y28958D2*
X108823D1*
X108061Y28196D1*
Y24692D1*
X113141D2*
Y37090D1*
X115681Y24692D2*
Y28581D1*
X42591Y78931D2*
X49407D1*
X15191Y77759D2*
Y74902D1*
Y67671D1*
X110315Y52908D2*
X95076D1*
X115935Y76971D2*
Y52298D1*
X115173Y51536D1*
X94240D1*
X93478Y52298D1*
Y59626D1*
X92716Y60388D1*
X90443D1*
X98189Y74524D2*
X94892D1*
X95742Y81279D2*
Y78024D1*
X106710D1*
X108559Y76175D1*
X91633Y79802D2*
Y99586D1*
X92395Y100348D1*
X111966D1*
X89284Y70121D2*
Y74353D1*
X92522Y77591D1*
Y82168D1*
X93284Y82930D1*
X101860D1*
X103657Y81133D1*
X105475D1*
X114050Y89708D1*
Y100804D1*
X111966Y102888D1*
X97572Y58696D2*
Y62946D1*
X96810Y63708D1*
X95100D1*
X91887Y66921D1*
X86789D1*
X91887D2*
X92649Y67683D1*
Y73045D1*
X93411Y73807D1*
Y79802D1*
X86458Y63581D2*
Y50012D1*
X87220Y49250D1*
X99372D1*
X102942Y45679D1*
Y43291D1*
X102053Y42402D1*
Y31728D1*
X87649Y63402D2*
Y57679D1*
Y51028D1*
X103629Y64470D2*
X97777D1*
X93538Y68709D1*
X82235Y48856D2*
Y62513D1*
X109391Y57807D2*
X96130D1*
X95368Y58569D1*
Y61878D1*
X94606Y62640D1*
X92360D1*
X96683Y59415D2*
Y62035D1*
X104052Y33129D2*
Y49250D1*
X103290Y50012D1*
X89427D1*
X88665Y50774D1*
Y63402D1*
X48518Y52879D2*
Y62629D1*
X78625Y93838D2*
X73704D1*
X72275Y95267D1*
Y107809D1*
X71481Y108603D1*
Y110830D1*
X70321Y111990D1*
D54*
X85241Y79167D3*
X86431Y110223D3*
X92221Y59499D3*
X86431Y90191D3*
X91722Y71197D3*
X89846Y67820D3*
X117524Y64558D3*
X79695Y68503D3*
X92177Y46570D3*
X51266Y99491D3*
X74740Y58901D3*
Y52508D3*
X80664Y72233D3*
Y44907D3*
X102510Y70461D3*
X83124Y36081D3*
X98737Y56918D3*
X100021Y70461D3*
X15191Y84207D3*
X102059Y56918D3*
X100289Y90878D3*
X81689Y66251D3*
Y71721D3*
X90833Y74315D3*
X24645Y38015D3*
X105085Y65800D3*
X90938Y61751D3*
X86130Y83940D3*
X29285Y23663D3*
X77092Y46558D3*
Y60429D3*
X90833Y71915D3*
X100289Y94029D3*
X94606Y54868D3*
X107218Y68847D3*
X77642Y80379D3*
X94892Y73426D3*
X112823Y72629D3*
X86892Y72610D3*
X84508Y40145D3*
X82705Y64929D3*
X86130Y89028D3*
X87506Y116129D3*
Y74893D3*
X89144Y78278D3*
X90160Y94029D3*
X85542Y96369D3*
X94427Y71026D3*
X95794Y53924D3*
X110280D3*
X35510Y27813D3*
X97901Y43263D3*
X75629Y79179D3*
Y51790D3*
X67412Y50901D3*
X63542Y83200D3*
Y75579D3*
X56017Y94573D3*
X51047Y63652D3*
X21152Y24166D3*
X21806Y42080D3*
X52155Y91213D3*
X22060Y40180D3*
Y31780D3*
X98992Y28581D3*
X102981Y32617D3*
X105521Y28581D3*
X111292Y28958D3*
X113141Y37090D3*
X115681Y28581D3*
X15191Y67671D3*
X95076Y52908D3*
X110315D3*
X63542Y71868D3*
X66241Y30331D3*
X74239Y80401D3*
X48518Y62629D3*
Y52879D3*
X90443Y60388D3*
X115935Y76971D3*
X86789Y66921D3*
X97572Y58696D3*
X93411Y79802D3*
X102053Y31728D3*
X86458Y63581D3*
X102942Y45679D3*
X87649Y57679D3*
Y51028D3*
Y63402D3*
X93538Y68709D3*
X103629Y64470D3*
X82235Y62513D3*
Y48856D3*
X92360Y62640D3*
X109391Y57807D3*
X96683Y62035D3*
Y59415D3*
X88665Y63402D3*
X104052Y33129D3*
X105475Y81133D3*
X89284Y70121D3*
X91633Y79802D3*
X108559Y76175D3*
X95742Y81279D3*
Y78024D3*
X94892Y74524D3*
X98189D3*
X49407Y78931D3*
X42591D3*
X78625Y93838D3*
D17*
X15191Y80299D3*
D18*
Y77759D3*
D17*
X20461Y58829D3*
D18*
X17921D3*
D25*
X50682Y34618D3*
D26*
X111966Y105428D3*
D27*
Y102888D3*
Y100348D3*
Y97808D3*
D26*
X61161Y57798D3*
X63701D3*
X66241D3*
X68781D3*
X75401Y111990D3*
X72861D3*
X70321D3*
X67781D3*
X61161Y111937D3*
X58621D3*
X56081D3*
X53541D3*
X78943Y26521D3*
X81483D3*
X84023D3*
X86563D3*
D31*
X97901Y15167D3*
X100441D3*
X102981D3*
X105521D3*
X108061D3*
X110601D3*
X113141D3*
X115681D3*
Y24692D3*
X113141D3*
X110601D3*
X108061D3*
X105521D3*
X102981D3*
X100441D3*
X97901D3*
D32*
X44808Y25251D3*
Y17758D3*
X59820Y25251D3*
X64798D3*
X69802D3*
X59820Y17758D3*
X64798D3*
X69802D3*
D44*
X13531Y123845D3*
D48*
X33377Y38904D3*
D49*
Y36364D3*
Y33824D3*
D50*
X101329Y71769D3*
Y66943D3*
D44*
X12896Y13343D3*
Y48907D3*
X122445Y124321D3*
X122921Y13184D3*
X123080Y77008D3*
D52*
X43915Y116521D3*
Y94137D3*
D53*
X52111Y34618D3*
X53540D3*
M02*
