M48
METRIC,0000.00
T01C0.305
T02C0.5
T03C0.8
T04C0.813
T05C0.9
T06C0.965
T07C1.0
T08C1.321
T09C1.5
T10C2.0
%
T01
X+008524Y+007917
X+008914Y+007828
X+009163Y+007980
X+009341Y+007980
X+009574Y+008128
X+009574Y+007802
X+009489Y+007452
X+009489Y+007343
X+009443Y+007103
X+009354Y+006871
X+009172Y+007120
X+009083Y+007192
X+008928Y+007012
X+008985Y+006782
X+008679Y+006692
X+008646Y+006358
X+008765Y+006340
X+008866Y+006340
X+009094Y+006175
X+009044Y+006039
X+009222Y+005950
X+009236Y+006264
X+009668Y+006203
X+009668Y+005941
X+009757Y+005870
X+009874Y+005692
X+010206Y+005692
X+009579Y+005392
X+009508Y+005291
X+009461Y+005487
X+008765Y+005768
X+008765Y+005103
X+008224Y+004886
X+008066Y+004491
X+007709Y+004656
X+007563Y+005179
X+007474Y+005251
X+007474Y+005890
X+007709Y+006043
X+008224Y+006251
X+008271Y+006493
X+008169Y+006625
X+007970Y+006850
X+008169Y+007172
X+008066Y+007223
X+008689Y+007261
X+008751Y+007489
X+009083Y+007432
X+009819Y+007452
X+010002Y+007046
X+010251Y+007046
X+010722Y+006885
X+010508Y+006580
X+010363Y+006447
X+010939Y+005781
X+011028Y+005392
X+011031Y+005291
X+010294Y+004568
X+009790Y+004326
X+009218Y+004657
X+008451Y+004015
X+008312Y+003608
X+009899Y+002858
X+010205Y+003173
X+010298Y+003262
X+010405Y+003313
X+010552Y+002858
X+011129Y+002896
X+011568Y+002858
X+011314Y+003709
X+011752Y+006456
X+011282Y+007263
X+011594Y+007697
X+010856Y+007618
X+010548Y+008113
X+010029Y+009088
X+010029Y+009403
X+009016Y+009403
X+008554Y+009637
X+008643Y+009019
X+008613Y+008903
X+008613Y+008394
X+007764Y+008038
X+007563Y+007918
X+007424Y+008040
X+006354Y+008320
X+006354Y+007558
X+006354Y+007187
X+005105Y+006365
X+004852Y+006263
X+004852Y+005288
X+006741Y+005090
X+006624Y+003033
X+003551Y+002781
X+002929Y+002366
X+002115Y+002417
X+002206Y+003178
X+002464Y+003802
X+002206Y+004018
X+002181Y+004208
X+001519Y+006767
X+001519Y+008421
X+004259Y+007893
X+004941Y+007893
X+005216Y+009121
X+005602Y+009457
X+005127Y+009949
X+007863Y+009384
X+008643Y+011022
X+008751Y+011613
T02
X+009790Y+001517
X+010044Y+001517
X+010298Y+001517
X+010552Y+001517
X+010806Y+001517
X+011060Y+001517
X+011314Y+001517
X+011568Y+001517
X+011568Y+002469
X+011314Y+002469
X+011060Y+002469
X+010806Y+002469
X+010552Y+002469
X+010298Y+002469
X+010044Y+002469
X+009790Y+002469
T03
X+005211Y+003462
X+005354Y+003462
T04
X+010133Y+007177
X+010133Y+006694
T05
X+005068Y+003462
X+006116Y+005780
X+006370Y+005780
X+006624Y+005780
X+006878Y+005780
X+007894Y+002652
X+008148Y+002652
X+008402Y+002652
X+008656Y+002652
X+011197Y+009781
X+011197Y+010035
X+011197Y+010289
X+011197Y+010543
X+007540Y+011199
X+007286Y+011199
X+007032Y+011199
X+006778Y+011199
X+006116Y+011194
X+005862Y+011194
X+005608Y+011194
X+005354Y+011194
T06
X+001519Y+008030
X+001519Y+007776
X+001792Y+005883
X+002046Y+005883
T07
X+003338Y+003890
X+003338Y+003636
X+003338Y+003382
T08
X+004481Y+002525
X+004481Y+001776
X+005982Y+001776
X+006480Y+001776
X+006980Y+001776
X+006980Y+002525
X+006480Y+002525
X+005982Y+002525
T09
X+004392Y+011652
X+004392Y+009414
T10
X+001353Y+012384
X+001290Y+004891
X+001290Y+001334
X+012292Y+001318
X+012308Y+007701
X+012244Y+012432
T00
M30
