G04 DipTrace 2.4.0.2*
%INTop.gbr*%
%MOMM*%
%ADD12C,0.381*%
%ADD13C,0.3*%
%ADD14R,2.65X2.35*%
%ADD15R,2.35X2.65*%
%ADD16R,1.35X2.15*%
%ADD17C,1.524*%
%ADD18R,1.524X1.524*%
%ADD19R,2.55X3.75*%
%ADD20R,3.75X2.55*%
%ADD21R,2.15X1.35*%
%ADD22R,2.55X1.85*%
%ADD23R,1.85X2.55*%
%ADD24R,0.9X0.9*%
%ADD25R,1.2X2.0*%
%ADD26R,1.5X1.5*%
%ADD27C,1.5*%
%ADD29R,1.5X1.3*%
%ADD30R,1.3X1.5*%
%ADD31R,1.0X3.0*%
%ADD32O,1.981X3.981*%
%ADD34R,1.78X1.52*%
%ADD35R,1.52X1.78*%
%ADD36R,1.524X1.422*%
%ADD37R,3.2X1.8*%
%ADD38R,1.8X1.6*%
%ADD39R,1.6X1.8*%
%ADD40R,1.0X2.65*%
%ADD42R,1.9X0.4*%
%ADD43R,0.4X1.9*%
%ADD44C,4.0*%
%ADD46R,1.45X3.0*%
%ADD47R,10.6X9.0*%
%ADD48R,1.6X1.6*%
%ADD49C,1.6*%
%ADD50C,1.219*%
%ADD51R,0.3X1.65*%
%ADD52R,5.0X5.0*%
%ADD53O,1.2X2.0*%
%ADD54C,0.635*%
%FSLAX53Y53*%
G04*
G71*
G90*
G75*
G01*
%LNTop*%
%LPD*%
X43915Y94137D2*
D12*
X39736D1*
X38903Y93304D1*
X34491D1*
X32891D1*
Y72654D1*
X91722Y71197D2*
X93062Y72537D1*
X96541D1*
X115935Y62083D2*
Y64558D1*
X117524D1*
X75401Y111990D2*
X72763Y109353D1*
X58430D1*
X57668Y108591D1*
Y106697D1*
X85141Y69321D2*
X81402D1*
X80584Y68503D1*
X79695D1*
X89846Y67820D2*
X90887D1*
X91649Y67058D1*
Y65229D1*
X86431Y90191D2*
X85241D1*
Y81329D1*
X95091Y59499D2*
X92221D1*
X93636Y46570D2*
X92177D1*
X96541Y72537D2*
X99179D1*
X99592Y72950D1*
X103793D1*
X103869Y72874D1*
X106568D1*
X117524Y64558D2*
X116635Y65447D1*
X112696D1*
X111934Y66209D1*
Y73189D1*
X112696Y73951D1*
X116195D1*
X116957Y74713D1*
Y79417D1*
X116195Y80179D1*
X109791D1*
X79695Y68503D2*
X71974D1*
X71212Y69265D1*
Y72879D1*
X69891D1*
X85241Y79167D2*
X90033D1*
Y76629D1*
X85241Y81329D2*
Y79167D1*
X86431Y110223D2*
X86549Y110105D1*
Y108574D1*
X50591Y69279D2*
X48518D1*
Y76417D1*
X49280Y77179D1*
X48518Y77941D1*
Y81009D1*
X49280Y81771D1*
X51266D1*
Y99491D1*
X49280Y77179D2*
X60391D1*
X28791Y94254D2*
X26532D1*
X24732Y96054D1*
X23091D1*
X51266Y99491D2*
X50695Y100063D1*
X29553D1*
X28791Y99301D1*
Y94254D1*
X52588Y81771D2*
X51266D1*
X74740Y58901D2*
X90570D1*
X91332Y59663D1*
Y60141D1*
X92337Y61146D1*
X97300D1*
X98062Y61908D1*
Y67737D1*
X96541D1*
X74740Y52508D2*
X63094D1*
X62332Y53270D1*
Y59647D1*
X61570Y60409D1*
X52681D1*
X80664Y72233D2*
X82553Y74121D1*
X85141D1*
X80664Y44907D2*
X58632D1*
X57870Y45669D1*
Y52273D1*
X57108Y53035D1*
X53699D1*
X96541Y68537D2*
X98821D1*
X99583Y67775D1*
Y59862D1*
X15191Y80299D2*
X12682Y77791D1*
Y71649D1*
X13444Y70887D1*
X15191D1*
X116441Y72629D2*
X119175D1*
X119937Y71867D1*
Y60752D1*
X111378D1*
X107218Y64911D1*
X105974D1*
X105085Y65800D1*
X102510Y70461D2*
Y70943D1*
X102828Y71260D1*
X107218D1*
Y72874D1*
Y67324D2*
Y68847D1*
X98941Y94029D2*
X100289D1*
X102059Y56918D2*
X104391Y54587D1*
Y47579D1*
X83124Y36081D2*
X92379D1*
X93141Y35319D1*
Y33029D1*
X26991Y58872D2*
Y54256D1*
X31407D1*
X32169Y55018D1*
X59429D1*
X60191Y54256D1*
Y47320D1*
X60953Y46558D1*
X77092D1*
X100289Y90878D2*
X98941D1*
Y89429D1*
X100021Y70461D2*
X99697Y70137D1*
X96541D1*
X81689Y66251D2*
X78441D1*
Y64929D1*
X29091Y84229D2*
X26168D1*
X26146Y84207D1*
X22011D1*
X32891Y68504D2*
Y64901D1*
X33491Y64301D1*
Y63079D1*
X104391Y47579D2*
X105712D1*
Y42763D1*
X106474Y42001D1*
X113667D1*
X114429Y42763D1*
X115191Y42001D1*
Y39979D1*
X105085Y65800D2*
X106568D1*
Y67324D1*
X97191Y83179D2*
X90912D1*
X88312Y85779D1*
X86991D1*
X33491Y63079D2*
X32169D1*
Y55018D1*
X90833Y76629D2*
Y74315D1*
X77092Y46558D2*
Y47779D1*
X78891D1*
X26991Y54256D2*
X27013Y51650D1*
X20461Y58829D2*
X23297D1*
X23340Y58872D1*
X26991D1*
X21091Y65172D2*
Y62828D1*
X20461Y62198D1*
Y58829D1*
X15191Y70887D2*
X16937D1*
Y65934D1*
X17699Y65172D1*
X21091D1*
X106568Y65800D2*
X107868D1*
Y67324D1*
X107218Y68847D2*
X108518D1*
Y67324D1*
X100289Y94029D2*
Y104666D1*
X101051Y105428D1*
X111966D1*
X114429Y42763D2*
X115412D1*
Y46179D1*
X114091D1*
X29285Y23663D2*
X31313D1*
X35282Y16836D2*
Y15339D1*
X34520Y14577D1*
X30047D1*
X29285Y15339D1*
Y23663D1*
X44808Y17758D2*
Y16836D1*
X35282D1*
X24645Y40016D2*
Y38015D1*
X27013Y51650D2*
Y43705D1*
X24645Y41337D1*
Y40016D1*
X97191Y83179D2*
X98688D1*
X100861Y81006D1*
X101506D1*
Y79110D1*
X98941Y89429D2*
Y86654D1*
X97191Y84904D1*
Y83179D1*
X85141Y71721D2*
X81689D1*
X90833Y71915D2*
X89292D1*
X89098Y71721D1*
X85141D1*
X96541Y70137D2*
X90833D1*
Y71915D1*
X90938Y61751D2*
X90849Y61840D1*
Y65229D1*
X83841Y60429D2*
Y61751D1*
X90938D1*
X77092Y60429D2*
X83841D1*
X78441Y64929D2*
Y61778D1*
X77092Y60429D1*
X15191Y84207D2*
Y91142D1*
X15953Y91904D1*
X23091D1*
X22011Y84207D2*
X15191D1*
X39033Y68529D2*
X40051D1*
Y74529D1*
X39033Y62629D2*
Y68529D1*
X33491Y63079D2*
X36687D1*
X37137Y62629D1*
X39033D1*
X114091Y46179D2*
Y47529D1*
X118541D1*
X94606Y54868D2*
X92423D1*
X91512Y55779D1*
X90191D1*
X95091Y56642D2*
X94797D1*
Y55186D1*
X94606Y54995D1*
Y54868D1*
X98737Y56918D2*
X98652D1*
X98334Y56601D1*
Y55570D1*
X99741D1*
X86991Y85779D2*
Y84258D1*
X86673Y83940D1*
X86130D1*
X94892Y73426D2*
X89995D1*
X89233Y74188D1*
Y76629D1*
X114541Y68129D2*
Y72629D1*
X112823D1*
X86892Y72610D2*
X88433Y74151D1*
Y76629D1*
X84508Y40145D2*
X91279D1*
X92041Y39383D1*
Y37529D1*
X80341Y64929D2*
X82705D1*
X86130Y89028D2*
Y87679D1*
X86991D1*
X83541Y116129D2*
X87506D1*
Y74893D2*
X87633Y75020D1*
Y76629D1*
X89144Y78278D2*
X86833D1*
Y76629D1*
X97041Y94029D2*
Y98479D1*
X95591D1*
X90160Y94029D2*
X97041D1*
X101329Y71769D2*
X98640D1*
X98608Y71737D1*
X96541D1*
X51094Y60409D2*
X36760D1*
X35989Y61179D1*
X33491D1*
X85542Y96369D2*
X86991D1*
Y93879D1*
X88312D1*
X89074Y93117D1*
Y90191D1*
X89836Y89429D1*
X97041D1*
X94427Y71026D2*
X94516Y70937D1*
X96541D1*
X95794Y53924D2*
X86304D1*
X84348Y55879D1*
X78891D1*
X110280Y53924D2*
X111484Y55128D1*
X115935D1*
Y53035D1*
X60391Y75279D2*
X54175D1*
X78891Y55879D2*
X68174D1*
X67412Y56641D1*
Y66979D1*
X66650Y67741D1*
X61153D1*
X60391Y68503D1*
Y75279D1*
X41633Y39540D2*
X35782D1*
X34857Y40465D1*
X34095D1*
X33377D1*
Y38904D1*
X34095Y40465D2*
X34857Y41227D1*
Y50867D1*
Y51650D1*
X32410D1*
X34857Y50867D2*
X35595Y51606D1*
X40998D1*
X33377Y38904D2*
X29469D1*
X28357Y40016D1*
X26545D1*
X56081Y111937D2*
X51497Y116521D1*
X43915D1*
X58621Y111937D2*
X57252D1*
X56081D1*
X50191Y50979D2*
Y49758D1*
X46545D1*
X45783Y48996D1*
Y39540D1*
Y48996D2*
X45178D1*
X42898Y51276D1*
Y51606D1*
X35510Y27813D2*
X34329Y26632D1*
Y23663D1*
X41728Y33665D2*
X36076D1*
X33377Y36364D1*
X45783Y39540D2*
Y36951D1*
X45021Y36189D1*
X42490D1*
X41728Y35427D1*
Y33665D1*
X99691Y48529D2*
Y44025D1*
X98929Y43263D1*
X97901D1*
X52111Y34618D2*
Y32383D1*
X44014D1*
Y33665D1*
X53540Y34618D2*
X55020D1*
Y51135D1*
X53699D1*
X44808Y25251D2*
X40340D1*
X35409Y20320D1*
X31894D1*
X31132Y19558D1*
Y16836D1*
X17921Y58829D2*
Y56062D1*
X17741Y55882D1*
Y53529D1*
Y34587D1*
X18503Y33824D1*
X33377D1*
X52588Y83671D2*
Y87836D1*
X53350Y88598D1*
X59891D1*
X75629Y51790D2*
X85156D1*
X85918Y51028D1*
Y46570D1*
X84587D1*
X72791Y79179D2*
X75629D1*
X59891Y88598D2*
X72029D1*
X72791Y87836D1*
Y79179D1*
X67412Y50901D2*
X84587D1*
Y49110D1*
X59891Y83200D2*
X63542D1*
X64991Y75579D2*
Y77279D1*
X72791D1*
X63542Y75579D2*
X64991D1*
X93636Y44030D2*
X93941D1*
Y37529D1*
X118475Y62083D2*
Y67367D1*
X117713Y68129D1*
X116441D1*
X74391Y72679D2*
Y74201D1*
X75153Y74963D1*
X77282D1*
X78044Y74201D1*
Y74963D1*
X79091Y76010D1*
Y78479D1*
X78044Y74201D2*
Y73317D1*
X79291D1*
X79091Y78479D2*
X80412D1*
Y96496D1*
X81174Y97258D1*
X85787D1*
X86549Y98020D1*
Y99525D1*
X56017Y94573D2*
X57668Y96224D1*
Y97648D1*
X51047Y63652D2*
X50591Y64109D1*
Y67379D1*
X21152Y24166D2*
Y22392D1*
X21806Y42080D2*
X20358D1*
X76941Y84829D2*
Y98763D1*
X77703Y99525D1*
X84009D1*
X74391Y70779D2*
X73069D1*
Y74963D1*
X73831Y75725D1*
X75991D1*
X76753Y76487D1*
Y84829D1*
X76941D1*
X79291Y70459D2*
Y70779D1*
X74391D1*
X55128Y97648D2*
Y91975D1*
X54366Y91213D1*
X52155D1*
X24327Y30331D2*
Y31780D1*
X22060D1*
Y40180D2*
X20358D1*
X22060Y31780D2*
X19905Y29624D1*
Y19535D1*
X21152D1*
X60208Y106697D2*
X80879D1*
X81641Y107459D1*
Y116129D1*
X89089Y108574D2*
X94829D1*
X95591Y107812D1*
Y100379D1*
X78943Y26521D2*
X77650Y27813D1*
X64798D1*
Y25251D1*
X63542Y71868D2*
X64991D1*
Y73679D1*
X63701Y57798D2*
Y64317D1*
X62939Y65079D1*
X55491D1*
X26227Y30331D2*
X66241D1*
X74239Y80401D2*
X75041Y81202D1*
Y84829D1*
X81483Y26521D2*
X82654D1*
X84023D1*
X98992Y28581D2*
X100491D1*
Y30129D1*
X102981Y32617D2*
X100453D1*
X99691Y33379D1*
Y34829D1*
X105521Y28581D2*
X107991D1*
Y30329D1*
X111292Y28958D2*
X112891D1*
Y30629D1*
X110601Y24692D2*
Y22529D1*
X121391D1*
X113141Y37090D2*
X110153D1*
X109391Y37852D1*
Y40629D1*
X115681Y28581D2*
X117791D1*
Y30029D1*
X42591Y74529D2*
Y78931D1*
X49407D2*
X60950D1*
X61712Y78169D1*
Y71741D1*
X62474Y70979D1*
X69891D1*
X42591Y78931D2*
X37481D1*
X36719Y78169D1*
Y71172D1*
X35957Y70410D1*
X27753D1*
X26991Y69648D1*
Y64110D1*
X42591Y78931D2*
Y84129D1*
X26991Y69648D2*
X26229Y70410D1*
X21091D1*
X15191Y77759D2*
X16937D1*
X17988Y78810D1*
X22011D1*
X28791Y90104D2*
X30287D1*
Y96692D1*
X31049Y97454D1*
X34491D1*
X29091Y78629D2*
X31262D1*
Y85418D1*
X28791Y87890D1*
Y90104D1*
X22011Y78810D2*
X26067D1*
X26247Y78629D1*
X29091D1*
X15191Y65648D2*
Y60488D1*
X15841Y59838D1*
Y53529D1*
X15191Y67671D2*
Y65648D1*
X95076Y52908D2*
X82071D1*
X81000Y53979D1*
X78891D1*
X55491Y66979D2*
Y72404D1*
X54175D1*
X78891Y53979D2*
X65634D1*
X64872Y54741D1*
Y66217D1*
X64110Y66979D1*
X55491D1*
X110315Y52908D2*
X110441Y53035D1*
X113395D1*
X115935Y76971D2*
Y78120D1*
X90443Y60388D2*
X90402Y60429D1*
X85741D1*
X101170Y59862D2*
Y53670D1*
X99741D1*
X94892Y74524D2*
X94350D1*
X94033Y74842D1*
Y76629D1*
X109791Y78279D2*
X107670D1*
X106413Y77023D1*
X103915Y74524D1*
X98189D1*
X107868Y72874D2*
D13*
Y73889D1*
D12*
Y75568D1*
X106413Y77023D1*
X108559Y76175D2*
Y72874D1*
X108518D1*
X95742Y78024D2*
X95615Y78151D1*
X93233D1*
Y76629D1*
X95742Y81279D2*
X95692Y81329D1*
X87141D1*
X111966Y97808D2*
X102578Y88419D1*
Y77213D1*
X99862D1*
X98163Y78913D1*
X92433D1*
Y76629D1*
X91633D2*
Y79802D1*
X105475Y81133D2*
Y79110D1*
X85141Y70121D2*
X89284D1*
X86991Y91979D2*
X83619D1*
X82857Y91217D1*
Y75683D1*
X83619Y74921D1*
X85141D1*
X96541Y69337D2*
X102818D1*
X103979Y70498D1*
X109392D1*
X110154Y71260D1*
Y73926D1*
X114348Y78120D1*
X85141Y66921D2*
X86789D1*
X97572Y58696D2*
Y51329D1*
X99691D1*
X93411Y79802D2*
X97191D1*
Y81279D1*
X102053Y31728D2*
X103291D1*
Y30129D1*
X86458Y63581D2*
Y65229D1*
X86849D1*
X104391Y45679D2*
X102942D1*
X90191Y57679D2*
X87649D1*
Y51028D2*
X94400D1*
X95162Y50266D1*
Y38391D1*
X95924Y37629D1*
X99691D1*
X87649Y65229D2*
Y63402D1*
X93538Y68709D2*
X89211D1*
X88449Y67947D1*
Y65229D1*
X103629Y64470D2*
X109402Y58696D1*
X119679D1*
X120441Y57934D1*
Y47529D1*
X78891Y49679D2*
X80212D1*
X81035Y48856D1*
X82235D1*
Y62513D2*
X89287D1*
X90049Y63275D1*
Y65229D1*
X82235Y48856D2*
Y28454D1*
X82997Y27692D1*
X120629D1*
X121391Y26930D1*
Y25329D1*
X109391Y43429D2*
X111509D1*
X112359Y44279D1*
X114091D1*
X109391Y57807D2*
Y43429D1*
X92360Y62640D2*
X92449Y62729D1*
Y65229D1*
X95041Y33029D2*
Y35439D1*
X95803Y36201D1*
X101162D1*
Y36963D1*
X101924Y36201D1*
X117029D1*
X117791Y35439D1*
Y32829D1*
X96683Y62035D2*
X94011D1*
X93249Y62797D1*
Y65229D1*
X101162Y36963D2*
Y39001D1*
X97445D1*
X96683Y39763D1*
Y59415D1*
X112891Y33429D2*
X114792D1*
Y32163D1*
X115554Y31401D1*
X119262D1*
X120024Y32163D1*
Y37317D1*
X119262Y38079D1*
X115191D1*
X107991Y33129D2*
Y33429D1*
X112891D1*
X104052Y33129D2*
X107991D1*
X88665Y63402D2*
X88931D1*
X89249Y63719D1*
Y65229D1*
X50191Y52879D2*
X48518D1*
X44272Y68529D2*
X45131D1*
Y74529D1*
X44272Y62629D2*
Y68529D1*
X48518Y62629D2*
X44272D1*
X79091Y80379D2*
Y93372D1*
X78625Y93838D1*
D54*
X85241Y79167D3*
X86431Y110223D3*
X92221Y59499D3*
X86431Y90191D3*
X91722Y71197D3*
X89846Y67820D3*
X117524Y64558D3*
X79695Y68503D3*
X92177Y46570D3*
X51266Y99491D3*
X74740Y58901D3*
Y52508D3*
X80664Y72233D3*
Y44907D3*
X102510Y70461D3*
X83124Y36081D3*
X98737Y56918D3*
X100021Y70461D3*
X15191Y84207D3*
X102059Y56918D3*
X100289Y90878D3*
X81689Y66251D3*
Y71721D3*
X90833Y74315D3*
X24645Y38015D3*
X105085Y65800D3*
X90938Y61751D3*
X86130Y83940D3*
X29285Y23663D3*
X77092Y46558D3*
Y60429D3*
X90833Y71915D3*
X100289Y94029D3*
X94606Y54868D3*
X107218Y68847D3*
X77642Y80379D3*
X94892Y73426D3*
X112823Y72629D3*
X86892Y72610D3*
X84508Y40145D3*
X82705Y64929D3*
X86130Y89028D3*
X87506Y116129D3*
Y74893D3*
X89144Y78278D3*
X90160Y94029D3*
X85542Y96369D3*
X94427Y71026D3*
X95794Y53924D3*
X110280D3*
X35510Y27813D3*
X97901Y43263D3*
X75629Y79179D3*
Y51790D3*
X67412Y50901D3*
X63542Y83200D3*
Y75579D3*
X56017Y94573D3*
X51047Y63652D3*
X21152Y24166D3*
X21806Y42080D3*
X52155Y91213D3*
X22060Y40180D3*
Y31780D3*
X98992Y28581D3*
X102981Y32617D3*
X105521Y28581D3*
X111292Y28958D3*
X113141Y37090D3*
X115681Y28581D3*
X15191Y67671D3*
X95076Y52908D3*
X110315D3*
X63542Y71868D3*
X66241Y30331D3*
X74239Y80401D3*
X48518Y62629D3*
Y52879D3*
X90443Y60388D3*
X115935Y76971D3*
X86789Y66921D3*
X97572Y58696D3*
X93411Y79802D3*
X102053Y31728D3*
X86458Y63581D3*
X102942Y45679D3*
X87649Y57679D3*
Y51028D3*
Y63402D3*
X93538Y68709D3*
X103629Y64470D3*
X82235Y62513D3*
Y48856D3*
X92360Y62640D3*
X109391Y57807D3*
X96683Y62035D3*
Y59415D3*
X88665Y63402D3*
X104052Y33129D3*
X105475Y81133D3*
X89284Y70121D3*
X91633Y79802D3*
X108559Y76175D3*
X95742Y81279D3*
Y78024D3*
X94892Y74524D3*
X98189D3*
X49407Y78931D3*
X42591D3*
X78625Y93838D3*
D14*
X44272Y62629D3*
X39033D3*
X44272Y68529D3*
X39033D3*
D15*
X26991Y64110D3*
Y58872D3*
X21091Y70410D3*
Y65172D3*
D16*
X95091Y59499D3*
Y56642D3*
D17*
X15191Y80299D3*
D18*
Y77759D3*
D15*
Y65648D3*
Y70887D3*
D16*
X54175Y72404D3*
Y75262D3*
D19*
X59891Y83200D3*
Y88598D3*
D16*
X79291Y70459D3*
Y73317D3*
X21152Y19535D3*
Y22392D3*
D20*
X32410Y51650D3*
X27013D3*
D17*
X20461Y58829D3*
D18*
X17921D3*
D21*
X34329Y23663D3*
X31313D3*
D19*
X22011Y78810D3*
Y84207D3*
D22*
X41633Y39540D3*
X45783D3*
D23*
X23091Y91904D3*
Y96054D3*
X34491Y93304D3*
Y97454D3*
X28791Y94254D3*
Y90104D3*
X32891Y68504D3*
Y72654D3*
D22*
X35282Y16836D3*
X31132D3*
D24*
X101170Y59862D3*
X99583D3*
X115935Y78120D3*
X114348D3*
X51094Y60409D3*
X52681D3*
D25*
X50682Y34618D3*
D26*
X111966Y105428D3*
D27*
Y102888D3*
Y100348D3*
Y97808D3*
D26*
X61161Y57798D3*
X63701D3*
X66241D3*
X68781D3*
X75401Y111990D3*
X72861D3*
X70321D3*
X67781D3*
X61161Y111937D3*
X58621D3*
X56081D3*
X53541D3*
X78943Y26521D3*
X81483D3*
X84023D3*
X86563D3*
D29*
X69891Y70979D3*
Y72879D3*
D30*
X17741Y53529D3*
X15841D3*
D29*
X50191Y50979D3*
Y52879D3*
D31*
X97901Y15167D3*
X100441D3*
X102981D3*
X105521D3*
X108061D3*
X110601D3*
X113141D3*
X115681D3*
Y24692D3*
X113141D3*
X110601D3*
X108061D3*
X105521D3*
X102981D3*
X100441D3*
X97901D3*
D32*
X44808Y25251D3*
Y17758D3*
X59820Y25251D3*
X64798D3*
X69802D3*
X59820Y17758D3*
X64798D3*
X69802D3*
D34*
X113395Y53035D3*
X115935D3*
X118475D3*
Y62083D3*
X115935D3*
X113395D3*
D35*
X84587Y49110D3*
Y46570D3*
Y44030D3*
X93636D3*
Y46570D3*
Y49110D3*
D34*
X84009Y99525D3*
X86549D3*
X89089D3*
Y108574D3*
X86549D3*
X84009D3*
X55128Y97648D3*
X57668D3*
X60208D3*
Y106697D3*
X57668D3*
X55128D3*
D29*
X109791Y78279D3*
Y80179D3*
D30*
X87141Y81329D3*
X85241D3*
D36*
X44014Y33665D3*
X41728D3*
D30*
X85741Y60429D3*
X83841D3*
D29*
X53699Y53035D3*
Y51135D3*
X78891Y55879D3*
Y53979D3*
X72791Y79179D3*
Y77279D3*
X52588Y81771D3*
Y83671D3*
X60391Y77179D3*
Y75279D3*
D30*
X114541Y68129D3*
X116441D3*
X92041Y37529D3*
X93941D3*
X78441Y64929D3*
X80341D3*
X116441Y72629D3*
X114541D3*
D29*
X50591Y69279D3*
Y67379D3*
X79091Y80379D3*
Y78479D3*
X95591Y98479D3*
Y100379D3*
D30*
X83541Y116129D3*
X81641D3*
D29*
X86991Y85779D3*
Y87679D3*
D30*
X98941Y94029D3*
X97041D3*
X98941Y89429D3*
X97041D3*
D29*
X55491Y66979D3*
Y65079D3*
X64991Y75579D3*
Y73679D3*
D30*
X76941Y84829D3*
X75041D3*
X24327Y30331D3*
X26227D3*
X40998Y51606D3*
X42898D3*
X24645Y40016D3*
X26545D3*
D37*
X29091Y78629D3*
Y84229D3*
D38*
X99691Y48529D3*
Y51329D3*
D39*
X100491Y30129D3*
X103291D3*
D38*
X99691Y34829D3*
Y37629D3*
X107991Y30329D3*
Y33129D3*
X112891Y30629D3*
Y33429D3*
D29*
X86991Y91979D3*
Y93879D3*
X20358Y42080D3*
Y40180D3*
D38*
X121391Y22529D3*
Y25329D3*
X117791Y30029D3*
Y32829D3*
X109391Y40629D3*
Y43429D3*
D29*
X90191Y55779D3*
Y57679D3*
X99741Y53670D3*
Y55570D3*
D30*
X118541Y47529D3*
X120441D3*
D29*
X115191Y39979D3*
Y38079D3*
X78891Y47779D3*
Y49679D3*
X114091Y46179D3*
Y44279D3*
X104391Y47579D3*
Y45679D3*
X97191Y83179D3*
Y81279D3*
D30*
X93141Y33029D3*
X95041D3*
D29*
X74391Y72679D3*
Y70779D3*
X33491Y61179D3*
Y63079D3*
D40*
X101506Y79110D3*
Y84349D3*
X105475Y79110D3*
Y84349D3*
D42*
X85141Y74921D3*
Y74121D3*
Y73321D3*
Y72521D3*
Y71721D3*
Y70921D3*
Y70121D3*
Y69321D3*
Y68521D3*
Y67721D3*
Y66921D3*
D43*
X86849Y65229D3*
X87649D3*
X88449D3*
X89249D3*
X90049D3*
X90849D3*
X91649D3*
X92449D3*
X93249D3*
X94049D3*
X94849D3*
D42*
X96541Y66937D3*
Y67737D3*
Y68537D3*
Y69337D3*
Y70137D3*
Y70937D3*
Y71737D3*
Y72537D3*
Y73337D3*
Y74137D3*
Y74937D3*
D43*
X94833Y76629D3*
X94033D3*
X93233D3*
X92433D3*
X91633D3*
X90833D3*
X90033D3*
X89233D3*
X88433D3*
X87633D3*
X86833D3*
D44*
X13531Y123845D3*
D46*
X40051Y74529D3*
X42591D3*
X45131D3*
D47*
X42591Y84129D3*
D48*
X33377Y38904D3*
D49*
Y36364D3*
Y33824D3*
D50*
X101329Y71769D3*
Y66943D3*
D51*
X106568Y67324D3*
X107218D3*
X107868D3*
X108518D3*
Y72874D3*
X107868D3*
X107218D3*
X106568D3*
D44*
X12896Y13343D3*
Y48907D3*
X122445Y124321D3*
X122921Y13184D3*
X123080Y77008D3*
D52*
X43915Y116521D3*
Y94137D3*
D53*
X52111Y34618D3*
X53540D3*
M02*
