G04 DipTrace 2.4.0.2*
%INTopMask.gbr*%
%MOMM*%
%ADD67O,1.4X2.2*%
%ADD69R,5.2X5.2*%
%ADD71R,0.5X1.85*%
%ADD73C,1.419*%
%ADD75C,1.8*%
%ADD77R,1.8X1.8*%
%ADD79R,10.8X9.2*%
%ADD81R,1.65X3.2*%
%ADD83C,4.2*%
%ADD85R,0.6X2.1*%
%ADD87R,2.1X0.6*%
%ADD89R,1.2X2.85*%
%ADD91R,1.8X2.0*%
%ADD93R,2.0X1.8*%
%ADD95R,3.4X2.0*%
%ADD97R,1.724X1.622*%
%ADD99R,1.72X1.98*%
%ADD101R,1.98X1.72*%
%ADD103O,2.181X4.181*%
%ADD105R,1.2X3.2*%
%ADD107R,1.5X1.7*%
%ADD109R,1.7X1.5*%
%ADD111C,1.7*%
%ADD113R,1.7X1.7*%
%ADD115R,1.4X2.2*%
%ADD117R,1.1X1.1*%
%ADD119R,2.05X2.75*%
%ADD121R,2.75X2.05*%
%ADD123R,2.35X1.55*%
%ADD125R,3.95X2.75*%
%ADD127R,2.75X3.95*%
%ADD129R,1.724X1.724*%
%ADD131C,1.724*%
%ADD132R,1.55X2.35*%
%ADD134R,2.55X2.85*%
%ADD136R,2.85X2.55*%
%FSLAX53Y53*%
G04*
G71*
G90*
G75*
G01*
%LNTopMask*%
%LPD*%
D136*
X44272Y62629D3*
X39033D3*
X44272Y68529D3*
X39033D3*
D134*
X26991Y64110D3*
Y58872D3*
X21091Y70410D3*
Y65172D3*
D132*
X95091Y59499D3*
Y56642D3*
D131*
X15191Y80299D3*
D129*
Y77759D3*
D134*
Y65648D3*
Y70887D3*
D132*
X54175Y72404D3*
Y75262D3*
D127*
X59891Y83200D3*
Y88598D3*
D132*
X79291Y70459D3*
Y73317D3*
X21152Y19535D3*
Y22392D3*
D125*
X32410Y51650D3*
X27013D3*
D131*
X20461Y58829D3*
D129*
X17921D3*
D123*
X34329Y23663D3*
X31313D3*
D127*
X22011Y78810D3*
Y84207D3*
D121*
X41633Y39540D3*
X45783D3*
D119*
X23091Y91904D3*
Y96054D3*
X34491Y93304D3*
Y97454D3*
X28791Y94254D3*
Y90104D3*
X32891Y68504D3*
Y72654D3*
D121*
X35282Y16836D3*
X31132D3*
D117*
X101170Y59862D3*
X99583D3*
X115935Y78120D3*
X114348D3*
X51094Y60409D3*
X52681D3*
D115*
X50682Y34618D3*
D113*
X111966Y105428D3*
D111*
Y102888D3*
Y100348D3*
Y97808D3*
D113*
X61161Y57798D3*
X63701D3*
X66241D3*
X68781D3*
X75401Y111990D3*
X72861D3*
X70321D3*
X67781D3*
X61161Y111937D3*
X58621D3*
X56081D3*
X53541D3*
X78943Y26521D3*
X81483D3*
X84023D3*
X86563D3*
D109*
X69891Y70979D3*
Y72879D3*
D107*
X17741Y53529D3*
X15841D3*
D109*
X50191Y50979D3*
Y52879D3*
D105*
X97901Y15167D3*
X100441D3*
X102981D3*
X105521D3*
X108061D3*
X110601D3*
X113141D3*
X115681D3*
Y24692D3*
X113141D3*
X110601D3*
X108061D3*
X105521D3*
X102981D3*
X100441D3*
X97901D3*
D103*
X44808Y25251D3*
Y17758D3*
X59820Y25251D3*
X64798D3*
X69802D3*
X59820Y17758D3*
X64798D3*
X69802D3*
D101*
X113395Y53035D3*
X115935D3*
X118475D3*
Y62083D3*
X115935D3*
X113395D3*
D99*
X84587Y49110D3*
Y46570D3*
Y44030D3*
X93636D3*
Y46570D3*
Y49110D3*
D101*
X84009Y99525D3*
X86549D3*
X89089D3*
Y108574D3*
X86549D3*
X84009D3*
X55128Y97648D3*
X57668D3*
X60208D3*
Y106697D3*
X57668D3*
X55128D3*
D109*
X109791Y78279D3*
Y80179D3*
D107*
X87141Y81329D3*
X85241D3*
D97*
X44014Y33665D3*
X41728D3*
D107*
X85741Y60429D3*
X83841D3*
D109*
X53699Y53035D3*
Y51135D3*
X78891Y55879D3*
Y53979D3*
X72791Y79179D3*
Y77279D3*
X52588Y81771D3*
Y83671D3*
X60391Y77179D3*
Y75279D3*
D107*
X114541Y68129D3*
X116441D3*
X92041Y37529D3*
X93941D3*
X78441Y64929D3*
X80341D3*
X116441Y72629D3*
X114541D3*
D109*
X50591Y69279D3*
Y67379D3*
X79091Y80379D3*
Y78479D3*
X95591Y98479D3*
Y100379D3*
D107*
X83541Y116129D3*
X81641D3*
D109*
X86991Y85779D3*
Y87679D3*
D107*
X98941Y94029D3*
X97041D3*
X98941Y89429D3*
X97041D3*
D109*
X55491Y66979D3*
Y65079D3*
X64991Y75579D3*
Y73679D3*
D107*
X76941Y84829D3*
X75041D3*
X24327Y30331D3*
X26227D3*
X40998Y51606D3*
X42898D3*
X24645Y40016D3*
X26545D3*
D95*
X29091Y78629D3*
Y84229D3*
D93*
X99691Y48529D3*
Y51329D3*
D91*
X100491Y30129D3*
X103291D3*
D93*
X99691Y34829D3*
Y37629D3*
X107991Y30329D3*
Y33129D3*
X112891Y30629D3*
Y33429D3*
D109*
X86991Y91979D3*
Y93879D3*
X20358Y42080D3*
Y40180D3*
D93*
X121391Y22529D3*
Y25329D3*
X117791Y30029D3*
Y32829D3*
X109391Y40629D3*
Y43429D3*
D109*
X90191Y55779D3*
Y57679D3*
X99741Y53670D3*
Y55570D3*
D107*
X118541Y47529D3*
X120441D3*
D109*
X115191Y39979D3*
Y38079D3*
X78891Y47779D3*
Y49679D3*
X114091Y46179D3*
Y44279D3*
X104391Y47579D3*
Y45679D3*
X97191Y83179D3*
Y81279D3*
D107*
X93141Y33029D3*
X95041D3*
D109*
X74391Y72679D3*
Y70779D3*
X33491Y61179D3*
Y63079D3*
D89*
X101506Y79110D3*
Y84349D3*
X105475Y79110D3*
Y84349D3*
D87*
X85141Y74921D3*
Y74121D3*
Y73321D3*
Y72521D3*
Y71721D3*
Y70921D3*
Y70121D3*
Y69321D3*
Y68521D3*
Y67721D3*
Y66921D3*
D85*
X86849Y65229D3*
X87649D3*
X88449D3*
X89249D3*
X90049D3*
X90849D3*
X91649D3*
X92449D3*
X93249D3*
X94049D3*
X94849D3*
D87*
X96541Y66937D3*
Y67737D3*
Y68537D3*
Y69337D3*
Y70137D3*
Y70937D3*
Y71737D3*
Y72537D3*
Y73337D3*
Y74137D3*
Y74937D3*
D85*
X94833Y76629D3*
X94033D3*
X93233D3*
X92433D3*
X91633D3*
X90833D3*
X90033D3*
X89233D3*
X88433D3*
X87633D3*
X86833D3*
D83*
X13531Y123845D3*
D81*
X40051Y74529D3*
X42591D3*
X45131D3*
D79*
X42591Y84129D3*
D77*
X33377Y38904D3*
D75*
Y36364D3*
Y33824D3*
D73*
X101329Y71769D3*
Y66943D3*
D71*
X106568Y67324D3*
X107218D3*
X107868D3*
X108518D3*
Y72874D3*
X107868D3*
X107218D3*
X106568D3*
D83*
X12896Y13343D3*
Y48907D3*
X122445Y124321D3*
X122921Y13184D3*
X123080Y77008D3*
D69*
X43915Y116521D3*
Y94137D3*
D67*
X52111Y34618D3*
X53540D3*
M02*
