G04 DipTrace 2.4.0.2*
%INTopPaste.gbr*%
%MOMM*%
%ADD72R,0.1X1.45*%
%ADD80R,10.4X8.8*%
%ADD82R,1.25X2.8*%
%ADD86R,0.2X1.7*%
%ADD88R,1.7X0.2*%
%ADD90R,0.8X2.45*%
%ADD92R,1.4X1.6*%
%ADD94R,1.6X1.4*%
%ADD96R,3.0X1.6*%
%ADD98R,1.324X1.222*%
%ADD100R,1.32X1.58*%
%ADD102R,1.58X1.32*%
%ADD108R,1.1X1.3*%
%ADD110R,1.3X1.1*%
%ADD118R,0.7X0.7*%
%ADD120R,1.65X2.35*%
%ADD122R,2.35X1.65*%
%ADD124R,1.95X1.15*%
%ADD126R,3.55X2.35*%
%ADD128R,2.35X3.55*%
%ADD133R,1.15X1.95*%
%ADD135R,2.15X2.45*%
%ADD137R,2.45X2.15*%
%FSLAX53Y53*%
G04*
G71*
G90*
G75*
G01*
%LNTopPaste*%
%LPD*%
D137*
X44272Y62629D3*
X39033D3*
X44272Y68529D3*
X39033D3*
D135*
X26991Y64110D3*
Y58872D3*
X21091Y70410D3*
Y65172D3*
D133*
X95091Y59499D3*
Y56642D3*
D135*
X15191Y65648D3*
Y70887D3*
D133*
X54175Y72404D3*
Y75262D3*
D128*
X59891Y83200D3*
Y88598D3*
D133*
X79291Y70459D3*
Y73317D3*
X21152Y19535D3*
Y22392D3*
D126*
X32410Y51650D3*
X27013D3*
D124*
X34329Y23663D3*
X31313D3*
D128*
X22011Y78810D3*
Y84207D3*
D122*
X41633Y39540D3*
X45783D3*
D120*
X23091Y91904D3*
Y96054D3*
X34491Y93304D3*
Y97454D3*
X28791Y94254D3*
Y90104D3*
X32891Y68504D3*
Y72654D3*
D122*
X35282Y16836D3*
X31132D3*
D118*
X101170Y59862D3*
X99583D3*
X115935Y78120D3*
X114348D3*
X51094Y60409D3*
X52681D3*
D110*
X69891Y70979D3*
Y72879D3*
D108*
X17741Y53529D3*
X15841D3*
D110*
X50191Y50979D3*
Y52879D3*
D102*
X113395Y53035D3*
X115935D3*
X118475D3*
Y62083D3*
X115935D3*
X113395D3*
D100*
X84587Y49110D3*
Y46570D3*
Y44030D3*
X93636D3*
Y46570D3*
Y49110D3*
D102*
X84009Y99525D3*
X86549D3*
X89089D3*
Y108574D3*
X86549D3*
X84009D3*
X55128Y97648D3*
X57668D3*
X60208D3*
Y106697D3*
X57668D3*
X55128D3*
D110*
X109791Y78279D3*
Y80179D3*
D108*
X87141Y81329D3*
X85241D3*
D98*
X44014Y33665D3*
X41728D3*
D108*
X85741Y60429D3*
X83841D3*
D110*
X53699Y53035D3*
Y51135D3*
X78891Y55879D3*
Y53979D3*
X72791Y79179D3*
Y77279D3*
X52588Y81771D3*
Y83671D3*
X60391Y77179D3*
Y75279D3*
D108*
X114541Y68129D3*
X116441D3*
X92041Y37529D3*
X93941D3*
X78441Y64929D3*
X80341D3*
X116441Y72629D3*
X114541D3*
D110*
X50591Y69279D3*
Y67379D3*
X79091Y80379D3*
Y78479D3*
X95591Y98479D3*
Y100379D3*
D108*
X83541Y116129D3*
X81641D3*
D110*
X86991Y85779D3*
Y87679D3*
D108*
X98941Y94029D3*
X97041D3*
X98941Y89429D3*
X97041D3*
D110*
X55491Y66979D3*
Y65079D3*
X64991Y75579D3*
Y73679D3*
D108*
X76941Y84829D3*
X75041D3*
X24327Y30331D3*
X26227D3*
X40998Y51606D3*
X42898D3*
X24645Y40016D3*
X26545D3*
D96*
X29091Y78629D3*
Y84229D3*
D94*
X99691Y48529D3*
Y51329D3*
D92*
X100491Y30129D3*
X103291D3*
D94*
X99691Y34829D3*
Y37629D3*
X107991Y30329D3*
Y33129D3*
X112891Y30629D3*
Y33429D3*
D110*
X86991Y91979D3*
Y93879D3*
X20358Y42080D3*
Y40180D3*
D94*
X121391Y22529D3*
Y25329D3*
X117791Y30029D3*
Y32829D3*
X109391Y40629D3*
Y43429D3*
D110*
X90191Y55779D3*
Y57679D3*
X99741Y53670D3*
Y55570D3*
D108*
X118541Y47529D3*
X120441D3*
D110*
X115191Y39979D3*
Y38079D3*
X78891Y47779D3*
Y49679D3*
X114091Y46179D3*
Y44279D3*
X104391Y47579D3*
Y45679D3*
X97191Y83179D3*
Y81279D3*
D108*
X93141Y33029D3*
X95041D3*
D110*
X74391Y72679D3*
Y70779D3*
X33491Y61179D3*
Y63079D3*
D90*
X101506Y79110D3*
Y84349D3*
X105475Y79110D3*
Y84349D3*
D88*
X85141Y74921D3*
Y74121D3*
Y73321D3*
Y72521D3*
Y71721D3*
Y70921D3*
Y70121D3*
Y69321D3*
Y68521D3*
Y67721D3*
Y66921D3*
D86*
X86849Y65229D3*
X87649D3*
X88449D3*
X89249D3*
X90049D3*
X90849D3*
X91649D3*
X92449D3*
X93249D3*
X94049D3*
X94849D3*
D88*
X96541Y66937D3*
Y67737D3*
Y68537D3*
Y69337D3*
Y70137D3*
Y70937D3*
Y71737D3*
Y72537D3*
Y73337D3*
Y74137D3*
Y74937D3*
D86*
X94833Y76629D3*
X94033D3*
X93233D3*
X92433D3*
X91633D3*
X90833D3*
X90033D3*
X89233D3*
X88433D3*
X87633D3*
X86833D3*
D82*
X40051Y74529D3*
X42591D3*
X45131D3*
D80*
X42591Y84129D3*
D72*
X106568Y67324D3*
X107218D3*
X107868D3*
X108518D3*
Y72874D3*
X107868D3*
X107218D3*
X106568D3*
M02*
