G04 DipTrace 2.4.0.2*
%INBottom.gbr*%
%MOMM*%
%ADD13C,0.38*%
%ADD15C,0.635*%
%ADD21R,1.5X1.5*%
%ADD22C,1.5*%
%ADD26R,3.0X1.0*%
%ADD27O,1.981X3.981*%
%ADD30O,2.0X1.0*%
%ADD44R,1.6X1.6*%
%ADD45C,1.6*%
%ADD46C,1.219*%
%FSLAX53Y53*%
G04*
G71*
G90*
G75*
G01*
%LNBottom*%
%LPD*%
X59409Y90477D2*
D13*
X57279D1*
Y87937D1*
X59409D1*
X33963Y13991D2*
X34768D1*
Y20002D1*
X34349Y20421D1*
X33963D1*
X35631Y21040D2*
X34582D1*
X33963Y20421D1*
X29271Y82602D2*
X30158D1*
X30386Y82830D1*
X32802D1*
X33562Y82070D1*
Y80168D1*
X59409Y85397D2*
X57277D1*
Y82857D1*
Y80317D1*
X59409D1*
X51777Y62628D2*
X43707D1*
X42947Y61868D1*
Y49554D1*
X42187Y48794D1*
X33853D1*
X32143Y50504D1*
Y57301D1*
X31726D1*
X30406D1*
X59409Y72697D2*
X56579D1*
Y67431D1*
X51777Y62628D1*
X59409Y75237D2*
X61479D1*
Y72697D1*
X59409D1*
Y77777D2*
X57339D1*
Y75237D1*
X59409D1*
Y80317D2*
X61479D1*
Y77777D1*
X59409D1*
Y82857D2*
X57277D1*
X59409Y87937D2*
X61479D1*
Y85397D1*
X59409D1*
X33963Y20421D2*
Y20722D1*
X33646Y21040D1*
X33093D1*
Y48034D1*
X33853Y48794D1*
X32713Y71011D2*
X32903Y70821D1*
Y58061D1*
X32143Y57301D1*
X33562Y80168D2*
Y72747D1*
X32713Y71899D1*
Y71011D1*
X58994Y48304D2*
Y52128D1*
X59754Y52888D1*
X72461D1*
X30724Y42218D2*
X32044Y40898D1*
Y35918D1*
X30724Y34598D1*
X38951Y46431D2*
X41921Y43460D1*
X47631D1*
X28766Y80188D2*
Y67441D1*
X25862Y64537D1*
Y46431D1*
X28511Y86612D2*
X27479Y87645D1*
Y91049D1*
X32084Y97629D2*
Y95035D1*
X60964Y42834D2*
Y45585D1*
X57652D1*
X56857Y44790D1*
Y32530D1*
X42613Y97118D2*
X42061Y96565D1*
Y92437D1*
X39870Y65240D2*
X41299Y66669D1*
Y67970D1*
X57652Y45585D2*
X53080Y50157D1*
X48251D1*
X32084Y95035D2*
X26594D1*
X25834Y94275D1*
Y86475D1*
X26594Y85715D1*
X27306Y85002D1*
X28511D1*
X32833Y86086D2*
X35043D1*
X36221Y87264D1*
X41113D1*
X28511Y85002D2*
X31750D1*
X32833Y86086D1*
X26594Y85715D2*
X25834Y84955D1*
Y78991D1*
X26094Y78730D1*
X56857Y32530D2*
Y19480D1*
X42061Y92437D2*
X41192Y91568D1*
X32555D1*
X40028Y72337D2*
X38863Y73501D1*
Y78452D1*
X41299Y67970D2*
Y71065D1*
X40028Y72337D1*
X30322Y23495D2*
Y20002D1*
X33656Y16668D1*
X40713Y55918D2*
X35566Y61065D1*
Y74918D1*
X34577Y80168D2*
X34678Y80066D1*
Y50754D1*
X57543Y66437D2*
X70441D1*
X40284Y68858D2*
X37335Y71807D1*
Y75933D1*
X35771D1*
X40028Y74237D2*
Y73542D1*
X40345Y73225D1*
X43434D1*
X44194Y72465D1*
Y69687D1*
X25862Y71090D2*
Y66137D1*
X31986Y60654D2*
Y68730D1*
X24059Y84300D2*
Y89273D1*
X21992Y91340D1*
X30724Y37138D2*
Y39678D1*
X50724Y38620D2*
Y40146D1*
X52947D1*
X58978Y42020D2*
Y27905D1*
X59738Y27145D1*
X73143D1*
Y28215D1*
X60964Y50327D2*
X63157D1*
Y35307D1*
X67709Y30755D1*
X73143D1*
X48184Y38620D2*
X43916D1*
X39963Y42573D1*
X54063Y54254D2*
Y58501D1*
X74163Y40101D2*
Y53494D1*
X73403Y54254D1*
X59078D1*
X56086Y57246D1*
Y58501D1*
X45707D2*
Y46937D1*
X75263Y84463D2*
Y87401D1*
X63985Y69687D2*
Y87890D1*
X78672Y57619D2*
X80954Y55337D1*
Y50327D1*
X76063Y29358D2*
X78830D1*
X71573Y52000D2*
Y39155D1*
X78830Y31898D1*
X78672Y62699D2*
Y60159D1*
X85198D1*
X85958Y59399D1*
Y50327D1*
X78672Y65239D2*
X75976Y62543D1*
Y50327D1*
X47687Y76580D2*
Y75237D1*
X49884D1*
X46244Y76251D2*
Y77777D1*
X49884D1*
X53729Y90660D2*
Y81077D1*
X52969Y80317D1*
X49884D1*
X51954Y91675D2*
Y82857D1*
X49884D1*
X48578Y84055D2*
X48132D1*
X47814Y84372D1*
Y85397D1*
X49884D1*
X48978Y95218D2*
X47054Y93295D1*
Y87937D1*
X49884D1*
X48959Y91675D2*
X49567D1*
X49884Y91357D1*
Y90477D1*
X35566Y49739D2*
X41427D1*
X42187Y50499D1*
Y71787D1*
X28833Y62890D2*
Y45985D1*
X29593Y45225D1*
X27978Y43610D1*
Y35918D1*
X29593Y45225D2*
X31446D1*
X22980Y73654D2*
Y81470D1*
X26982Y76119D2*
X24974Y74111D1*
Y16666D1*
X25734Y15906D1*
X28363D1*
X32663D1*
X30171Y80168D2*
Y77519D1*
X29526Y76873D1*
Y65165D1*
X26749Y62389D1*
Y22415D1*
X28363Y20801D1*
Y17554D1*
X29123Y16794D1*
X31649D1*
X30971Y67843D2*
Y76309D1*
X41113Y74112D2*
Y79644D1*
X26153Y72105D2*
X27878Y73831D1*
Y81076D1*
X30869D1*
X31186Y80758D1*
Y80168D1*
X33659Y96741D2*
X35811Y98893D1*
X45481D1*
X46241Y98133D1*
Y82944D1*
X45481Y82184D1*
X41113D1*
Y84724D2*
X43833D1*
X44593Y85484D1*
Y88029D1*
X35474Y81943D2*
Y80041D1*
X36234Y79281D1*
X37469D1*
X33791Y65457D2*
Y69996D1*
X31859D2*
X31731Y70124D1*
Y73581D1*
X32074Y73924D1*
Y81943D1*
X23171Y85018D2*
X20052Y81899D1*
Y75242D1*
X44593Y89895D2*
X43825Y89126D1*
X38263D1*
X42433Y76287D2*
X47533Y81387D1*
X52082D1*
X52842Y82147D1*
Y97601D1*
X52519Y97924D1*
X34714Y85198D2*
X33106Y83590D1*
X27742D1*
X26982Y82830D1*
Y77843D1*
X25706D1*
X24946Y78603D1*
Y98939D1*
X25706Y99699D1*
X53857D1*
X54617Y98939D1*
Y81387D1*
X35728Y84311D2*
X39751Y80288D1*
Y78324D1*
X39878Y78196D1*
X42783Y83387D2*
X44721D1*
X45481Y84147D1*
Y90782D1*
X43193D1*
X42948Y90537D1*
X42061D1*
X35319D1*
X32643Y87861D1*
X28511Y88182D2*
Y93215D1*
X29271Y93975D1*
X37833D1*
X39711Y95854D1*
Y97245D1*
X40471Y98005D1*
X41711D1*
X30155Y91568D2*
Y92455D1*
X30915Y93215D1*
X39373D1*
X40028Y93870D1*
X40915Y94966D2*
Y93215D1*
X40155Y92455D1*
X31803D1*
X31043Y91695D1*
Y87733D1*
X31803Y86973D1*
X34155D1*
D15*
X33656Y16668D3*
X30322Y23495D3*
X33963Y20421D3*
Y13991D3*
X35631Y21040D3*
X33562Y80168D3*
X29271Y82602D3*
X51777Y62628D3*
X32713Y71011D3*
X72461Y52888D3*
X58994Y48304D3*
X47631Y43460D3*
X38951Y46431D3*
X25862D3*
X28766Y80188D3*
X27479Y91049D3*
X28511Y86612D3*
X39870Y65240D3*
X32833Y86086D3*
X56857Y19480D3*
X32084Y97629D3*
X42613Y97118D3*
X26094Y78730D3*
X56857Y32530D3*
X48251Y50157D3*
X38863Y78452D3*
X28511Y85002D3*
X32555Y91568D3*
X32084Y95035D3*
X42061Y92437D3*
X40028Y72337D3*
X41299Y67970D3*
X35566Y74918D3*
X40713Y55918D3*
X34678Y50754D3*
X34577Y80168D3*
X70441Y66437D3*
X57543D3*
X35771Y75933D3*
X40284Y68858D3*
X44194Y69687D3*
X40028Y74237D3*
X25862Y66137D3*
Y71090D3*
X31986Y68730D3*
Y60654D3*
X24059Y84300D3*
X52947Y40146D3*
X58978Y42020D3*
X63157Y35307D3*
X39963Y42573D3*
X54063Y58501D3*
Y54254D3*
X56086Y58501D3*
X74163Y40101D3*
X59078Y54254D3*
X45707Y46937D3*
Y58501D3*
X75263Y87401D3*
Y84463D3*
X63985Y87890D3*
Y69687D3*
X47687Y76580D3*
X46244Y76251D3*
X53729Y90660D3*
X51954Y91675D3*
X48578Y84055D3*
X48978Y95218D3*
X48959Y91675D3*
X27978Y35918D3*
X28833Y62890D3*
X31446Y45225D3*
X76063Y29358D3*
X71573Y52000D3*
X22980Y81470D3*
Y73654D3*
X37469Y79281D3*
X35474Y81943D3*
X32074D3*
X31859Y69996D3*
X33791D3*
Y65457D3*
X20052Y75242D3*
X23171Y85018D3*
X38263Y89126D3*
X44593Y89895D3*
X52519Y97924D3*
X42433Y76287D3*
X54617Y81387D3*
X34714Y85198D3*
X39878Y78196D3*
X35728Y84311D3*
X32643Y87861D3*
X42783Y83387D3*
X42061Y90537D3*
X41711Y98005D3*
X28511Y88182D3*
X39711Y95854D3*
X40028Y93870D3*
X30155Y91568D3*
X34155Y86973D3*
X40915Y94966D3*
X44593Y88029D3*
X31186Y80168D3*
X26153Y72105D3*
X33659Y96741D3*
X30971Y76309D3*
Y67843D3*
X41113Y74112D3*
X31649Y16794D3*
X30171Y80168D3*
X28363Y20801D3*
X32663Y15906D3*
X26982Y76119D3*
X28363Y15906D3*
X42187Y71787D3*
X35566Y49739D3*
X11492Y101612D2*
X13910D1*
X16567D2*
X86578D1*
X89960D2*
X92333D1*
X11492Y100980D2*
X12849D1*
X17629D2*
X85705D1*
X90843D2*
X92333D1*
X11492Y100348D2*
X12273D1*
X18205D2*
X25072D1*
X54489D2*
X85199D1*
X91349D2*
X92333D1*
X11492Y99717D2*
X11906D1*
X18572D2*
X24437D1*
X55124D2*
X84881D1*
X91666D2*
X92333D1*
X11492Y99085D2*
X11698D1*
X18780D2*
X24031D1*
X55531D2*
X84703D1*
X91845D2*
X92333D1*
X18869Y98453D2*
X24021D1*
X25874D2*
X31472D1*
X32700D2*
X34091D1*
X47107D2*
X51623D1*
X53417D2*
X53688D1*
X55541D2*
X84633D1*
X91904D2*
X92333D1*
X18849Y97822D2*
X24021D1*
X25874D2*
X31045D1*
X33117D2*
X33450D1*
X36024D2*
X39003D1*
X43376D2*
X45273D1*
X47166D2*
X51475D1*
X55541D2*
X84693D1*
X91855D2*
X92333D1*
X11492Y97190D2*
X11777D1*
X18701D2*
X24021D1*
X25874D2*
X31135D1*
X35389D2*
X38784D1*
X43664D2*
X45313D1*
X47166D2*
X51792D1*
X55541D2*
X84862D1*
X91686D2*
X92333D1*
X11492Y96558D2*
X12045D1*
X18433D2*
X24021D1*
X25874D2*
X31155D1*
X34764D2*
X38784D1*
X40638D2*
X41136D1*
X43495D2*
X45313D1*
X47166D2*
X51911D1*
X55541D2*
X85169D1*
X91378D2*
X92333D1*
X11492Y95927D2*
X12482D1*
X17996D2*
X24021D1*
X25874D2*
X31155D1*
X34288D2*
X38497D1*
X42989D2*
X45313D1*
X47166D2*
X48220D1*
X49736D2*
X51911D1*
X55541D2*
X85665D1*
X90882D2*
X92333D1*
X11492Y95295D2*
X13206D1*
X17272D2*
X24021D1*
X33107D2*
X37872D1*
X42989D2*
X45313D1*
X47166D2*
X47774D1*
X50024D2*
X51911D1*
X55541D2*
X86509D1*
X90039D2*
X92333D1*
X11492Y94663D2*
X24021D1*
X42989D2*
X45313D1*
X49865D2*
X51911D1*
X55541D2*
X92333D1*
X11492Y94032D2*
X24021D1*
X26876D2*
X28039D1*
X42989D2*
X45313D1*
X49071D2*
X51911D1*
X55541D2*
X92333D1*
X11492Y93400D2*
X24021D1*
X26757D2*
X27603D1*
X42989D2*
X45313D1*
X48446D2*
X51911D1*
X55541D2*
X92333D1*
X11492Y92768D2*
X24021D1*
X26757D2*
X27583D1*
X43059D2*
X45313D1*
X47980D2*
X51911D1*
X55541D2*
X92333D1*
X11492Y92137D2*
X20925D1*
X23056D2*
X24021D1*
X26757D2*
X27583D1*
X43069D2*
X45313D1*
X50391D2*
X51018D1*
X55541D2*
X92333D1*
X11492Y91505D2*
X20657D1*
X23324D2*
X24021D1*
X42463D2*
X42661D1*
X55541D2*
X57170D1*
X61642D2*
X92333D1*
X11492Y90873D2*
X20737D1*
X23741D2*
X24016D1*
X55541D2*
X56445D1*
X61642D2*
X92333D1*
X11492Y90242D2*
X21262D1*
X29436D2*
X30113D1*
X31966D2*
X33744D1*
X55541D2*
X56356D1*
X61642D2*
X92333D1*
X11492Y89610D2*
X22443D1*
X29436D2*
X30113D1*
X31966D2*
X33109D1*
X35677D2*
X37336D1*
X55541D2*
X56356D1*
X61642D2*
X92333D1*
X11492Y88978D2*
X23068D1*
X29436D2*
X30113D1*
X31966D2*
X32474D1*
X35042D2*
X37217D1*
X55541D2*
X56356D1*
X61642D2*
X92333D1*
X11492Y88347D2*
X23128D1*
X29555D2*
X30113D1*
X34417D2*
X37594D1*
X55541D2*
X56356D1*
X62297D2*
X63043D1*
X64927D2*
X74910D1*
X75618D2*
X92333D1*
X11492Y87715D2*
X21481D1*
X22501D2*
X23128D1*
X29446D2*
X30113D1*
X34873D2*
X35391D1*
X42602D2*
X43587D1*
X55541D2*
X56386D1*
X62406D2*
X62944D1*
X65026D2*
X74265D1*
X76267D2*
X92333D1*
X11492Y87083D2*
X20776D1*
X29446D2*
X30410D1*
X42602D2*
X43666D1*
X55541D2*
X57090D1*
X62406D2*
X63063D1*
X64907D2*
X74265D1*
X76267D2*
X92333D1*
X11492Y86452D2*
X20647D1*
X29555D2*
X31045D1*
X42602D2*
X43666D1*
X47166D2*
X47645D1*
X55541D2*
X57170D1*
X62406D2*
X63063D1*
X64907D2*
X74335D1*
X76188D2*
X92333D1*
X11492Y85820D2*
X20846D1*
X36064D2*
X40144D1*
X42086D2*
X43646D1*
X55541D2*
X56465D1*
X62406D2*
X63063D1*
X64907D2*
X74335D1*
X76188D2*
X92333D1*
X11492Y85188D2*
X22056D1*
X36252D2*
X39707D1*
X55541D2*
X56346D1*
X62377D2*
X63063D1*
X64907D2*
X74335D1*
X76188D2*
X92333D1*
X11492Y84557D2*
X21431D1*
X36768D2*
X39638D1*
X55541D2*
X56346D1*
X61742D2*
X63063D1*
X64907D2*
X74215D1*
X76317D2*
X92333D1*
X11492Y83925D2*
X20796D1*
X37393D2*
X39876D1*
X55541D2*
X56346D1*
X61642D2*
X63063D1*
X64907D2*
X74364D1*
X76158D2*
X92333D1*
X11492Y83293D2*
X20161D1*
X22729D2*
X24021D1*
X34089D2*
X35461D1*
X38028D2*
X40164D1*
X47166D2*
X47645D1*
X55541D2*
X56346D1*
X61642D2*
X63063D1*
X64907D2*
X92333D1*
X11492Y82662D2*
X19536D1*
X22094D2*
X24021D1*
X34248D2*
X34726D1*
X38663D2*
X39707D1*
X47117D2*
X47645D1*
X55541D2*
X56346D1*
X61642D2*
X63063D1*
X64907D2*
X92333D1*
X11492Y82030D2*
X19139D1*
X21469D2*
X22096D1*
X36520D2*
X36725D1*
X39288D2*
X39638D1*
X46611D2*
X46891D1*
X55541D2*
X56346D1*
X61642D2*
X63063D1*
X64907D2*
X92333D1*
X11492Y81398D2*
X19129D1*
X20983D2*
X21927D1*
X36401D2*
X37356D1*
X45896D2*
X46266D1*
X55670D2*
X56346D1*
X61642D2*
X63063D1*
X64907D2*
X92333D1*
X11492Y80767D2*
X19129D1*
X20983D2*
X22056D1*
X36401D2*
X37991D1*
X42047D2*
X45631D1*
X55451D2*
X56346D1*
X62277D2*
X63063D1*
X64907D2*
X92333D1*
X11492Y80135D2*
X19129D1*
X20983D2*
X22056D1*
X38028D2*
X38616D1*
X42513D2*
X44996D1*
X54072D2*
X56366D1*
X62406D2*
X63063D1*
X64907D2*
X92333D1*
X11492Y79503D2*
X19129D1*
X20983D2*
X22056D1*
X38495D2*
X38823D1*
X42592D2*
X44370D1*
X46928D2*
X47645D1*
X53318D2*
X56932D1*
X62406D2*
X63063D1*
X64907D2*
X92333D1*
X11492Y78872D2*
X19129D1*
X20983D2*
X22056D1*
X42374D2*
X43735D1*
X46303D2*
X47645D1*
X52117D2*
X57170D1*
X62406D2*
X63063D1*
X64907D2*
X92333D1*
X11492Y78240D2*
X19129D1*
X20983D2*
X22056D1*
X35607D2*
X37832D1*
X42037D2*
X43100D1*
X52117D2*
X56545D1*
X62406D2*
X63063D1*
X64907D2*
X92333D1*
X11492Y77608D2*
X19129D1*
X20983D2*
X22056D1*
X23910D2*
X24656D1*
X35607D2*
X37941D1*
X42037D2*
X42471D1*
X45033D2*
X45318D1*
X52117D2*
X56416D1*
X62387D2*
X63063D1*
X64907D2*
X92333D1*
X11492Y76977D2*
X19129D1*
X20983D2*
X22056D1*
X23910D2*
X26422D1*
X35607D2*
X37941D1*
X39785D2*
X40192D1*
X44408D2*
X45323D1*
X52117D2*
X56416D1*
X61861D2*
X63063D1*
X64907D2*
X92333D1*
X11492Y76345D2*
X19129D1*
X20983D2*
X22056D1*
X23910D2*
X25926D1*
X39785D2*
X40192D1*
X43773D2*
X45194D1*
X52117D2*
X56416D1*
X61642D2*
X63063D1*
X64907D2*
X92333D1*
X11492Y75713D2*
X19119D1*
X20983D2*
X22056D1*
X23910D2*
X25291D1*
X39785D2*
X40192D1*
X43307D2*
X45353D1*
X52117D2*
X56416D1*
X62258D2*
X63063D1*
X64907D2*
X92333D1*
X11492Y75082D2*
X19010D1*
X21092D2*
X22056D1*
X23910D2*
X24666D1*
X42037D2*
X46772D1*
X52117D2*
X56426D1*
X62406D2*
X63063D1*
X64907D2*
X92333D1*
X11492Y74450D2*
X19397D1*
X20715D2*
X22056D1*
X23910D2*
X24111D1*
X26598D2*
X26948D1*
X42106D2*
X47268D1*
X52117D2*
X56922D1*
X62406D2*
X63063D1*
X64907D2*
X92333D1*
X11492Y73818D2*
X21937D1*
X25963D2*
X26581D1*
X44120D2*
X47645D1*
X52117D2*
X57170D1*
X62406D2*
X63063D1*
X64907D2*
X92333D1*
X11492Y73187D2*
X22046D1*
X44755D2*
X47645D1*
X52117D2*
X55810D1*
X62406D2*
X63063D1*
X64907D2*
X92333D1*
X11492Y72555D2*
X24050D1*
X38257D2*
X38527D1*
X45113D2*
X47645D1*
X52117D2*
X55652D1*
X62397D2*
X63063D1*
X64907D2*
X92333D1*
X11492Y71923D2*
X24050D1*
X27253D2*
X27841D1*
X38505D2*
X39062D1*
X45123D2*
X47645D1*
X52117D2*
X55652D1*
X61920D2*
X63063D1*
X64907D2*
X92333D1*
X11492Y71292D2*
X24050D1*
X26896D2*
X27841D1*
X39130D2*
X39787D1*
X45123D2*
X55652D1*
X57505D2*
X63063D1*
X64907D2*
X92333D1*
X11492Y70660D2*
X24050D1*
X26817D2*
X27841D1*
X36491D2*
X37197D1*
X39765D2*
X40372D1*
X45123D2*
X55652D1*
X57505D2*
X63063D1*
X64907D2*
X92333D1*
X11492Y70028D2*
X24050D1*
X26787D2*
X27841D1*
X36491D2*
X37832D1*
X45192D2*
X55652D1*
X57505D2*
X62994D1*
X64976D2*
X92333D1*
X11492Y69397D2*
X24050D1*
X26787D2*
X27841D1*
X36491D2*
X38467D1*
X45202D2*
X55652D1*
X57505D2*
X62974D1*
X64996D2*
X92333D1*
X11492Y68765D2*
X24050D1*
X26787D2*
X27841D1*
X36491D2*
X39092D1*
X43108D2*
X43765D1*
X44617D2*
X55652D1*
X57505D2*
X63559D1*
X64411D2*
X92333D1*
X11492Y68133D2*
X24050D1*
X26787D2*
X27841D1*
X36491D2*
X39548D1*
X43108D2*
X55652D1*
X57505D2*
X92333D1*
X11492Y67502D2*
X24050D1*
X26787D2*
X27543D1*
X36491D2*
X40362D1*
X43108D2*
X55364D1*
X57505D2*
X92333D1*
X11492Y66870D2*
X24050D1*
X30448D2*
X30726D1*
X36491D2*
X40213D1*
X43108D2*
X54739D1*
X71396D2*
X92333D1*
X11492Y66238D2*
X24050D1*
X30448D2*
X31065D1*
X36491D2*
X39588D1*
X43108D2*
X54104D1*
X71475D2*
X77182D1*
X80157D2*
X92333D1*
X11492Y65607D2*
X24050D1*
X28216D2*
X28605D1*
X30448D2*
X31065D1*
X36491D2*
X38884D1*
X43108D2*
X53469D1*
X56037D2*
X56941D1*
X71048D2*
X77182D1*
X80157D2*
X92333D1*
X11492Y64975D2*
X24050D1*
X27581D2*
X28049D1*
X30428D2*
X31065D1*
X36491D2*
X38854D1*
X40886D2*
X41265D1*
X43108D2*
X52844D1*
X55412D2*
X77123D1*
X80157D2*
X92333D1*
X11492Y64343D2*
X24050D1*
X26956D2*
X27424D1*
X29992D2*
X31065D1*
X36491D2*
X39390D1*
X40350D2*
X41265D1*
X43108D2*
X52209D1*
X54777D2*
X76498D1*
X80157D2*
X92333D1*
X11492Y63712D2*
X24050D1*
X29446D2*
X31065D1*
X36491D2*
X41265D1*
X43108D2*
X51574D1*
X54142D2*
X75863D1*
X80157D2*
X92333D1*
X11492Y63080D2*
X24050D1*
X29873D2*
X31065D1*
X36491D2*
X41265D1*
X53516D2*
X75237D1*
X80157D2*
X92333D1*
X11492Y62448D2*
X24050D1*
X29783D2*
X31065D1*
X36491D2*
X41265D1*
X52881D2*
X75049D1*
X80157D2*
X92333D1*
X11492Y61817D2*
X24050D1*
X27680D2*
X27910D1*
X29763D2*
X31065D1*
X36491D2*
X41265D1*
X52405D2*
X75049D1*
X76902D2*
X77179D1*
X80157D2*
X92333D1*
X11492Y61185D2*
X24050D1*
X27680D2*
X27910D1*
X29763D2*
X31065D1*
X36729D2*
X41265D1*
X43872D2*
X75049D1*
X76902D2*
X77179D1*
X80157D2*
X92333D1*
X11492Y60553D2*
X24050D1*
X27680D2*
X27910D1*
X29763D2*
X30936D1*
X37364D2*
X41265D1*
X43872D2*
X75049D1*
X76902D2*
X77179D1*
X86090D2*
X92333D1*
X11492Y59922D2*
X24050D1*
X27680D2*
X27910D1*
X29763D2*
X31254D1*
X37989D2*
X41265D1*
X43872D2*
X75049D1*
X76902D2*
X77179D1*
X86705D2*
X92333D1*
X11492Y59290D2*
X24050D1*
X27680D2*
X27910D1*
X29763D2*
X31978D1*
X35607D2*
X36056D1*
X38624D2*
X41265D1*
X43872D2*
X45045D1*
X46373D2*
X53399D1*
X54727D2*
X55423D1*
X56751D2*
X75049D1*
X76902D2*
X77179D1*
X80157D2*
X84782D1*
X86884D2*
X92333D1*
X11492Y58658D2*
X24050D1*
X27680D2*
X27910D1*
X35607D2*
X36691D1*
X39259D2*
X41265D1*
X43872D2*
X44668D1*
X46750D2*
X53022D1*
X57128D2*
X75049D1*
X76902D2*
X77179D1*
X80157D2*
X85030D1*
X86884D2*
X92333D1*
X11492Y58027D2*
X24050D1*
X27680D2*
X27910D1*
X35607D2*
X37326D1*
X39884D2*
X41265D1*
X43872D2*
X44777D1*
X46641D2*
X53131D1*
X57019D2*
X75049D1*
X76902D2*
X77179D1*
X80157D2*
X85030D1*
X86884D2*
X92333D1*
X11492Y57395D2*
X24050D1*
X27680D2*
X27910D1*
X33524D2*
X33756D1*
X35607D2*
X37951D1*
X40519D2*
X41265D1*
X43872D2*
X44777D1*
X46631D2*
X53141D1*
X57217D2*
X75049D1*
X76902D2*
X77179D1*
X80177D2*
X85030D1*
X86884D2*
X92333D1*
X11492Y56763D2*
X24050D1*
X27680D2*
X27910D1*
X33067D2*
X33754D1*
X35607D2*
X38586D1*
X43872D2*
X44777D1*
X46631D2*
X53141D1*
X54985D2*
X55304D1*
X57852D2*
X75049D1*
X76902D2*
X77179D1*
X80812D2*
X85030D1*
X86884D2*
X92333D1*
X11492Y56132D2*
X24050D1*
X27680D2*
X27910D1*
X33067D2*
X33754D1*
X35607D2*
X39221D1*
X43872D2*
X44777D1*
X46631D2*
X53141D1*
X54985D2*
X55920D1*
X58487D2*
X75049D1*
X76902D2*
X78879D1*
X81447D2*
X85030D1*
X86884D2*
X92333D1*
X11492Y55500D2*
X24050D1*
X27680D2*
X27910D1*
X33067D2*
X33754D1*
X35607D2*
X39757D1*
X43872D2*
X44777D1*
X46631D2*
X53141D1*
X54985D2*
X56545D1*
X59112D2*
X75049D1*
X76902D2*
X79504D1*
X81863D2*
X85030D1*
X86884D2*
X92333D1*
X11492Y54868D2*
X24050D1*
X27680D2*
X27910D1*
X33067D2*
X33754D1*
X35607D2*
X41265D1*
X43872D2*
X44777D1*
X46631D2*
X53141D1*
X54985D2*
X57180D1*
X74075D2*
X75049D1*
X76902D2*
X80030D1*
X81883D2*
X85030D1*
X86884D2*
X92333D1*
X11492Y54237D2*
X24050D1*
X27680D2*
X27910D1*
X33067D2*
X33754D1*
X35607D2*
X41265D1*
X43872D2*
X44777D1*
X46631D2*
X53012D1*
X55114D2*
X57815D1*
X74700D2*
X75059D1*
X76902D2*
X80030D1*
X81883D2*
X85030D1*
X86884D2*
X92333D1*
X11492Y53605D2*
X24050D1*
X27680D2*
X27910D1*
X33067D2*
X33754D1*
X35607D2*
X41265D1*
X43872D2*
X44777D1*
X46631D2*
X53251D1*
X54876D2*
X58271D1*
X76902D2*
X80030D1*
X81883D2*
X85030D1*
X86884D2*
X92333D1*
X11492Y52973D2*
X24050D1*
X27680D2*
X27910D1*
X33067D2*
X33754D1*
X35607D2*
X41265D1*
X43872D2*
X44777D1*
X46631D2*
X58559D1*
X76902D2*
X80030D1*
X81883D2*
X85030D1*
X86884D2*
X92333D1*
X11492Y52342D2*
X24050D1*
X27680D2*
X27910D1*
X33067D2*
X33754D1*
X35607D2*
X41265D1*
X43872D2*
X44777D1*
X46631D2*
X58092D1*
X77359D2*
X79573D1*
X82340D2*
X84574D1*
X87340D2*
X92333D1*
X11492Y51710D2*
X24050D1*
X27680D2*
X27910D1*
X33067D2*
X33754D1*
X35607D2*
X41265D1*
X43872D2*
X44777D1*
X46631D2*
X58073D1*
X62645D2*
X70564D1*
X72586D2*
X73233D1*
X77656D2*
X79276D1*
X82637D2*
X84276D1*
X87638D2*
X92333D1*
X11492Y51078D2*
X24050D1*
X27680D2*
X27910D1*
X33067D2*
X33675D1*
X35677D2*
X41265D1*
X43872D2*
X44777D1*
X46631D2*
X47823D1*
X48675D2*
X58073D1*
X63647D2*
X70644D1*
X72497D2*
X73233D1*
X77706D2*
X79226D1*
X82677D2*
X84227D1*
X87687D2*
X92333D1*
X11492Y50447D2*
X24050D1*
X27680D2*
X27910D1*
X33484D2*
X33676D1*
X43872D2*
X44777D1*
X46631D2*
X47238D1*
X54072D2*
X58073D1*
X64073D2*
X70644D1*
X72497D2*
X73233D1*
X77706D2*
X79226D1*
X82677D2*
X84227D1*
X87687D2*
X92333D1*
X11492Y49815D2*
X24050D1*
X27680D2*
X27910D1*
X43872D2*
X44777D1*
X46631D2*
X47258D1*
X54707D2*
X58073D1*
X64083D2*
X70644D1*
X72497D2*
X73233D1*
X77706D2*
X79226D1*
X82677D2*
X84227D1*
X87687D2*
X92333D1*
X11492Y49183D2*
X24050D1*
X27680D2*
X27910D1*
X31897D2*
X32174D1*
X43793D2*
X44777D1*
X46631D2*
X48002D1*
X48504D2*
X52774D1*
X55332D2*
X58073D1*
X64083D2*
X70644D1*
X72497D2*
X73233D1*
X77696D2*
X79236D1*
X82677D2*
X84237D1*
X87677D2*
X92333D1*
X11492Y48552D2*
X24050D1*
X27680D2*
X27910D1*
X31897D2*
X32345D1*
X43227D2*
X44777D1*
X46631D2*
X53399D1*
X55967D2*
X57973D1*
X64083D2*
X70644D1*
X72497D2*
X73233D1*
X77508D2*
X79415D1*
X82488D2*
X84425D1*
X87489D2*
X92333D1*
X11492Y47920D2*
X24050D1*
X27680D2*
X27910D1*
X29763D2*
X32167D1*
X34268D2*
X44777D1*
X46631D2*
X54034D1*
X56602D2*
X58023D1*
X61910D2*
X62230D1*
X64083D2*
X70644D1*
X72497D2*
X73233D1*
X76922D2*
X80000D1*
X81903D2*
X85010D1*
X86904D2*
X92333D1*
X11492Y47288D2*
X24050D1*
X27680D2*
X27910D1*
X29763D2*
X32167D1*
X34020D2*
X38398D1*
X39507D2*
X44718D1*
X46700D2*
X54669D1*
X57227D2*
X62230D1*
X64083D2*
X70644D1*
X72497D2*
X73233D1*
X75087D2*
X92333D1*
X11492Y46657D2*
X24050D1*
X27680D2*
X27910D1*
X29763D2*
X32167D1*
X34020D2*
X37921D1*
X40013D2*
X44698D1*
X46720D2*
X55294D1*
X57862D2*
X62230D1*
X64083D2*
X70644D1*
X72497D2*
X73233D1*
X75087D2*
X92333D1*
X11492Y46025D2*
X24050D1*
X27680D2*
X27910D1*
X34020D2*
X37981D1*
X40638D2*
X45254D1*
X46154D2*
X55929D1*
X61771D2*
X62230D1*
X64083D2*
X70644D1*
X72497D2*
X73233D1*
X75087D2*
X92333D1*
X11492Y45393D2*
X24050D1*
X27680D2*
X28138D1*
X34020D2*
X38705D1*
X41273D2*
X56178D1*
X61891D2*
X62230D1*
X64083D2*
X70644D1*
X72497D2*
X73233D1*
X75087D2*
X75340D1*
X76615D2*
X80308D1*
X81595D2*
X85318D1*
X86596D2*
X92333D1*
X11492Y44762D2*
X24050D1*
X34020D2*
X39340D1*
X41908D2*
X55929D1*
X64083D2*
X70644D1*
X72497D2*
X73233D1*
X77418D2*
X79514D1*
X82399D2*
X84514D1*
X87400D2*
X92333D1*
X11492Y44130D2*
X24050D1*
X29783D2*
X32167D1*
X34020D2*
X39965D1*
X48427D2*
X55929D1*
X57783D2*
X59263D1*
X64083D2*
X70644D1*
X72497D2*
X73233D1*
X77676D2*
X79256D1*
X82657D2*
X84256D1*
X87658D2*
X92333D1*
X11492Y43498D2*
X24050D1*
X34020D2*
X39548D1*
X40380D2*
X40600D1*
X48685D2*
X55929D1*
X57783D2*
X59233D1*
X64083D2*
X70644D1*
X72497D2*
X73233D1*
X77706D2*
X79226D1*
X82677D2*
X84227D1*
X87687D2*
X92333D1*
X11492Y42867D2*
X24050D1*
X28900D2*
X29240D1*
X34020D2*
X38953D1*
X40975D2*
X41235D1*
X48486D2*
X55929D1*
X57783D2*
X58400D1*
X64083D2*
X70644D1*
X72497D2*
X73233D1*
X77706D2*
X79226D1*
X82677D2*
X84227D1*
X87687D2*
X92333D1*
X11492Y42235D2*
X24050D1*
X28900D2*
X29240D1*
X34020D2*
X38973D1*
X41580D2*
X55929D1*
X64083D2*
X70644D1*
X72497D2*
X73233D1*
X77706D2*
X79226D1*
X82677D2*
X84227D1*
X87687D2*
X92333D1*
X11492Y41603D2*
X24050D1*
X28900D2*
X29240D1*
X34020D2*
X39648D1*
X42215D2*
X55929D1*
X57783D2*
X58020D1*
X64083D2*
X70644D1*
X72497D2*
X73233D1*
X77686D2*
X79246D1*
X82667D2*
X84246D1*
X87668D2*
X92333D1*
X11492Y40972D2*
X24050D1*
X28900D2*
X29240D1*
X34020D2*
X40283D1*
X42850D2*
X50413D1*
X53556D2*
X55929D1*
X57783D2*
X58053D1*
X64083D2*
X70644D1*
X72497D2*
X73233D1*
X77458D2*
X79464D1*
X82439D2*
X84475D1*
X87439D2*
X92333D1*
X11492Y40340D2*
X24050D1*
X28900D2*
X29240D1*
X34020D2*
X40918D1*
X43476D2*
X49818D1*
X53983D2*
X55929D1*
X57783D2*
X58053D1*
X59906D2*
X60178D1*
X61762D2*
X62230D1*
X64083D2*
X70644D1*
X72497D2*
X73144D1*
X76773D2*
X80159D1*
X81744D2*
X85159D1*
X86755D2*
X92333D1*
X11492Y39708D2*
X24050D1*
X28900D2*
X29240D1*
X34020D2*
X41543D1*
X44111D2*
X47129D1*
X49240D2*
X49669D1*
X54796D2*
X55929D1*
X57783D2*
X58053D1*
X59906D2*
X62230D1*
X64083D2*
X70644D1*
X72497D2*
X73194D1*
X75136D2*
X92333D1*
X11492Y39077D2*
X24050D1*
X28900D2*
X29240D1*
X34020D2*
X42178D1*
X54796D2*
X55929D1*
X57783D2*
X58053D1*
X59906D2*
X62230D1*
X64083D2*
X70654D1*
X72934D2*
X92333D1*
X11492Y38445D2*
X24050D1*
X28900D2*
X29240D1*
X34020D2*
X42813D1*
X54796D2*
X55929D1*
X57783D2*
X58053D1*
X59906D2*
X62230D1*
X64083D2*
X71001D1*
X73569D2*
X92333D1*
X11492Y37813D2*
X24050D1*
X28900D2*
X29240D1*
X34020D2*
X43547D1*
X54796D2*
X55929D1*
X57783D2*
X58053D1*
X59906D2*
X62230D1*
X64083D2*
X71636D1*
X74194D2*
X92333D1*
X11492Y37182D2*
X24050D1*
X28900D2*
X29240D1*
X34020D2*
X47803D1*
X48565D2*
X50343D1*
X51105D2*
X51733D1*
X54796D2*
X55929D1*
X57783D2*
X58053D1*
X59906D2*
X62230D1*
X64083D2*
X72261D1*
X74829D2*
X92333D1*
X11492Y36550D2*
X24050D1*
X28900D2*
X29240D1*
X34020D2*
X55929D1*
X57783D2*
X58053D1*
X59906D2*
X62230D1*
X64083D2*
X72896D1*
X75464D2*
X92333D1*
X11492Y35918D2*
X24050D1*
X29029D2*
X29244D1*
X34020D2*
X55929D1*
X57783D2*
X58053D1*
X59906D2*
X62230D1*
X64083D2*
X73531D1*
X76089D2*
X92333D1*
X11492Y35287D2*
X24050D1*
X28801D2*
X29240D1*
X34020D2*
X55929D1*
X57783D2*
X58053D1*
X59906D2*
X62101D1*
X64460D2*
X74156D1*
X76724D2*
X77341D1*
X80315D2*
X92333D1*
X11492Y34655D2*
X24050D1*
X27680D2*
X29240D1*
X34020D2*
X55929D1*
X57783D2*
X58053D1*
X59906D2*
X62349D1*
X65095D2*
X74791D1*
X80315D2*
X92333D1*
X11492Y34023D2*
X24050D1*
X27680D2*
X29240D1*
X34020D2*
X55929D1*
X57783D2*
X58053D1*
X59906D2*
X63163D1*
X65720D2*
X75426D1*
X80315D2*
X92333D1*
X11492Y33392D2*
X24050D1*
X27680D2*
X29240D1*
X34020D2*
X55929D1*
X57783D2*
X58053D1*
X59906D2*
X63788D1*
X66355D2*
X76051D1*
X80315D2*
X92333D1*
X11492Y32760D2*
X24050D1*
X27680D2*
X32167D1*
X34020D2*
X55830D1*
X59906D2*
X64423D1*
X66990D2*
X76686D1*
X80315D2*
X92333D1*
X11492Y32128D2*
X24050D1*
X27680D2*
X32167D1*
X34020D2*
X55890D1*
X57823D2*
X58053D1*
X59906D2*
X65048D1*
X67615D2*
X77321D1*
X80315D2*
X92333D1*
X11492Y31497D2*
X24050D1*
X27680D2*
X32167D1*
X34020D2*
X55929D1*
X57783D2*
X58053D1*
X59906D2*
X65683D1*
X74670D2*
X77341D1*
X80315D2*
X92333D1*
X11492Y30865D2*
X24050D1*
X27680D2*
X32167D1*
X34020D2*
X55929D1*
X57783D2*
X58053D1*
X59906D2*
X66318D1*
X74878D2*
X77341D1*
X80315D2*
X92333D1*
X11492Y30233D2*
X24050D1*
X27680D2*
X32167D1*
X34020D2*
X55929D1*
X57783D2*
X58053D1*
X59906D2*
X66943D1*
X74819D2*
X75535D1*
X76585D2*
X77341D1*
X80315D2*
X92333D1*
X11492Y29602D2*
X24050D1*
X27680D2*
X32167D1*
X34020D2*
X55929D1*
X57783D2*
X58053D1*
X59906D2*
X71418D1*
X80315D2*
X92333D1*
X11492Y28970D2*
X24050D1*
X27680D2*
X32167D1*
X34020D2*
X55929D1*
X57783D2*
X58053D1*
X59906D2*
X71527D1*
X74759D2*
X75088D1*
X80315D2*
X92333D1*
X11492Y28338D2*
X24050D1*
X27680D2*
X32167D1*
X34020D2*
X55929D1*
X57783D2*
X58053D1*
X59906D2*
X71418D1*
X74868D2*
X77341D1*
X80315D2*
X92333D1*
X11492Y27707D2*
X24050D1*
X27680D2*
X32167D1*
X34020D2*
X55929D1*
X57783D2*
X58073D1*
X74759D2*
X77341D1*
X80315D2*
X92333D1*
X11492Y27075D2*
X24050D1*
X27680D2*
X32167D1*
X34020D2*
X55929D1*
X57783D2*
X58529D1*
X74065D2*
X77341D1*
X80315D2*
X92333D1*
X11492Y26443D2*
X24050D1*
X27680D2*
X32167D1*
X34020D2*
X55929D1*
X57783D2*
X59174D1*
X73707D2*
X77341D1*
X80315D2*
X92333D1*
X11492Y25812D2*
X24050D1*
X27680D2*
X32167D1*
X34020D2*
X55929D1*
X57783D2*
X77341D1*
X80315D2*
X92333D1*
X11492Y25180D2*
X24050D1*
X27680D2*
X32167D1*
X34020D2*
X55929D1*
X57783D2*
X92333D1*
X11492Y24548D2*
X24050D1*
X27680D2*
X32167D1*
X34020D2*
X55929D1*
X57783D2*
X92333D1*
X11492Y23917D2*
X24050D1*
X27680D2*
X29359D1*
X31282D2*
X32167D1*
X34020D2*
X55929D1*
X57783D2*
X92333D1*
X11492Y23285D2*
X24050D1*
X27680D2*
X29289D1*
X31351D2*
X32167D1*
X34020D2*
X55929D1*
X57783D2*
X92333D1*
X11492Y22653D2*
X24050D1*
X27799D2*
X29398D1*
X31252D2*
X32167D1*
X34020D2*
X55929D1*
X57783D2*
X92333D1*
X11492Y22022D2*
X24050D1*
X28424D2*
X29398D1*
X31252D2*
X32167D1*
X34020D2*
X35441D1*
X35818D2*
X55929D1*
X57783D2*
X92333D1*
X11492Y21390D2*
X24050D1*
X25904D2*
X26491D1*
X31252D2*
X32167D1*
X36620D2*
X55929D1*
X57783D2*
X92333D1*
X11492Y20758D2*
X24050D1*
X25904D2*
X27126D1*
X31252D2*
X32216D1*
X36639D2*
X55929D1*
X57783D2*
X92333D1*
X11492Y20127D2*
X24050D1*
X25904D2*
X27434D1*
X31480D2*
X32950D1*
X36074D2*
X55929D1*
X57783D2*
X92333D1*
X11492Y19495D2*
X24050D1*
X25904D2*
X27434D1*
X29287D2*
X29558D1*
X32115D2*
X33546D1*
X35697D2*
X55800D1*
X57912D2*
X92333D1*
X11492Y18863D2*
X14317D1*
X16161D2*
X24050D1*
X25904D2*
X27434D1*
X29287D2*
X30182D1*
X32740D2*
X33843D1*
X35697D2*
X56019D1*
X57694D2*
X86707D1*
X89523D2*
X92333D1*
X11492Y18232D2*
X13007D1*
X17470D2*
X24050D1*
X25904D2*
X27434D1*
X29287D2*
X30807D1*
X33375D2*
X33843D1*
X35697D2*
X85685D1*
X90545D2*
X92333D1*
X11492Y17600D2*
X12363D1*
X18115D2*
X24050D1*
X25904D2*
X27434D1*
X35697D2*
X85120D1*
X91101D2*
X92333D1*
X11492Y16968D2*
X11966D1*
X18512D2*
X24050D1*
X25953D2*
X27662D1*
X35697D2*
X84772D1*
X91458D2*
X92333D1*
X11492Y16337D2*
X11728D1*
X18750D2*
X24110D1*
X35697D2*
X84564D1*
X91656D2*
X92333D1*
X18859Y15705D2*
X24656D1*
X35697D2*
X84485D1*
X91745D2*
X92333D1*
X18859Y15073D2*
X25449D1*
X33266D2*
X33843D1*
X35697D2*
X84514D1*
X91716D2*
X92333D1*
X11492Y14442D2*
X11737D1*
X18740D2*
X33020D1*
X35697D2*
X84653D1*
X91567D2*
X92333D1*
X11492Y13810D2*
X11976D1*
X18502D2*
X32931D1*
X35677D2*
X84931D1*
X91289D2*
X92333D1*
X11492Y13178D2*
X12382D1*
X18095D2*
X33337D1*
X35121D2*
X85388D1*
X90843D2*
X92333D1*
X11492Y12547D2*
X13027D1*
X17450D2*
X86132D1*
X90098D2*
X92333D1*
X11492Y11915D2*
X14387D1*
X16091D2*
X92333D1*
X85792Y11283D2*
X92333D1*
X42536Y88260D2*
Y85841D1*
X41991D1*
X42236Y85588D1*
X43485Y85587D1*
X43735Y85846D1*
X43730Y87538D1*
X43635Y87778D1*
X43605Y88093D1*
X43642Y88257D1*
X42545Y88263D1*
X40225Y85841D2*
X39691D1*
Y86406D1*
X36579Y86401D1*
X35662Y85484D1*
X35694Y85299D1*
X35824Y85296D1*
X36129Y85216D1*
X36394Y85044D1*
X36591Y84796D1*
X36670Y84583D1*
X40367Y80890D1*
X40475Y80914D1*
X40240Y81060D1*
X40013Y81281D1*
X39841Y81547D1*
X39732Y81844D1*
X39691Y82159D1*
X39720Y82474D1*
X39819Y82775D1*
X39982Y83047D1*
X40201Y83276D1*
X40475Y83454D1*
X40240Y83600D1*
X40013Y83821D1*
X39841Y84087D1*
X39732Y84384D1*
X39691Y84699D1*
X39720Y85014D1*
X39819Y85315D1*
X39982Y85587D1*
X40243Y85843D1*
X42245Y81326D2*
X42006Y81076D1*
X41747Y80911D1*
X41966Y80783D1*
X42197Y80566D1*
X42374Y80303D1*
X42489Y80007D1*
X42536Y79644D1*
X42501Y79329D1*
X42397Y79030D1*
X42229Y78761D1*
X41981Y78520D1*
X41976Y77173D1*
X42272Y77346D1*
X46923Y81997D1*
X47184Y82176D1*
X47533Y82250D1*
X47702D1*
X47711Y83301D1*
X47522Y83444D1*
X47104Y83845D1*
Y82944D1*
X47046Y82633D1*
X46851Y82334D1*
X46091Y81574D1*
X45831Y81395D1*
X45481Y81321D1*
X42236D1*
X29688Y58724D2*
X31829D1*
Y58198D1*
X32045Y58424D1*
X32041Y59659D1*
X31644Y59725D1*
X31369Y59880D1*
X31156Y60114D1*
X31028Y60403D1*
X30998Y60718D1*
X31068Y61026D1*
X31125Y61119D1*
X31124Y66856D1*
X30940Y66853D1*
X30629Y66913D1*
X30389Y67031D1*
Y65165D1*
X30331Y64855D1*
X30136Y64555D1*
X29329Y63748D1*
X29499Y63623D1*
X29696Y63375D1*
X29806Y63079D1*
X29824Y62890D1*
X29773Y62577D1*
X29696Y62429D1*
Y58732D1*
X31829Y49606D2*
Y48258D1*
X29696D1*
Y46350D1*
X29956Y46083D1*
X30953Y46088D1*
X31226Y46191D1*
X31541Y46211D1*
X31847Y46131D1*
X32112Y45959D1*
X32229Y45812D1*
X32231Y48034D1*
X32288Y48344D1*
X32483Y48644D1*
X32631Y48791D1*
X31833Y49594D1*
X29618Y43641D2*
X32147D1*
Y42024D1*
X32231Y41995D1*
Y44624D1*
X32013Y44413D1*
X31728Y44276D1*
X31414Y44236D1*
X31104Y44296D1*
X30992Y44359D1*
X29948Y44363D1*
X28836Y43247D1*
X28841Y36404D1*
X28950Y36108D1*
X28968Y35918D1*
X28918Y35606D1*
X28771Y35326D1*
X28544Y35106D1*
X28259Y34969D1*
X27946Y34929D1*
X27610Y35004D1*
X27612Y22771D1*
X28629Y21756D1*
X28764Y21707D1*
X29029Y21534D1*
X29226Y21287D1*
X29336Y20990D1*
X29354Y20801D1*
X29303Y20489D1*
X29226Y20340D1*
Y17914D1*
X29486Y17652D1*
X31157Y17657D1*
X31250Y17854D1*
X29712Y19392D1*
X29533Y19652D1*
X29459Y20002D1*
Y23009D1*
X29364Y23244D1*
X29334Y23559D1*
X29404Y23867D1*
X29568Y24137D1*
X29809Y24342D1*
X30102Y24461D1*
X30417Y24481D1*
X30723Y24401D1*
X30988Y24228D1*
X31185Y23981D1*
X31294Y23684D1*
X31313Y23495D1*
X31262Y23183D1*
X31184Y23034D1*
X31185Y20350D1*
X33900Y17645D1*
X33905Y19438D1*
X33621Y19492D1*
X33346Y19647D1*
X33133Y19881D1*
X33004Y20180D1*
X32864Y20208D1*
X32580Y20346D1*
X32365Y20577D1*
X32247Y20870D1*
X32231Y21357D1*
Y34881D1*
X32142Y34796D1*
X32147Y33176D1*
X29301D1*
X29311Y36021D1*
X29301Y36668D1*
X29311Y38561D1*
X29301Y39208D1*
X29311Y41101D1*
X29301Y41748D1*
Y43641D1*
X29618D1*
X57554Y73870D2*
X60620D1*
X60616Y74056D1*
X57236Y74064D1*
Y74372D1*
X57110Y74405D1*
X56826Y74543D1*
X56611Y74774D1*
X56493Y75067D1*
X56476Y75555D1*
Y77777D1*
X56534Y78087D1*
X56700Y78356D1*
X56960Y78550D1*
X57170Y78623D1*
X57236Y78827D1*
Y78950D1*
X60620D1*
X60616Y79136D1*
X57236Y79144D1*
Y79452D1*
X57048Y79485D1*
X56764Y79623D1*
X56549Y79854D1*
X56431Y80147D1*
X56414Y80635D1*
Y85397D1*
X56472Y85707D1*
X56637Y85976D1*
X56888Y86168D1*
X57201Y86255D1*
X57112Y86244D1*
X57236Y86447D1*
Y86570D1*
X60620D1*
X60616Y86756D1*
X57236Y86764D1*
Y87072D1*
X57050Y87105D1*
X56766Y87243D1*
X56551Y87474D1*
X56433Y87767D1*
X56416Y88255D1*
Y90477D1*
X56474Y90787D1*
X56640Y91056D1*
X56891Y91248D1*
X57204Y91335D1*
X57115Y91324D1*
X57236Y91527D1*
Y91650D1*
X61582D1*
Y89304D1*
X58139D1*
X58142Y89118D1*
X59459Y89110D1*
X61582D1*
Y88802D1*
X61709Y88769D1*
X61993Y88631D1*
X62208Y88400D1*
X62325Y88107D1*
X62342Y87620D1*
Y85397D1*
X62285Y85087D1*
X62119Y84818D1*
X61858Y84624D1*
X61649Y84551D1*
X61582Y84347D1*
Y84224D1*
X58139D1*
X58140Y84038D1*
X59459Y84030D1*
X61582D1*
Y81684D1*
X58139D1*
X58140Y81498D1*
X59459Y81490D1*
X61582D1*
Y81182D1*
X61709Y81149D1*
X61993Y81011D1*
X62208Y80780D1*
X62325Y80487D1*
X62342Y80000D1*
Y77777D1*
X62285Y77467D1*
X62119Y77198D1*
X61858Y77004D1*
X61649Y76931D1*
X61582Y76727D1*
Y76604D1*
X58199D1*
X58202Y76418D1*
X61582Y76410D1*
Y76102D1*
X61709Y76069D1*
X61993Y75931D1*
X62208Y75700D1*
X62325Y75407D1*
X62342Y74920D1*
Y72697D1*
X62285Y72387D1*
X62119Y72118D1*
X61858Y71924D1*
X61649Y71851D1*
X61582Y71647D1*
Y71524D1*
X57448D1*
X57442Y67431D1*
X57638Y67423D1*
X57944Y67343D1*
X58002Y67305D1*
X66116Y67300D1*
X69955D1*
X70221Y67403D1*
X70537Y67423D1*
X70842Y67343D1*
X71107Y67170D1*
X71304Y66923D1*
X71414Y66626D1*
X71432Y66437D1*
X71381Y66125D1*
X71235Y65845D1*
X71008Y65625D1*
X70723Y65488D1*
X70410Y65447D1*
X70099Y65508D1*
X69987Y65571D1*
X58029Y65574D1*
X57825Y65488D1*
X57511Y65447D1*
X57201Y65508D1*
X56926Y65663D1*
X56713Y65897D1*
X56582Y66215D1*
X52734Y62366D1*
X52570Y62036D1*
X52343Y61816D1*
X52058Y61679D1*
X51745Y61638D1*
X51434Y61699D1*
X51323Y61762D1*
X44067Y61765D1*
X43805Y61506D1*
X43810Y50438D1*
Y49554D1*
X43752Y49243D1*
X43557Y48944D1*
X42797Y48184D1*
X42537Y48005D1*
X42187Y47931D1*
X34220D1*
X33951Y47671D1*
X33956Y36604D1*
X33965Y21840D1*
X34119Y21768D1*
X34412Y21886D1*
X34899Y21902D1*
X35147D1*
X35411Y22005D1*
X35726Y22025D1*
X36032Y21945D1*
X36297Y21773D1*
X36494Y21525D1*
X36603Y21229D1*
X36621Y21040D1*
X36571Y20727D1*
X36425Y20447D1*
X36198Y20227D1*
X35913Y20090D1*
X35629Y20045D1*
X35631Y13991D1*
X35573Y13681D1*
X35407Y13412D1*
X35156Y13221D1*
X34843Y13133D1*
X34440Y13128D1*
X34245Y13042D1*
X33932Y13001D1*
X33621Y13062D1*
X33346Y13217D1*
X33133Y13451D1*
X33005Y13740D1*
X32975Y14055D1*
X33045Y14363D1*
X33209Y14633D1*
X33450Y14838D1*
X33743Y14957D1*
X33911Y14968D1*
X33905Y15708D1*
X33603Y15594D1*
X33457Y15314D1*
X33230Y15094D1*
X32945Y14957D1*
X32632Y14916D1*
X32321Y14977D1*
X32209Y15040D1*
X28844Y15043D1*
X28645Y14957D1*
X28332Y14916D1*
X28021Y14977D1*
X27909Y15040D1*
X25734Y15043D1*
X25424Y15101D1*
X25124Y15296D1*
X24364Y16056D1*
X24185Y16316D1*
X24111Y16666D1*
Y74111D1*
X24169Y74421D1*
X24364Y74721D1*
X26027Y76384D1*
X26064Y76490D1*
X26228Y76761D1*
X26514Y76984D1*
X25706Y76980D1*
X25396Y77038D1*
X25096Y77233D1*
X24336Y77993D1*
X24157Y78253D1*
X24083Y78603D1*
Y83316D1*
X23717Y83371D1*
X23441Y83526D1*
X23229Y83760D1*
X23201Y83823D1*
X20912Y81538D1*
X20915Y75728D1*
X21024Y75431D1*
X21042Y75242D1*
X20992Y74930D1*
X20846Y74649D1*
X20619Y74429D1*
X20334Y74292D1*
X20020Y74252D1*
X19710Y74312D1*
X19434Y74467D1*
X19222Y74702D1*
X19094Y74991D1*
X19064Y75305D1*
X19134Y75613D1*
X19190Y75706D1*
X19189Y81899D1*
X19247Y82209D1*
X19442Y82509D1*
X22185Y85252D1*
X21784Y85249D1*
X21481Y85338D1*
X21208Y85499D1*
X20983Y85722D1*
X20820Y85993D1*
X20728Y86296D1*
X20713Y86613D1*
X20776Y86923D1*
X20913Y87208D1*
X21116Y87452D1*
X21372Y87637D1*
X21666Y87755D1*
X21980Y87797D1*
X22295Y87760D1*
X22591Y87648D1*
X22851Y87467D1*
X23058Y87227D1*
X23195Y86953D1*
X23196Y88914D1*
X22052Y90059D1*
X21784Y90075D1*
X21481Y90164D1*
X21208Y90325D1*
X20983Y90548D1*
X20820Y90819D1*
X20728Y91122D1*
X20713Y91439D1*
X20776Y91749D1*
X20913Y92034D1*
X21116Y92278D1*
X21372Y92463D1*
X21666Y92581D1*
X21980Y92623D1*
X22295Y92586D1*
X22591Y92474D1*
X22851Y92293D1*
X23058Y92053D1*
X23200Y91770D1*
X23274Y91340D1*
X23275Y91277D1*
X24082Y90470D1*
X24083Y98939D1*
X24141Y99249D1*
X24336Y99549D1*
X25096Y100309D1*
X25356Y100488D1*
X25706Y100562D1*
X53857D1*
X54167Y100504D1*
X54467Y100309D1*
X55227Y99549D1*
X55406Y99289D1*
X55480Y98939D1*
Y81873D1*
X55589Y81576D1*
X55607Y81387D1*
X55557Y81075D1*
X55411Y80795D1*
X55183Y80575D1*
X54899Y80438D1*
X54585Y80397D1*
X54323Y80448D1*
X53580Y79707D1*
X53319Y79528D1*
X52969Y79454D1*
X52066D1*
X52057Y79144D1*
X47711D1*
Y80345D1*
X45962Y78595D1*
X46244Y78640D1*
X47703D1*
X47711Y78950D1*
X52057D1*
Y76604D1*
X48674D1*
X48650Y76414D1*
X52057Y76410D1*
Y74064D1*
X47711D1*
Y74372D1*
X47376Y74432D1*
X47108Y74597D1*
X46916Y74849D1*
X46829Y75162D1*
X46824Y75445D1*
X46526Y75302D1*
X46213Y75261D1*
X45902Y75322D1*
X45627Y75477D1*
X45414Y75711D1*
X45286Y76000D1*
X45256Y76315D1*
X45326Y76623D1*
X45383Y76716D1*
Y77787D1*
X45225Y77858D1*
X43380Y76013D1*
X43227Y75695D1*
X43000Y75475D1*
X42715Y75338D1*
X42402Y75297D1*
X42091Y75358D1*
X41979Y75421D1*
X41976Y74598D1*
X42086Y74301D1*
X42099Y74083D1*
X43434Y74087D1*
X43745Y74030D1*
X44045Y73835D1*
X44805Y73075D1*
X44983Y72814D1*
X45057Y72465D1*
Y70173D1*
X45167Y69876D1*
X45185Y69687D1*
X45134Y69375D1*
X44988Y69095D1*
X44761Y68875D1*
X44476Y68738D1*
X44163Y68697D1*
X43852Y68758D1*
X43577Y68913D1*
X43364Y69147D1*
X43236Y69436D1*
X43206Y69751D1*
X43276Y70059D1*
X43333Y70152D1*
X43331Y72098D1*
X43159Y71976D1*
X43177Y71787D1*
X43127Y71475D1*
X43049Y71326D1*
X43050Y63185D1*
X43357Y63417D1*
X43707Y63491D1*
X51297D1*
X51615Y63688D1*
X55720Y67792D1*
X55716Y72697D1*
X55774Y73007D1*
X55940Y73276D1*
X56191Y73468D1*
X56504Y73555D1*
X57244Y73560D1*
X57236Y73870D1*
X57554D1*
X50698Y91650D2*
X50956D1*
X51036Y92046D1*
X51200Y92317D1*
X51441Y92522D1*
X51734Y92640D1*
X51981Y92656D1*
X51979Y97099D1*
X51902Y97149D1*
X51689Y97384D1*
X51561Y97673D1*
X51531Y97987D1*
X51601Y98295D1*
X51765Y98566D1*
X52006Y98771D1*
X52162Y98834D1*
X46764Y98830D1*
X46851Y98743D1*
X47030Y98483D1*
X47104Y98133D1*
X47118Y94578D1*
X48023Y95483D1*
X48060Y95590D1*
X48224Y95860D1*
X48464Y96065D1*
X48757Y96184D1*
X49073Y96204D1*
X49379Y96124D1*
X49644Y95951D1*
X49841Y95704D1*
X49950Y95407D1*
X49968Y95218D1*
X49918Y94906D1*
X49771Y94626D1*
X49544Y94406D1*
X49250Y94267D1*
X47911Y92931D1*
X47917Y91658D1*
X47971Y91738D1*
X48041Y92046D1*
X48205Y92317D1*
X48446Y92522D1*
X48739Y92640D1*
X49054Y92660D1*
X49360Y92580D1*
X49418Y92542D1*
X49877Y92480D1*
X50177Y92285D1*
X50494Y91967D1*
X50668Y91714D1*
X50616Y91811D1*
X51095Y89304D2*
X47923D1*
X47917Y89118D1*
X49934Y89110D1*
X51095D1*
X51091Y89296D1*
X51095Y86764D2*
X47711D1*
Y87072D1*
X47100Y87074D1*
X47104Y85879D1*
X47352Y86125D1*
X47650Y86244D1*
X47711Y86447D1*
Y86570D1*
X51095D1*
X51091Y86756D1*
X48029Y73870D2*
X52057D1*
Y71524D1*
X47711D1*
Y73870D1*
X48029D1*
X62295Y40847D2*
X62166Y40684D1*
X61926Y40477D1*
X61651Y40319D1*
X61351Y40216D1*
X61037Y40172D1*
X60721Y40189D1*
X60413Y40265D1*
X60125Y40398D1*
X59834Y40619D1*
X59841Y36940D1*
Y28259D1*
X60100Y28003D1*
X71168Y28008D1*
X71495D1*
X71477Y28340D1*
X71553Y28647D1*
X71664Y28846D1*
X71579Y28991D1*
X71486Y29294D1*
X71477Y29610D1*
X71546Y29889D1*
X67709Y29892D1*
X67399Y29950D1*
X67099Y30145D1*
X62897Y34347D1*
X62540Y34533D1*
X62327Y34767D1*
X62199Y35056D1*
X62169Y35371D1*
X62239Y35679D1*
X62296Y35772D1*
X62294Y40834D1*
X79298Y43837D2*
X79300Y44006D1*
X79362Y44316D1*
X79483Y44610D1*
X79656Y44875D1*
X79877Y45102D1*
X80137Y45283D1*
X80427Y45412D1*
X80736Y45483D1*
X81053Y45495D1*
X81366Y45446D1*
X81664Y45338D1*
X81937Y45176D1*
X82174Y44965D1*
X82366Y44714D1*
X82507Y44430D1*
X82592Y44124D1*
X82617Y43834D1*
X82608Y41834D1*
X82587Y41519D1*
X82498Y41215D1*
X82352Y40933D1*
X82156Y40684D1*
X81916Y40477D1*
X81641Y40319D1*
X81341Y40216D1*
X81027Y40172D1*
X80710Y40189D1*
X80403Y40265D1*
X80115Y40398D1*
X79858Y40583D1*
X79640Y40814D1*
X79471Y41082D1*
X79355Y41377D1*
X79297Y41689D1*
X79291Y42469D1*
X79301Y43834D1*
X84302Y43837D2*
X84303Y44006D1*
X84366Y44316D1*
X84486Y44610D1*
X84660Y44875D1*
X84881Y45102D1*
X85141Y45283D1*
X85431Y45412D1*
X85740Y45483D1*
X86057Y45495D1*
X86370Y45446D1*
X86668Y45338D1*
X86941Y45176D1*
X87177Y44965D1*
X87370Y44714D1*
X87511Y44430D1*
X87596Y44124D1*
X87621Y43834D1*
X87611Y41834D1*
X87591Y41519D1*
X87502Y41215D1*
X87356Y40933D1*
X87160Y40684D1*
X86920Y40477D1*
X86645Y40319D1*
X86345Y40216D1*
X86031Y40172D1*
X85714Y40189D1*
X85406Y40265D1*
X85119Y40398D1*
X84861Y40583D1*
X84644Y40814D1*
X84474Y41082D1*
X84359Y41377D1*
X84301Y41689D1*
X84295Y42469D1*
X84304Y43834D1*
X71808Y31622D2*
X71917Y31731D1*
X72109Y31865D1*
X72393Y31928D1*
X73893D1*
X74183Y31862D1*
X74369Y31731D1*
X74619Y31481D1*
X74753Y31289D1*
X74816Y31005D1*
Y30505D1*
X71808Y31622D2*
X71917Y31731D1*
X72109Y31865D1*
X72393Y31928D1*
X73893D1*
X74183Y31862D1*
X74369Y31731D1*
X74619Y31481D1*
X74753Y31289D1*
X74816Y31005D1*
Y30505D1*
X74743Y30199D1*
X74773Y29171D2*
X74630Y28858D1*
X74754Y28593D1*
X74816Y28215D1*
X74773Y27901D1*
X74648Y27611D1*
X74450Y27364D1*
X74193Y27179D1*
X73998Y27107D1*
X73975Y26916D1*
X73837Y26632D1*
X73606Y26417D1*
X73313Y26299D1*
X72826Y26282D1*
X59738D1*
X59427Y26340D1*
X59128Y26535D1*
X58368Y27295D1*
X58189Y27555D1*
X58115Y27905D1*
Y41528D1*
X58020Y41769D1*
X57989Y42084D1*
X58060Y42392D1*
X58224Y42662D1*
X58464Y42867D1*
X58757Y42986D1*
X59073Y43006D1*
X59301Y42955D1*
X59310Y44006D1*
X59372Y44316D1*
X59493Y44610D1*
X59563Y44717D1*
X58018Y44722D1*
X57722Y44434D1*
X57720Y33016D1*
X57829Y32720D1*
X57847Y32530D1*
X57797Y32218D1*
X57719Y32069D1*
X57720Y19966D1*
X57829Y19670D1*
X57847Y19480D1*
X57797Y19168D1*
X57651Y18888D1*
X57423Y18668D1*
X57139Y18531D1*
X56825Y18491D1*
X56515Y18551D1*
X56239Y18706D1*
X56027Y18940D1*
X55899Y19229D1*
X55869Y19544D1*
X55939Y19852D1*
X55995Y19945D1*
X55994Y32051D1*
X55899Y32279D1*
X55869Y32594D1*
X55939Y32902D1*
X55995Y32995D1*
X55994Y44790D1*
X56052Y45100D1*
X56247Y45400D1*
X56436Y45589D1*
X54572Y47444D1*
X52727Y49289D1*
X48744Y49294D1*
X48533Y49207D1*
X48220Y49167D1*
X47909Y49227D1*
X47634Y49382D1*
X47421Y49617D1*
X47293Y49906D1*
X47263Y50220D1*
X47333Y50528D1*
X47497Y50799D1*
X47738Y51004D1*
X48031Y51122D1*
X48347Y51143D1*
X48652Y51062D1*
X48710Y51025D1*
X53080Y51020D1*
X53390Y50962D1*
X53690Y50767D1*
X58005Y46452D1*
X60964Y46448D1*
X61275Y46390D1*
X61544Y46224D1*
X61735Y45973D1*
X61822Y45660D1*
X61827Y45257D1*
X62184Y44965D1*
X62298Y44816D1*
X62295Y48340D1*
X62166Y48177D1*
X61926Y47969D1*
X61651Y47812D1*
X61351Y47709D1*
X61037Y47665D1*
X60720Y47681D1*
X60413Y47757D1*
X60125Y47891D1*
X59940Y48024D1*
X59788Y47711D1*
X59561Y47491D1*
X59276Y47354D1*
X58963Y47314D1*
X58652Y47374D1*
X58377Y47529D1*
X58164Y47764D1*
X58036Y48053D1*
X58006Y48367D1*
X58076Y48675D1*
X58133Y48768D1*
X58131Y52128D1*
X58189Y52438D1*
X58384Y52738D1*
X58924Y53278D1*
X58736Y53324D1*
X58460Y53479D1*
X58248Y53714D1*
X58132Y53976D1*
X55475Y56636D1*
X55297Y56896D1*
X55223Y57246D1*
Y58010D1*
X55128Y58250D1*
X55097Y58564D1*
X55168Y58872D1*
X55331Y59143D1*
X55572Y59348D1*
X55865Y59466D1*
X56181Y59487D1*
X56487Y59406D1*
X56751Y59234D1*
X56949Y58987D1*
X57058Y58690D1*
X57076Y58501D1*
X57026Y58189D1*
X56948Y58040D1*
Y57598D1*
X59341Y55211D1*
X59537Y55122D1*
X67650Y55117D1*
X73403D1*
X73714Y55059D1*
X74014Y54864D1*
X74774Y54104D1*
X74952Y53844D1*
X75026Y53494D1*
Y52690D1*
X75113Y52867D1*
Y62543D1*
X75171Y62853D1*
X75366Y63153D1*
X77249Y65036D1*
Y66662D1*
X80095D1*
X80085Y64122D1*
X80095Y63487D1*
X80085Y61582D1*
X80095Y61016D1*
X85198Y61022D1*
X85508Y60964D1*
X85808Y60769D1*
X86568Y60009D1*
X86747Y59749D1*
X86821Y59399D1*
Y52741D1*
X86941Y52669D1*
X87177Y52458D1*
X87370Y52207D1*
X87511Y51923D1*
X87596Y51617D1*
X87621Y51327D1*
X87611Y49327D1*
X87591Y49012D1*
X87502Y48708D1*
X87356Y48426D1*
X87160Y48177D1*
X86920Y47970D1*
X86645Y47812D1*
X86345Y47709D1*
X86031Y47665D1*
X85714Y47682D1*
X85406Y47758D1*
X85119Y47891D1*
X84861Y48076D1*
X84644Y48307D1*
X84474Y48575D1*
X84359Y48870D1*
X84301Y49182D1*
X84295Y49962D1*
X84303Y51499D1*
X84366Y51809D1*
X84486Y52103D1*
X84660Y52368D1*
X84881Y52595D1*
X85101Y52748D1*
X85095Y57312D1*
Y59049D1*
X84836Y59301D1*
X80088Y59296D1*
X80085Y58736D1*
X80095Y59042D1*
Y57425D1*
X81564Y55947D1*
X81743Y55687D1*
X81817Y55337D1*
Y52747D1*
X82174Y52458D1*
X82366Y52207D1*
X82507Y51923D1*
X82592Y51617D1*
X82617Y51327D1*
X82608Y49327D1*
X82587Y49012D1*
X82498Y48708D1*
X82352Y48426D1*
X82156Y48177D1*
X81916Y47970D1*
X81641Y47812D1*
X81341Y47709D1*
X81027Y47665D1*
X80710Y47682D1*
X80403Y47758D1*
X80115Y47891D1*
X79858Y48076D1*
X79640Y48307D1*
X79471Y48575D1*
X79355Y48870D1*
X79297Y49182D1*
X79291Y49962D1*
X79300Y51499D1*
X79362Y51809D1*
X79483Y52103D1*
X79656Y52368D1*
X79877Y52595D1*
X80097Y52748D1*
X80091Y54981D1*
X78878Y56193D1*
X77249Y56196D1*
X77259Y59042D1*
X77249Y59688D1*
X77259Y61582D1*
X77249Y62228D1*
Y62596D1*
X76834Y62180D1*
X76839Y52750D1*
X77195Y52458D1*
X77388Y52207D1*
X77529Y51923D1*
X77614Y51617D1*
X77639Y51327D1*
X77629Y49327D1*
X77609Y49012D1*
X77519Y48708D1*
X77374Y48426D1*
X77177Y48177D1*
X76937Y47970D1*
X76662Y47812D1*
X76362Y47709D1*
X76049Y47665D1*
X75732Y47682D1*
X75424Y47758D1*
X75136Y47891D1*
X75032Y47966D1*
X75026Y45209D1*
X75449Y45412D1*
X75758Y45483D1*
X76075Y45495D1*
X76388Y45446D1*
X76686Y45338D1*
X76958Y45176D1*
X77195Y44965D1*
X77388Y44714D1*
X77529Y44430D1*
X77614Y44124D1*
X77639Y43834D1*
X77629Y41834D1*
X77609Y41519D1*
X77519Y41215D1*
X77374Y40933D1*
X77177Y40684D1*
X76937Y40477D1*
X76662Y40319D1*
X76362Y40216D1*
X76049Y40172D1*
X75732Y40189D1*
X75424Y40265D1*
X75096Y40427D1*
X75154Y40101D1*
X75103Y39789D1*
X74957Y39509D1*
X74730Y39289D1*
X74445Y39152D1*
X74132Y39111D1*
X73821Y39172D1*
X73546Y39327D1*
X73333Y39561D1*
X73205Y39850D1*
X73175Y40165D1*
X73245Y40473D1*
X73302Y40566D1*
X73301Y52355D1*
X73027Y52075D1*
X72742Y51938D1*
X72556Y51914D1*
X72513Y51688D1*
X72435Y51539D1*
X72436Y39509D1*
X77407Y34533D1*
Y35861D1*
X80253D1*
X80243Y33321D1*
X80253Y32686D1*
X80243Y30781D1*
X80253Y30146D1*
X80243Y28241D1*
X80253Y27606D1*
Y25395D1*
X77407D1*
X77417Y28241D1*
X77407Y28501D1*
X76558Y28495D1*
X76345Y28409D1*
X76032Y28368D1*
X75721Y28429D1*
X75446Y28584D1*
X75233Y28818D1*
X75105Y29107D1*
X75075Y29422D1*
X75145Y29730D1*
X75309Y30000D1*
X75550Y30205D1*
X75843Y30324D1*
X76159Y30344D1*
X76464Y30264D1*
X76522Y30226D1*
X77403Y30221D1*
X77407Y32092D1*
X74403Y35105D1*
X70963Y38545D1*
X70784Y38805D1*
X70710Y39155D1*
Y51508D1*
X70615Y51749D1*
X70588Y52034D1*
X69921Y52025D1*
X62469D1*
X62602Y51617D1*
X62627Y51198D1*
X63157Y51190D1*
X63468Y51132D1*
X63737Y50966D1*
X63928Y50715D1*
X64015Y50402D1*
X64020Y44929D1*
Y35793D1*
X64099Y35580D1*
X68068Y31617D1*
X71807Y31618D1*
X71917Y31731D1*
X72109Y31865D1*
X72393Y31928D1*
X73893D1*
X74183Y31862D1*
X74369Y31731D1*
X74619Y31481D1*
X74753Y31289D1*
X74816Y31005D1*
Y30505D1*
X74746Y30209D1*
X74816Y30505D1*
X74743Y30199D1*
X74652Y30066D1*
X74754Y29863D1*
X74816Y29485D1*
X74773Y29171D1*
X53944Y40093D2*
X54737D1*
Y37148D1*
X51791D1*
Y37614D1*
X51683Y37502D1*
X51421Y37323D1*
X51127Y37204D1*
X50815Y37150D1*
X50499Y37165D1*
X50192Y37247D1*
X49911Y37392D1*
X49667Y37595D1*
X49459Y37871D1*
X49143Y37502D1*
X48881Y37323D1*
X48587Y37204D1*
X48275Y37150D1*
X47959Y37165D1*
X47652Y37247D1*
X47371Y37392D1*
X47127Y37595D1*
X46999Y37759D1*
X43916Y37758D1*
X43606Y37815D1*
X43306Y38010D1*
X39693Y41623D1*
X39346Y41799D1*
X39133Y42033D1*
X39005Y42322D1*
X38975Y42636D1*
X39045Y42945D1*
X39209Y43215D1*
X39450Y43420D1*
X39743Y43538D1*
X40059Y43559D1*
X40364Y43478D1*
X40629Y43306D1*
X40826Y43059D1*
X40905Y42846D1*
X44271Y39486D1*
X46982Y39483D1*
X47332Y39822D1*
X47609Y39976D1*
X47912Y40068D1*
X48228Y40093D1*
X48542Y40049D1*
X48839Y39939D1*
X49106Y39769D1*
X49331Y39545D1*
X49454Y39353D1*
X49635Y39612D1*
X49865Y39815D1*
X49861Y40146D1*
X49919Y40457D1*
X50084Y40725D1*
X50336Y40917D1*
X50649Y41004D1*
X52460Y41009D1*
X52726Y41112D1*
X53042Y41132D1*
X53348Y41052D1*
X53613Y40879D1*
X53810Y40632D1*
X53919Y40335D1*
X53929Y40098D1*
X48571Y43148D2*
X48425Y42868D1*
X48198Y42648D1*
X47913Y42511D1*
X47599Y42470D1*
X47289Y42531D1*
X47177Y42594D1*
X41921Y42597D1*
X41611Y42655D1*
X41311Y42850D1*
X38680Y45481D1*
X38333Y45656D1*
X38121Y45890D1*
X37993Y46179D1*
X37963Y46494D1*
X38033Y46802D1*
X38197Y47073D1*
X38438Y47278D1*
X38731Y47396D1*
X39046Y47416D1*
X39352Y47336D1*
X39617Y47164D1*
X39814Y46916D1*
X39892Y46703D1*
X42276Y44326D1*
X47150Y44323D1*
X47411Y44426D1*
X47726Y44446D1*
X48032Y44366D1*
X48297Y44193D1*
X48494Y43946D1*
X48603Y43650D1*
X48621Y43460D1*
X48571Y43148D1*
X26699Y91649D2*
X26965Y91896D1*
X27258Y92014D1*
X27574Y92035D1*
X27641Y92017D1*
X27648Y93215D1*
X27706Y93526D1*
X27901Y93826D1*
X28245Y94169D1*
X26955Y94172D1*
X26692Y93912D1*
X26697Y91665D1*
X29451Y86300D2*
X29305Y86020D1*
X29141Y85862D1*
X31398Y85865D1*
X31652Y86125D1*
X31325Y86255D1*
X30968Y86587D1*
X30433Y87123D1*
X30254Y87383D1*
X30180Y87733D1*
Y90581D1*
X29813Y90639D1*
X29538Y90794D1*
X29372Y90977D1*
X29374Y88668D1*
X29483Y88372D1*
X29501Y88182D1*
X29451Y87870D1*
X29305Y87590D1*
X29113Y87405D1*
X29374Y87098D1*
X29483Y86802D1*
X29501Y86612D1*
X29451Y86300D1*
X40815Y64957D2*
X40664Y64647D1*
X40437Y64427D1*
X40152Y64290D1*
X39838Y64250D1*
X39528Y64310D1*
X39253Y64465D1*
X39040Y64699D1*
X38912Y64988D1*
X38882Y65303D1*
X38952Y65611D1*
X39116Y65882D1*
X39357Y66087D1*
X39586Y66179D1*
X40432Y67021D1*
X40436Y67492D1*
X40341Y67719D1*
X40327Y67867D1*
X39942Y67929D1*
X39667Y68084D1*
X39454Y68318D1*
X39338Y68580D1*
X36725Y71197D1*
X36546Y71457D1*
X36472Y71807D1*
Y74516D1*
X36429Y74283D1*
Y61414D1*
X40442Y57410D1*
X40982Y56870D1*
X41114Y56824D1*
X41321Y56689D1*
X41324Y65471D1*
X40822Y64971D1*
X31218Y97170D2*
X31126Y97378D1*
X31096Y97692D1*
X31166Y98000D1*
X31330Y98271D1*
X31571Y98476D1*
X31864Y98594D1*
X32179Y98615D1*
X32485Y98534D1*
X32750Y98362D1*
X32947Y98115D1*
X33056Y97818D1*
X33075Y97629D1*
X33057Y97521D1*
X33146Y97588D1*
X33375Y97681D1*
X34530Y98832D1*
X26066Y98836D1*
X25804Y98576D1*
X25809Y95476D1*
X25984Y95645D1*
X26244Y95823D1*
X26594Y95897D1*
X31227D1*
X31221Y97148D1*
X43553Y96806D2*
X43407Y96526D1*
X43180Y96306D1*
X42922Y96181D1*
X42924Y92923D1*
X43033Y92626D1*
X43051Y92437D1*
X43001Y92125D1*
X42855Y91845D1*
X42628Y91625D1*
X42333Y91486D1*
X42520Y91405D1*
X43024Y91628D1*
X43511Y91645D1*
X45386D1*
X45378Y93739D1*
Y97777D1*
X45118Y98035D1*
X43014Y98024D1*
X43279Y97851D1*
X43476Y97604D1*
X43586Y97307D1*
X43604Y97118D1*
X43553Y96806D1*
X37997Y77993D2*
X37905Y78201D1*
X37887Y78388D1*
X37751Y78331D1*
X37437Y78291D1*
X37127Y78351D1*
X37015Y78414D1*
X36234Y78418D1*
X35923Y78475D1*
X35623Y78670D1*
X35546Y78748D1*
X35541Y76901D1*
X35867Y76919D1*
X36172Y76839D1*
X36230Y76801D1*
X37335Y76796D1*
X37646Y76738D1*
X37920Y76565D1*
X37855Y76619D1*
X38001Y76676D1*
Y77976D1*
X38451Y79340D2*
X38643Y79418D1*
X38890Y79434D1*
X38888Y79941D1*
X36447Y82372D1*
X35457Y83361D1*
X35111Y83536D1*
X34898Y83770D1*
X34774Y84050D1*
X33787Y83051D1*
X34172Y82681D1*
X34350Y82420D1*
X34424Y82070D1*
Y81148D1*
X34611Y81311D1*
Y81459D1*
X34516Y81692D1*
X34485Y82006D1*
X34556Y82315D1*
X34719Y82585D1*
X34960Y82790D1*
X35253Y82909D1*
X35569Y82929D1*
X35875Y82849D1*
X36139Y82676D1*
X36337Y82429D1*
X36446Y82132D1*
X36464Y81943D1*
X36414Y81631D1*
X36336Y81482D1*
Y80405D1*
X36596Y80139D1*
X36978Y80143D1*
X37249Y80246D1*
X37564Y80266D1*
X37870Y80186D1*
X38135Y80014D1*
X38332Y79766D1*
X38441Y79470D1*
X38452Y79357D1*
X33024Y90709D2*
X32837Y90618D1*
X32524Y90578D1*
X32213Y90639D1*
X31905Y90830D1*
X31906Y88530D1*
X32130Y88708D1*
X32359Y88800D1*
X34271Y90709D1*
X33046Y90705D1*
X33056Y95224D2*
X33075Y95035D1*
X33042Y94830D1*
X34033Y94838D1*
X37476D1*
X38759Y96122D1*
X38849Y96318D1*
X38848Y97245D1*
X38906Y97556D1*
X39101Y97856D1*
X39276Y98031D1*
X36164Y98030D1*
X34618Y96480D1*
X34453Y96149D1*
X34226Y95929D1*
X33941Y95792D1*
X33628Y95751D1*
X33317Y95812D1*
X33042Y95967D1*
X32942Y96077D1*
X32947Y95520D1*
X33056Y95224D1*
X39753Y71394D2*
X39686Y71408D1*
X39410Y71563D1*
X39198Y71797D1*
X39082Y72059D1*
X38248Y72899D1*
X38198Y72758D1*
Y72173D1*
X40436Y69927D1*
Y70699D1*
X39756Y71388D1*
X41330Y55154D2*
X41280Y55106D1*
X40995Y54968D1*
X40682Y54928D1*
X40371Y54989D1*
X40096Y55144D1*
X39883Y55378D1*
X39767Y55640D1*
X35536Y59875D1*
X35541Y54349D1*
Y51240D1*
X35651Y50943D1*
X35664Y50725D1*
X35967Y50644D1*
X36025Y50607D1*
X41073Y50602D1*
X41329Y50861D1*
X41324Y55132D1*
X34579Y49777D2*
X34336Y49824D1*
X34061Y49980D1*
X33848Y50214D1*
X33720Y50503D1*
X33690Y50817D1*
X33760Y51126D1*
X33817Y51219D1*
X33816Y64476D1*
X33766Y64154D1*
Y58061D1*
X33709Y57751D1*
X33514Y57451D1*
X33001Y56939D1*
X33006Y50862D1*
X34206Y49662D1*
X34578Y49657D1*
X39725Y75169D2*
X39807Y75203D1*
X40123Y75223D1*
X40247Y75190D1*
X40251Y77277D1*
X39847Y77206D1*
X39721Y77231D1*
X39726Y75188D1*
X26802Y70778D2*
X26724Y70629D1*
X26728Y66614D1*
X27897Y67792D1*
X27903Y72630D1*
X27107Y71838D1*
X26947Y71513D1*
X26812Y71383D1*
X26852Y71090D1*
X26802Y70778D1*
X55003Y58189D2*
X54925Y58040D1*
X54926Y54740D1*
X55035Y54443D1*
X55053Y54254D1*
X55003Y53942D1*
X54856Y53661D1*
X54629Y53441D1*
X54344Y53304D1*
X54031Y53264D1*
X53721Y53324D1*
X53445Y53479D1*
X53233Y53714D1*
X53105Y54003D1*
X53074Y54317D1*
X53145Y54625D1*
X53201Y54718D1*
X53200Y58014D1*
X53105Y58250D1*
X53074Y58564D1*
X53145Y58872D1*
X53309Y59143D1*
X53549Y59348D1*
X53842Y59466D1*
X54158Y59487D1*
X54464Y59406D1*
X54729Y59234D1*
X54926Y58987D1*
X55035Y58690D1*
X55053Y58501D1*
X55003Y58189D1*
X46647Y46625D2*
X46500Y46345D1*
X46273Y46125D1*
X45989Y45988D1*
X45675Y45947D1*
X45365Y46008D1*
X45089Y46163D1*
X44877Y46397D1*
X44749Y46686D1*
X44718Y47001D1*
X44789Y47309D1*
X44845Y47402D1*
X44844Y58020D1*
X44749Y58250D1*
X44718Y58564D1*
X44789Y58872D1*
X44953Y59143D1*
X45193Y59348D1*
X45486Y59466D1*
X45802Y59487D1*
X46108Y59406D1*
X46373Y59234D1*
X46570Y58987D1*
X46679Y58690D1*
X46697Y58501D1*
X46647Y58189D1*
X46569Y58040D1*
X46570Y47423D1*
X46679Y47126D1*
X46697Y46937D1*
X46647Y46625D1*
X76203Y87089D2*
X76126Y86940D1*
Y84949D1*
X76236Y84652D1*
X76254Y84463D1*
X76203Y84151D1*
X76057Y83871D1*
X75830Y83651D1*
X75545Y83513D1*
X75232Y83473D1*
X74921Y83533D1*
X74646Y83689D1*
X74433Y83923D1*
X74305Y84212D1*
X74275Y84526D1*
X74345Y84835D1*
X74402Y84928D1*
X74401Y86914D1*
X74305Y87150D1*
X74275Y87465D1*
X74345Y87773D1*
X74509Y88043D1*
X74750Y88248D1*
X75043Y88367D1*
X75359Y88387D1*
X75664Y88307D1*
X75929Y88134D1*
X76126Y87887D1*
X76236Y87590D1*
X76254Y87401D1*
X76203Y87089D1*
X64925Y87578D2*
X64847Y87429D1*
X64848Y70173D1*
X64957Y69876D1*
X64975Y69687D1*
X64925Y69375D1*
X64778Y69095D1*
X64551Y68875D1*
X64267Y68738D1*
X63953Y68697D1*
X63643Y68758D1*
X63367Y68913D1*
X63155Y69147D1*
X63027Y69436D1*
X62996Y69751D1*
X63067Y70059D1*
X63123Y70152D1*
X63122Y87398D1*
X63027Y87639D1*
X62996Y87954D1*
X63067Y88262D1*
X63231Y88532D1*
X63471Y88737D1*
X63764Y88856D1*
X64080Y88876D1*
X64386Y88796D1*
X64651Y88623D1*
X64848Y88376D1*
X64957Y88080D1*
X64975Y87890D1*
X64925Y87578D1*
X23920Y81158D2*
X23843Y81009D1*
Y74140D1*
X23952Y73843D1*
X23971Y73654D1*
X23920Y73342D1*
X23774Y73062D1*
X23547Y72842D1*
X23262Y72705D1*
X22948Y72664D1*
X22638Y72725D1*
X22363Y72880D1*
X22150Y73114D1*
X22022Y73403D1*
X21992Y73718D1*
X22062Y74026D1*
X22119Y74119D1*
X22117Y80987D1*
X22022Y81219D1*
X21992Y81534D1*
X22062Y81842D1*
X22226Y82112D1*
X22467Y82317D1*
X22760Y82436D1*
X23075Y82456D1*
X23381Y82376D1*
X23646Y82203D1*
X23843Y81956D1*
X23952Y81660D1*
X23971Y81470D1*
X23920Y81158D1*
X38732Y88267D2*
X38545Y88176D1*
X38232Y88136D1*
X37921Y88197D1*
X37646Y88352D1*
X37433Y88586D1*
X37305Y88875D1*
X37275Y89189D1*
X37345Y89498D1*
X37453Y89675D1*
X35681Y89674D1*
X33944Y87941D1*
X34251Y87959D1*
X34556Y87879D1*
X34821Y87706D1*
X35018Y87459D1*
X35070Y87320D1*
X35611Y87874D1*
X35871Y88053D1*
X36221Y88127D1*
X39684D1*
X39380Y88263D1*
X38755D1*
X52892Y98837D2*
X53185Y98657D1*
X53382Y98410D1*
X53461Y98196D1*
X53570Y98064D1*
X53688Y97771D1*
X53705Y97284D1*
Y91658D1*
X53754Y91865D1*
Y98582D1*
X53495Y98841D1*
X52914Y98836D1*
X40683Y96043D2*
X40694Y95931D1*
X41010Y95952D1*
X41192Y95904D1*
X41198Y96565D1*
X41261Y96884D1*
X41219Y96753D1*
X41346Y97048D1*
X41076Y97143D1*
X40828D1*
X40569Y96883D1*
X40574Y96340D1*
X40683Y96043D1*
X91829Y98116D2*
X91717Y97492D1*
X91496Y96897D1*
X91173Y96351D1*
X90759Y95871D1*
X90267Y95471D1*
X89711Y95165D1*
X89111Y94962D1*
X88483Y94868D1*
X87850Y94887D1*
X87229Y95018D1*
X86641Y95256D1*
X86105Y95595D1*
X85637Y96023D1*
X85252Y96527D1*
X84963Y97091D1*
X84778Y97698D1*
X84703Y98327D1*
X84740Y98960D1*
X84889Y99577D1*
X85145Y100157D1*
X85499Y100683D1*
X85941Y101138D1*
X86456Y101508D1*
X87029Y101781D1*
X87641Y101948D1*
X88272Y102004D1*
X88904Y101947D1*
X89516Y101780D1*
X90088Y101507D1*
X90603Y101138D1*
X91045Y100683D1*
X91399Y100157D1*
X91655Y99576D1*
X91804Y98960D1*
X91843Y98433D1*
X91829Y98116D1*
X18796Y97957D2*
X18684Y97333D1*
X18463Y96739D1*
X18141Y96193D1*
X17727Y95712D1*
X17234Y95313D1*
X16679Y95006D1*
X16078Y94803D1*
X15451Y94710D1*
X14817Y94729D1*
X14196Y94859D1*
X13609Y95098D1*
X13072Y95436D1*
X12605Y95864D1*
X12220Y96368D1*
X11930Y96932D1*
X11745Y97539D1*
X11670Y98169D1*
X11708Y98802D1*
X11857Y99418D1*
X12112Y99998D1*
X12467Y100524D1*
X12908Y100979D1*
X13424Y101349D1*
X13996Y101622D1*
X14608Y101789D1*
X15240Y101845D1*
X15871Y101789D1*
X16483Y101622D1*
X17056Y101349D1*
X17571Y100979D1*
X18012Y100524D1*
X18367Y99998D1*
X18622Y99417D1*
X18771Y98801D1*
X18810Y98274D1*
X18796Y97957D1*
Y15081D2*
X18684Y14457D1*
X18463Y13862D1*
X18141Y13316D1*
X17727Y12836D1*
X17234Y12436D1*
X16679Y12130D1*
X16078Y11927D1*
X15451Y11833D1*
X14817Y11852D1*
X14196Y11983D1*
X13609Y12221D1*
X13072Y12560D1*
X12605Y12988D1*
X12220Y13492D1*
X11930Y14056D1*
X11745Y14663D1*
X11670Y15292D1*
X11708Y15926D1*
X11857Y16542D1*
X12112Y17122D1*
X12467Y17648D1*
X12908Y18103D1*
X13424Y18473D1*
X13996Y18746D1*
X14608Y18913D1*
X15240Y18969D1*
X15871Y18913D1*
X16483Y18745D1*
X17056Y18473D1*
X17571Y18103D1*
X18012Y17648D1*
X18367Y17122D1*
X18622Y16541D1*
X18771Y15925D1*
X18810Y15398D1*
X18796Y15081D1*
X91670Y15240D2*
X91558Y14616D1*
X91337Y14021D1*
X91014Y13475D1*
X90600Y12995D1*
X90108Y12595D1*
X89553Y12289D1*
X88952Y12086D1*
X88325Y11992D1*
X87691Y12011D1*
X87070Y12142D1*
X86483Y12380D1*
X85946Y12719D1*
X85478Y13147D1*
X85094Y13651D1*
X84804Y14215D1*
X84619Y14822D1*
X84544Y15451D1*
X84582Y16084D1*
X84731Y16701D1*
X84986Y17281D1*
X85341Y17807D1*
X85782Y18262D1*
X86298Y18632D1*
X86870Y18904D1*
X87482Y19071D1*
X88114Y19128D1*
X88745Y19071D1*
X89357Y18904D1*
X89929Y18631D1*
X90445Y18262D1*
X90886Y17806D1*
X91241Y17280D1*
X91496Y16700D1*
X91645Y16084D1*
X91684Y15557D1*
X91670Y15240D1*
X28668Y66123D2*
X26731Y64186D1*
X26725Y63575D1*
X28658Y65518D1*
X28663Y66128D1*
X27971Y46303D2*
Y62386D1*
X27617Y62037D1*
X27612Y53181D1*
Y44460D1*
X28371Y45223D1*
X28223Y45375D1*
X28045Y45636D1*
X27971Y45985D1*
Y46303D1*
X27010Y74926D2*
X25831Y73747D1*
X25837Y73049D1*
X25992Y73165D1*
X27009Y74182D1*
X27016Y74932D1*
X25837Y45447D2*
Y17030D1*
X26097Y16764D1*
X27887Y16769D1*
X27840Y16857D1*
X27753Y16944D1*
X27575Y17204D1*
X27501Y17554D1*
Y20322D1*
X27304Y20640D1*
X26139Y21805D1*
X25960Y22066D1*
X25886Y22415D1*
Y45444D1*
X92082Y102243D2*
X11429D1*
Y11428D1*
X92402Y11271D1*
X92400Y102243D1*
X92082D1*
D21*
X41113Y87264D3*
D22*
Y84724D3*
Y82184D3*
Y79644D3*
D21*
X78830Y26818D3*
Y29358D3*
Y31898D3*
Y34438D3*
X30406Y57301D3*
Y54761D3*
Y52221D3*
Y49681D3*
X30724Y42218D3*
Y39678D3*
Y37138D3*
Y34598D3*
X78672Y57619D3*
Y60159D3*
Y62699D3*
Y65239D3*
D26*
X59409Y72697D3*
Y75237D3*
Y77777D3*
Y80317D3*
Y82857D3*
Y85397D3*
Y87937D3*
Y90477D3*
X49884D3*
Y87937D3*
Y85397D3*
Y82857D3*
Y80317D3*
Y77777D3*
Y75237D3*
Y72697D3*
D27*
X60964Y50327D3*
Y42834D3*
X75976Y50327D3*
X80954D3*
X85958D3*
X75976Y42834D3*
X80954D3*
X85958D3*
G36*
X72393Y31255D2*
X72143Y31005D1*
Y30505D1*
X72393Y30255D1*
X73893D1*
X74143Y30505D1*
Y31005D1*
X73893Y31255D1*
X72393D1*
X72143Y31005D1*
Y30505D1*
X72393Y30255D1*
X73893D1*
X74143Y30505D1*
Y31005D1*
X73893Y31255D1*
X72393D1*
X72143Y31005D1*
Y30505D1*
X72393Y30255D1*
X73893D1*
X74143Y30505D1*
Y31005D1*
X73893Y31255D1*
X72393D1*
G37*
D30*
X73143Y29485D3*
Y28215D3*
D44*
X53264Y38620D3*
D45*
X50724D3*
X48184D3*
D46*
X21992Y86514D3*
Y91340D3*
M02*
