G04 DipTrace 2.4.0.2*
%INBottomSilk.gbr*%
%MOMM*%
%ADD41O,0.392X0.391*%
%ADD112C,0.157*%
%ADD113C,0.118*%
%FSLAX53Y53*%
G04*
G71*
G90*
G75*
G01*
%LNBotSilk*%
%LPD*%
X88826Y79986D2*
D41*
X90407D1*
Y77434D1*
Y78770D2*
X89436D1*
X88042Y79986D2*
X87921Y79865D1*
X87798Y79986D1*
X87921Y80109D1*
X88042Y79986D1*
X87921Y79135D2*
Y77434D1*
X87013Y79986D2*
Y77434D1*
X85864Y79986D2*
Y77919D1*
X85743Y77557D1*
X85499Y77434D1*
X85258D1*
X86229Y79135D2*
X85378D1*
X84473Y78405D2*
X83016D1*
Y78649D1*
X83137Y78894D1*
X83258Y79014D1*
X83502Y79135D1*
X83867D1*
X84108Y79014D1*
X84353Y78770D1*
X84473Y78405D1*
Y78164D1*
X84353Y77799D1*
X84108Y77557D1*
X83867Y77434D1*
X83502D1*
X83258Y77557D1*
X83016Y77799D1*
X82232Y79135D2*
Y77434D1*
Y78405D2*
X82108Y78770D1*
X81867Y79014D1*
X81623Y79135D1*
X81258D1*
X78004Y78649D2*
X76909D1*
X76547Y78770D1*
X76424Y78894D1*
X76303Y79135D1*
Y79500D1*
X76424Y79741D1*
X76547Y79865D1*
X76909Y79986D1*
X78004D1*
Y77434D1*
X74061Y79135D2*
Y77434D1*
Y78770D2*
X74303Y79014D1*
X74547Y79135D1*
X74909D1*
X75154Y79014D1*
X75395Y78770D1*
X75519Y78405D1*
Y78164D1*
X75395Y77799D1*
X75154Y77557D1*
X74909Y77434D1*
X74547D1*
X74303Y77557D1*
X74061Y77799D1*
X71817Y78770D2*
X72061Y79014D1*
X72306Y79135D1*
X72668D1*
X72912Y79014D1*
X73154Y78770D1*
X73277Y78405D1*
Y78164D1*
X73154Y77799D1*
X72912Y77557D1*
X72668Y77434D1*
X72306D1*
X72061Y77557D1*
X71817Y77799D1*
X71033Y79986D2*
Y77434D1*
X69817Y79135D2*
X71033Y77919D1*
X70547Y78405D2*
X69696Y77434D1*
X76180Y98602D2*
D112*
X75792Y97581D1*
X75403Y98602D1*
X74555Y98116D2*
X74603Y98213D1*
X74749Y98262D1*
X74895D1*
X75041Y98213D1*
X75089Y98116D1*
X75041Y98019D1*
X74943Y97970D1*
X74701Y97921D1*
X74603Y97873D1*
X74555Y97775D1*
Y97727D1*
X74603Y97631D1*
X74749Y97581D1*
X74895D1*
X75041Y97631D1*
X75089Y97727D1*
X73707Y98116D2*
X73755Y98213D1*
X73901Y98262D1*
X74047D1*
X74193Y98213D1*
X74241Y98116D1*
X74193Y98019D1*
X74095Y97970D1*
X73853Y97921D1*
X73755Y97873D1*
X73707Y97775D1*
Y97727D1*
X73755Y97631D1*
X73901Y97581D1*
X74047D1*
X74193Y97631D1*
X74241Y97727D1*
X76132Y96369D2*
X75695D1*
X75549Y96419D1*
X75500Y96467D1*
X75451Y96564D1*
Y96661D1*
X75500Y96758D1*
X75549Y96807D1*
X75695Y96856D1*
X76132D1*
Y95835D1*
X75792Y96369D2*
X75451Y95835D1*
X75138Y96223D2*
X74555D1*
Y96321D1*
X74603Y96419D1*
X74651Y96467D1*
X74749Y96515D1*
X74895D1*
X74992Y96467D1*
X75089Y96369D1*
X75138Y96223D1*
Y96127D1*
X75089Y95981D1*
X74992Y95884D1*
X74895Y95835D1*
X74749D1*
X74651Y95884D1*
X74555Y95981D1*
X73707Y96369D2*
X73755Y96467D1*
X73901Y96515D1*
X74047D1*
X74193Y96467D1*
X74241Y96369D1*
X74193Y96273D1*
X74095Y96223D1*
X73853Y96175D1*
X73755Y96127D1*
X73707Y96029D1*
Y95981D1*
X73755Y95884D1*
X73901Y95835D1*
X74047D1*
X74193Y95884D1*
X74241Y95981D1*
X76007Y95109D2*
Y94088D1*
X76347Y95109D2*
X75666D1*
X75353Y94769D2*
X74818Y94088D1*
Y94769D2*
X75353Y94088D1*
X76188Y92876D2*
X75751D1*
X75605Y92926D1*
X75556Y92974D1*
X75507Y93071D1*
Y93168D1*
X75556Y93265D1*
X75605Y93314D1*
X75751Y93363D1*
X76188D1*
Y92342D1*
X75848Y92876D2*
X75507Y92342D1*
X75194Y93022D2*
X74659Y92342D1*
Y93022D2*
X75194Y92342D1*
X70882Y99875D2*
D113*
X70554D1*
X70445Y99911D1*
X70408Y99948D1*
X70372Y100021D1*
Y100130D1*
X70408Y100203D1*
X70445Y100240D1*
X70554Y100276D1*
X70882D1*
Y99510D1*
X70137Y100021D2*
Y99510D1*
Y99802D2*
X70100Y99911D1*
X70027Y99984D1*
X69954Y100021D1*
X69844D1*
X69427D2*
X69499Y99984D1*
X69573Y99911D1*
X69609Y99802D1*
Y99729D1*
X69573Y99620D1*
X69499Y99547D1*
X69427Y99510D1*
X69318D1*
X69244Y99547D1*
X69172Y99620D1*
X69135Y99729D1*
Y99802D1*
X69172Y99911D1*
X69244Y99984D1*
X69318Y100021D1*
X69427D1*
X68899D2*
Y99255D1*
Y99911D2*
X68826Y99984D1*
X68754Y100021D1*
X68644D1*
X68571Y99984D1*
X68499Y99911D1*
X68461Y99802D1*
Y99728D1*
X68499Y99620D1*
X68571Y99546D1*
X68644Y99510D1*
X68754D1*
X68826Y99546D1*
X68899Y99620D1*
X67486Y99875D2*
X67157D1*
X67048Y99911D1*
X67011Y99948D1*
X66975Y100021D1*
Y100130D1*
X67011Y100203D1*
X67048Y100240D1*
X67157Y100276D1*
X67486D1*
Y99510D1*
X66740Y100276D2*
Y99510D1*
X66504Y100021D2*
Y99656D1*
X66468Y99547D1*
X66395Y99510D1*
X66285D1*
X66213Y99547D1*
X66104Y99656D1*
Y100021D2*
Y99510D1*
X65431Y99984D2*
Y99401D1*
X65467Y99292D1*
X65504Y99255D1*
X65577Y99219D1*
X65686D1*
X65759Y99255D1*
X65431Y99875D2*
X65504Y99947D1*
X65577Y99984D1*
X65686D1*
X65759Y99947D1*
X65832Y99875D1*
X65868Y99765D1*
Y99692D1*
X65832Y99583D1*
X65759Y99510D1*
X65686Y99474D1*
X65577D1*
X65504Y99510D1*
X65431Y99583D1*
X85291Y74299D2*
D41*
X85412Y74540D1*
X85656Y74784D1*
X85898Y74905D1*
X86383D1*
X86628Y74784D1*
X86869Y74540D1*
X86993Y74299D1*
X87113Y73934D1*
Y73324D1*
X86993Y72962D1*
X86869Y72718D1*
X86628Y72477D1*
X86383Y72353D1*
X85898D1*
X85656Y72477D1*
X85412Y72718D1*
X85291Y72962D1*
X83901Y74054D2*
X84142Y73934D1*
X84386Y73689D1*
X84507Y73324D1*
Y73083D1*
X84386Y72718D1*
X84142Y72477D1*
X83901Y72353D1*
X83536D1*
X83291Y72477D1*
X83050Y72718D1*
X82926Y73083D1*
Y73324D1*
X83050Y73689D1*
X83291Y73934D1*
X83536Y74054D1*
X83901D1*
X82142D2*
Y72353D1*
Y73569D2*
X81777Y73934D1*
X81533Y74054D1*
X81170D1*
X80926Y73934D1*
X80805Y73569D1*
Y72353D1*
X79656Y74905D2*
Y72839D1*
X79535Y72477D1*
X79291Y72353D1*
X79050D1*
X80021Y74054D2*
X79170D1*
X78265D2*
Y72353D1*
Y73324D2*
X78142Y73689D1*
X77900Y73934D1*
X77656Y74054D1*
X77291D1*
X75900D2*
X76142Y73934D1*
X76386Y73689D1*
X76507Y73324D1*
Y73083D1*
X76386Y72718D1*
X76142Y72477D1*
X75900Y72353D1*
X75535D1*
X75291Y72477D1*
X75050Y72718D1*
X74926Y73083D1*
Y73324D1*
X75050Y73689D1*
X75291Y73934D1*
X75535Y74054D1*
X75900D1*
X74142Y74905D2*
Y72353D1*
M02*
