G04 DipTrace 2.4.0.2*
%INBottomMask.gbr*%
%MOMM*%
%ADD48C,3.2*%
%ADD57C,1.419*%
%ADD59C,1.8*%
%ADD61R,1.8X1.8*%
%ADD85O,2.2X1.2*%
%ADD89O,2.181X4.181*%
%ADD91R,3.2X1.2*%
%ADD97C,1.7*%
%ADD99R,1.7X1.7*%
%FSLAX53Y53*%
G04*
G71*
G90*
G75*
G01*
%LNBotMask*%
%LPD*%
D99*
X41113Y87264D3*
D97*
Y84724D3*
Y82184D3*
Y79644D3*
D99*
X78830Y26818D3*
Y29358D3*
Y31898D3*
Y34438D3*
X30406Y57301D3*
Y54761D3*
Y52221D3*
Y49681D3*
X30724Y42218D3*
Y39678D3*
Y37138D3*
Y34598D3*
X78672Y57619D3*
Y60159D3*
Y62699D3*
Y65239D3*
D91*
X59409Y72697D3*
Y75237D3*
Y77777D3*
Y80317D3*
Y82857D3*
Y85397D3*
Y87937D3*
Y90477D3*
X49884D3*
Y87937D3*
Y85397D3*
Y82857D3*
Y80317D3*
Y77777D3*
Y75237D3*
Y72697D3*
D89*
X60964Y50327D3*
Y42834D3*
X75976Y50327D3*
X80954D3*
X85958D3*
X75976Y42834D3*
X80954D3*
X85958D3*
G36*
X72352Y31355D2*
X72043Y31047D1*
Y30464D1*
X72352Y30155D1*
X73935D1*
X74243Y30464D1*
Y31047D1*
X73935Y31355D1*
X72352D1*
X72043Y31047D1*
Y30464D1*
X72352Y30155D1*
X73935D1*
X74243Y30464D1*
Y31047D1*
X73935Y31355D1*
X72352D1*
X72043Y31047D1*
Y30464D1*
X72352Y30155D1*
X73935D1*
X74243Y30464D1*
Y31047D1*
X73935Y31355D1*
X72352D1*
G37*
D85*
X73143Y29485D3*
Y28215D3*
D61*
X53264Y38620D3*
D59*
X50724D3*
X48184D3*
D57*
X21992Y86514D3*
Y91340D3*
D48*
X88272Y98433D3*
X15239Y98274D3*
Y15398D3*
X88113Y15557D3*
M02*
