M48
METRIC,0000.00
T01C0.305
T02C0.5
T03C0.8
T04C0.813
T05C0.9
T06C1.0
T07C1.321
T08C3.2
%
T01
X+003366Y+001667
X+003266Y+001591
X+003165Y+001679
X+002836Y+001591
X+002836Y+002080
X+003032Y+002350
X+003396Y+002042
X+003563Y+002104
X+003396Y+001399
X+002798Y+003592
X+003145Y+004523
X+002586Y+004643
X+003468Y+005075
X+003557Y+004974
X+003895Y+004643
X+003996Y+004257
X+004571Y+004694
X+004763Y+004346
X+005295Y+004015
X+005898Y+004202
X+005899Y+004830
X+005908Y+005425
X+005406Y+005425
X+005406Y+005850
X+005609Y+005850
X+005178Y+006263
X+005754Y+006644
X+006398Y+006969
X+007044Y+006644
X+007246Y+005289
X+007157Y+005200
X+007416Y+004010
X+007606Y+002936
X+006316Y+003531
X+005686Y+003253
X+005686Y+001948
X+004825Y+005016
X+004571Y+005850
X+004071Y+005592
X+003987Y+006524
X+004130Y+006797
X+004028Y+006886
X+004003Y+007234
X+004003Y+007424
X+004111Y+007411
X+004243Y+007629
X+003988Y+007820
X+003886Y+007845
X+003747Y+007928
X+003458Y+008017
X+003356Y+008017
X+003207Y+008194
X+003119Y+008017
X+003017Y+008017
X+002877Y+008019
X+002927Y+008260
X+002851Y+008500
X+002851Y+008661
X+002851Y+008818
X+002748Y+009105
X+003016Y+009157
X+003256Y+009157
X+003208Y+009503
X+003366Y+009674
X+003208Y+009763
X+003971Y+009585
X+004092Y+009497
X+004003Y+009387
X+004206Y+009244
X+004206Y+009054
X+004459Y+008989
X+004459Y+008803
X+004278Y+008339
X+004858Y+008405
X+005462Y+008139
X+004769Y+007658
X+004624Y+007625
X+004219Y+007179
X+004419Y+006969
X+003557Y+007492
X+003577Y+007593
X+003097Y+007631
X+002698Y+007612
X+002609Y+007873
X+002298Y+008147
X+002406Y+008430
X+002317Y+008502
X+003283Y+008609
X+003416Y+008697
X+003264Y+008786
X+003471Y+008520
X+003573Y+008431
X+003547Y+008194
X+003826Y+008913
X+004261Y+009712
X+004171Y+009801
X+004898Y+009522
X+004896Y+009167
X+005195Y+009167
X+005373Y+009066
X+005252Y+009792
X+006398Y+008789
X+007526Y+008740
X+007526Y+008446
X+003379Y+007000
X+003271Y+007101
X+003186Y+007000
X+003199Y+006873
X+003097Y+006784
X+003379Y+006546
X+003199Y+006065
X+002883Y+006289
X+002586Y+006614
X+002586Y+007109
X+002615Y+007211
X+002298Y+007365
X+002005Y+007524
T02
X+005941Y+007270
X+005941Y+007524
X+005941Y+007778
X+005941Y+008032
X+005941Y+008286
X+005941Y+008540
X+005941Y+008794
X+005941Y+009048
X+004988Y+009048
X+004988Y+008794
X+004988Y+008540
X+004988Y+008286
X+004988Y+008032
X+004988Y+007778
X+004988Y+007524
X+004988Y+007270
T03
X+007314Y+003076
X+007314Y+002949
X+007314Y+002822
T04
X+002199Y+008651
X+002199Y+009134
T05
X+004111Y+008726
X+004111Y+008472
X+004111Y+008218
X+004111Y+007964
X+003041Y+005730
X+003041Y+005476
X+003041Y+005222
X+003041Y+004968
X+003072Y+004222
X+003072Y+003968
X+003072Y+003714
X+003072Y+003460
X+007883Y+003444
X+007883Y+003190
X+007883Y+002936
X+007883Y+002682
X+007867Y+005762
X+007867Y+006016
X+007867Y+006270
X+007867Y+006524
T06
X+005326Y+003862
X+005072Y+003862
X+004818Y+003862
T07
X+006096Y+005033
X+006096Y+004283
X+007598Y+004283
X+008095Y+004283
X+008596Y+004283
X+008596Y+005033
X+008095Y+005033
X+007598Y+005033
T08
X+008827Y+009843
X+001524Y+009827
X+001524Y+001540
X+008811Y+001556
T00
M30
