G04 DipTrace 2.4.0.2*
%INTop.gbr*%
%MOMM*%
%ADD13C,0.38*%
%ADD14C,0.3*%
%ADD15C,0.635*%
%ADD16R,2.35X2.65*%
%ADD17R,1.35X2.15*%
%ADD18R,3.5X0.8*%
%ADD19R,3.75X2.55*%
%ADD20R,0.9X0.9*%
%ADD21R,1.5X1.5*%
%ADD22C,1.5*%
%ADD24R,1.3X1.5*%
%ADD25R,1.5X1.3*%
%ADD26R,3.0X1.0*%
%ADD27O,1.981X3.981*%
%ADD29R,1.52X1.78*%
%ADD30O,2.0X1.0*%
%ADD31R,1.2X1.0*%
%ADD32R,2.55X1.85*%
%ADD33R,1.8X3.2*%
%ADD34R,1.6X1.8*%
%ADD35R,1.8X1.6*%
%ADD36R,1.0X2.65*%
%ADD38R,1.9X0.4*%
%ADD39R,0.4X1.9*%
%ADD40R,0.3X1.65*%
%ADD42R,3.0X1.45*%
%ADD43R,9.0X10.6*%
%ADD44R,1.6X1.6*%
%ADD45C,1.6*%
%ADD46C,1.219*%
%FSLAX53Y53*%
G04*
G71*
G90*
G75*
G01*
%LNTop*%
%LPD*%
X24180Y21904D2*
D13*
Y21587D1*
X26075D1*
X24180Y24008D2*
Y21904D1*
X30263Y17354D2*
Y19354D1*
X33963Y13991D2*
X34768D1*
Y18612D1*
X33963D1*
X26863Y82612D2*
X29271Y82602D1*
X47037Y62628D2*
X51777D1*
X32713Y71011D2*
Y72784D1*
X30263Y19354D2*
Y20421D1*
X33963D1*
X35631Y21040D2*
X35759Y21167D1*
Y22487D1*
X35963D1*
X59409Y87937D2*
X56039D1*
X54969Y89007D1*
X40543D1*
X39783Y88247D1*
Y85828D1*
X38263D1*
X62527Y87003D2*
Y87703D1*
X59409D1*
Y87937D1*
X29271Y82602D2*
X31755Y85087D1*
Y89920D1*
X51777Y62628D2*
Y58373D1*
X52537Y57613D1*
X56656D1*
X57416Y58373D1*
Y62986D1*
X58176Y63746D1*
X59935D1*
X59409Y75237D2*
Y75046D1*
X63502D1*
X33562Y80168D2*
Y80040D1*
X33371Y79850D1*
Y78520D1*
X20245Y26342D2*
X18465Y28122D1*
Y29960D1*
X30724Y42218D1*
X72461Y52888D2*
X77033Y57461D1*
Y73137D1*
X75713D1*
X30724Y34598D2*
X37092D1*
X37852Y33838D1*
Y27754D1*
X57547Y48304D2*
X55593D1*
Y50137D1*
X56913D1*
X58994Y48304D2*
X57547D1*
X30724Y42218D2*
X36398D1*
X37582Y41034D1*
X43100D1*
X46414Y44348D1*
X58234D1*
X58994Y45108D1*
Y48304D1*
X27301Y74211D2*
X25266D1*
X20812Y78665D1*
Y87694D1*
X21572Y88454D1*
X22650D1*
X23692Y87412D1*
X26863D1*
X47631Y43460D2*
X55730D1*
Y42020D1*
X25862Y46431D2*
X38951D1*
X28766Y80188D2*
X29633Y81055D1*
X35450D1*
X35478Y81028D1*
X38263D1*
X27479Y91049D2*
Y92196D1*
X28626D1*
X26863Y86612D2*
X28511D1*
X32084Y97629D2*
X36463D1*
X36688Y97854D1*
X38463D1*
X29568Y21587D2*
X32663D1*
Y22537D1*
X32013D1*
Y24162D1*
X34864Y38633D2*
X38102Y36197D1*
X39372D1*
X40642Y35085D1*
X40602Y31441D1*
X30406Y52221D2*
X31665D1*
X32874Y53430D1*
Y60782D1*
X33634Y61542D1*
X35102D1*
Y65435D1*
X35862Y66195D1*
X35102Y66955D1*
X30084D1*
Y74471D1*
X29324Y75231D1*
X26094D1*
Y78160D1*
X25777Y77843D1*
X24647D1*
Y79570D1*
X32663Y22537D2*
Y24162D1*
X31980Y27087D2*
Y29257D1*
X33313D1*
X34359D1*
Y27754D1*
X26094Y78730D2*
Y78160D1*
X35862Y66195D2*
X37917D1*
X38873Y65240D1*
X39870D1*
X32874Y53430D2*
X33634Y52670D1*
X40713D1*
X40028Y72337D2*
X38580D1*
X60710Y32133D2*
X58142D1*
X57744Y32530D1*
X56857D1*
X41113Y87264D2*
X42243Y86134D1*
X43396D1*
X32833Y86086D2*
Y83590D1*
X33593Y82830D1*
X36018D1*
X36616Y83428D1*
X38263D1*
X32874Y60782D2*
Y61542D1*
X28273D1*
X27513Y62302D1*
Y64237D1*
X32571Y78520D2*
Y75641D1*
X32713D1*
X40447Y26945D2*
Y31441D1*
X40602D1*
X36463Y95854D2*
X34547D1*
Y94370D1*
X38863Y78452D2*
Y76287D1*
X42613Y97118D2*
Y95770D1*
X42061Y92437D2*
X40613D1*
X42747Y67970D2*
X41299D1*
X50447Y31770D2*
X55209D1*
X55969Y32530D1*
X56287D1*
X55969Y32848D1*
Y34287D1*
X57652D1*
X40602Y31441D2*
Y29596D1*
X49687D1*
X50447Y30356D1*
Y31770D1*
X34359Y27754D2*
Y26119D1*
X33963Y25723D1*
Y24162D1*
X33313Y29257D2*
Y24162D1*
X32663D2*
Y27087D1*
X31980D1*
X36463Y95854D2*
Y97629D1*
X36580Y93937D2*
X36463D1*
Y95854D1*
X38580Y93937D2*
X36580D1*
X39870Y65240D2*
Y64605D1*
X39553Y64287D1*
X37550D1*
X40447Y26945D2*
Y24963D1*
X37150D1*
X34359Y27754D1*
X43813Y26478D2*
X43765Y26945D1*
X40447D1*
X43813Y26478D2*
Y26897D1*
X43765Y26945D1*
X48251Y50157D2*
X50728D1*
X40797Y50754D2*
X42033D1*
X42407Y51127D1*
X47281D1*
X48251Y50157D1*
X40713Y52670D2*
X40797D1*
Y50754D1*
X38580Y72337D2*
X37160D1*
X36400Y73097D1*
Y73570D1*
X35080D1*
X56857Y32530D2*
X56287D1*
X32713Y75641D2*
Y75231D1*
X30844D1*
X30084Y74471D1*
X61147Y19480D2*
X64580D1*
Y19396D1*
X56857Y19480D2*
X61147D1*
X32555Y91568D2*
Y89920D1*
X32630Y93587D2*
Y91643D1*
X32555Y91568D1*
X32084Y95035D2*
X32313D1*
X32630Y94717D1*
Y93587D1*
X28511Y85002D2*
X26863Y85012D1*
X33313Y18612D2*
D14*
Y17597D1*
D13*
Y17011D1*
X33656Y16668D1*
X30322Y23495D2*
Y22342D1*
X29568Y21587D1*
X35566Y74918D2*
X34171D1*
Y78520D1*
X40713Y54570D2*
Y55918D1*
X59205D1*
X59965Y55158D1*
Y54443D1*
X62001D1*
X38897Y50754D2*
Y48837D1*
X40713D1*
X34679Y50754D2*
X38897D1*
X34577Y80168D2*
X34654D1*
X34971Y79850D1*
Y78520D1*
X70441Y66437D2*
X72147D1*
X35771Y75933D2*
Y78520D1*
X40284Y68858D2*
X41297Y69870D1*
X42747D1*
X57543Y66437D2*
X57352Y66628D1*
X41044D1*
X40284Y67388D1*
Y68858D1*
X40028Y74237D2*
X38580D1*
X44194Y69687D2*
X46163D1*
X38580Y74237D2*
X37160D1*
Y76232D1*
X36571Y76820D1*
Y78520D1*
X21992Y86514D2*
Y84172D1*
X22752Y83412D1*
X26863D1*
X25862Y66137D2*
X27513D1*
X25862Y71090D2*
X27301D1*
Y72624D1*
X30406Y54761D2*
X31986Y56342D1*
Y60654D1*
Y68730D2*
X34320D1*
X35080Y69490D1*
Y71670D1*
X31986Y60654D2*
X24974D1*
X24214Y61414D1*
Y67210D1*
X24974Y67970D1*
X27513D1*
X24059Y84300D2*
X24146Y84212D1*
X26863D1*
X68984Y63746D2*
X66889D1*
X66129Y62986D1*
Y55237D1*
Y53647D1*
X65369Y52887D1*
X59375D1*
X58525Y52037D1*
X56913D1*
X46000Y31441D2*
Y33670D1*
X50447D1*
Y36195D1*
X51207Y36955D1*
X55677D1*
X56437Y36195D1*
X60488D1*
Y38087D1*
X62333D1*
Y36955D1*
X63093Y36195D1*
X68183D1*
X69947Y37959D1*
X55677Y36955D2*
X54930D1*
X53264Y38620D1*
X30724Y37138D2*
X28865Y35280D1*
Y23492D1*
X27095Y21722D1*
Y20764D1*
X26335Y20004D1*
X24180D1*
X70313Y26987D2*
X69062D1*
X68745Y26670D1*
X67280D1*
X64638Y38087D2*
Y40146D1*
X52947D1*
X69947Y34466D2*
X70967Y35486D1*
Y39739D1*
X69615D1*
X67963Y38087D1*
X64638D1*
X66584Y32133D2*
X69187D1*
X69947Y32893D1*
Y34466D1*
X67280Y26670D2*
X65024D1*
X64264Y27430D1*
Y32133D1*
X66584D1*
X49884Y72697D2*
X47655D1*
X47245Y73107D1*
X47080D1*
Y74654D1*
X73143Y29485D2*
X71483D1*
Y24987D1*
X70313D1*
X57630Y42020D2*
X58978D1*
X63157Y35307D2*
X55179D1*
X54159Y34287D1*
X48184Y38620D2*
X47523D1*
X47510Y38633D1*
X40738D1*
X39963Y42573D2*
Y44020D1*
X55830Y54254D2*
X54063D1*
Y58501D2*
Y62628D1*
X56086D1*
X54063Y54254D2*
Y47164D1*
X54823Y46404D1*
X57547D1*
X56086Y58501D2*
Y60088D1*
X74163Y40101D2*
Y38654D1*
X57730Y54254D2*
X59078D1*
X45707Y46937D2*
X40713D1*
X45707Y58501D2*
Y65168D1*
X47037D1*
X59935Y66286D2*
X62001D1*
Y56343D1*
X71576Y87003D2*
X67830D1*
X62215Y81387D1*
X56264D1*
X55504Y80627D1*
Y72387D1*
X54744Y71627D1*
X46230D1*
Y71787D1*
X73363Y85954D2*
Y86303D1*
X71576D1*
Y87003D1*
X72551Y75037D2*
X74261D1*
Y71337D1*
X75713D1*
X74261Y75037D2*
X75713D1*
X71576Y84463D2*
X75263D1*
Y87401D2*
Y85954D1*
Y84463D2*
X89147Y70580D1*
Y44870D1*
X72551Y72506D2*
Y70413D1*
X73527Y69437D1*
X75713D1*
Y64830D1*
X74953Y64070D1*
X73113D1*
X63502Y77586D2*
X68726D1*
X69486Y76826D1*
Y69097D1*
X70246Y68337D1*
X72147D1*
X63985Y87890D2*
Y89543D1*
X62527D1*
X63985Y69687D2*
X48063D1*
X78830Y26818D2*
X77283Y28365D1*
Y38654D1*
X76063D1*
Y29358D2*
Y36654D1*
X71573Y52000D2*
Y62170D1*
X73113D1*
X78830Y34438D2*
X88387D1*
X89147Y35198D1*
Y42970D1*
X47687Y76580D2*
Y78016D1*
X46980Y78354D1*
X47687Y78016D2*
X47349Y78354D1*
X46980D1*
X46244Y76251D2*
X44647D1*
Y78387D1*
X53729Y90660D2*
X54880Y91810D1*
Y93520D1*
X51954Y91675D2*
X49847D1*
Y93620D1*
X48578Y84055D2*
X47379D1*
X47080Y83387D1*
X47379Y84055D2*
X47080Y83756D1*
Y83387D1*
X48978Y95218D2*
Y96454D1*
X47480D1*
X48959Y91675D2*
X48470Y92164D1*
Y94120D1*
X47480D1*
X40447Y21706D2*
Y23601D1*
X37863D1*
Y22487D1*
X43813Y21239D2*
X43766Y21706D1*
X40447D1*
X43813Y21239D2*
Y21658D1*
X43766Y21706D1*
X51547Y22020D2*
X43813D1*
Y21239D1*
X61147Y22020D2*
X51547D1*
X42187Y71787D2*
X44330D1*
X35566Y49739D2*
X35508Y49681D1*
X30406D1*
X31446Y45225D2*
X32651Y44020D1*
X38063D1*
X27978Y35918D2*
X26329D1*
X20245Y29834D1*
X28833Y62890D2*
Y64287D1*
X31676D1*
X38063Y44020D2*
Y45543D1*
X46414D1*
X47174Y46303D1*
Y50157D1*
X44854D1*
X26380Y27087D2*
Y24020D1*
X27685D1*
X20245Y29834D2*
X26380D1*
Y27087D1*
X68984Y61206D2*
Y58022D1*
X68029Y57066D1*
Y55237D1*
Y50427D1*
X71727Y46729D1*
Y37414D1*
X72487Y36654D1*
X74163D1*
X24647Y81470D2*
X22980D1*
X21833Y73654D2*
X22980D1*
X28626Y93784D2*
X28823Y93587D1*
X30730D1*
X32663Y15906D2*
Y18612D1*
X26982Y76119D2*
X28611D1*
X29371Y76879D1*
Y78520D1*
X28363Y15906D2*
Y17354D1*
X31649Y16794D2*
Y18612D1*
X32013D1*
X30171Y80168D2*
Y78520D1*
X28363Y20801D2*
Y19354D1*
X30971Y76309D2*
Y78520D1*
X41113Y74112D2*
Y71660D1*
X40353Y70900D1*
X38789D1*
X35732Y67843D1*
X30971D1*
X33659Y96741D2*
X19164D1*
X18404Y95981D1*
Y72865D1*
X19164Y72105D1*
X26153D1*
X31186Y80168D2*
X31454D1*
X31771Y79850D1*
Y78520D1*
X44593Y88029D2*
X47364D1*
Y86134D1*
X41113Y84724D2*
X39783D1*
Y85028D1*
X38263D1*
X32074Y81943D2*
X35474D1*
X33791Y69996D2*
X31859D1*
X33791Y65457D2*
X29593D1*
X28833Y66217D1*
Y69870D1*
X27513D1*
X37469Y79281D2*
X37528Y79340D1*
X39783D1*
Y80228D1*
X38263D1*
X21833Y75242D2*
X20052D1*
X23171Y85018D2*
X23966Y85812D1*
X26863D1*
X40763Y76287D2*
X42433D1*
X38263Y89126D2*
Y88228D1*
X52519Y97924D2*
X46050D1*
Y91351D1*
X44593Y89895D1*
X42433Y76287D2*
Y74654D1*
X44280D1*
X34714Y85198D2*
X35795D1*
X36555Y85958D1*
Y89920D1*
X54617Y81387D2*
X46980D1*
Y81154D1*
X36555Y89920D2*
X37325D1*
X37419Y90013D1*
X37820D1*
X38580Y90774D1*
Y92037D1*
X39878Y78196D2*
X41673D1*
X42433Y78956D1*
Y81187D1*
X44647D1*
X35728Y84311D2*
X33826D1*
Y86086D1*
X34995D1*
X35755Y86846D1*
Y89920D1*
Y91212D1*
X36580Y92037D1*
X34547Y92470D2*
X34955D1*
Y89920D1*
X32643Y87861D2*
X33038D1*
X33355Y88178D1*
Y89920D1*
X42783Y83387D2*
X44280D1*
X42061Y90537D2*
X40613D1*
X41711Y98005D2*
X44680D1*
Y96454D1*
X28511Y88182D2*
X30955D1*
Y89920D1*
X38363Y95854D2*
X39711D1*
X30155Y91568D2*
Y89920D1*
X42613Y93870D2*
X44680D1*
Y94120D1*
X40028Y93870D2*
X42613D1*
X40915Y94966D2*
X40598Y95283D1*
Y97854D1*
X40363D1*
Y99174D1*
X41123Y99934D1*
X52647D1*
X53407Y99174D1*
Y97080D1*
X52647Y96320D1*
Y93620D1*
X34155Y86973D2*
Y89920D1*
X53407Y97080D2*
Y96320D1*
X54880D1*
X64580Y24635D2*
Y22740D1*
X66520D1*
X67280Y23500D1*
Y24770D1*
X61147Y24560D2*
X61728Y24635D1*
X64580D1*
X61147Y24560D2*
X61653D1*
X61728Y24635D1*
D15*
X33656Y16668D3*
X30322Y23495D3*
X33963Y20421D3*
Y13991D3*
X35631Y21040D3*
X33562Y80168D3*
X29271Y82602D3*
X51777Y62628D3*
X32713Y71011D3*
X72461Y52888D3*
X58994Y48304D3*
X47631Y43460D3*
X38951Y46431D3*
X25862D3*
X28766Y80188D3*
X27479Y91049D3*
X28511Y86612D3*
X39870Y65240D3*
X32833Y86086D3*
X56857Y19480D3*
X32084Y97629D3*
X42613Y97118D3*
X26094Y78730D3*
X56857Y32530D3*
X48251Y50157D3*
X38863Y78452D3*
X28511Y85002D3*
X32555Y91568D3*
X32084Y95035D3*
X42061Y92437D3*
X40028Y72337D3*
X41299Y67970D3*
X35566Y74918D3*
X40713Y55918D3*
X34678Y50754D3*
X34577Y80168D3*
X70441Y66437D3*
X57543D3*
X35771Y75933D3*
X40284Y68858D3*
X44194Y69687D3*
X40028Y74237D3*
X25862Y66137D3*
Y71090D3*
X31986Y68730D3*
Y60654D3*
X24059Y84300D3*
X52947Y40146D3*
X58978Y42020D3*
X63157Y35307D3*
X39963Y42573D3*
X54063Y58501D3*
Y54254D3*
X56086Y58501D3*
X74163Y40101D3*
X59078Y54254D3*
X45707Y46937D3*
Y58501D3*
X75263Y87401D3*
Y84463D3*
X63985Y87890D3*
Y69687D3*
X47687Y76580D3*
X46244Y76251D3*
X53729Y90660D3*
X51954Y91675D3*
X48578Y84055D3*
X48978Y95218D3*
X48959Y91675D3*
X27978Y35918D3*
X28833Y62890D3*
X31446Y45225D3*
X76063Y29358D3*
X71573Y52000D3*
X22980Y81470D3*
Y73654D3*
X37469Y79281D3*
X35474Y81943D3*
X32074D3*
X31859Y69996D3*
X33791D3*
Y65457D3*
X20052Y75242D3*
X23171Y85018D3*
X38263Y89126D3*
X44593Y89895D3*
X52519Y97924D3*
X42433Y76287D3*
X54617Y81387D3*
X34714Y85198D3*
X39878Y78196D3*
X35728Y84311D3*
X32643Y87861D3*
X42783Y83387D3*
X42061Y90537D3*
X41711Y98005D3*
X28511Y88182D3*
X39711Y95854D3*
X40028Y93870D3*
X30155Y91568D3*
X34155Y86973D3*
X40915Y94966D3*
X44593Y88029D3*
X31186Y80168D3*
X26153Y72105D3*
X33659Y96741D3*
X30971Y76309D3*
Y67843D3*
X41113Y74112D3*
X31649Y16794D3*
X30171Y80168D3*
X28363Y20801D3*
X32663Y15906D3*
X26982Y76119D3*
X28363Y15906D3*
X42187Y71787D3*
X35566Y49739D3*
X11487Y101612D2*
X13910D1*
X16567D2*
X86578D1*
X89959D2*
X92333D1*
X11487Y100980D2*
X12849D1*
X17629D2*
X85705D1*
X90843D2*
X92333D1*
X11487Y100348D2*
X12273D1*
X18204D2*
X40253D1*
X53516D2*
X85199D1*
X91349D2*
X92333D1*
X11487Y99717D2*
X11906D1*
X18572D2*
X39628D1*
X54142D2*
X84881D1*
X91666D2*
X92333D1*
X11487Y99085D2*
X11699D1*
X18780D2*
X37078D1*
X54330D2*
X84703D1*
X91845D2*
X92333D1*
X18869Y98453D2*
X31472D1*
X54330D2*
X84633D1*
X91904D2*
X92333D1*
X18849Y97822D2*
X31045D1*
X54330D2*
X84693D1*
X91855D2*
X92333D1*
X11487Y97190D2*
X11774D1*
X56513D2*
X84862D1*
X91686D2*
X92333D1*
X11477Y96558D2*
X12045D1*
X49895D2*
X51752D1*
X56513D2*
X85169D1*
X91378D2*
X92333D1*
X11477Y95927D2*
X12482D1*
X49905D2*
X51723D1*
X56513D2*
X85665D1*
X90882D2*
X92333D1*
X11477Y95295D2*
X13206D1*
X17272D2*
X17473D1*
X19326D2*
X31065D1*
X50024D2*
X51723D1*
X56513D2*
X86509D1*
X90039D2*
X92333D1*
X11477Y94663D2*
X17482D1*
X19326D2*
X27444D1*
X56513D2*
X92333D1*
X11477Y94032D2*
X17482D1*
X19326D2*
X27444D1*
X56513D2*
X92333D1*
X11477Y93400D2*
X17482D1*
X19326D2*
X27444D1*
X56513D2*
X92333D1*
X11477Y92768D2*
X17482D1*
X19326D2*
X26769D1*
X56513D2*
X92333D1*
X11477Y92137D2*
X17482D1*
X19326D2*
X20925D1*
X23056D2*
X26551D1*
X44636D2*
X45125D1*
X56513D2*
X92333D1*
X11477Y91505D2*
X17482D1*
X19326D2*
X20657D1*
X23324D2*
X26541D1*
X44636D2*
X44916D1*
X55749D2*
X57170D1*
X61642D2*
X92333D1*
X11468Y90873D2*
X17482D1*
X19326D2*
X20737D1*
X23245D2*
X26442D1*
X55223D2*
X57170D1*
X64024D2*
X70078D1*
X73072D2*
X92333D1*
X11468Y90242D2*
X17482D1*
X19326D2*
X21262D1*
X22719D2*
X26839D1*
X52117D2*
X52764D1*
X54687D2*
X57170D1*
X64550D2*
X70078D1*
X73072D2*
X92333D1*
X11468Y89610D2*
X17482D1*
X19326D2*
X27622D1*
X55650D2*
X57170D1*
X64907D2*
X70078D1*
X73072D2*
X92333D1*
X11468Y88978D2*
X17482D1*
X19326D2*
X20816D1*
X23413D2*
X25182D1*
X56285D2*
X57170D1*
X64907D2*
X70078D1*
X73072D2*
X92333D1*
X11468Y88347D2*
X17482D1*
X19326D2*
X20181D1*
X24039D2*
X25182D1*
X64927D2*
X70078D1*
X73072D2*
X74910D1*
X75622D2*
X92333D1*
X11468Y87715D2*
X17482D1*
X19326D2*
X19883D1*
X52117D2*
X54977D1*
X65026D2*
X67280D1*
X73072D2*
X74265D1*
X76267D2*
X92333D1*
X11468Y87083D2*
X17482D1*
X19326D2*
X19883D1*
X29446D2*
X30827D1*
X44954D2*
X46127D1*
X52117D2*
X55850D1*
X64619D2*
X66625D1*
X76654D2*
X92333D1*
X11468Y86452D2*
X17482D1*
X19326D2*
X19883D1*
X29555D2*
X30827D1*
X44636D2*
X46127D1*
X52117D2*
X57170D1*
X64024D2*
X66000D1*
X76654D2*
X92333D1*
X11468Y85820D2*
X17482D1*
X19326D2*
X19883D1*
X29168D2*
X30827D1*
X44636D2*
X46127D1*
X52117D2*
X57170D1*
X64024D2*
X65365D1*
X67933D2*
X70078D1*
X76654D2*
X92333D1*
X11458Y85188D2*
X17482D1*
X19326D2*
X19883D1*
X29545D2*
X30569D1*
X44636D2*
X46127D1*
X52117D2*
X57170D1*
X64024D2*
X64730D1*
X67298D2*
X70078D1*
X76654D2*
X92333D1*
X11458Y84557D2*
X17482D1*
X19326D2*
X19883D1*
X29456D2*
X29944D1*
X52117D2*
X57170D1*
X66663D2*
X70078D1*
X76654D2*
X92333D1*
X11458Y83925D2*
X17482D1*
X19326D2*
X19883D1*
X28553D2*
X29309D1*
X52117D2*
X57170D1*
X66038D2*
X70078D1*
X77081D2*
X92333D1*
X11458Y83293D2*
X17482D1*
X19326D2*
X19883D1*
X31242D2*
X31958D1*
X52117D2*
X57170D1*
X65403D2*
X70078D1*
X73072D2*
X75148D1*
X77716D2*
X92333D1*
X11458Y82662D2*
X17482D1*
X19326D2*
X19883D1*
X21737D2*
X22265D1*
X30617D2*
X31333D1*
X52117D2*
X57170D1*
X64768D2*
X75783D1*
X78351D2*
X92333D1*
X11458Y82030D2*
X17482D1*
X19326D2*
X19883D1*
X21737D2*
X22096D1*
X30141D2*
X31026D1*
X55431D2*
X55629D1*
X64143D2*
X76408D1*
X78976D2*
X92333D1*
X11458Y81398D2*
X17482D1*
X19326D2*
X19883D1*
X21737D2*
X21934D1*
X63508D2*
X77043D1*
X79611D2*
X92333D1*
X11458Y80767D2*
X17482D1*
X19326D2*
X19883D1*
X21737D2*
X22225D1*
X62873D2*
X77678D1*
X80246D2*
X92333D1*
X11458Y80135D2*
X17482D1*
X19326D2*
X19883D1*
X21737D2*
X23157D1*
X52117D2*
X54580D1*
X56433D2*
X57170D1*
X61642D2*
X78303D1*
X80871D2*
X92333D1*
X11448Y79503D2*
X17482D1*
X19326D2*
X19883D1*
X21737D2*
X23157D1*
X52117D2*
X54580D1*
X56433D2*
X57170D1*
X61642D2*
X78938D1*
X81506D2*
X92333D1*
X11448Y78872D2*
X17482D1*
X19326D2*
X19883D1*
X21886D2*
X23157D1*
X27134D2*
X27632D1*
X52117D2*
X54580D1*
X56433D2*
X57170D1*
X61642D2*
X61999D1*
X64996D2*
X71050D1*
X74045D2*
X79573D1*
X82141D2*
X92333D1*
X11448Y78240D2*
X17482D1*
X19326D2*
X20002D1*
X22521D2*
X23723D1*
X27025D2*
X27632D1*
X52117D2*
X54580D1*
X56433D2*
X57170D1*
X61642D2*
X61999D1*
X69352D2*
X71050D1*
X74045D2*
X80198D1*
X82766D2*
X92333D1*
X11448Y77608D2*
X17482D1*
X19326D2*
X20588D1*
X23156D2*
X23753D1*
X27025D2*
X27632D1*
X42364D2*
X43011D1*
X52117D2*
X54580D1*
X56433D2*
X57170D1*
X61642D2*
X61999D1*
X69987D2*
X71050D1*
X74045D2*
X80833D1*
X83401D2*
X92333D1*
X11448Y76977D2*
X17482D1*
X19326D2*
X21213D1*
X23781D2*
X25172D1*
X52117D2*
X54580D1*
X56433D2*
X57170D1*
X61642D2*
X61999D1*
X70403D2*
X71050D1*
X74045D2*
X81468D1*
X84036D2*
X92333D1*
X11448Y76345D2*
X17482D1*
X19326D2*
X20647D1*
X24416D2*
X25172D1*
X52117D2*
X54580D1*
X56433D2*
X57170D1*
X61642D2*
X61999D1*
X64996D2*
X68560D1*
X70413D2*
X71050D1*
X77200D2*
X82093D1*
X84661D2*
X92333D1*
X11448Y75713D2*
X17482D1*
X52117D2*
X54580D1*
X56433D2*
X57170D1*
X64996D2*
X68560D1*
X70413D2*
X71050D1*
X77200D2*
X82728D1*
X85296D2*
X92333D1*
X11448Y75082D2*
X17482D1*
X52117D2*
X54580D1*
X56433D2*
X57170D1*
X64996D2*
X68560D1*
X70413D2*
X71050D1*
X77200D2*
X83363D1*
X85931D2*
X92333D1*
X11448Y74450D2*
X17482D1*
X52117D2*
X54580D1*
X56433D2*
X57170D1*
X64996D2*
X68560D1*
X70413D2*
X71050D1*
X77200D2*
X83989D1*
X86556D2*
X92333D1*
X11438Y73818D2*
X17482D1*
X19326D2*
X20647D1*
X24019D2*
X24378D1*
X28484D2*
X29160D1*
X31014D2*
X31303D1*
X52117D2*
X54580D1*
X56433D2*
X57170D1*
X61642D2*
X61999D1*
X64996D2*
X68560D1*
X70413D2*
X71050D1*
X77627D2*
X84624D1*
X87191D2*
X92333D1*
X11438Y73187D2*
X17482D1*
X19365D2*
X20647D1*
X23919D2*
X26114D1*
X28484D2*
X29160D1*
X31014D2*
X31303D1*
X42037D2*
X42743D1*
X52117D2*
X54580D1*
X56433D2*
X57170D1*
X61642D2*
X61999D1*
X64996D2*
X68560D1*
X70413D2*
X71050D1*
X77954D2*
X85259D1*
X87826D2*
X92333D1*
X11438Y72555D2*
X17532D1*
X28484D2*
X29160D1*
X31014D2*
X31303D1*
X52117D2*
X54392D1*
X56433D2*
X57170D1*
X61642D2*
X61999D1*
X64996D2*
X68560D1*
X70413D2*
X71050D1*
X77964D2*
X85884D1*
X88451D2*
X92333D1*
X11438Y71923D2*
X18068D1*
X28484D2*
X29160D1*
X31014D2*
X31303D1*
X56295D2*
X57170D1*
X61642D2*
X61999D1*
X64996D2*
X68560D1*
X70413D2*
X71050D1*
X77964D2*
X86519D1*
X89086D2*
X92333D1*
X11438Y71292D2*
X18812D1*
X28226D2*
X29160D1*
X31014D2*
X31303D1*
X36570D2*
X37098D1*
X55689D2*
X62002D1*
X64996D2*
X68560D1*
X70413D2*
X71050D1*
X77964D2*
X87154D1*
X89721D2*
X92333D1*
X11438Y70660D2*
X24904D1*
X36570D2*
X37266D1*
X49448D2*
X63738D1*
X64226D2*
X68560D1*
X70413D2*
X71626D1*
X77964D2*
X87779D1*
X90069D2*
X92333D1*
X11438Y70028D2*
X26025D1*
X36004D2*
X36631D1*
X39199D2*
X40174D1*
X64976D2*
X68560D1*
X70413D2*
X71715D1*
X77964D2*
X88225D1*
X90069D2*
X92333D1*
X11438Y69397D2*
X26025D1*
X38564D2*
X39390D1*
X64996D2*
X68560D1*
X70473D2*
X70664D1*
X77964D2*
X88225D1*
X90069D2*
X92333D1*
X11438Y68765D2*
X24576D1*
X37939D2*
X39231D1*
X49448D2*
X63559D1*
X64411D2*
X68629D1*
X77964D2*
X88225D1*
X90069D2*
X92333D1*
X11428Y68133D2*
X23852D1*
X37304D2*
X39360D1*
X44230D2*
X69165D1*
X73628D2*
X74225D1*
X77964D2*
X88225D1*
X90069D2*
X92333D1*
X11428Y67502D2*
X23336D1*
X36669D2*
X39360D1*
X44230D2*
X58440D1*
X61434D2*
X67488D1*
X73628D2*
X74791D1*
X77964D2*
X88225D1*
X90069D2*
X92333D1*
X11428Y66870D2*
X23286D1*
X38515D2*
X39529D1*
X62694D2*
X67488D1*
X73628D2*
X74791D1*
X77964D2*
X88225D1*
X90069D2*
X92333D1*
X11428Y66238D2*
X23286D1*
X39159D2*
X40154D1*
X62922D2*
X67488D1*
X73628D2*
X74791D1*
X80157D2*
X88225D1*
X90069D2*
X92333D1*
X11428Y65607D2*
X23286D1*
X40856D2*
X44896D1*
X48536D2*
X54590D1*
X58150D2*
X58445D1*
X62922D2*
X67488D1*
X73628D2*
X74791D1*
X80157D2*
X88225D1*
X90069D2*
X92333D1*
X11428Y64975D2*
X23286D1*
X25140D2*
X26025D1*
X40886D2*
X44777D1*
X48536D2*
X54590D1*
X57584D2*
X58440D1*
X62922D2*
X67488D1*
X70483D2*
X71626D1*
X80157D2*
X88225D1*
X90069D2*
X92333D1*
X11428Y64343D2*
X23286D1*
X25140D2*
X26025D1*
X40757D2*
X44777D1*
X48536D2*
X54590D1*
X62922D2*
X66199D1*
X70483D2*
X71626D1*
X80157D2*
X88225D1*
X90069D2*
X92333D1*
X11428Y63712D2*
X23286D1*
X25140D2*
X26025D1*
X40261D2*
X44777D1*
X48536D2*
X54590D1*
X62922D2*
X65574D1*
X70483D2*
X71626D1*
X75880D2*
X76100D1*
X80157D2*
X88225D1*
X90069D2*
X92333D1*
X11428Y63080D2*
X23286D1*
X25140D2*
X26025D1*
X29873D2*
X34181D1*
X36024D2*
X44777D1*
X52723D2*
X53260D1*
X62922D2*
X65206D1*
X70483D2*
X71626D1*
X74600D2*
X76111D1*
X80157D2*
X88225D1*
X90069D2*
X92333D1*
X11418Y62448D2*
X23286D1*
X25140D2*
X26590D1*
X29783D2*
X34181D1*
X36024D2*
X44777D1*
X52812D2*
X53141D1*
X62922D2*
X65206D1*
X67050D2*
X67488D1*
X70483D2*
X70685D1*
X74600D2*
X76111D1*
X80157D2*
X88225D1*
X90069D2*
X92333D1*
X11418Y61817D2*
X23286D1*
X25140D2*
X26739D1*
X36024D2*
X44777D1*
X52703D2*
X53141D1*
X62922D2*
X65206D1*
X67050D2*
X67488D1*
X74600D2*
X76111D1*
X80157D2*
X88225D1*
X90069D2*
X92333D1*
X11418Y61185D2*
X23316D1*
X35955D2*
X44777D1*
X48536D2*
X50849D1*
X52703D2*
X53141D1*
X62922D2*
X65206D1*
X67050D2*
X67488D1*
X74600D2*
X76111D1*
X80157D2*
X88225D1*
X90069D2*
X92333D1*
X11418Y60553D2*
X23792D1*
X33931D2*
X44777D1*
X48536D2*
X50849D1*
X52703D2*
X53141D1*
X62922D2*
X65206D1*
X67050D2*
X67488D1*
X72497D2*
X76111D1*
X80157D2*
X88225D1*
X90069D2*
X92333D1*
X11418Y59922D2*
X24457D1*
X33802D2*
X44777D1*
X48536D2*
X50849D1*
X52703D2*
X53141D1*
X62922D2*
X65206D1*
X67050D2*
X67488D1*
X72497D2*
X76111D1*
X80157D2*
X88225D1*
X90069D2*
X92333D1*
X11418Y59290D2*
X31065D1*
X33802D2*
X44777D1*
X48536D2*
X50849D1*
X52703D2*
X53141D1*
X58338D2*
X61079D1*
X62922D2*
X65206D1*
X67050D2*
X68054D1*
X69907D2*
X70644D1*
X72497D2*
X76111D1*
X80157D2*
X88225D1*
X90069D2*
X92333D1*
X11418Y58658D2*
X28922D1*
X33802D2*
X44668D1*
X48536D2*
X50849D1*
X52772D2*
X53021D1*
X58338D2*
X61079D1*
X62922D2*
X65206D1*
X67050D2*
X68054D1*
X69907D2*
X70644D1*
X72497D2*
X76111D1*
X80157D2*
X88225D1*
X90069D2*
X92333D1*
X11418Y58027D2*
X28922D1*
X33802D2*
X44777D1*
X46641D2*
X50919D1*
X58269D2*
X61079D1*
X62922D2*
X65206D1*
X67050D2*
X67707D1*
X69907D2*
X70644D1*
X72497D2*
X76111D1*
X80157D2*
X88225D1*
X90069D2*
X92333D1*
X11418Y57395D2*
X28922D1*
X33802D2*
X51475D1*
X57723D2*
X60513D1*
X63488D2*
X65206D1*
X69639D2*
X70644D1*
X72497D2*
X75684D1*
X80157D2*
X88225D1*
X90069D2*
X92333D1*
X11408Y56763D2*
X28922D1*
X33802D2*
X40134D1*
X59440D2*
X60513D1*
X63488D2*
X65206D1*
X69004D2*
X70644D1*
X72497D2*
X75049D1*
X80157D2*
X88225D1*
X90069D2*
X92333D1*
X11408Y56132D2*
X28922D1*
X33802D2*
X39687D1*
X60273D2*
X60506D1*
X63488D2*
X64740D1*
X69411D2*
X70644D1*
X72497D2*
X74424D1*
X76992D2*
X88225D1*
X90069D2*
X92333D1*
X11408Y55500D2*
X28922D1*
X33802D2*
X39231D1*
X63488D2*
X64740D1*
X69411D2*
X70644D1*
X72497D2*
X73789D1*
X76357D2*
X88225D1*
X90069D2*
X92333D1*
X11408Y54868D2*
X28922D1*
X33802D2*
X39231D1*
X42196D2*
X53221D1*
X63488D2*
X64740D1*
X69411D2*
X70644D1*
X72497D2*
X73154D1*
X75722D2*
X88225D1*
X90069D2*
X92333D1*
X11408Y54237D2*
X28922D1*
X33802D2*
X39231D1*
X42196D2*
X53012D1*
X63488D2*
X64740D1*
X69411D2*
X70644D1*
X75097D2*
X88225D1*
X90069D2*
X92333D1*
X11408Y53605D2*
X28922D1*
X33980D2*
X39231D1*
X42196D2*
X53141D1*
X68955D2*
X70644D1*
X74462D2*
X88225D1*
X90069D2*
X92333D1*
X11408Y52973D2*
X28922D1*
X42196D2*
X53141D1*
X66742D2*
X67101D1*
X68955D2*
X70644D1*
X73827D2*
X75674D1*
X76276D2*
X80655D1*
X81258D2*
X85655D1*
X86256D2*
X88225D1*
X90069D2*
X92333D1*
X11408Y52342D2*
X28922D1*
X42196D2*
X53141D1*
X54985D2*
X55423D1*
X66107D2*
X67101D1*
X68955D2*
X70584D1*
X73350D2*
X74592D1*
X77359D2*
X79573D1*
X82339D2*
X84574D1*
X87340D2*
X88225D1*
X90069D2*
X92333D1*
X11408Y51710D2*
X28922D1*
X32432D2*
X34359D1*
X35002D2*
X37514D1*
X47980D2*
X53141D1*
X54985D2*
X55423D1*
X62645D2*
X67101D1*
X68955D2*
X70564D1*
X72586D2*
X74295D1*
X77656D2*
X79276D1*
X82637D2*
X84276D1*
X87638D2*
X88225D1*
X90069D2*
X92333D1*
X11398Y51078D2*
X28922D1*
X31897D2*
X33675D1*
X54985D2*
X55423D1*
X58398D2*
X59233D1*
X62694D2*
X67101D1*
X68955D2*
X71150D1*
X72001D2*
X74245D1*
X77706D2*
X79226D1*
X82677D2*
X84227D1*
X87687D2*
X88225D1*
X90069D2*
X92333D1*
X11398Y50447D2*
X28922D1*
X58398D2*
X59233D1*
X62694D2*
X67101D1*
X69292D2*
X74245D1*
X77706D2*
X79226D1*
X82677D2*
X84227D1*
X87687D2*
X88225D1*
X90069D2*
X92333D1*
X11398Y49815D2*
X28922D1*
X36619D2*
X37514D1*
X58398D2*
X59233D1*
X62694D2*
X67359D1*
X69927D2*
X74245D1*
X77706D2*
X79226D1*
X82677D2*
X84227D1*
X87687D2*
X88225D1*
X90069D2*
X92333D1*
X11398Y49183D2*
X28922D1*
X36451D2*
X37971D1*
X62684D2*
X67985D1*
X70552D2*
X74255D1*
X77696D2*
X79236D1*
X82677D2*
X84237D1*
X87677D2*
X88225D1*
X90069D2*
X92333D1*
X11398Y48552D2*
X28922D1*
X31897D2*
X38020D1*
X42196D2*
X46246D1*
X48099D2*
X53141D1*
X62496D2*
X68620D1*
X71187D2*
X74444D1*
X77508D2*
X79415D1*
X82488D2*
X84425D1*
X87489D2*
X88225D1*
X90069D2*
X92333D1*
X11398Y47920D2*
X39231D1*
X42196D2*
X46246D1*
X48099D2*
X53141D1*
X61910D2*
X69255D1*
X71822D2*
X75029D1*
X76922D2*
X80000D1*
X81903D2*
X85010D1*
X86904D2*
X88225D1*
X90069D2*
X92333D1*
X11398Y47288D2*
X25301D1*
X48099D2*
X53141D1*
X59916D2*
X69880D1*
X72447D2*
X88225D1*
X90069D2*
X92333D1*
X11398Y46657D2*
X24834D1*
X48099D2*
X53300D1*
X59916D2*
X70515D1*
X72656D2*
X88225D1*
X90069D2*
X92333D1*
X11398Y46025D2*
X24894D1*
X48049D2*
X53915D1*
X59916D2*
X70802D1*
X72656D2*
X87660D1*
X90634D2*
X92333D1*
X11388Y45393D2*
X30410D1*
X32561D2*
X36681D1*
X47543D2*
X56058D1*
X59916D2*
X60331D1*
X61603D2*
X70802D1*
X72656D2*
X75337D1*
X76615D2*
X80307D1*
X81595D2*
X85318D1*
X86596D2*
X87660D1*
X90634D2*
X92333D1*
X11388Y44762D2*
X30510D1*
X62406D2*
X70802D1*
X72656D2*
X74533D1*
X77418D2*
X79514D1*
X82399D2*
X84514D1*
X87400D2*
X87661D1*
X90634D2*
X92333D1*
X11388Y44130D2*
X31254D1*
X41352D2*
X44916D1*
X62664D2*
X70802D1*
X72656D2*
X74275D1*
X77676D2*
X79256D1*
X82657D2*
X84256D1*
X90634D2*
X92333D1*
X11388Y43498D2*
X29240D1*
X41352D2*
X44281D1*
X58448D2*
X59233D1*
X62694D2*
X70802D1*
X72656D2*
X74245D1*
X77706D2*
X79226D1*
X82677D2*
X84227D1*
X90634D2*
X92333D1*
X11388Y42867D2*
X29240D1*
X41352D2*
X43646D1*
X46214D2*
X46772D1*
X62694D2*
X70802D1*
X72656D2*
X74245D1*
X77706D2*
X79226D1*
X82677D2*
X84227D1*
X90634D2*
X92333D1*
X11388Y42235D2*
X29240D1*
X37661D2*
X38973D1*
X40955D2*
X43021D1*
X45589D2*
X54342D1*
X62694D2*
X70802D1*
X72656D2*
X74245D1*
X77706D2*
X79226D1*
X82677D2*
X84227D1*
X90634D2*
X92333D1*
X11388Y41603D2*
X28823D1*
X44954D2*
X54342D1*
X62674D2*
X70802D1*
X72656D2*
X74265D1*
X77686D2*
X79246D1*
X82667D2*
X84246D1*
X87668D2*
X88225D1*
X90069D2*
X92333D1*
X11388Y40972D2*
X28198D1*
X32214D2*
X36364D1*
X44319D2*
X52338D1*
X64956D2*
X70802D1*
X72656D2*
X73630D1*
X77458D2*
X79464D1*
X82439D2*
X84475D1*
X87439D2*
X88225D1*
X90069D2*
X92333D1*
X11388Y40340D2*
X27563D1*
X32214D2*
X37008D1*
X43674D2*
X51911D1*
X65542D2*
X68937D1*
X72656D2*
X73144D1*
X76773D2*
X80159D1*
X81744D2*
X85159D1*
X86755D2*
X88225D1*
X90069D2*
X92333D1*
X11378Y39708D2*
X26928D1*
X32214D2*
X47129D1*
X49240D2*
X49669D1*
X65562D2*
X68302D1*
X77448D2*
X88225D1*
X90069D2*
X92333D1*
X11378Y39077D2*
X26303D1*
X28861D2*
X29242D1*
X37354D2*
X38249D1*
X54796D2*
X58479D1*
X66653D2*
X67667D1*
X78103D2*
X88225D1*
X90069D2*
X92333D1*
X11378Y38445D2*
X25668D1*
X28236D2*
X29240D1*
X37354D2*
X38249D1*
X54796D2*
X58479D1*
X78212D2*
X88225D1*
X90069D2*
X92333D1*
X11378Y37813D2*
X25033D1*
X27601D2*
X29240D1*
X37453D2*
X38249D1*
X55818D2*
X58479D1*
X78212D2*
X88225D1*
X90069D2*
X92333D1*
X11378Y37182D2*
X24408D1*
X26966D2*
X29240D1*
X32214D2*
X35292D1*
X38286D2*
X47803D1*
X48565D2*
X50155D1*
X56731D2*
X58479D1*
X78212D2*
X88225D1*
X90069D2*
X92333D1*
X11378Y36550D2*
X23773D1*
X32214D2*
X36135D1*
X40340D2*
X49599D1*
X69818D2*
X70039D1*
X78212D2*
X88225D1*
X90069D2*
X92333D1*
X11378Y35918D2*
X23138D1*
X32214D2*
X36969D1*
X41064D2*
X49520D1*
X51453D2*
X54511D1*
X69193D2*
X70038D1*
X78212D2*
X88225D1*
X90069D2*
X92333D1*
X11378Y35287D2*
X22513D1*
X37671D2*
X39042D1*
X41541D2*
X49520D1*
X51373D2*
X52973D1*
X64212D2*
X68758D1*
X71872D2*
X72777D1*
X90069D2*
X92333D1*
X11378Y34655D2*
X21878D1*
X26350D2*
X27940D1*
X38316D2*
X39707D1*
X41561D2*
X48964D1*
X51929D2*
X52973D1*
X63964D2*
X68758D1*
X71416D2*
X75138D1*
X89880D2*
X92333D1*
X11368Y34023D2*
X21243D1*
X25715D2*
X27940D1*
X38763D2*
X39707D1*
X41561D2*
X45144D1*
X51929D2*
X52973D1*
X58835D2*
X68758D1*
X71138D2*
X75138D1*
X89255D2*
X92333D1*
X11368Y33392D2*
X20617D1*
X25090D2*
X27940D1*
X32214D2*
X36929D1*
X38782D2*
X39697D1*
X41551D2*
X45075D1*
X51929D2*
X52973D1*
X58835D2*
X68758D1*
X71138D2*
X75138D1*
X80315D2*
X92333D1*
X11368Y32760D2*
X19982D1*
X24455D2*
X27940D1*
X29793D2*
X36929D1*
X48615D2*
X48966D1*
X51929D2*
X54917D1*
X63200D2*
X63609D1*
X70860D2*
X75138D1*
X80315D2*
X92333D1*
X11368Y32128D2*
X19347D1*
X23820D2*
X27940D1*
X29793D2*
X36929D1*
X48615D2*
X48966D1*
X70463D2*
X75138D1*
X80315D2*
X92333D1*
X11368Y31497D2*
X18722D1*
X23195D2*
X27940D1*
X29793D2*
X36929D1*
X48615D2*
X48966D1*
X56215D2*
X57497D1*
X69828D2*
X71616D1*
X74670D2*
X75138D1*
X80315D2*
X92333D1*
X11368Y30865D2*
X18087D1*
X22560D2*
X27940D1*
X29793D2*
X36929D1*
X48615D2*
X48966D1*
X51929D2*
X63341D1*
X65194D2*
X71408D1*
X74878D2*
X75129D1*
X80315D2*
X92333D1*
X11368Y30233D2*
X17581D1*
X27204D2*
X27940D1*
X29793D2*
X36929D1*
X51363D2*
X63341D1*
X65194D2*
X70991D1*
X74819D2*
X75138D1*
X80315D2*
X92333D1*
X11368Y29602D2*
X17542D1*
X27303D2*
X27940D1*
X29793D2*
X31125D1*
X35211D2*
X36929D1*
X50976D2*
X63341D1*
X65194D2*
X70564D1*
X80315D2*
X92333D1*
X11368Y28970D2*
X17542D1*
X21429D2*
X24745D1*
X29793D2*
X30341D1*
X35290D2*
X36929D1*
X38782D2*
X39519D1*
X50341D2*
X63341D1*
X65194D2*
X70554D1*
X74759D2*
X75089D1*
X80315D2*
X92333D1*
X11368Y28338D2*
X17542D1*
X19534D2*
X24745D1*
X29793D2*
X30341D1*
X35548D2*
X36661D1*
X45728D2*
X63341D1*
X65194D2*
X70554D1*
X74868D2*
X76359D1*
X80315D2*
X92333D1*
X11358Y27707D2*
X17641D1*
X20159D2*
X24745D1*
X29793D2*
X30341D1*
X35687D2*
X36661D1*
X45728D2*
X46315D1*
X56781D2*
X63341D1*
X65274D2*
X65792D1*
X74759D2*
X76656D1*
X80315D2*
X92333D1*
X11358Y27075D2*
X18226D1*
X21429D2*
X24745D1*
X29793D2*
X30341D1*
X36322D2*
X36661D1*
X45728D2*
X46315D1*
X56781D2*
X63411D1*
X73985D2*
X77291D1*
X80315D2*
X92333D1*
X11358Y26443D2*
X18861D1*
X21429D2*
X24745D1*
X29793D2*
X30341D1*
X36957D2*
X38536D1*
X45728D2*
X46315D1*
X56781D2*
X62666D1*
X72408D2*
X77341D1*
X80315D2*
X92333D1*
X11358Y25812D2*
X19060D1*
X21429D2*
X24745D1*
X29793D2*
X30341D1*
X45728D2*
X46315D1*
X56781D2*
X58906D1*
X72408D2*
X77341D1*
X80315D2*
X92333D1*
X11358Y25180D2*
X24745D1*
X29793D2*
X30341D1*
X34893D2*
X35649D1*
X45728D2*
X46315D1*
X56781D2*
X58906D1*
X68766D2*
X68975D1*
X72408D2*
X92333D1*
X11358Y24548D2*
X23009D1*
X29793D2*
X31125D1*
X34893D2*
X36284D1*
X41263D2*
X41900D1*
X45728D2*
X46315D1*
X56781D2*
X58906D1*
X68766D2*
X68975D1*
X72289D2*
X92333D1*
X11358Y23917D2*
X23009D1*
X34853D2*
X36999D1*
X41313D2*
X46315D1*
X56781D2*
X58906D1*
X68766D2*
X68975D1*
X71654D2*
X92333D1*
X11358Y23285D2*
X23009D1*
X25378D2*
X25866D1*
X42354D2*
X46315D1*
X56781D2*
X58906D1*
X68181D2*
X92333D1*
X11358Y22653D2*
X22691D1*
X33593D2*
X34578D1*
X67715D2*
X92333D1*
X11348Y22022D2*
X22691D1*
X33593D2*
X34578D1*
X63379D2*
X64036D1*
X67060D2*
X92333D1*
X11348Y21390D2*
X22691D1*
X34228D2*
X34580D1*
X66494D2*
X92333D1*
X11348Y20758D2*
X22691D1*
X36639D2*
X38536D1*
X45728D2*
X46315D1*
X56781D2*
X58906D1*
X66494D2*
X92333D1*
X11348Y20127D2*
X22691D1*
X34972D2*
X35191D1*
X36074D2*
X38536D1*
X45728D2*
X46315D1*
X66494D2*
X92333D1*
X11348Y19495D2*
X22691D1*
X34853D2*
X41900D1*
X45728D2*
X46315D1*
X66494D2*
X92333D1*
X11348Y18863D2*
X14317D1*
X16161D2*
X22691D1*
X25666D2*
X26977D1*
X35657D2*
X46315D1*
X66494D2*
X86707D1*
X89523D2*
X92333D1*
X11348Y18232D2*
X13007D1*
X17470D2*
X26977D1*
X35697D2*
X46315D1*
X56781D2*
X58906D1*
X66494D2*
X85685D1*
X90545D2*
X92333D1*
X11348Y17600D2*
X12362D1*
X18115D2*
X26977D1*
X35697D2*
X46315D1*
X56781D2*
X62666D1*
X66494D2*
X85120D1*
X91101D2*
X92333D1*
X11348Y16968D2*
X11966D1*
X18512D2*
X26977D1*
X35697D2*
X46315D1*
X56781D2*
X84772D1*
X91458D2*
X92333D1*
X11339Y16337D2*
X11733D1*
X18750D2*
X26977D1*
X35697D2*
X46315D1*
X56781D2*
X84564D1*
X91656D2*
X92333D1*
X11339Y15705D2*
X11615D1*
X18859D2*
X27335D1*
X29396D2*
X31631D1*
X35697D2*
X84485D1*
X91745D2*
X92333D1*
X11339Y15073D2*
X11615D1*
X18859D2*
X27761D1*
X28960D2*
X32067D1*
X33266D2*
X33843D1*
X35697D2*
X84514D1*
X91716D2*
X92333D1*
X11339Y14442D2*
X11733D1*
X18740D2*
X33020D1*
X35697D2*
X84653D1*
X91567D2*
X92333D1*
X11339Y13810D2*
X11976D1*
X18502D2*
X32931D1*
X35677D2*
X84931D1*
X91289D2*
X92333D1*
X11339Y13178D2*
X12382D1*
X18095D2*
X33337D1*
X35121D2*
X85387D1*
X90843D2*
X92333D1*
X11339Y12547D2*
X13027D1*
X17450D2*
X86132D1*
X90098D2*
X92333D1*
X11339Y11915D2*
X14387D1*
X16091D2*
X92333D1*
X11339Y11283D2*
X17770D1*
X63050Y26633D2*
X63834D1*
X63654Y26820D1*
X63475Y27081D1*
X63401Y27430D1*
Y32133D1*
X63459Y32443D1*
X63624Y32712D1*
X63885Y32906D1*
X64094Y32979D1*
X64161Y33206D1*
X69007D1*
Y33176D1*
X69089Y33255D1*
X68824Y33343D1*
Y35589D1*
X69846D1*
X70101Y35841D1*
X70104Y36846D1*
X69883Y36675D1*
X68793Y35584D1*
X68532Y35406D1*
X68183Y35332D1*
X64144D1*
X64097Y34995D1*
X63951Y34715D1*
X63724Y34495D1*
X63439Y34358D1*
X63126Y34317D1*
X62815Y34378D1*
X62703Y34441D1*
X58782Y34444D1*
X58775Y33197D1*
X60510Y33206D1*
X63133D1*
Y31060D1*
X58287D1*
Y31269D1*
X58142Y31270D1*
X57831Y31328D1*
X57532Y31523D1*
X57384Y31670D1*
X57139Y31581D1*
X56825Y31541D1*
X56515Y31601D1*
X56403Y31664D1*
X56131Y31471D1*
X55819Y31160D1*
X55559Y30982D1*
X55209Y30907D1*
X51866D1*
X51870Y30448D1*
X51304D1*
X51310Y30356D1*
X51252Y30046D1*
X51057Y29746D1*
X50297Y28986D1*
X50037Y28807D1*
X49687Y28733D1*
X42295D1*
Y28476D1*
X45661D1*
Y24480D1*
X41966D1*
Y24946D1*
X41312Y24947D1*
X41279Y24734D1*
X41133Y24443D1*
X41079Y24378D1*
X41026Y24240D1*
X41220Y23980D1*
X41293Y23771D1*
X41456Y23704D1*
X42295D1*
Y23237D1*
X45661D1*
Y22890D1*
X46383Y22883D1*
X46374Y24303D1*
Y27993D1*
X56720D1*
Y22884D1*
X58978Y22883D1*
X58974Y25958D1*
X62734D1*
X62732Y26633D1*
X63050D1*
X38708Y28942D2*
X39581D1*
X39584Y29494D1*
X38715Y29493D1*
Y28947D1*
X38599Y25830D2*
Y26623D1*
X36729Y26631D1*
Y28877D1*
X36997D1*
X36989Y30929D1*
Y33479D1*
X36729Y33740D1*
X32141Y33736D1*
X32147Y33176D1*
X29736D1*
X29728Y31152D1*
Y24296D1*
X30102Y24461D1*
X30417Y24481D1*
X30723Y24401D1*
X30988Y24228D1*
X31154Y24020D1*
X31151Y24162D1*
X31192Y24385D1*
X31191Y24817D1*
X30407Y24814D1*
Y29360D1*
X31132D1*
X31148Y29486D1*
X31286Y29770D1*
X31517Y29985D1*
X31810Y30103D1*
X32298Y30120D1*
X34359D1*
X34670Y30062D1*
X34939Y29897D1*
X35130Y29646D1*
X35217Y29333D1*
X35222Y28870D1*
X35482Y28877D1*
Y27855D1*
X37502Y25831D1*
X38609Y25826D1*
X31730Y71036D2*
X31366D1*
Y74360D1*
X31005Y74172D1*
X30942Y74109D1*
X30947Y70373D1*
X31105Y70638D1*
X31346Y70843D1*
X31639Y70962D1*
X31727Y70968D1*
X46314Y49084D2*
X42431D1*
Y49987D1*
X42198Y49907D1*
X42136Y49842D1*
Y47794D1*
X45228Y47800D1*
X45486Y47903D1*
X45802Y47923D1*
X46108Y47843D1*
X46315Y47708D1*
X46311Y49091D1*
X48394Y51230D2*
X53151D1*
Y49084D1*
X48305D1*
Y49173D1*
X48035Y49203D1*
X48037Y46303D1*
X47979Y45993D1*
X47784Y45693D1*
X47300Y45209D1*
X56128Y45211D1*
X56124Y45547D1*
X54823Y45541D1*
X54512Y45599D1*
X54213Y45794D1*
X53452Y46554D1*
X53274Y46814D1*
X53200Y47164D1*
Y53762D1*
X53105Y54003D1*
X53074Y54317D1*
X53145Y54625D1*
X53309Y54896D1*
X53497Y55056D1*
X42130Y55055D1*
X42136Y53248D1*
Y51939D1*
X42407Y51990D1*
X47281D1*
X47592Y51932D1*
X47892Y51737D1*
X48404Y51225D1*
X34099Y64517D2*
Y63214D1*
X29763D1*
X29806Y63079D1*
X29824Y62890D1*
X29773Y62577D1*
X29687Y62411D1*
X32874Y62405D1*
X33284Y62331D1*
X33634Y62405D1*
X34239D1*
X34240Y64568D1*
X39973Y63524D2*
Y63214D1*
X35965Y63213D1*
Y61542D1*
X35908Y61232D1*
X35742Y60963D1*
X35491Y60771D1*
X35178Y60684D1*
X33981Y60679D1*
X33732Y60420D1*
X33737Y53787D1*
X33996Y53528D1*
X39299Y53533D1*
X39291Y54518D1*
Y55893D1*
X39717D1*
X39795Y56290D1*
X39959Y56560D1*
X40200Y56765D1*
X40493Y56884D1*
X40809Y56904D1*
X41114Y56824D1*
X41172Y56786D1*
X49286Y56781D1*
X52312D1*
X52226Y56808D1*
X51926Y57003D1*
X51166Y57763D1*
X50988Y58023D1*
X50914Y58373D1*
Y61757D1*
X49554Y61765D1*
X48473D1*
X48460Y61065D1*
X48470Y60381D1*
Y58525D1*
X46694D1*
X46647Y58189D1*
X46500Y57908D1*
X46273Y57688D1*
X45989Y57551D1*
X45675Y57511D1*
X45365Y57571D1*
X45089Y57726D1*
X44877Y57961D1*
X44749Y58250D1*
X44718Y58564D1*
X44789Y58872D1*
X44845Y58965D1*
X44844Y65168D1*
X44902Y65479D1*
X45075Y65754D1*
X45020Y65688D1*
X44969Y65765D1*
X41044D1*
X40726Y65828D1*
X40733Y65725D1*
X40842Y65429D1*
X40860Y65240D1*
X40810Y64927D1*
X40732Y64779D1*
X40733Y64605D1*
X40675Y64294D1*
X40480Y63994D1*
X40015Y63559D1*
X40006Y63555D1*
X43769Y33389D2*
X45128D1*
X45137Y33670D1*
X45194Y33981D1*
X45360Y34250D1*
X45611Y34441D1*
X45924Y34528D1*
X49026Y34533D1*
X49024Y34993D1*
X49589D1*
X49584Y36195D1*
X49642Y36505D1*
X49837Y36805D1*
X50251Y37219D1*
X49911Y37392D1*
X49667Y37595D1*
X49459Y37871D1*
X49143Y37502D1*
X48881Y37323D1*
X48587Y37204D1*
X48275Y37150D1*
X47959Y37165D1*
X47652Y37247D1*
X47371Y37392D1*
X47127Y37595D1*
X46987Y37774D1*
X43155Y37770D1*
X43161Y37560D1*
X38315D1*
Y39706D1*
X43161D1*
Y39498D1*
X46999Y39496D1*
X47332Y39822D1*
X47609Y39976D1*
X47912Y40068D1*
X48228Y40093D1*
X48542Y40049D1*
X48839Y39939D1*
X49106Y39769D1*
X49331Y39545D1*
X49454Y39353D1*
X49635Y39612D1*
X49872Y39822D1*
X50149Y39976D1*
X50452Y40068D1*
X50768Y40093D1*
X51082Y40049D1*
X51379Y39939D1*
X51646Y39769D1*
X51794Y39622D1*
X51791Y40093D1*
X51960D1*
X51958Y40210D1*
X52029Y40518D1*
X52193Y40788D1*
X52433Y40993D1*
X52726Y41112D1*
X53042Y41132D1*
X53348Y41052D1*
X53406Y41014D1*
X54405Y41009D1*
X54407Y42592D1*
X48120Y42597D1*
X47913Y42511D1*
X47599Y42470D1*
X47289Y42531D1*
X47014Y42686D1*
X46801Y42920D1*
X46673Y43209D1*
X46657Y43376D1*
X43710Y40424D1*
X43450Y40245D1*
X43100Y40171D1*
X37582D1*
X37272Y40229D1*
X36972Y40424D1*
X36039Y41357D1*
X32141Y41356D1*
X32147Y38256D1*
Y35716D1*
Y35456D1*
X37092Y35461D1*
X37402Y35404D1*
X37702Y35209D1*
X38462Y34449D1*
X38641Y34188D1*
X38715Y33838D1*
Y33392D1*
X39771Y33389D1*
X39775Y34695D1*
X39051Y35331D1*
X38102Y35334D1*
X37729Y35418D1*
X37329Y35698D1*
X34848Y37566D1*
X32442Y37560D1*
Y39706D1*
X37287D1*
Y37890D1*
X38388Y37061D1*
X39372Y37059D1*
X39682Y37002D1*
X39940Y36846D1*
X41210Y35735D1*
X41406Y35487D1*
X41498Y35175D1*
X41494Y34123D1*
X41486Y33379D1*
X42499Y33389D1*
X43150D1*
Y30462D1*
X43452Y30763D1*
Y33389D1*
X43769D1*
X48547Y32804D2*
Y30462D1*
X49026Y30459D1*
X49024Y32814D1*
X48552Y32808D1*
X25316Y24816D2*
Y23228D1*
X25603Y23227D1*
Y22701D1*
X26867Y22710D1*
X27053Y22901D1*
X26562Y22897D1*
Y23165D1*
X26380Y23157D1*
X26070Y23215D1*
X25801Y23381D1*
X25610Y23632D1*
X25522Y23945D1*
X25517Y24824D1*
X25324Y24814D1*
X53354Y35410D2*
X54058D1*
X54577Y35923D1*
X54726Y36039D1*
X54724Y36092D1*
X51559D1*
X51305Y35832D1*
X51310Y34994D1*
X51870Y34993D1*
Y32627D1*
X54862Y32633D1*
X55111Y32893D1*
X54965Y33164D1*
X53036D1*
Y35410D1*
X53354D1*
X27821Y94907D2*
X29398D1*
X29407Y95010D1*
X31104D1*
X31096Y95098D1*
X31166Y95406D1*
X31330Y95677D1*
X31563Y95875D1*
X19521Y95878D1*
X19262Y95619D1*
X19267Y84551D1*
Y75850D1*
X19539Y76089D1*
X19832Y76207D1*
X20147Y76228D1*
X20453Y76147D1*
X20511Y76110D1*
X20717Y76105D1*
X20710Y76365D1*
X21891D1*
X20202Y78055D1*
X20023Y78315D1*
X19949Y78665D1*
Y87694D1*
X20007Y88004D1*
X20202Y88304D1*
X20962Y89064D1*
X21222Y89243D1*
X21572Y89317D1*
X22650D1*
X22961Y89259D1*
X23261Y89064D1*
X24053Y88271D1*
X25250Y88285D1*
X25241Y88927D1*
Y89085D1*
X27691D1*
X27683Y90074D1*
X27447Y90059D1*
X27137Y90119D1*
X26861Y90275D1*
X26649Y90509D1*
X26521Y90798D1*
X26490Y91112D1*
X26561Y91421D1*
X26617Y91514D1*
X26616Y92196D1*
X26674Y92507D1*
X26839Y92776D1*
X27090Y92967D1*
X27403Y93054D1*
X27509Y93059D1*
X27513Y93319D1*
X27503Y93931D1*
Y94907D1*
X27821D1*
X22955Y74777D2*
X22956Y74648D1*
X23075Y74640D1*
X23381Y74560D1*
X23646Y74387D1*
X23843Y74140D1*
X23952Y73843D1*
X23971Y73654D1*
X23920Y73342D1*
X23774Y73062D1*
X23682Y72973D1*
X25663Y72968D1*
X25933Y73071D1*
X26179Y73087D1*
X26031Y73348D1*
X25266D1*
X24955Y73406D1*
X24656Y73601D1*
X22951Y75306D1*
X22956Y74648D1*
X20710Y72978D2*
Y74387D1*
X20533Y74379D1*
X20334Y74292D1*
X20020Y74252D1*
X19710Y74312D1*
X19434Y74467D1*
X19268Y74650D1*
X19267Y73230D1*
X19527Y72963D1*
X20702Y72968D1*
X28423Y73746D2*
X28424Y71501D1*
X28156D1*
X28164Y71197D1*
X28936Y71193D1*
Y70727D1*
X29152Y70670D1*
X29221Y70765D1*
Y74109D1*
X28962Y74373D1*
X28421Y74368D1*
X28414Y73088D1*
X78151Y35861D2*
X80253D1*
Y35295D1*
X85815Y35301D1*
X88028D1*
X88289Y35560D1*
X88284Y41657D1*
X87724Y41648D1*
X87734Y44293D1*
X87724Y44500D1*
Y46193D1*
X88289D1*
X88284Y53443D1*
Y70221D1*
X75003Y83503D1*
X74809Y83596D1*
X73011Y83600D1*
X73009Y82900D1*
X70143D1*
X70153Y86026D1*
X70143Y86144D1*
X68193Y86140D1*
X62825Y80777D1*
X62564Y80598D1*
X62215Y80524D1*
X61589D1*
X61582Y79144D1*
X57236D1*
Y80523D1*
X56629Y80524D1*
X56362Y80265D1*
X56367Y72387D1*
X56310Y72077D1*
X56115Y71777D1*
X55355Y71017D1*
X55094Y70838D1*
X54744Y70764D1*
X49377D1*
X49651Y70550D1*
X63492D1*
X63764Y70653D1*
X64080Y70673D1*
X64386Y70593D1*
X64651Y70420D1*
X64848Y70173D1*
X64957Y69876D1*
X64975Y69687D1*
X64925Y69375D1*
X64778Y69095D1*
X64551Y68875D1*
X64267Y68738D1*
X63953Y68697D1*
X63643Y68758D1*
X63531Y68821D1*
X49390Y68824D1*
X49386Y68264D1*
X46741Y68274D1*
X46534Y68264D1*
X44841D1*
Y68830D1*
X44476Y68738D1*
X44172Y68698D1*
X44170Y67497D1*
X46759Y67491D1*
X57352D1*
X57662Y67433D1*
X57944Y67343D1*
X58209Y67170D1*
X58406Y66923D1*
X58505Y66654D1*
X58502Y67849D1*
X61368D1*
Y67144D1*
X62001Y67149D1*
X62311Y67091D1*
X62580Y66925D1*
X62771Y66674D1*
X62859Y66361D1*
X62864Y60888D1*
Y57664D1*
X63424Y57666D1*
X63414Y55021D1*
X63424Y54814D1*
Y53752D1*
X65021Y53750D1*
X64912Y53814D1*
X64806D1*
Y56660D1*
X65272D1*
X65266Y60317D1*
Y62986D1*
X65323Y63296D1*
X65518Y63596D1*
X66278Y64356D1*
X66539Y64535D1*
X66889Y64609D1*
X67553D1*
X67551Y67849D1*
X69506D1*
X68876Y68487D1*
X68697Y68747D1*
X68623Y69097D1*
Y76469D1*
X68364Y76728D1*
X64926Y76723D1*
X64935Y76023D1*
Y73483D1*
Y70943D1*
X62069D1*
X62079Y74069D1*
X62069Y74187D1*
X61587Y74183D1*
X61582Y74064D1*
X57236D1*
Y76410D1*
X61582D1*
Y75904D1*
X62078Y75909D1*
X62069Y76609D1*
Y79149D1*
X64935D1*
Y78444D1*
X68726Y78449D1*
X69036Y78391D1*
X69336Y78196D1*
X70096Y77436D1*
X70275Y77176D1*
X70349Y76826D1*
Y69454D1*
X70608Y69195D1*
X70724Y69237D1*
Y69660D1*
X72083D1*
X71940Y69803D1*
X71762Y70064D1*
X71688Y70413D1*
Y70939D1*
X71118Y70943D1*
X71128Y74069D1*
X71118Y74753D1*
X71128Y76609D1*
X71118Y77293D1*
Y79149D1*
X73983D1*
X73974Y76023D1*
X73983Y75904D1*
X74290Y75900D1*
X74291Y76360D1*
X77136D1*
Y73989D1*
X77263Y73969D1*
X77547Y73831D1*
X77762Y73600D1*
X77880Y73307D1*
X77896Y72820D1*
Y66658D1*
X80095Y66662D1*
X80085Y63816D1*
X80095Y63169D1*
X80085Y61276D1*
X80095Y60629D1*
X80085Y58736D1*
X80095Y58089D1*
Y56196D1*
X77249D1*
Y56464D1*
X74725Y53932D1*
X73413Y52620D1*
X73254Y52295D1*
X73027Y52075D1*
X72742Y51938D1*
X72556Y51914D1*
X72513Y51688D1*
X72367Y51408D1*
X72140Y51188D1*
X71855Y51051D1*
X71541Y51010D1*
X71231Y51071D1*
X70956Y51226D1*
X70743Y51460D1*
X70615Y51749D1*
X70585Y52064D1*
X70655Y52372D1*
X70712Y52465D1*
X70710Y62170D1*
X70768Y62481D1*
X70934Y62750D1*
X71185Y62941D1*
X71498Y63028D1*
X71682Y63033D1*
X71691Y64017D1*
Y65119D1*
X70724Y65114D1*
X70723Y65488D1*
X70419Y65448D1*
X70407Y64723D1*
X70417Y64039D1*
X70407Y62183D1*
X70417Y61499D1*
Y59643D1*
X69851D1*
X69847Y58022D1*
X69789Y57711D1*
X69594Y57412D1*
X68885Y56703D1*
X68928Y56660D1*
X69352D1*
Y53814D1*
X68885D1*
X68892Y50782D1*
X72337Y47339D1*
X72516Y47079D1*
X72590Y46729D1*
Y37769D1*
X72841Y37771D1*
X72850Y38077D1*
X72841Y39136D1*
Y40077D1*
X73168D1*
X73245Y40473D1*
X73409Y40743D1*
X73650Y40948D1*
X73943Y41067D1*
X74259Y41087D1*
X74536Y41014D1*
X74376Y41377D1*
X74319Y41689D1*
X74312Y42469D1*
X74321Y44006D1*
X74384Y44316D1*
X74504Y44610D1*
X74678Y44875D1*
X74899Y45102D1*
X75159Y45283D1*
X75449Y45412D1*
X75758Y45483D1*
X76075Y45495D1*
X76388Y45446D1*
X76686Y45338D1*
X76958Y45176D1*
X77195Y44965D1*
X77388Y44714D1*
X77529Y44430D1*
X77614Y44124D1*
X77639Y43834D1*
X77629Y41834D1*
X77609Y41519D1*
X77519Y41215D1*
X77374Y40933D1*
X77177Y40684D1*
X76937Y40477D1*
X76662Y40319D1*
X76362Y40216D1*
X76049Y40172D1*
X75732Y40189D1*
X75424Y40265D1*
X75096Y40427D1*
X75154Y40101D1*
X75149Y40072D1*
X77386Y40077D1*
Y39511D1*
X77513Y39486D1*
X77797Y39347D1*
X78012Y39116D1*
X78130Y38823D1*
X78146Y38336D1*
Y35866D1*
X31829Y51372D2*
X31819Y50798D1*
X31829Y50539D1*
X33710Y50544D1*
X33690Y50817D1*
X33760Y51126D1*
X33924Y51396D1*
X34165Y51601D1*
X34458Y51719D1*
X34774Y51740D1*
X35079Y51659D1*
X35154Y51611D1*
X37566Y51617D1*
X37538Y51808D1*
X33634D1*
X33324Y51865D1*
X33024Y52060D1*
X32876Y52208D1*
X32275Y51611D1*
X32005Y51430D1*
X32128Y51493D1*
X31829Y51375D1*
Y50787D1*
X29310Y38256D2*
X29301Y38891D1*
Y39575D1*
X26500Y36774D1*
X27490Y36781D1*
X27757Y36884D1*
X28073Y36904D1*
X28379Y36824D1*
X28644Y36652D1*
X28810Y36443D1*
X29300Y36935D1*
X29311Y38561D1*
X36858Y23910D2*
X37063Y23920D1*
X37150Y24100D1*
X36840Y24158D1*
X36540Y24353D1*
X35144Y25749D1*
X34969Y25509D1*
X34991Y25534D1*
X34826Y25088D1*
Y24162D1*
X34785Y23939D1*
X34958Y23910D1*
X37052D1*
X36962Y24121D1*
X36672Y24245D1*
X36540Y24353D1*
X36541Y23910D1*
X36858D1*
X34641Y21153D2*
Y22662D1*
X33526Y22664D1*
X33525Y21577D1*
X33491Y21349D1*
X34059Y21407D1*
X34364Y21327D1*
X34636Y21147D1*
X41286Y44679D2*
Y42598D1*
X40959D1*
X40903Y42261D1*
X40757Y41980D1*
X40665Y41891D1*
X42752Y41897D1*
X45528Y44682D1*
X41284Y44680D1*
X38975Y42598D2*
X38641Y42607D1*
X38434Y42598D1*
X37233D1*
X37941Y41895D1*
X39239Y41897D1*
X39133Y42033D1*
X39005Y42322D1*
X38978Y42607D1*
X37058Y45443D2*
X37207D1*
X37202Y45553D1*
X36728Y45568D1*
X32373D1*
X32505Y45387D1*
X33003Y44888D1*
X36749Y44883D1*
X36741Y45443D1*
X37058D1*
X68703Y25801D2*
X68693Y25348D1*
X68703Y25141D1*
Y23448D1*
X68137D1*
X68122Y23312D1*
X67998Y23022D1*
X67666Y22665D1*
X67130Y22130D1*
X66870Y21951D1*
X66520Y21877D1*
X64580D1*
X64270Y21935D1*
X64001Y22100D1*
X63807Y22361D1*
X63734Y22570D1*
X63719Y22637D1*
X63322D1*
X63320Y21384D1*
X64002Y21394D1*
X66428D1*
Y17398D1*
X62732D1*
Y18083D1*
X58974D1*
Y18608D1*
X57972Y18618D1*
X57347D1*
X57139Y18531D1*
X56825Y18491D1*
X56718Y18511D1*
X56720Y16048D1*
X46374D1*
Y21157D1*
X45663Y21158D1*
X45661Y19241D1*
X41966D1*
Y19708D1*
X38599D1*
Y21067D1*
X36623Y21064D1*
X36571Y20727D1*
X36425Y20447D1*
X36198Y20227D1*
X35913Y20090D1*
X35599Y20050D1*
X35289Y20110D1*
X35014Y20265D1*
X34954Y20331D1*
X34903Y20109D1*
X34789Y19890D1*
X34786Y19465D1*
X34997Y19444D1*
X35281Y19306D1*
X35496Y19075D1*
X35614Y18782D1*
X35631Y18295D1*
Y13991D1*
X35573Y13681D1*
X35407Y13412D1*
X35156Y13221D1*
X34843Y13133D1*
X34440Y13128D1*
X34245Y13042D1*
X33932Y13001D1*
X33621Y13062D1*
X33346Y13217D1*
X33133Y13451D1*
X33005Y13740D1*
X32975Y14055D1*
X33045Y14363D1*
X33209Y14633D1*
X33450Y14838D1*
X33743Y14957D1*
X33911Y14968D1*
X33905Y15708D1*
X33603Y15594D1*
X33457Y15314D1*
X33230Y15094D1*
X32945Y14957D1*
X32632Y14916D1*
X32321Y14977D1*
X32046Y15132D1*
X31833Y15366D1*
X31705Y15655D1*
X31691Y15803D1*
X31306Y15864D1*
X31195Y15927D1*
X29359Y15931D1*
X29303Y15594D1*
X29157Y15314D1*
X28930Y15094D1*
X28645Y14957D1*
X28332Y14916D1*
X28021Y14977D1*
X27746Y15132D1*
X27533Y15366D1*
X27405Y15655D1*
X27378Y15940D1*
X27041Y15931D1*
X27050Y18777D1*
X27041Y19489D1*
X26945Y19394D1*
X26685Y19215D1*
X26335Y19141D1*
X25611D1*
X25603Y18681D1*
X22757D1*
X22767Y21327D1*
X22757Y21533D1*
Y23227D1*
X23065D1*
X23070Y25143D1*
X24806D1*
X24807Y28971D1*
X21370D1*
X21368Y28711D1*
X19334D1*
X19328Y28481D1*
X20345Y27462D1*
X21368Y27465D1*
Y25219D1*
X19122D1*
Y26241D1*
X17855Y27512D1*
X17676Y27772D1*
X17602Y28122D1*
Y29960D1*
X17660Y30270D1*
X17855Y30570D1*
X29298Y42013D1*
X29301Y43641D1*
X31811D1*
X31178Y44273D1*
X30828Y44451D1*
X30616Y44685D1*
X30488Y44974D1*
X30458Y45289D1*
X30521Y45568D1*
X26340D1*
X26144Y45481D1*
X25830Y45441D1*
X25520Y45501D1*
X25244Y45656D1*
X25032Y45890D1*
X24904Y46179D1*
X24873Y46494D1*
X24944Y46802D1*
X25108Y47073D1*
X25348Y47278D1*
X25641Y47396D1*
X25957Y47416D1*
X26263Y47336D1*
X26321Y47298D1*
X34434Y47293D1*
X38472D1*
X38731Y47396D1*
X39046Y47416D1*
X39285Y47354D1*
X39291Y47966D1*
X38897Y47974D1*
X38586Y48032D1*
X38318Y48197D1*
X38126Y48449D1*
X38039Y48762D1*
X38034Y49323D1*
X37574Y49331D1*
Y49896D1*
X36545Y49891D1*
X36556Y49739D1*
X36506Y49427D1*
X36360Y49146D1*
X36133Y48927D1*
X35848Y48789D1*
X35534Y48749D1*
X35191Y48818D1*
X31827D1*
X31829Y48258D1*
X28983D1*
X28993Y51104D1*
X28983Y51751D1*
X28993Y53644D1*
X28983Y54291D1*
X28993Y56184D1*
X28983Y56831D1*
Y58724D1*
X31116D1*
X31124Y59784D1*
X29129Y59792D1*
X24974D1*
X24664Y59849D1*
X24364Y60044D1*
X23604Y60804D1*
X23425Y61065D1*
X23351Y61414D1*
Y67210D1*
X23409Y67521D1*
X23604Y67821D1*
X24364Y68581D1*
X24624Y68759D1*
X24974Y68833D1*
X26095D1*
X26091Y70125D1*
X25830Y70101D1*
X25520Y70161D1*
X25244Y70316D1*
X25032Y70550D1*
X24904Y70839D1*
X24873Y71154D1*
X24883Y71243D1*
X19164D1*
X18854Y71300D1*
X18554Y71495D1*
X17794Y72255D1*
X17616Y72516D1*
X17542Y72865D1*
Y95537D1*
X17234Y95313D1*
X16679Y95006D1*
X16078Y94803D1*
X15451Y94710D1*
X14817Y94729D1*
X14196Y94859D1*
X13609Y95098D1*
X13072Y95436D1*
X12605Y95864D1*
X12220Y96368D1*
X11930Y96932D1*
X11745Y97539D1*
X11670Y98169D1*
X11708Y98802D1*
X11857Y99418D1*
X12112Y99998D1*
X12467Y100524D1*
X12908Y100979D1*
X13424Y101349D1*
X13996Y101622D1*
X14608Y101789D1*
X15240Y101845D1*
X15871Y101789D1*
X16483Y101622D1*
X17056Y101349D1*
X17571Y100979D1*
X18012Y100524D1*
X18367Y99998D1*
X18622Y99417D1*
X18771Y98801D1*
X18810Y98274D1*
X18754Y97643D1*
X18717Y97478D1*
X18815Y97530D1*
X19164Y97604D1*
X31100D1*
X31096Y97692D1*
X31166Y98000D1*
X31330Y98271D1*
X31571Y98476D1*
X31864Y98594D1*
X32179Y98615D1*
X32485Y98534D1*
X32543Y98497D1*
X36103Y98492D1*
X36226Y98582D1*
X36519Y98700D1*
X37135Y98717D1*
X37141Y99277D1*
X39512D1*
X39521Y99362D1*
X39645Y99652D1*
X39978Y100008D1*
X40513Y100544D1*
X40774Y100723D1*
X41123Y100797D1*
X52647D1*
X52957Y100739D1*
X53257Y100544D1*
X54017Y99784D1*
X54196Y99524D1*
X54270Y99174D1*
Y97795D1*
X56453Y97793D1*
X56443Y94848D1*
X56453Y94993D1*
Y92048D1*
X55749D1*
X55743Y91810D1*
X55685Y91500D1*
X55490Y91200D1*
X54683Y90393D1*
X54523Y90067D1*
X54317Y89868D1*
X54969Y89870D1*
X55280Y89812D1*
X55580Y89617D1*
X56400Y88796D1*
X57240Y88800D1*
X57236Y89110D1*
X61096D1*
X61094Y89300D1*
X57236Y89304D1*
Y91650D1*
X61582D1*
Y91104D1*
X63960Y91106D1*
Y90401D1*
X64295Y90348D1*
X64564Y90183D1*
X64755Y89931D1*
X64843Y89618D1*
X64848Y88376D1*
X64957Y88080D1*
X64975Y87890D1*
X64925Y87578D1*
X64778Y87298D1*
X64551Y87078D1*
X64267Y86941D1*
X63963Y86902D1*
X63950Y85440D1*
X63960Y84756D1*
Y84349D1*
X67220Y87613D1*
X67481Y87792D1*
X67830Y87866D1*
X70142D1*
X70153Y88566D1*
X70143Y89250D1*
Y91106D1*
X73009D1*
X72999Y87980D1*
X73009Y87385D1*
X74268Y87377D1*
X74345Y87773D1*
X74509Y88043D1*
X74750Y88248D1*
X75043Y88367D1*
X75359Y88387D1*
X75664Y88307D1*
X75929Y88134D1*
X76126Y87887D1*
X76236Y87590D1*
X76249Y87372D1*
X76586Y87377D1*
Y84531D1*
X76418D1*
X89757Y71190D1*
X89936Y70929D1*
X90010Y70580D1*
Y46202D1*
X90570Y46193D1*
X90560Y43548D1*
X90570Y43341D1*
Y41648D1*
X90004D1*
X90010Y35198D1*
X89952Y34888D1*
X89757Y34588D1*
X88997Y33828D1*
X88737Y33649D1*
X88387Y33575D1*
X80261D1*
X80253Y30781D1*
X80243Y30475D1*
X80253Y29828D1*
X80243Y27935D1*
X80253Y27288D1*
Y25395D1*
X77407D1*
Y27012D1*
X76673Y27754D1*
X76495Y28015D1*
X76421Y28365D1*
Y28434D1*
X76032Y28368D1*
X75721Y28429D1*
X75446Y28584D1*
X75233Y28818D1*
X75105Y29107D1*
X75075Y29422D1*
X75145Y29730D1*
X75202Y29823D1*
X75201Y35222D1*
X74216Y35231D1*
X72841D1*
Y35796D1*
X72487Y35791D1*
X72177Y35849D1*
X71877Y36044D1*
X71828Y36093D1*
X71830Y35486D1*
X71772Y35176D1*
X71577Y34876D1*
X71065Y34364D1*
X71070Y33343D1*
X70802D1*
X70810Y32893D1*
X70752Y32583D1*
X70557Y32283D1*
X69797Y31523D1*
X69537Y31344D1*
X69187Y31270D1*
X68998D1*
X69007Y31060D1*
X65127D1*
Y27797D1*
X65386Y27528D1*
X65867Y27533D1*
X65857Y27993D1*
X68703D1*
Y27765D1*
X68981Y27846D1*
X69041Y28037D1*
Y28160D1*
X70621Y28162D1*
Y29485D1*
X70678Y29796D1*
X70844Y30064D1*
X71095Y30256D1*
X71408Y30343D1*
X71493Y30348D1*
X71470Y30505D1*
Y31005D1*
X71536Y31295D1*
X71667Y31481D1*
X71917Y31731D1*
X72109Y31865D1*
X72393Y31928D1*
X73893D1*
X74183Y31862D1*
X74369Y31731D1*
X74619Y31481D1*
X74753Y31289D1*
X74816Y31005D1*
Y30505D1*
X74746Y30209D1*
X74816Y30505D1*
X74743Y30199D1*
X74652Y30066D1*
X74754Y29863D1*
X74816Y29485D1*
X74773Y29171D1*
X74630Y28858D1*
X74754Y28593D1*
X74816Y28215D1*
X74773Y27901D1*
X74648Y27611D1*
X74450Y27364D1*
X74193Y27179D1*
X73896Y27070D1*
X73643Y27042D1*
X72643Y27052D1*
X72581Y27044D1*
X72338Y27090D1*
X72346Y25358D1*
Y24987D1*
X72289Y24677D1*
X72123Y24408D1*
X71862Y24214D1*
X71653Y24141D1*
X71586Y23937D1*
Y23814D1*
X69041D1*
Y25864D1*
X68745Y25808D1*
X68703Y25806D1*
Y25458D1*
X57554Y73870D2*
X61582D1*
Y71524D1*
X57236D1*
Y73870D1*
X57554D1*
Y78950D2*
X61582D1*
Y76604D1*
X57236D1*
Y78950D1*
X57554D1*
Y84030D2*
X61096D1*
X61094Y84220D1*
X57236Y84224D1*
Y86570D1*
X61096D1*
X61094Y86760D1*
X57236Y86764D1*
Y87072D1*
X56039Y87074D1*
X55729Y87132D1*
X55429Y87327D1*
X54608Y88148D1*
X52062Y88144D1*
X52057Y86764D1*
X48535D1*
X48664Y86570D1*
X52057D1*
Y84224D1*
X49547D1*
X49563Y84025D1*
X52057Y84030D1*
X52060Y82250D1*
X54134D1*
X54397Y82353D1*
X54712Y82373D1*
X55018Y82293D1*
X55283Y82120D1*
X55490Y81845D1*
X55654Y81997D1*
X55915Y82176D1*
X56264Y82250D1*
X57247D1*
X57236Y82954D1*
Y84030D1*
X57554D1*
X52057Y90688D2*
Y89874D1*
X53134Y89870D1*
X52899Y90119D1*
X52771Y90409D1*
X52741Y90723D1*
X52811Y91031D1*
X52975Y91302D1*
X53216Y91507D1*
X53445Y91599D1*
X53898Y92049D1*
X52879Y92048D1*
X52945Y91675D1*
X52894Y91362D1*
X52748Y91082D1*
X52521Y90862D1*
X52236Y90725D1*
X52050Y90701D1*
X52057Y80528D2*
Y79144D1*
X48555D1*
X48664Y78950D1*
X52057D1*
Y76604D1*
X48674D1*
X48650Y76414D1*
X52057Y76410D1*
Y74064D1*
X48555D1*
X48553Y73875D1*
X52057Y73870D1*
Y72491D1*
X54396Y72490D1*
X54646Y72749D1*
X54641Y80391D1*
X54275Y80458D1*
X54163Y80521D1*
X52047Y80524D1*
X59308Y51330D2*
X59335Y51624D1*
X59135Y51427D1*
X58875Y51248D1*
X58525Y51174D1*
X58337D1*
X58346Y49627D1*
X58970D1*
Y49299D1*
X59309Y49232D1*
X59301Y50597D1*
X59311Y51327D1*
X58988Y51309D1*
X58695Y51191D1*
X58336Y51167D1*
X58326Y50714D1*
X62469Y52020D2*
X62602Y51617D1*
X62627Y51327D1*
X62618Y49327D1*
X62597Y49011D1*
X62508Y48707D1*
X62362Y48425D1*
X62166Y48177D1*
X61926Y47969D1*
X61651Y47812D1*
X61351Y47709D1*
X61037Y47665D1*
X60720Y47681D1*
X60413Y47757D1*
X60125Y47891D1*
X59940Y48024D1*
X59857Y47843D1*
X59855Y45098D1*
X60148Y45283D1*
X60437Y45412D1*
X60746Y45483D1*
X61063Y45495D1*
X61376Y45446D1*
X61675Y45338D1*
X61947Y45176D1*
X62184Y44965D1*
X62376Y44714D1*
X62517Y44430D1*
X62602Y44124D1*
X62628Y43834D1*
X62618Y41834D1*
X62597Y41519D1*
X62508Y41215D1*
X62403Y41012D1*
X64638Y41009D1*
X64949Y40951D1*
X65218Y40786D1*
X65409Y40535D1*
X65496Y40222D1*
X65501Y39680D1*
X66586Y39685D1*
Y38941D1*
X67605Y38950D1*
X69004Y40349D1*
X69265Y40528D1*
X69615Y40602D1*
X70855D1*
X70864Y42811D1*
Y46373D1*
X67418Y49817D1*
X67240Y50077D1*
X67166Y50427D1*
Y53810D1*
X66985Y53814D1*
X66992Y53647D1*
X66934Y53337D1*
X66739Y53037D1*
X65979Y52277D1*
X65718Y52098D1*
X65369Y52024D1*
X62481D1*
X59308Y43837D2*
X59310Y44006D1*
X59359Y44248D1*
X58845Y43738D1*
X58584Y43559D1*
X58234Y43485D1*
X56597D1*
X56593Y43450D1*
X58212Y43443D1*
X58953D1*
Y43017D1*
X59293Y42949D1*
X59301Y43834D1*
X59311D1*
X74320Y51330D2*
X74321Y51499D1*
X74384Y51809D1*
X74504Y52103D1*
X74678Y52368D1*
X74899Y52595D1*
X75159Y52776D1*
X75449Y52905D1*
X75758Y52976D1*
X76075Y52988D1*
X76388Y52939D1*
X76686Y52831D1*
X76958Y52669D1*
X77195Y52458D1*
X77388Y52207D1*
X77529Y51923D1*
X77614Y51617D1*
X77639Y51327D1*
X77629Y49327D1*
X77609Y49012D1*
X77519Y48708D1*
X77374Y48426D1*
X77177Y48177D1*
X76937Y47970D1*
X76662Y47812D1*
X76362Y47709D1*
X76049Y47665D1*
X75732Y47682D1*
X75424Y47758D1*
X75136Y47891D1*
X74879Y48076D1*
X74662Y48307D1*
X74492Y48575D1*
X74376Y48870D1*
X74319Y49182D1*
X74312Y49962D1*
X74322Y51327D1*
X79298Y51330D2*
X79300Y51499D1*
X79362Y51809D1*
X79483Y52103D1*
X79656Y52368D1*
X79877Y52595D1*
X80137Y52776D1*
X80427Y52905D1*
X80736Y52976D1*
X81053Y52988D1*
X81366Y52939D1*
X81664Y52831D1*
X81937Y52669D1*
X82174Y52458D1*
X82366Y52207D1*
X82507Y51923D1*
X82592Y51617D1*
X82617Y51327D1*
X82608Y49327D1*
X82587Y49012D1*
X82498Y48708D1*
X82352Y48426D1*
X82156Y48177D1*
X81916Y47970D1*
X81641Y47812D1*
X81341Y47709D1*
X81027Y47665D1*
X80710Y47682D1*
X80403Y47758D1*
X80115Y47891D1*
X79858Y48076D1*
X79640Y48307D1*
X79471Y48575D1*
X79355Y48870D1*
X79297Y49182D1*
X79291Y49962D1*
X79301Y51327D1*
X84302Y51330D2*
X84303Y51499D1*
X84366Y51809D1*
X84486Y52103D1*
X84660Y52368D1*
X84881Y52595D1*
X85141Y52776D1*
X85431Y52905D1*
X85740Y52976D1*
X86057Y52988D1*
X86370Y52939D1*
X86668Y52831D1*
X86941Y52669D1*
X87177Y52458D1*
X87370Y52207D1*
X87511Y51923D1*
X87596Y51617D1*
X87621Y51327D1*
X87611Y49327D1*
X87591Y49012D1*
X87502Y48708D1*
X87356Y48426D1*
X87160Y48177D1*
X86920Y47970D1*
X86645Y47812D1*
X86345Y47709D1*
X86031Y47665D1*
X85714Y47682D1*
X85406Y47758D1*
X85119Y47891D1*
X84861Y48076D1*
X84644Y48307D1*
X84474Y48575D1*
X84359Y48870D1*
X84301Y49182D1*
X84295Y49962D1*
X84304Y51327D1*
X79298Y43837D2*
X79300Y44006D1*
X79362Y44316D1*
X79483Y44610D1*
X79656Y44875D1*
X79877Y45102D1*
X80137Y45283D1*
X80427Y45412D1*
X80736Y45483D1*
X81053Y45495D1*
X81366Y45446D1*
X81664Y45338D1*
X81937Y45176D1*
X82174Y44965D1*
X82366Y44714D1*
X82507Y44430D1*
X82592Y44124D1*
X82617Y43834D1*
X82608Y41834D1*
X82587Y41519D1*
X82498Y41215D1*
X82352Y40933D1*
X82156Y40684D1*
X81916Y40477D1*
X81641Y40319D1*
X81341Y40216D1*
X81027Y40172D1*
X80710Y40189D1*
X80403Y40265D1*
X80115Y40398D1*
X79858Y40583D1*
X79640Y40814D1*
X79471Y41082D1*
X79355Y41377D1*
X79297Y41689D1*
X79291Y42469D1*
X79301Y43834D1*
X84302Y43837D2*
X84303Y44006D1*
X84366Y44316D1*
X84486Y44610D1*
X84660Y44875D1*
X84881Y45102D1*
X85141Y45283D1*
X85431Y45412D1*
X85740Y45483D1*
X86057Y45495D1*
X86370Y45446D1*
X86668Y45338D1*
X86941Y45176D1*
X87177Y44965D1*
X87370Y44714D1*
X87511Y44430D1*
X87596Y44124D1*
X87621Y43834D1*
X87611Y41834D1*
X87591Y41519D1*
X87502Y41215D1*
X87356Y40933D1*
X87160Y40684D1*
X86920Y40477D1*
X86645Y40319D1*
X86345Y40216D1*
X86031Y40172D1*
X85714Y40189D1*
X85406Y40265D1*
X85119Y40398D1*
X84861Y40583D1*
X84644Y40814D1*
X84474Y41082D1*
X84359Y41377D1*
X84301Y41689D1*
X84295Y42469D1*
X84304Y43834D1*
X68125Y59643D2*
X67551D1*
X67561Y62769D1*
X67551Y62887D1*
X67248Y62883D1*
X66987Y62623D1*
X66992Y56666D1*
X67172Y56660D1*
X67166Y56825D1*
Y57066D1*
X67223Y57377D1*
X67418Y57677D1*
X68127Y58385D1*
X68121Y59639D1*
X58502Y64723D2*
Y66201D1*
X58337Y65845D1*
X58110Y65625D1*
X57825Y65488D1*
X57521Y65448D1*
X57518Y64300D1*
X57826Y64535D1*
X58176Y64609D1*
X58503D1*
X58512Y65309D1*
X54653Y63496D2*
X54663Y64191D1*
X54653Y64875D1*
Y65758D1*
X51637Y65765D1*
X48472D1*
X48460Y63605D1*
X48470Y63487D1*
X51293Y63491D1*
X51556Y63594D1*
X51872Y63614D1*
X52178Y63534D1*
X52442Y63361D1*
X52640Y63114D1*
X52749Y62818D1*
X52767Y62628D1*
X52717Y62316D1*
X52639Y62167D1*
Y58729D1*
X52899Y58471D1*
X53074Y58564D1*
X53145Y58872D1*
X53201Y58965D1*
X53200Y62628D1*
X53258Y62939D1*
X53423Y63208D1*
X53674Y63399D1*
X53987Y63486D1*
X54648Y63491D1*
X54653Y64240D1*
X71470Y30823D2*
Y31005D1*
X71536Y31295D1*
X71667Y31481D1*
X71917Y31731D1*
X72109Y31865D1*
X72393Y31928D1*
X73893D1*
X74183Y31862D1*
X74369Y31731D1*
X74619Y31481D1*
X74753Y31289D1*
X74816Y31005D1*
Y30505D1*
X71470Y30823D2*
Y31005D1*
X71536Y31295D1*
X71667Y31481D1*
X71917Y31731D1*
X72109Y31865D1*
X72393Y31928D1*
X73893D1*
X74183Y31862D1*
X74369Y31731D1*
X74619Y31481D1*
X74753Y31289D1*
X74816Y31005D1*
Y30505D1*
X74743Y30199D1*
X23233Y80148D2*
X23224Y80520D1*
X22948Y80480D1*
X22638Y80541D1*
X22363Y80696D1*
X22150Y80930D1*
X22022Y81219D1*
X21992Y81534D1*
X22062Y81842D1*
X22226Y82112D1*
X22467Y82317D1*
X22760Y82436D1*
X23075Y82456D1*
X23219Y82419D1*
X23053Y82549D1*
X22752D1*
X22441Y82607D1*
X22141Y82802D1*
X21675Y83249D1*
Y79012D1*
X24341Y76357D1*
X25232Y75466D1*
X25231Y76987D1*
X24647Y76980D1*
X24336Y77038D1*
X24068Y77203D1*
X23876Y77455D1*
X23789Y77767D1*
X23784Y78250D1*
X23224Y78248D1*
Y80470D1*
X55496Y52831D2*
X54921D1*
X54926Y50692D1*
X55214Y50910D1*
X55424Y50983D1*
X55491Y51032D1*
Y52828D1*
X43007Y72656D2*
Y73086D1*
X42807Y73081D1*
Y73785D1*
X42433Y73791D1*
X42115Y73854D1*
X42053Y73800D1*
X41976Y73651D1*
Y72753D1*
X42282Y72773D1*
X42588Y72693D1*
X42646Y72655D1*
X43010Y72650D1*
X73560Y67760D2*
X73570Y67125D1*
Y65389D1*
X74536Y65393D1*
Y64927D1*
X74855Y65193D1*
X74851Y68115D1*
X74291Y68114D1*
Y68580D1*
X73571Y68574D1*
X73560Y67014D1*
X37691Y71014D2*
X37157D1*
Y71480D1*
X36972Y71495D1*
X36682Y71619D1*
X36501Y71776D1*
X36503Y70347D1*
X35937D1*
X35941Y69481D1*
X36020Y69351D1*
X37682Y71014D1*
X74536Y63201D2*
X74526Y62748D1*
X74536Y62541D1*
Y60847D1*
X72443D1*
X72436Y56773D1*
Y54084D1*
X76165Y57813D1*
X76171Y64059D1*
X75564Y63460D1*
X75303Y63282D1*
X74953Y63208D1*
X74527D1*
X74536Y62858D1*
X58541Y37055D2*
Y39277D1*
X54746Y39283D1*
X54737Y38377D1*
X55284Y37820D1*
X55677Y37817D1*
X55987Y37760D1*
X56287Y37565D1*
X56799Y37053D1*
X58550Y37057D1*
X27238Y29360D2*
X27953D1*
Y25143D1*
X28002Y25397D1*
Y34932D1*
X27636Y34989D1*
X27524Y35052D1*
X26678Y35056D1*
X22898Y31267D1*
X22330Y30699D1*
X26380Y30697D1*
X26691Y30639D1*
X26959Y30474D1*
X27151Y30223D1*
X27238Y29910D1*
X27243Y29368D1*
X43074Y77043D2*
X43065Y78371D1*
X42275Y77581D1*
X42127Y77464D1*
X42086Y77392D1*
Y77224D1*
X42529Y77273D1*
X42834Y77193D1*
X43075Y77036D1*
X49971Y95193D2*
X51320Y95183D1*
X51174Y95193D1*
X51784Y95208D1*
Y96320D1*
X51842Y96631D1*
X52037Y96930D1*
X52128Y97022D1*
X51884Y97061D1*
X49592D1*
X49706Y96916D1*
X49824Y96623D1*
X49841Y96136D1*
Y95704D1*
X49950Y95407D1*
X49963Y95189D1*
X45925Y84960D2*
X46193D1*
X46192Y87163D1*
X45073Y87166D1*
X44875Y87080D1*
X44571Y87041D1*
X44569Y84967D1*
X45753Y84960D1*
X45925D1*
X45191Y92548D2*
X44575D1*
X44569Y91099D1*
X45183Y91704D1*
X45187Y92552D1*
X26100Y64814D2*
X26091Y65166D1*
X25830Y65147D1*
X25520Y65208D1*
X25244Y65363D1*
X25078Y65546D1*
X25077Y61763D1*
X25337Y61512D1*
X27088Y61517D1*
X26903Y61692D1*
X26725Y61952D1*
X26651Y62302D1*
Y62907D1*
X26091Y62914D1*
Y65137D1*
X28486Y84004D2*
Y83462D1*
X28782Y83467D1*
X29110Y83662D1*
X30899Y85451D1*
X30893Y87319D1*
X29199Y87320D1*
X29374Y87098D1*
X29483Y86802D1*
X29501Y86612D1*
X29451Y86300D1*
X29305Y86020D1*
X29085Y85807D1*
X29177Y85736D1*
X29374Y85488D1*
X29483Y85192D1*
X29501Y85002D1*
X29451Y84690D1*
X29305Y84410D1*
X29078Y84190D1*
X28793Y84053D1*
X28489Y84014D1*
X28486Y83650D1*
X27703Y79340D2*
X26869D1*
X26957Y79216D1*
X27067Y78920D1*
X27085Y78730D1*
X27034Y78418D1*
X26957Y78269D1*
Y77099D1*
X27077Y77104D1*
X27383Y77024D1*
X27441Y76986D1*
X27706Y76981D1*
X27699Y79348D1*
X58974Y20335D2*
X58984Y20878D1*
X58974Y21148D1*
X57972Y21158D1*
X56712D1*
X56720Y20463D1*
X56952Y20466D1*
X57258Y20386D1*
X57316Y20348D1*
X58970Y20343D1*
X58974Y20940D1*
X30216Y82320D2*
X30065Y82010D1*
X29972Y81921D1*
X31092Y81918D1*
X31086Y82006D1*
X31156Y82315D1*
X31320Y82585D1*
X31561Y82790D1*
X31854Y82909D1*
X32169Y82929D1*
X32313Y82891D1*
X32223Y82980D1*
X32044Y83241D1*
X31970Y83590D1*
Y84077D1*
X30226Y82337D1*
X39403Y66105D2*
X39650Y66205D1*
X39965Y66225D1*
X40271Y66145D1*
X40379Y66075D1*
X39674Y66778D1*
X39496Y67039D1*
X39421Y67388D1*
Y68371D1*
X39326Y68607D1*
X39296Y68921D1*
X39366Y69230D1*
X39530Y69500D1*
X39771Y69705D1*
X40000Y69798D1*
X40242Y70036D1*
X39153Y70037D1*
X36334Y67227D1*
X36185Y67111D1*
X36497Y67058D1*
X37917D1*
X38227Y67001D1*
X38527Y66806D1*
X39236Y66097D1*
X52052Y98789D2*
X52299Y98889D1*
X52467Y98900D1*
X52285Y99076D1*
X41683Y99071D1*
X41806Y98991D1*
X42112Y98911D1*
X42170Y98873D1*
X44680Y98868D1*
X44991Y98811D1*
X45265Y98637D1*
X45411Y98503D1*
X45662Y98694D1*
X45975Y98782D1*
X51448Y98787D1*
X52033D1*
X23235Y91026D2*
X23120Y90731D1*
X22936Y90473D1*
X22695Y90268D1*
X22411Y90128D1*
X22101Y90063D1*
X21784Y90075D1*
X21481Y90164D1*
X21208Y90325D1*
X20983Y90548D1*
X20820Y90819D1*
X20728Y91122D1*
X20713Y91439D1*
X20776Y91749D1*
X20913Y92034D1*
X21116Y92278D1*
X21372Y92463D1*
X21666Y92581D1*
X21980Y92623D1*
X22295Y92586D1*
X22591Y92474D1*
X22851Y92293D1*
X23058Y92053D1*
X23200Y91770D1*
X23274Y91340D1*
X23235Y91026D1*
X91829Y98116D2*
X91717Y97492D1*
X91496Y96897D1*
X91173Y96351D1*
X90759Y95871D1*
X90267Y95471D1*
X89711Y95165D1*
X89111Y94962D1*
X88483Y94868D1*
X87850Y94887D1*
X87229Y95018D1*
X86641Y95256D1*
X86105Y95595D1*
X85637Y96023D1*
X85252Y96527D1*
X84963Y97091D1*
X84778Y97698D1*
X84703Y98327D1*
X84740Y98960D1*
X84889Y99577D1*
X85145Y100157D1*
X85499Y100683D1*
X85941Y101138D1*
X86456Y101508D1*
X87029Y101781D1*
X87641Y101948D1*
X88272Y102004D1*
X88904Y101947D1*
X89516Y101780D1*
X90088Y101507D1*
X90603Y101138D1*
X91045Y100683D1*
X91399Y100157D1*
X91655Y99576D1*
X91804Y98960D1*
X91843Y98433D1*
X91829Y98116D1*
X18796Y15081D2*
X18684Y14457D1*
X18463Y13862D1*
X18141Y13316D1*
X17727Y12836D1*
X17234Y12436D1*
X16679Y12130D1*
X16078Y11927D1*
X15451Y11833D1*
X14817Y11852D1*
X14196Y11983D1*
X13609Y12221D1*
X13072Y12560D1*
X12605Y12988D1*
X12220Y13492D1*
X11930Y14056D1*
X11745Y14663D1*
X11670Y15292D1*
X11708Y15926D1*
X11857Y16542D1*
X12112Y17122D1*
X12467Y17648D1*
X12908Y18103D1*
X13424Y18473D1*
X13996Y18746D1*
X14608Y18913D1*
X15240Y18969D1*
X15871Y18913D1*
X16483Y18745D1*
X17056Y18473D1*
X17571Y18103D1*
X18012Y17648D1*
X18367Y17122D1*
X18622Y16541D1*
X18771Y15925D1*
X18810Y15398D1*
X18796Y15081D1*
X91670Y15240D2*
X91558Y14616D1*
X91337Y14021D1*
X91014Y13475D1*
X90600Y12995D1*
X90108Y12595D1*
X89553Y12289D1*
X88952Y12086D1*
X88325Y11992D1*
X87691Y12011D1*
X87070Y12142D1*
X86483Y12380D1*
X85946Y12719D1*
X85478Y13147D1*
X85094Y13651D1*
X84804Y14215D1*
X84619Y14822D1*
X84544Y15451D1*
X84582Y16084D1*
X84731Y16701D1*
X84986Y17281D1*
X85341Y17807D1*
X85782Y18262D1*
X86298Y18632D1*
X86870Y18904D1*
X87482Y19071D1*
X88114Y19128D1*
X88745Y19071D1*
X89357Y18904D1*
X89929Y18631D1*
X90445Y18262D1*
X90886Y17806D1*
X91241Y17280D1*
X91496Y16700D1*
X91645Y16084D1*
X91684Y15557D1*
X91670Y15240D1*
X57801Y57539D2*
X57266Y57003D1*
X56906Y56781D1*
X59205D1*
X59516Y56723D1*
X59815Y56528D1*
X60588Y55766D1*
X60581Y55760D1*
X60578Y57666D1*
X61143D1*
X61140Y59643D1*
X58502D1*
X58512Y62769D1*
X58337Y62687D1*
X58274Y62623D1*
X58502Y62500D1*
Y62769D1*
X58278Y62639D1*
Y58373D1*
X58221Y58063D1*
X58026Y57763D1*
X57801Y57539D1*
X92082Y102243D2*
X11428D1*
X11271Y11269D1*
X92400Y11429D1*
Y102243D1*
X92082D1*
D16*
X64580Y24635D3*
Y19396D3*
X40447Y21706D3*
Y26945D3*
X43813Y21239D3*
Y26478D3*
D17*
X32713Y72784D3*
Y75641D3*
D18*
X44854Y50157D3*
X50728D3*
X31676Y64287D3*
X37550D3*
D19*
X46000Y31441D3*
X40602D3*
D18*
X40738Y38633D3*
X34864D3*
X66584Y32133D3*
X60710D3*
D20*
X69947Y34466D3*
Y37959D3*
X34359Y27754D3*
X37852D3*
X24193Y24020D3*
X27685D3*
X20245Y26342D3*
Y29834D3*
X29568Y21587D3*
X26075D3*
X54159Y34287D3*
X57652D3*
X28626Y93784D3*
Y92196D3*
X21833Y73654D3*
Y75242D3*
X27301Y72624D3*
Y74211D3*
D21*
X41113Y87264D3*
D22*
Y84724D3*
Y82184D3*
Y79644D3*
D21*
X78830Y26818D3*
Y29358D3*
Y31898D3*
Y34438D3*
X30406Y57301D3*
Y54761D3*
Y52221D3*
Y49681D3*
X30724Y42218D3*
Y39678D3*
Y37138D3*
Y34598D3*
X78672Y57619D3*
Y60159D3*
Y62699D3*
Y65239D3*
D24*
X37863Y22487D3*
X35963D3*
D25*
X24180Y20004D3*
Y21904D3*
D24*
X39963Y44020D3*
X38063D3*
D25*
X67280Y26670D3*
Y24770D3*
D26*
X59409Y72697D3*
Y75237D3*
Y77777D3*
Y80317D3*
Y82857D3*
Y85397D3*
Y87937D3*
Y90477D3*
X49884D3*
Y87937D3*
Y85397D3*
Y82857D3*
Y80317D3*
Y77777D3*
Y75237D3*
Y72697D3*
D27*
X60964Y50327D3*
Y42834D3*
X75976Y50327D3*
X80954D3*
X85958D3*
X75976Y42834D3*
X80954D3*
X85958D3*
D29*
X68984Y61206D3*
Y63746D3*
Y66286D3*
X59935D3*
Y63746D3*
Y61206D3*
X56086Y60088D3*
Y62628D3*
Y65168D3*
X47037D3*
Y62628D3*
Y60088D3*
X72551Y72506D3*
Y75046D3*
Y77586D3*
X63502D3*
Y75046D3*
Y72506D3*
X71576Y84463D3*
Y87003D3*
Y89543D3*
X62527D3*
Y87003D3*
Y84463D3*
G36*
X72393Y31255D2*
X72143Y31005D1*
Y30505D1*
X72393Y30255D1*
X73893D1*
X74143Y30505D1*
Y31005D1*
X73893Y31255D1*
X72393D1*
X72143Y31005D1*
Y30505D1*
X72393Y30255D1*
X73893D1*
X74143Y30505D1*
Y31005D1*
X73893Y31255D1*
X72393D1*
X72143Y31005D1*
Y30505D1*
X72393Y30255D1*
X73893D1*
X74143Y30505D1*
Y31005D1*
X73893Y31255D1*
X72393D1*
G37*
D30*
X73143Y29485D3*
Y28215D3*
D24*
X28363Y17354D3*
X30263D3*
X28363Y19354D3*
X30263D3*
D31*
X70313Y24987D3*
Y26987D3*
D25*
X24647Y81470D3*
Y79570D3*
D24*
X55730Y42020D3*
X57630D3*
X66129Y55237D3*
X68029D3*
X55830Y54254D3*
X57730D3*
D25*
X57547Y48304D3*
Y46404D3*
X56913Y50137D3*
Y52037D3*
X62001Y54443D3*
Y56343D3*
X40713Y48837D3*
Y46937D3*
D24*
X40797Y50754D3*
X38897D3*
D25*
X40713Y52670D3*
Y54570D3*
X75713Y73137D3*
Y75037D3*
D24*
X44330Y71787D3*
X46230D3*
X46163Y69687D3*
X48063D3*
D25*
X72147Y66437D3*
Y68337D3*
X42747Y67970D3*
Y69870D3*
X38580Y72337D3*
Y74237D3*
X35080Y73570D3*
Y71670D3*
D24*
X74163Y36654D3*
X76063D3*
X74163Y38654D3*
X76063D3*
D25*
X89147Y44870D3*
Y42970D3*
X73113Y64070D3*
Y62170D3*
D32*
X60488Y38087D3*
X64638D3*
D25*
X50447Y31770D3*
Y33670D3*
D33*
X26380Y27087D3*
X31980D3*
D34*
X47080Y74654D3*
X44280D3*
D35*
X46980Y78354D3*
Y81154D3*
X44647Y78387D3*
Y81187D3*
X54880Y93520D3*
Y96320D3*
D34*
X49847Y93620D3*
X52647D3*
D25*
X27513Y69870D3*
Y67970D3*
X75713Y71337D3*
Y69437D3*
D34*
X47080Y83387D3*
X44280D3*
X47480Y94120D3*
X44680D3*
X47480Y96454D3*
X44680D3*
D25*
X36580Y93937D3*
Y92037D3*
D24*
X30730Y93587D3*
X32630D3*
D25*
X34547Y94370D3*
Y92470D3*
D24*
X38463Y97854D3*
X40363D3*
D25*
X40613Y92437D3*
Y90537D3*
D24*
X36463Y95854D3*
X38363D3*
D25*
X38580Y93937D3*
Y92037D3*
D24*
X38863Y76287D3*
X40763D3*
D25*
X42613Y95770D3*
Y93870D3*
D24*
X73363Y85954D3*
X75263D3*
D25*
X27513Y66137D3*
Y64237D3*
D36*
X43396Y86134D3*
Y91373D3*
X47364Y86134D3*
Y91373D3*
D38*
X38263Y80228D3*
Y81028D3*
Y81828D3*
Y82628D3*
Y83428D3*
Y84228D3*
Y85028D3*
Y85828D3*
Y86628D3*
Y87428D3*
Y88228D3*
D39*
X36555Y89920D3*
X35755D3*
X34955D3*
X34155D3*
X33355D3*
X32555D3*
X31755D3*
X30955D3*
X30155D3*
X29355D3*
X28555D3*
D38*
X26863Y88212D3*
Y87412D3*
Y86612D3*
Y85812D3*
Y85012D3*
Y84212D3*
Y83412D3*
Y82612D3*
Y81812D3*
Y81012D3*
Y80212D3*
D39*
X28571Y78520D3*
X29371D3*
X30171D3*
X30971D3*
X31771D3*
X32571D3*
X33371D3*
X34171D3*
X34971D3*
X35771D3*
X36571D3*
D40*
X33963Y24162D3*
X33313D3*
X32663D3*
X32013D3*
Y18612D3*
X32663D3*
X33313D3*
X33963D3*
D42*
X61147Y19480D3*
Y22020D3*
Y24560D3*
D43*
X51547Y22020D3*
D44*
X53264Y38620D3*
D45*
X50724D3*
X48184D3*
D46*
X21992Y86514D3*
Y91340D3*
M02*
