G04 DipTrace 2.4.0.2*
%INTopDimension.gbr*%
%MOMM*%
%ADD12C,0.064*%
%ADD112C,0.157*%
%FSLAX53Y53*%
G04*
G71*
G90*
G75*
G01*
%LNTopDimension*%
%LPD*%
X93988Y103514D2*
D12*
X104331D1*
X93670Y10000D2*
X104331D1*
X103831Y56757D2*
Y102514D1*
G36*
Y103514D2*
X104031Y102514D1*
X103631D1*
X103831Y103514D1*
G37*
Y56757D2*
D12*
Y11000D1*
G36*
Y10000D2*
X103631Y11000D1*
X104031D1*
X103831Y10000D1*
G37*
X10000Y10318D2*
D12*
Y2832D1*
X93670Y10000D2*
Y2832D1*
X51835Y3332D2*
X11000D1*
G36*
X10000D2*
X11000Y3532D1*
Y3132D1*
X10000Y3332D1*
G37*
X51835D2*
D12*
X92670D1*
G36*
X93670D2*
X92670Y3132D1*
Y3532D1*
X93670Y3332D1*
G37*
X104822Y57841D2*
D112*
X104676Y57890D1*
X104578Y57987D1*
X104530Y58133D1*
Y58181D1*
X104578Y58327D1*
X104676Y58424D1*
X104822Y58473D1*
X104870D1*
X105016Y58424D1*
X105113Y58327D1*
X105161Y58181D1*
Y58133D1*
X105113Y57987D1*
X105016Y57890D1*
X104822Y57841D1*
X104578D1*
X104336Y57890D1*
X104190Y57987D1*
X104141Y58133D1*
Y58230D1*
X104190Y58376D1*
X104287Y58424D1*
X105161Y57430D2*
Y56896D1*
X104772Y57187D1*
Y57041D1*
X104724Y56944D1*
X104676Y56896D1*
X104530Y56847D1*
X104433D1*
X104287Y56896D1*
X104190Y56993D1*
X104141Y57139D1*
Y57285D1*
X104190Y57430D1*
X104239Y57478D1*
X104336Y57527D1*
X104239Y56485D2*
X104190Y56533D1*
X104141Y56485D1*
X104190Y56435D1*
X104239Y56485D1*
X105161Y55539D2*
Y56024D1*
X104724Y56072D1*
X104772Y56024D1*
X104822Y55878D1*
Y55733D1*
X104772Y55587D1*
X104676Y55489D1*
X104530Y55441D1*
X104433D1*
X104287Y55489D1*
X104190Y55587D1*
X104141Y55733D1*
Y55878D1*
X104190Y56024D1*
X104239Y56072D1*
X104336Y56121D1*
X104967Y55127D2*
X105016Y55029D1*
X105161Y54883D1*
X104141D1*
X50144Y4662D2*
X49999Y4613D1*
X49950Y4517D1*
Y4419D1*
X49999Y4323D1*
X50096Y4273D1*
X50290Y4225D1*
X50436Y4177D1*
X50532Y4079D1*
X50581Y3982D1*
Y3836D1*
X50532Y3740D1*
X50484Y3690D1*
X50338Y3642D1*
X50144D1*
X49999Y3690D1*
X49950Y3740D1*
X49901Y3836D1*
Y3982D1*
X49950Y4079D1*
X50047Y4177D1*
X50192Y4225D1*
X50386Y4273D1*
X50484Y4323D1*
X50532Y4419D1*
Y4517D1*
X50484Y4613D1*
X50338Y4662D1*
X50144D1*
X50992D2*
X51526D1*
X51235Y4273D1*
X51381D1*
X51477Y4225D1*
X51526Y4177D1*
X51575Y4031D1*
Y3934D1*
X51526Y3788D1*
X51429Y3690D1*
X51283Y3642D1*
X51137D1*
X50992Y3690D1*
X50944Y3740D1*
X50894Y3836D1*
X51937Y3740D2*
X51889Y3690D1*
X51937Y3642D1*
X51986Y3690D1*
X51937Y3740D1*
X52883Y4517D2*
X52835Y4613D1*
X52689Y4662D1*
X52592D1*
X52446Y4613D1*
X52348Y4467D1*
X52300Y4225D1*
Y3982D1*
X52348Y3788D1*
X52446Y3690D1*
X52592Y3642D1*
X52640D1*
X52785Y3690D1*
X52883Y3788D1*
X52931Y3934D1*
Y3982D1*
X52883Y4128D1*
X52785Y4225D1*
X52640Y4273D1*
X52592D1*
X52446Y4225D1*
X52348Y4128D1*
X52300Y3982D1*
X53439Y3642D2*
X53926Y4662D1*
X53245D1*
M02*
