G04 DipTrace 2.4.0.2*
%INTopPaste.gbr*%
%MOMM*%
%ADD64R,8.8X10.4*%
%ADD66R,2.8X1.25*%
%ADD68R,0.1X1.45*%
%ADD70R,0.2X1.7*%
%ADD72R,1.7X0.2*%
%ADD74R,0.8X2.45*%
%ADD76R,1.6X1.4*%
%ADD78R,1.4X1.6*%
%ADD80R,1.6X3.0*%
%ADD82R,2.35X1.65*%
%ADD84R,1.0X0.8*%
%ADD88R,1.32X1.58*%
%ADD94R,1.3X1.1*%
%ADD96R,1.1X1.3*%
%ADD102R,0.7X0.7*%
%ADD104R,3.55X2.35*%
%ADD106R,3.3X0.6*%
%ADD108R,1.15X1.95*%
%ADD110R,2.15X2.45*%
%FSLAX53Y53*%
G04*
G71*
G90*
G75*
G01*
%LNTopPaste*%
%LPD*%
D110*
X64580Y24635D3*
Y19396D3*
X40447Y21706D3*
Y26945D3*
X43813Y21239D3*
Y26478D3*
D108*
X32713Y72784D3*
Y75641D3*
D106*
X44854Y50157D3*
X50728D3*
X31676Y64287D3*
X37550D3*
D104*
X46000Y31441D3*
X40602D3*
D106*
X40738Y38633D3*
X34864D3*
X66584Y32133D3*
X60710D3*
D102*
X69947Y34466D3*
Y37959D3*
X34359Y27754D3*
X37852D3*
X24193Y24020D3*
X27685D3*
X20245Y26342D3*
Y29834D3*
X29568Y21587D3*
X26075D3*
X54159Y34287D3*
X57652D3*
X28626Y93784D3*
Y92196D3*
X21833Y73654D3*
Y75242D3*
X27301Y72624D3*
Y74211D3*
D96*
X37863Y22487D3*
X35963D3*
D94*
X24180Y20004D3*
Y21904D3*
D96*
X39963Y44020D3*
X38063D3*
D94*
X67280Y26670D3*
Y24770D3*
D88*
X68984Y61206D3*
Y63746D3*
Y66286D3*
X59935D3*
Y63746D3*
Y61206D3*
X56086Y60088D3*
Y62628D3*
Y65168D3*
X47037D3*
Y62628D3*
Y60088D3*
X72551Y72506D3*
Y75046D3*
Y77586D3*
X63502D3*
Y75046D3*
Y72506D3*
X71576Y84463D3*
Y87003D3*
Y89543D3*
X62527D3*
Y87003D3*
Y84463D3*
D96*
X28363Y17354D3*
X30263D3*
X28363Y19354D3*
X30263D3*
D84*
X70313Y24987D3*
Y26987D3*
D94*
X24647Y81470D3*
Y79570D3*
D96*
X55730Y42020D3*
X57630D3*
X66129Y55237D3*
X68029D3*
X55830Y54254D3*
X57730D3*
D94*
X57547Y48304D3*
Y46404D3*
X56913Y50137D3*
Y52037D3*
X62001Y54443D3*
Y56343D3*
X40713Y48837D3*
Y46937D3*
D96*
X40797Y50754D3*
X38897D3*
D94*
X40713Y52670D3*
Y54570D3*
X75713Y73137D3*
Y75037D3*
D96*
X44330Y71787D3*
X46230D3*
X46163Y69687D3*
X48063D3*
D94*
X72147Y66437D3*
Y68337D3*
X42747Y67970D3*
Y69870D3*
X38580Y72337D3*
Y74237D3*
X35080Y73570D3*
Y71670D3*
D96*
X74163Y36654D3*
X76063D3*
X74163Y38654D3*
X76063D3*
D94*
X89147Y44870D3*
Y42970D3*
X73113Y64070D3*
Y62170D3*
D82*
X60488Y38087D3*
X64638D3*
D94*
X50447Y31770D3*
Y33670D3*
D80*
X26380Y27087D3*
X31980D3*
D78*
X47080Y74654D3*
X44280D3*
D76*
X46980Y78354D3*
Y81154D3*
X44647Y78387D3*
Y81187D3*
X54880Y93520D3*
Y96320D3*
D78*
X49847Y93620D3*
X52647D3*
D94*
X27513Y69870D3*
Y67970D3*
X75713Y71337D3*
Y69437D3*
D78*
X47080Y83387D3*
X44280D3*
X47480Y94120D3*
X44680D3*
X47480Y96454D3*
X44680D3*
D94*
X36580Y93937D3*
Y92037D3*
D96*
X30730Y93587D3*
X32630D3*
D94*
X34547Y94370D3*
Y92470D3*
D96*
X38463Y97854D3*
X40363D3*
D94*
X40613Y92437D3*
Y90537D3*
D96*
X36463Y95854D3*
X38363D3*
D94*
X38580Y93937D3*
Y92037D3*
D96*
X38863Y76287D3*
X40763D3*
D94*
X42613Y95770D3*
Y93870D3*
D96*
X73363Y85954D3*
X75263D3*
D94*
X27513Y66137D3*
Y64237D3*
D74*
X43396Y86134D3*
Y91373D3*
X47364Y86134D3*
Y91373D3*
D72*
X38263Y80228D3*
Y81028D3*
Y81828D3*
Y82628D3*
Y83428D3*
Y84228D3*
Y85028D3*
Y85828D3*
Y86628D3*
Y87428D3*
Y88228D3*
D70*
X36555Y89920D3*
X35755D3*
X34955D3*
X34155D3*
X33355D3*
X32555D3*
X31755D3*
X30955D3*
X30155D3*
X29355D3*
X28555D3*
D72*
X26863Y88212D3*
Y87412D3*
Y86612D3*
Y85812D3*
Y85012D3*
Y84212D3*
Y83412D3*
Y82612D3*
Y81812D3*
Y81012D3*
Y80212D3*
D70*
X28571Y78520D3*
X29371D3*
X30171D3*
X30971D3*
X31771D3*
X32571D3*
X33371D3*
X34171D3*
X34971D3*
X35771D3*
X36571D3*
D68*
X33963Y24162D3*
X33313D3*
X32663D3*
X32013D3*
Y18612D3*
X32663D3*
X33313D3*
X33963D3*
D66*
X61147Y19480D3*
Y22020D3*
Y24560D3*
D64*
X51547Y22020D3*
M02*
