G04 DipTrace 2.4.0.2*
%INTopSilk.gbr*%
%MOMM*%
%ADD10C,0.254*%
%ADD11C,0.076*%
%ADD23C,0.0*%
%ADD28C,1.271*%
%ADD37O,0.5X0.5*%
%ADD41O,0.392X0.391*%
%ADD111C,0.196*%
%ADD112C,0.157*%
%ADD113C,0.118*%
%ADD114C,0.314*%
%FSLAX53Y53*%
G04*
G71*
G90*
G75*
G01*
%LNTopSilk*%
%LPD*%
X66009Y26857D2*
D10*
X63151D1*
Y17650D1*
X66009D1*
Y26857D1*
X65533Y26381D2*
X63628D1*
X39018Y19483D2*
X41876D1*
Y28691D1*
X39018D1*
Y19483D1*
X39494Y19959D2*
X41399D1*
X42385Y19017D2*
X45242D1*
Y28224D1*
X42385D1*
Y19017D1*
X42861Y19493D2*
X44766D1*
X31602Y71037D2*
X33825D1*
Y77070D1*
X31602D1*
Y71037D1*
X31761Y71355D2*
X33666D1*
X52633Y46029D2*
Y54443D1*
X43743D2*
X52633D1*
X43584Y46029D2*
X52633D1*
X43584D2*
X42949Y46664D1*
Y53650D2*
X43743Y54443D1*
X42949Y46664D2*
Y53650D1*
X39455Y60159D2*
Y68573D1*
X30565D2*
X39455D1*
X30407Y60159D2*
X39455D1*
X30407D2*
X29771Y60795D1*
Y67780D2*
X30565Y68573D1*
X29771Y60795D2*
Y67780D1*
X49175Y29219D2*
X37586D1*
Y33822D1*
X49175D1*
Y29219D1*
X48381D2*
Y33822D1*
X32959Y42761D2*
Y34347D1*
X41849D2*
X32959D1*
X42008Y42761D2*
X32959D1*
X42008D2*
X42643Y42125D1*
Y35140D2*
X41849Y34347D1*
X42643Y42125D2*
Y35140D1*
X58805Y36261D2*
Y27847D1*
X67695D2*
X58805D1*
X67853Y36261D2*
X58805D1*
X67853D2*
X68489Y35625D1*
Y28640D2*
X67695Y27847D1*
X68489Y35625D2*
Y28640D1*
X68994Y33514D2*
X70899D1*
Y38594D1*
X68994D1*
Y33514D1*
Y33831D2*
X70899D1*
X33407Y28706D2*
X38487D1*
Y26801D1*
X33407D1*
Y28706D1*
X33724D2*
Y26801D1*
X23240Y24973D2*
X28320D1*
Y23068D1*
X23240D1*
Y24973D1*
X23558D2*
Y23068D1*
X19293Y25389D2*
X21198D1*
Y30469D1*
X19293D1*
Y25389D1*
Y25707D2*
X21198D1*
X30520Y20635D2*
X25440D1*
Y22540D1*
X30520D1*
Y20635D1*
X30203D2*
Y22540D1*
X53207Y35240D2*
X58287D1*
Y33335D1*
X53207D1*
Y35240D1*
X53524D2*
Y33335D1*
X29579Y95371D2*
X27515D1*
Y91403D1*
X29579D1*
Y95371D1*
X29420Y94578D2*
X27674D1*
X20880Y72067D2*
X22944D1*
Y76035D1*
X20880D1*
Y72067D1*
X21039Y72860D2*
X22785D1*
X26348Y71036D2*
X28412D1*
Y75005D1*
X26348D1*
Y71036D1*
X26507Y71830D2*
X28253D1*
X39843Y78374D2*
X42383D1*
X39843Y88534D2*
Y78374D1*
X42383Y88534D2*
Y78374D1*
X39843Y88534D2*
X42383D1*
X77973Y27136D2*
D23*
Y26501D1*
X81974Y32152D2*
Y29104D1*
X90863Y32787D2*
Y34057D1*
Y26818D2*
Y32787D1*
Y24278D2*
Y26818D1*
Y34438D2*
Y36978D1*
Y34057D2*
Y34438D1*
X87053Y28774D2*
X89340D1*
X87053Y32482D2*
X89340D1*
X90863Y36978D2*
X78671D1*
Y24278D2*
X90863D1*
X78671Y24596D2*
Y24278D1*
X77859Y24596D2*
X78671D1*
X77274Y25180D2*
X77859Y24596D1*
X77274Y36076D2*
Y35340D1*
Y33536D2*
Y32800D1*
Y30996D2*
Y30260D1*
Y25916D2*
Y25180D1*
Y28456D2*
Y27720D1*
Y25916D2*
X77859Y26501D1*
X87053Y26818D2*
Y27834D1*
Y29104D2*
Y27834D1*
Y29104D2*
X81974D1*
X87053Y32152D2*
X81974D1*
X87053Y33422D2*
Y32152D1*
Y33422D2*
Y34438D1*
X78671Y36978D2*
Y36661D1*
X77859D1*
X77274Y36076D1*
X77859Y34756D2*
X77274Y35340D1*
Y33536D2*
X77859Y34121D1*
Y32216D2*
X77274Y32800D1*
Y30996D2*
X77859Y31581D1*
Y29676D2*
X77274Y30260D1*
Y28456D2*
X77859Y29041D1*
Y27136D2*
X77274Y27720D1*
X81974Y29676D2*
X87815D1*
X87053Y29041D2*
X87815D1*
Y29676D2*
Y29041D1*
X77973Y29676D2*
Y29041D1*
X87053Y32216D2*
X87815D1*
X81974Y31581D2*
X87815D1*
Y32216D2*
Y31581D1*
X77973Y32216D2*
Y31581D1*
Y34121D2*
Y34756D1*
X87053Y34438D2*
X89340D1*
X90863D1*
X87053Y27834D2*
X89340D1*
X87053Y26818D2*
X89340D1*
Y27834D1*
Y33788D2*
X89063Y33740D1*
X89340Y33788D2*
Y34438D1*
X87053Y33422D2*
X89063D1*
Y33740D2*
Y33422D1*
X89340D2*
X89063D1*
X89340Y33056D2*
Y33422D1*
Y27834D2*
Y33056D1*
X90863Y32787D1*
X89340Y33788D2*
X90863Y34057D1*
X89340Y26818D2*
X90863D1*
X31263Y56984D2*
Y57619D1*
X27263Y51967D2*
Y55015D1*
X18373Y51332D2*
Y50062D1*
Y57301D2*
Y51332D1*
Y59841D2*
Y57301D1*
Y49681D2*
Y47141D1*
Y50062D2*
Y49681D1*
X22183Y55345D2*
X19896D1*
X22183Y51637D2*
X19896D1*
X18373Y47141D2*
X30565D1*
Y59841D2*
X18373D1*
X30565Y59524D2*
Y59841D1*
X31377Y59524D2*
X30565D1*
X31962Y58940D2*
X31377Y59524D1*
X31962Y48043D2*
Y48780D1*
Y50583D2*
Y51320D1*
Y53123D2*
Y53860D1*
Y58203D2*
Y58940D1*
Y55663D2*
Y56400D1*
Y58203D2*
X31377Y57619D1*
X22183Y57301D2*
Y56285D1*
Y55015D2*
Y56285D1*
Y55015D2*
X27263D1*
X22183Y51967D2*
X27263D1*
X22183Y50697D2*
Y51967D1*
Y50697D2*
Y49681D1*
X30565Y47141D2*
Y47459D1*
X31377D1*
X31962Y48043D1*
X31377Y49364D2*
X31962Y48780D1*
Y50583D2*
X31377Y49999D1*
Y51904D2*
X31962Y51320D1*
Y53123D2*
X31377Y52539D1*
Y54444D2*
X31962Y53860D1*
Y55663D2*
X31377Y55079D1*
Y56984D2*
X31962Y56400D1*
X27263Y54444D2*
X21421D1*
X22183Y55079D2*
X21421D1*
Y54444D2*
Y55079D1*
X31263Y54444D2*
Y55079D1*
X22183Y51904D2*
X21421D1*
X27263Y52539D2*
X21421D1*
Y51904D2*
Y52539D1*
X31263Y51904D2*
Y52539D1*
Y49999D2*
Y49364D1*
X22183Y49681D2*
X19896D1*
X18373D1*
X22183Y56285D2*
X19896D1*
X22183Y57301D2*
X19896D1*
Y56285D1*
Y50332D2*
X20173Y50380D1*
X19896Y50332D2*
Y49681D1*
X22183Y50697D2*
X20173D1*
Y50380D2*
Y50697D1*
X19896D2*
X20173D1*
X19896Y51063D2*
Y50697D1*
Y56285D2*
Y51063D1*
X18373Y51332D1*
X19896Y50332D2*
X18373Y50062D1*
X19896Y57301D2*
X18373D1*
X31581Y41901D2*
Y42536D1*
X27580Y36884D2*
Y39932D1*
X18690Y36249D2*
Y34979D1*
Y42218D2*
Y36249D1*
Y44758D2*
Y42218D1*
Y34598D2*
Y32058D1*
Y34979D2*
Y34598D1*
X22501Y40263D2*
X20213D1*
X22501Y36554D2*
X20213D1*
X18690Y32058D2*
X30882D1*
Y44758D2*
X18690D1*
X30882Y44441D2*
Y44758D1*
X31695Y44441D2*
X30882D1*
X32279Y43857D2*
X31695Y44441D1*
X32279Y32960D2*
Y33697D1*
Y35500D2*
Y36237D1*
Y38040D2*
Y38777D1*
Y43120D2*
Y43857D1*
Y40580D2*
Y41317D1*
Y43120D2*
X31695Y42536D1*
X22501Y42218D2*
Y41202D1*
Y39932D2*
Y41202D1*
Y39932D2*
X27580D1*
X22501Y36884D2*
X27580D1*
X22501Y35614D2*
Y36884D1*
Y35614D2*
Y34598D1*
X30882Y32058D2*
Y32376D1*
X31695D1*
X32279Y32960D1*
X31695Y34281D2*
X32279Y33697D1*
Y35500D2*
X31695Y34916D1*
Y36821D2*
X32279Y36237D1*
Y38040D2*
X31695Y37456D1*
Y39361D2*
X32279Y38777D1*
Y40580D2*
X31695Y39996D1*
Y41901D2*
X32279Y41317D1*
X27580Y39361D2*
X21738D1*
X22501Y39996D2*
X21738D1*
Y39361D2*
Y39996D1*
X31581Y39361D2*
Y39996D1*
X22501Y36821D2*
X21738D1*
X27580Y37456D2*
X21738D1*
Y36821D2*
Y37456D1*
X31581Y36821D2*
Y37456D1*
Y34916D2*
Y34281D1*
X22501Y34598D2*
X20213D1*
X18690D1*
X22501Y41202D2*
X20213D1*
X22501Y42218D2*
X20213D1*
Y41202D1*
Y35249D2*
X20491Y35297D1*
X20213Y35249D2*
Y34598D1*
X22501Y35614D2*
X20491D1*
Y35297D2*
Y35614D1*
X20213D2*
X20491D1*
X20213Y35980D2*
Y35614D1*
Y41202D2*
Y35980D1*
X18690Y36249D1*
X20213Y35249D2*
X18690Y34979D1*
X20213Y42218D2*
X18690D1*
X77815Y57936D2*
Y57301D1*
X81815Y62953D2*
Y59905D1*
X90705Y63588D2*
Y64858D1*
Y57619D2*
Y63588D1*
Y55079D2*
Y57619D1*
Y65239D2*
Y67779D1*
Y64858D2*
Y65239D1*
X86895Y59575D2*
X89182D1*
X86895Y63283D2*
X89182D1*
X90705Y67779D2*
X78513D1*
Y55079D2*
X90705D1*
X78513Y55396D2*
Y55079D1*
X77701Y55396D2*
X78513D1*
X77116Y55981D2*
X77701Y55396D1*
X77116Y66877D2*
Y66141D1*
Y64337D2*
Y63601D1*
Y61797D2*
Y61061D1*
Y56717D2*
Y55981D1*
Y59257D2*
Y58521D1*
Y56717D2*
X77701Y57301D1*
X86895Y57619D2*
Y58635D1*
Y59905D2*
Y58635D1*
Y59905D2*
X81815D1*
X86895Y62953D2*
X81815D1*
X86895Y64223D2*
Y62953D1*
Y64223D2*
Y65239D1*
X78513Y67779D2*
Y67461D1*
X77701D1*
X77116Y66877D1*
X77701Y65556D2*
X77116Y66141D1*
Y64337D2*
X77701Y64921D1*
Y63016D2*
X77116Y63601D1*
Y61797D2*
X77701Y62381D1*
Y60476D2*
X77116Y61061D1*
Y59257D2*
X77701Y59841D1*
Y57936D2*
X77116Y58521D1*
X81815Y60476D2*
X87657D1*
X86895Y59841D2*
X87657D1*
Y60476D2*
Y59841D1*
X77815Y60476D2*
Y59841D1*
X86895Y63016D2*
X87657D1*
X81815Y62381D2*
X87657D1*
Y63016D2*
Y62381D1*
X77815Y63016D2*
Y62381D1*
Y64921D2*
Y65556D1*
X86895Y65239D2*
X89182D1*
X90705D1*
X86895Y58635D2*
X89182D1*
X86895Y57619D2*
X89182D1*
Y58635D1*
Y64589D2*
X88905Y64540D1*
X89182Y64589D2*
Y65239D1*
X86895Y64223D2*
X88905D1*
Y64540D2*
Y64223D1*
X89182D2*
X88905D1*
X89182Y63857D2*
Y64223D1*
Y58635D2*
Y63857D1*
X90705Y63588D1*
X89182Y64589D2*
X90705Y64858D1*
X89182Y57619D2*
X90705D1*
X51547Y70957D2*
X57747D1*
X58558Y72197D2*
X57747D1*
X58741D2*
X58558D1*
X57747Y73198D2*
X58558D1*
Y72197D1*
X51547D2*
X50735D1*
Y73198D2*
X51547D1*
X50735D2*
Y72197D1*
X58558Y73198D2*
X58741D1*
X50552D2*
X50735D1*
X50552Y72197D2*
X50302Y72447D1*
X50735Y72197D2*
X50552D1*
X49747Y72947D2*
X50302D1*
X50552Y73198D1*
X58992Y72447D2*
X58741Y72197D1*
Y73198D2*
X58992Y72947D1*
X59547D1*
Y72447D2*
X58992D1*
X50302D2*
X49747D1*
Y72947D2*
Y72447D1*
X50302Y72947D2*
Y72447D1*
X58992Y72947D2*
Y72447D1*
X59547Y72947D2*
Y72447D1*
X58558Y74737D2*
X57747D1*
X58741D2*
X58558D1*
X57747Y75736D2*
X58558D1*
Y74737D1*
X51547D2*
X50735D1*
Y75736D2*
X51547D1*
X50735D2*
Y74737D1*
X58558Y75736D2*
X58741D1*
X50552D2*
X50735D1*
X50552Y74737D2*
X50302Y74988D1*
X50735Y74737D2*
X50552D1*
X49747Y75488D2*
X50302D1*
X50552Y75736D1*
X58992Y74988D2*
X58741Y74737D1*
Y75736D2*
X58992Y75488D1*
X59547D1*
Y74988D2*
X58992D1*
X50302D2*
X49747D1*
Y75488D2*
Y74988D1*
X50302Y75488D2*
Y74988D1*
X58992Y75488D2*
Y74988D1*
X59547Y75488D2*
Y74988D1*
X58558Y77278D2*
X57747D1*
X58741D2*
X58558D1*
X57747Y78277D2*
X58558D1*
Y77278D1*
X51547D2*
X50735D1*
Y78277D2*
X51547D1*
X50735D2*
Y77278D1*
X58558Y78277D2*
X58741D1*
X50552D2*
X50735D1*
X50552Y77278D2*
X50302Y77526D1*
X50735Y77278D2*
X50552D1*
X49747Y78026D2*
X50302D1*
X50552Y78277D1*
X58992Y77526D2*
X58741Y77278D1*
Y78277D2*
X58992Y78026D1*
X59547D1*
Y77526D2*
X58992D1*
X50302D2*
X49747D1*
Y78026D2*
Y77526D1*
X50302Y78026D2*
Y77526D1*
X58992Y78026D2*
Y77526D1*
X59547Y78026D2*
Y77526D1*
X58558Y79816D2*
X57747D1*
X58741D2*
X58558D1*
X57747Y80817D2*
X58558D1*
Y79816D1*
X51547D2*
X50735D1*
Y80817D2*
X51547D1*
X50735D2*
Y79816D1*
X58558Y80817D2*
X58741D1*
X50552D2*
X50735D1*
X50552Y79816D2*
X50302Y80067D1*
X50735Y79816D2*
X50552D1*
X49747Y80567D2*
X50302D1*
X50552Y80817D1*
X58992Y80067D2*
X58741Y79816D1*
Y80817D2*
X58992Y80567D1*
X59547D1*
Y80067D2*
X58992D1*
X50302D2*
X49747D1*
Y80567D2*
Y80067D1*
X50302Y80567D2*
Y80067D1*
X58992Y80567D2*
Y80067D1*
X59547Y80567D2*
Y80067D1*
X58558Y82357D2*
X57747D1*
X58741D2*
X58558D1*
X57747Y83358D2*
X58558D1*
Y82357D1*
X51547D2*
X50735D1*
Y83358D2*
X51547D1*
X50735D2*
Y82357D1*
X58558Y83358D2*
X58741D1*
X50552D2*
X50735D1*
X50552Y82357D2*
X50302Y82608D1*
X50735Y82357D2*
X50552D1*
X49747Y83107D2*
X50302D1*
X50552Y83358D1*
X58992Y82608D2*
X58741Y82357D1*
Y83358D2*
X58992Y83107D1*
X59547D1*
Y82608D2*
X58992D1*
X50302D2*
X49747D1*
Y83107D2*
Y82608D1*
X50302Y83107D2*
Y82608D1*
X58992Y83107D2*
Y82608D1*
X59547Y83107D2*
Y82608D1*
X58558Y84897D2*
X57747D1*
X58741D2*
X58558D1*
X57747Y85896D2*
X58558D1*
Y84897D1*
X51547D2*
X50735D1*
Y85896D2*
X51547D1*
X50735D2*
Y84897D1*
X58558Y85896D2*
X58741D1*
X50552D2*
X50735D1*
X50552Y84897D2*
X50302Y85148D1*
X50735Y84897D2*
X50552D1*
X49747Y85648D2*
X50302D1*
X50552Y85896D1*
X58992Y85148D2*
X58741Y84897D1*
Y85896D2*
X58992Y85648D1*
X59547D1*
Y85148D2*
X58992D1*
X50302D2*
X49747D1*
Y85648D2*
Y85148D1*
X50302Y85648D2*
Y85148D1*
X58992Y85648D2*
Y85148D1*
X59547Y85648D2*
Y85148D1*
X58558Y87438D2*
X57747D1*
X58741D2*
X58558D1*
X57747Y88437D2*
X58558D1*
Y87438D1*
X51547D2*
X50735D1*
Y88437D2*
X51547D1*
X50735D2*
Y87438D1*
X58558Y88437D2*
X58741D1*
X50552D2*
X50735D1*
X50552Y87438D2*
X50302Y87687D1*
X50735Y87438D2*
X50552D1*
X49747Y88186D2*
X50302D1*
X50552Y88437D1*
X58992Y87687D2*
X58741Y87438D1*
Y88437D2*
X58992Y88186D1*
X59547D1*
Y87687D2*
X58992D1*
X50302D2*
X49747D1*
Y88186D2*
Y87687D1*
X50302Y88186D2*
Y87687D1*
X58992Y88186D2*
Y87687D1*
X59547Y88186D2*
Y87687D1*
X58558Y89976D2*
X57747D1*
X58741D2*
X58558D1*
X57747Y90978D2*
X58558D1*
Y89976D1*
X51547D2*
X50735D1*
Y90978D2*
X51547D1*
X50735D2*
Y89976D1*
X58558Y90978D2*
X58741D1*
X50552D2*
X50735D1*
X50552Y89976D2*
X50302Y90227D1*
X50735Y89976D2*
X50552D1*
X49747Y90727D2*
X50302D1*
X50552Y90978D1*
X58992Y90227D2*
X58741Y89976D1*
Y90978D2*
X58992Y90727D1*
X59547D1*
Y90227D2*
X58992D1*
X50302D2*
X49747D1*
Y90727D2*
Y90227D1*
X50302Y90727D2*
Y90227D1*
X58992Y90727D2*
Y90227D1*
X59547Y90727D2*
Y90227D1*
X55247Y72197D2*
X56246D1*
Y73198D2*
Y72197D1*
X55247D2*
Y73198D1*
X56246D1*
X55247Y74737D2*
X56246D1*
Y75736D2*
Y74737D1*
X55247D2*
Y75736D1*
X56246D1*
X55247Y77278D2*
X56246D1*
Y78277D2*
Y77278D1*
X55247D2*
Y78277D1*
X56246D1*
X55247Y79816D2*
X56246D1*
Y80817D2*
Y79816D1*
X55247D2*
Y80817D1*
X56246D1*
X55247Y82357D2*
X56246D1*
Y83358D2*
Y82357D1*
X55247D2*
Y83358D1*
X56246D1*
X55247Y84897D2*
X56246D1*
Y85896D2*
Y84897D1*
X55247D2*
Y85896D1*
X56246D1*
X55247Y87438D2*
X56246D1*
Y88437D2*
Y87438D1*
X55247D2*
Y88437D1*
X56246D1*
X55247Y89976D2*
X56246D1*
Y90978D2*
Y89976D1*
X55247D2*
Y90978D1*
X56246D1*
X52947Y72097D2*
Y73298D1*
X56346D1*
Y72097D1*
X52947D1*
Y74637D2*
Y75836D1*
X56346D1*
Y74637D1*
X52947D1*
Y77178D2*
Y78377D1*
X56346D1*
Y77178D1*
X52947D1*
Y79716D2*
Y80917D1*
X56346D1*
Y79716D1*
X52947D1*
Y82257D2*
Y83458D1*
X56346D1*
Y82257D1*
X52947D1*
Y84797D2*
Y85996D1*
X56346D1*
Y84797D1*
X52947D1*
Y87338D2*
Y88537D1*
X56346D1*
Y87338D1*
X52947D1*
Y89876D2*
Y91078D1*
X56346D1*
Y89876D1*
X52947D1*
X51547Y70957D2*
Y92217D1*
X57747D2*
Y70957D1*
X51547Y92217D2*
X57747D1*
X58803Y39913D2*
D10*
X87890D1*
Y52994D2*
Y39913D1*
Y52994D2*
X58803D1*
Y39913D2*
Y52994D1*
X62844Y47711D2*
Y45197D1*
X59083D2*
Y47711D1*
X60962D1*
X62207D1*
X59723Y45197D2*
X59083D1*
X62207Y47711D2*
X59723Y45197D1*
X62207Y47711D2*
X62844D1*
Y45197D2*
X60962D1*
X59723D1*
X57871Y58190D2*
X70889D1*
Y68985D1*
X57871D1*
Y58190D1*
D28*
X67396Y59936D3*
X44973Y57072D2*
D10*
X57991D1*
Y67867D1*
X44973D1*
Y57072D1*
D28*
X54498Y58818D3*
X61438Y69490D2*
D10*
X74456D1*
Y80285D1*
X61438D1*
Y69490D1*
D28*
X70963Y71236D3*
X60463Y81447D2*
D10*
X73481D1*
Y92242D1*
X60463D1*
Y81447D1*
D28*
X69988Y83193D3*
X71421Y27538D2*
D10*
G03X71417Y31429I1722J1948D01*
G01*
X71434Y31433D2*
Y27533D1*
X69813Y25786D2*
Y26188D1*
X70814Y25786D2*
Y26188D1*
Y25786D2*
X69813D1*
X70814Y25978D2*
X69813D1*
X66161Y39412D2*
X66613Y38962D1*
Y37213D2*
Y38962D1*
X58813Y39412D2*
X66161D1*
X58813Y36762D2*
X66161D1*
X58813D2*
Y39412D1*
X66161Y36762D2*
X66613Y37213D1*
X62565Y37888D2*
Y38286D1*
X62362Y38087D2*
X62760D1*
X27582Y28588D2*
X30779D1*
X27582Y25586D2*
X30779D1*
X45979Y75453D2*
X45381D1*
X45979Y73855D2*
X45381D1*
X47779Y79455D2*
Y80053D1*
X46181Y79455D2*
Y80053D1*
X45446Y79488D2*
Y80086D1*
X43848Y79488D2*
Y80086D1*
X55679Y94621D2*
Y95220D1*
X54081Y94621D2*
Y95220D1*
X50948Y92821D2*
X51546D1*
X50948Y94420D2*
X51546D1*
X45979Y84186D2*
X45381D1*
X45979Y82588D2*
X45381D1*
X46379Y94920D2*
X45781D1*
X46379Y93321D2*
X45781D1*
X46379Y97253D2*
X45781D1*
X46379Y95655D2*
X45781D1*
X37064Y80470D2*
Y88720D1*
X28063D1*
Y79721D2*
Y88720D1*
X36313Y79721D2*
X28063D1*
X37064Y80470D2*
X36313Y79721D1*
D37*
X39064Y79471D3*
X34537Y24159D2*
D10*
G02X34537Y24159I126J0D01*
G01*
Y21905D2*
G03X34537Y20869I3J-518D01*
G01*
Y22935D2*
Y21905D1*
Y20869D2*
Y19839D1*
X31438Y22935D2*
Y19839D1*
X34537Y22935D2*
X31438D1*
X34537Y19839D2*
X31438D1*
X59248Y16921D2*
Y27120D1*
Y16921D2*
X56547D1*
X59248Y27120D2*
X56547D1*
D41*
X62265Y18244D3*
X56074Y36269D2*
D10*
X45374D1*
X56074Y35770D2*
X45374D1*
X56074Y40470D2*
X45374D1*
X56074D2*
Y35770D1*
X45374Y40470D2*
Y35770D1*
X24278Y86006D2*
Y91848D1*
X19706Y86006D2*
Y91848D1*
X23770Y86006D2*
Y91848D1*
X20213D2*
Y86006D1*
Y91848D2*
G02X23770Y91848I1778J0D01*
G01*
X19706D2*
G02X24278Y91848I2286J0D01*
G01*
X19706Y86006D2*
G03X24278Y86006I2286J0D01*
G01*
X20213D2*
G03X23770Y86006I1778J0D01*
G01*
X21103Y88673D2*
Y89181D1*
X22880D1*
Y88673D1*
X21103D1*
Y89563D2*
X21992D1*
X22880D1*
X21103Y88292D2*
X21992D1*
X22880D1*
X21992Y89563D2*
Y90198D1*
Y88292D2*
Y87657D1*
X64687Y28414D2*
D111*
X64627Y28535D1*
X64505Y28657D1*
X64384Y28717D1*
X64141D1*
X64019Y28657D1*
X63898Y28535D1*
X63837Y28414D1*
X63776Y28232D1*
Y27927D1*
X63837Y27746D1*
X63898Y27624D1*
X64019Y27503D1*
X64141Y27441D1*
X64384D1*
X64505Y27503D1*
X64627Y27624D1*
X64687Y27746D1*
X65079Y28473D2*
X65202Y28535D1*
X65384Y28716D1*
Y27441D1*
X40281Y30247D2*
X40221Y30368D1*
X40098Y30490D1*
X39978Y30551D1*
X39735D1*
X39613Y30490D1*
X39492Y30368D1*
X39430Y30247D1*
X39370Y30065D1*
Y29760D1*
X39430Y29579D1*
X39492Y29457D1*
X39613Y29336D1*
X39735Y29275D1*
X39978D1*
X40098Y29336D1*
X40221Y29457D1*
X40281Y29579D1*
X40795Y30549D2*
X41462D1*
X41098Y30064D1*
X41281D1*
X41402Y30003D1*
X41462Y29943D1*
X41524Y29760D1*
Y29640D1*
X41462Y29457D1*
X41341Y29335D1*
X41159Y29275D1*
X40976D1*
X40795Y29335D1*
X40735Y29397D1*
X40673Y29517D1*
X43617Y29781D2*
X43557Y29902D1*
X43435Y30024D1*
X43314Y30084D1*
X43071D1*
X42949Y30024D1*
X42828Y29902D1*
X42767Y29781D1*
X42706Y29598D1*
Y29294D1*
X42767Y29113D1*
X42828Y28990D1*
X42949Y28870D1*
X43071Y28808D1*
X43314D1*
X43435Y28870D1*
X43557Y28990D1*
X43617Y29113D1*
X44617Y28808D2*
Y30083D1*
X44010Y29233D1*
X44921D1*
X30046Y73888D2*
X29925Y73827D1*
X29803Y73705D1*
X29742Y73585D1*
Y73342D1*
X29803Y73220D1*
X29925Y73099D1*
X30046Y73037D1*
X30228Y72977D1*
X30533D1*
X30714Y73037D1*
X30836Y73099D1*
X30957Y73220D1*
X31018Y73342D1*
Y73585D1*
X30957Y73705D1*
X30836Y73827D1*
X30714Y73888D1*
X29744Y75009D2*
Y74402D1*
X30290Y74342D1*
X30229Y74402D1*
X30168Y74585D1*
Y74766D1*
X30229Y74948D1*
X30350Y75070D1*
X30533Y75131D1*
X30653D1*
X30836Y75070D1*
X30958Y74948D1*
X31018Y74766D1*
Y74585D1*
X30958Y74402D1*
X30896Y74342D1*
X30776Y74280D1*
X47276Y56000D2*
X47216Y56120D1*
X47094Y56243D1*
X46973Y56303D1*
X46730D1*
X46608Y56243D1*
X46488Y56120D1*
X46426Y56000D1*
X46365Y55817D1*
Y55513D1*
X46426Y55331D1*
X46488Y55209D1*
X46608Y55089D1*
X46730Y55027D1*
X46973D1*
X47094Y55089D1*
X47216Y55209D1*
X47276Y55331D1*
X47669Y56059D2*
X47791Y56120D1*
X47973Y56301D1*
Y55027D1*
X48608D2*
X49216Y56301D1*
X48365D1*
X34100Y70130D2*
X34039Y70251D1*
X33917Y70373D1*
X33796Y70433D1*
X33553D1*
X33431Y70373D1*
X33311Y70251D1*
X33249Y70130D1*
X33188Y69947D1*
Y69643D1*
X33249Y69462D1*
X33311Y69340D1*
X33431Y69219D1*
X33553Y69157D1*
X33796D1*
X33917Y69219D1*
X34039Y69340D1*
X34100Y69462D1*
X34492Y70189D2*
X34614Y70251D1*
X34796Y70432D1*
Y69157D1*
X35492Y70432D2*
X35311Y70371D1*
X35249Y70251D1*
Y70128D1*
X35311Y70008D1*
X35431Y69946D1*
X35674Y69886D1*
X35857Y69825D1*
X35977Y69703D1*
X36038Y69582D1*
Y69400D1*
X35977Y69279D1*
X35917Y69217D1*
X35735Y69157D1*
X35492D1*
X35311Y69217D1*
X35249Y69279D1*
X35188Y69400D1*
Y69582D1*
X35249Y69703D1*
X35371Y69825D1*
X35552Y69886D1*
X35795Y69946D1*
X35917Y70008D1*
X35977Y70128D1*
Y70251D1*
X35917Y70371D1*
X35735Y70432D1*
X35492D1*
X42593Y35379D2*
X42532Y35500D1*
X42410Y35622D1*
X42290Y35682D1*
X42047D1*
X41925Y35622D1*
X41804Y35500D1*
X41742Y35379D1*
X41682Y35196D1*
Y34892D1*
X41742Y34711D1*
X41804Y34589D1*
X41925Y34468D1*
X42047Y34406D1*
X42290D1*
X42410Y34468D1*
X42532Y34589D1*
X42593Y34711D1*
X43047Y35378D2*
Y35438D1*
X43107Y35560D1*
X43167Y35620D1*
X43290Y35681D1*
X43532D1*
X43653Y35620D1*
X43714Y35560D1*
X43775Y35438D1*
Y35317D1*
X43714Y35195D1*
X43593Y35014D1*
X42985Y34406D1*
X43836D1*
X44350Y35681D2*
X45017D1*
X44653Y35195D1*
X44836D1*
X44956Y35135D1*
X45017Y35074D1*
X45079Y34892D1*
Y34771D1*
X45017Y34589D1*
X44896Y34466D1*
X44714Y34406D1*
X44531D1*
X44350Y34466D1*
X44290Y34528D1*
X44228Y34649D1*
X36984Y44317D2*
X36923Y44438D1*
X36801Y44560D1*
X36681Y44620D1*
X36438D1*
X36316Y44560D1*
X36195Y44438D1*
X36133Y44317D1*
X36073Y44135D1*
Y43830D1*
X36133Y43649D1*
X36195Y43527D1*
X36316Y43406D1*
X36438Y43344D1*
X36681D1*
X36801Y43406D1*
X36923Y43527D1*
X36984Y43649D1*
X37438Y44316D2*
Y44376D1*
X37498Y44498D1*
X37558Y44559D1*
X37681Y44619D1*
X37923D1*
X38044Y44559D1*
X38105Y44498D1*
X38166Y44376D1*
Y44255D1*
X38105Y44133D1*
X37984Y43952D1*
X37376Y43344D1*
X38227D1*
X39227D2*
Y44619D1*
X38619Y43770D1*
X39530D1*
X62859Y37817D2*
X62799Y37938D1*
X62677Y38060D1*
X62556Y38120D1*
X62313D1*
X62191Y38060D1*
X62070Y37938D1*
X62009Y37817D1*
X61948Y37635D1*
Y37330D1*
X62009Y37149D1*
X62070Y37027D1*
X62191Y36906D1*
X62313Y36844D1*
X62556D1*
X62677Y36906D1*
X62799Y37027D1*
X62859Y37149D1*
X63313Y37816D2*
Y37876D1*
X63374Y37998D1*
X63434Y38059D1*
X63556Y38119D1*
X63799D1*
X63920Y38059D1*
X63980Y37998D1*
X64042Y37876D1*
Y37755D1*
X63980Y37633D1*
X63859Y37452D1*
X63252Y36844D1*
X64102D1*
X65223Y38119D2*
X64617D1*
X64556Y37573D1*
X64617Y37633D1*
X64799Y37695D1*
X64980D1*
X65163Y37633D1*
X65285Y37513D1*
X65345Y37330D1*
Y37209D1*
X65285Y37027D1*
X65163Y36905D1*
X64980Y36844D1*
X64799D1*
X64617Y36905D1*
X64556Y36967D1*
X64495Y37087D1*
X67134Y34659D2*
X68411D1*
Y35084D1*
X68349Y35266D1*
X68228Y35389D1*
X68106Y35449D1*
X67925Y35509D1*
X67620D1*
X67438Y35449D1*
X67317Y35389D1*
X67195Y35266D1*
X67134Y35084D1*
Y34659D1*
X67379Y35901D2*
X67317Y36024D1*
X67136Y36206D1*
X68411D1*
X67136Y37327D2*
Y36720D1*
X67682Y36660D1*
X67622Y36720D1*
X67560Y36903D1*
Y37084D1*
X67622Y37266D1*
X67742Y37389D1*
X67925Y37449D1*
X68046D1*
X68228Y37389D1*
X68350Y37266D1*
X68411Y37084D1*
Y36903D1*
X68350Y36720D1*
X68288Y36660D1*
X68168Y36598D1*
X34582Y30566D2*
Y29290D1*
X35008D1*
X35190Y29352D1*
X35312Y29473D1*
X35373Y29595D1*
X35433Y29776D1*
Y30080D1*
X35373Y30263D1*
X35312Y30384D1*
X35190Y30506D1*
X35008Y30566D1*
X34582D1*
X35825Y30322D2*
X35948Y30384D1*
X36130Y30565D1*
Y29290D1*
X37251Y30384D2*
X37190Y30504D1*
X37008Y30565D1*
X36887D1*
X36705Y30504D1*
X36583Y30322D1*
X36522Y30019D1*
Y29715D1*
X36583Y29473D1*
X36705Y29350D1*
X36887Y29290D1*
X36948D1*
X37129Y29350D1*
X37251Y29473D1*
X37311Y29655D1*
Y29715D1*
X37251Y29898D1*
X37129Y30019D1*
X36948Y30079D1*
X36887D1*
X36705Y30019D1*
X36583Y29898D1*
X36522Y29715D1*
X24385Y26833D2*
Y25557D1*
X24810D1*
X24993Y25618D1*
X25115Y25739D1*
X25175Y25861D1*
X25236Y26042D1*
Y26347D1*
X25175Y26530D1*
X25115Y26650D1*
X24993Y26772D1*
X24810Y26833D1*
X24385D1*
X25628Y26588D2*
X25750Y26650D1*
X25932Y26831D1*
Y25557D1*
X26567D2*
X27175Y26831D1*
X26325D1*
X17433Y26535D2*
X18709D1*
Y26960D1*
X18647Y27143D1*
X18526Y27265D1*
X18404Y27325D1*
X18223Y27385D1*
X17918D1*
X17736Y27325D1*
X17615Y27265D1*
X17493Y27143D1*
X17433Y26960D1*
Y26535D1*
X17677Y27778D2*
X17615Y27900D1*
X17434Y28082D1*
X18709D1*
X17434Y28778D2*
X17494Y28597D1*
X17615Y28535D1*
X17737D1*
X17858Y28597D1*
X17920Y28717D1*
X17980Y28960D1*
X18041Y29143D1*
X18163Y29263D1*
X18283Y29324D1*
X18466D1*
X18587Y29263D1*
X18648Y29203D1*
X18709Y29021D1*
Y28778D1*
X18648Y28597D1*
X18587Y28535D1*
X18466Y28474D1*
X18283D1*
X18163Y28535D1*
X18041Y28657D1*
X17980Y28838D1*
X17920Y29081D1*
X17858Y29203D1*
X17737Y29263D1*
X17615D1*
X17494Y29203D1*
X17434Y29021D1*
Y28778D1*
X26615Y24399D2*
Y23123D1*
X27040D1*
X27223Y23185D1*
X27345Y23306D1*
X27405Y23428D1*
X27466Y23609D1*
Y23914D1*
X27405Y24096D1*
X27345Y24217D1*
X27223Y24339D1*
X27040Y24399D1*
X26615D1*
X27858Y24155D2*
X27980Y24217D1*
X28163Y24398D1*
Y23123D1*
X29345Y23974D2*
X29283Y23792D1*
X29163Y23669D1*
X28980Y23609D1*
X28920D1*
X28737Y23669D1*
X28617Y23792D1*
X28555Y23974D1*
Y24034D1*
X28617Y24217D1*
X28737Y24338D1*
X28920Y24398D1*
X28980D1*
X29163Y24338D1*
X29283Y24217D1*
X29345Y23974D1*
Y23669D1*
X29283Y23366D1*
X29163Y23184D1*
X28980Y23123D1*
X28859D1*
X28677Y23184D1*
X28617Y23306D1*
X54079Y37099D2*
Y35823D1*
X54504D1*
X54686Y35885D1*
X54809Y36006D1*
X54869Y36128D1*
X54929Y36309D1*
Y36614D1*
X54869Y36796D1*
X54809Y36917D1*
X54686Y37039D1*
X54504Y37099D1*
X54079D1*
X55383Y36795D2*
Y36855D1*
X55444Y36977D1*
X55504Y37038D1*
X55626Y37098D1*
X55869D1*
X55990Y37038D1*
X56050Y36977D1*
X56112Y36855D1*
Y36734D1*
X56050Y36612D1*
X55929Y36431D1*
X55321Y35823D1*
X56172D1*
X56929Y37098D2*
X56747Y37038D1*
X56625Y36855D1*
X56564Y36552D1*
Y36369D1*
X56625Y36066D1*
X56747Y35884D1*
X56929Y35823D1*
X57050D1*
X57233Y35884D1*
X57353Y36066D1*
X57415Y36369D1*
Y36552D1*
X57353Y36855D1*
X57233Y37038D1*
X57050Y37098D1*
X56929D1*
X57353Y36855D2*
X56625Y36066D1*
X25655Y91992D2*
X26931D1*
Y92417D1*
X26869Y92600D1*
X26749Y92722D1*
X26627Y92782D1*
X26445Y92843D1*
X26141D1*
X25958Y92782D1*
X25838Y92722D1*
X25715Y92600D1*
X25655Y92417D1*
Y91992D1*
X25960Y93297D2*
X25899D1*
X25777Y93357D1*
X25717Y93417D1*
X25656Y93539D1*
Y93782D1*
X25717Y93903D1*
X25777Y93963D1*
X25899Y94025D1*
X26020D1*
X26142Y93963D1*
X26323Y93843D1*
X26931Y93235D1*
Y94085D1*
X25899Y94478D2*
X25838Y94600D1*
X25656Y94782D1*
X26931D1*
X19020Y72383D2*
X20296D1*
Y72808D1*
X20235Y72991D1*
X20114Y73113D1*
X19992Y73173D1*
X19811Y73234D1*
X19506D1*
X19324Y73173D1*
X19203Y73113D1*
X19081Y72991D1*
X19020Y72808D1*
Y72383D1*
X19325Y73688D2*
X19265D1*
X19142Y73748D1*
X19082Y73808D1*
X19022Y73930D1*
Y74173D1*
X19082Y74294D1*
X19142Y74354D1*
X19265Y74416D1*
X19385D1*
X19507Y74354D1*
X19689Y74234D1*
X20296Y73626D1*
Y74476D1*
X19325Y74930D2*
X19265D1*
X19142Y74991D1*
X19082Y75051D1*
X19022Y75173D1*
Y75416D1*
X19082Y75537D1*
X19142Y75597D1*
X19265Y75659D1*
X19385D1*
X19507Y75597D1*
X19689Y75476D1*
X20296Y74869D1*
Y75719D1*
X24488Y71352D2*
X25764D1*
Y71778D1*
X25703Y71960D1*
X25582Y72082D1*
X25460Y72143D1*
X25279Y72203D1*
X24974D1*
X24792Y72143D1*
X24671Y72082D1*
X24549Y71960D1*
X24488Y71778D1*
Y71352D1*
X24793Y72657D2*
X24733D1*
X24611Y72717D1*
X24550Y72778D1*
X24490Y72900D1*
Y73143D1*
X24550Y73263D1*
X24611Y73324D1*
X24733Y73385D1*
X24853D1*
X24976Y73324D1*
X25157Y73203D1*
X25764Y72595D1*
Y73446D1*
X24490Y73960D2*
Y74627D1*
X24976Y74263D1*
Y74446D1*
X25036Y74567D1*
X25096Y74627D1*
X25279Y74689D1*
X25399D1*
X25582Y74627D1*
X25704Y74506D1*
X25764Y74324D1*
Y74141D1*
X25704Y73960D1*
X25642Y73900D1*
X25522Y73838D1*
X37984Y80012D2*
X39260D1*
X37984Y80863D2*
X39260D1*
X38591Y80012D2*
Y80863D1*
X37984Y81255D2*
X39260D1*
Y81681D1*
X39198Y81863D1*
X39077Y81985D1*
X38955Y82046D1*
X38774Y82106D1*
X38469D1*
X38287Y82046D1*
X38166Y81985D1*
X38044Y81863D1*
X37984Y81681D1*
Y81255D1*
X38591Y82498D2*
Y83044D1*
X38530Y83227D1*
X38469Y83289D1*
X38349Y83349D1*
X38226D1*
X38106Y83289D1*
X38044Y83227D1*
X37984Y83044D1*
Y82498D1*
X39260D1*
X38591Y82924D2*
X39260Y83349D1*
Y84349D2*
X37985D1*
X38834Y83741D1*
Y84652D1*
X39470Y85044D2*
Y86198D1*
X38228Y86590D2*
X38166Y86713D1*
X37985Y86895D1*
X39260D1*
X80355Y38838D2*
Y37562D1*
X81205Y38838D2*
Y37562D1*
X80355Y38230D2*
X81205D1*
X81597Y38838D2*
Y37562D1*
X82023D1*
X82205Y37624D1*
X82327Y37744D1*
X82388Y37866D1*
X82448Y38048D1*
Y38352D1*
X82388Y38535D1*
X82327Y38655D1*
X82205Y38778D1*
X82023Y38838D1*
X81597D1*
X82840Y38230D2*
X83386D1*
X83569Y38292D1*
X83631Y38352D1*
X83691Y38473D1*
Y38595D1*
X83631Y38716D1*
X83569Y38778D1*
X83386Y38838D1*
X82840D1*
Y37562D1*
X83266Y38230D2*
X83691Y37562D1*
X84691D2*
Y38837D1*
X84083Y37987D1*
X84994D1*
X85387Y37351D2*
X86540D1*
X86994Y38533D2*
Y38594D1*
X87055Y38716D1*
X87115Y38776D1*
X87237Y38837D1*
X87480D1*
X87601Y38776D1*
X87661Y38716D1*
X87723Y38594D1*
Y38473D1*
X87661Y38351D1*
X87540Y38170D1*
X86933Y37562D1*
X87783D1*
X21453Y61701D2*
Y60425D1*
X22303Y61701D2*
Y60425D1*
X21453Y61093D2*
X22303D1*
X22696Y61701D2*
Y60425D1*
X23121D1*
X23304Y60487D1*
X23426Y60608D1*
X23486Y60730D1*
X23546Y60911D1*
Y61215D1*
X23486Y61398D1*
X23426Y61519D1*
X23304Y61641D1*
X23121Y61701D1*
X22696D1*
X23939Y61093D2*
X24485D1*
X24667Y61155D1*
X24729Y61215D1*
X24789Y61336D1*
Y61458D1*
X24729Y61579D1*
X24667Y61641D1*
X24485Y61701D1*
X23939D1*
Y60425D1*
X24364Y61093D2*
X24789Y60425D1*
X25789D2*
Y61700D1*
X25181Y60850D1*
X26093D1*
X26485Y60214D2*
X27639D1*
X28153Y61700D2*
X28820D1*
X28456Y61214D1*
X28639D1*
X28759Y61154D1*
X28820Y61093D1*
X28882Y60911D1*
Y60790D1*
X28820Y60608D1*
X28699Y60485D1*
X28517Y60425D1*
X28334D1*
X28153Y60485D1*
X28093Y60547D1*
X28031Y60668D1*
X21740Y46618D2*
Y45342D1*
X22591Y46618D2*
Y45342D1*
X21740Y46010D2*
X22591D1*
X22983Y46618D2*
Y45342D1*
X23408D1*
X23591Y45404D1*
X23713Y45525D1*
X23773Y45647D1*
X23834Y45828D1*
Y46133D1*
X23773Y46315D1*
X23713Y46436D1*
X23591Y46558D1*
X23408Y46618D1*
X22983D1*
X24226Y46010D2*
X24772D1*
X24954Y46072D1*
X25016Y46133D1*
X25077Y46253D1*
Y46375D1*
X25016Y46496D1*
X24954Y46558D1*
X24772Y46618D1*
X24226D1*
Y45342D1*
X24651Y46010D2*
X25077Y45342D1*
X26077D2*
Y46617D1*
X25469Y45768D1*
X26380D1*
X26772Y45132D2*
X27926D1*
X28926Y45342D2*
Y46617D1*
X28318Y45768D1*
X29229D1*
X80197Y69639D2*
Y68363D1*
X81047Y69639D2*
Y68363D1*
X80197Y69031D2*
X81047D1*
X81439Y69639D2*
Y68363D1*
X81865D1*
X82047Y68424D1*
X82169Y68545D1*
X82230Y68667D1*
X82290Y68848D1*
Y69153D1*
X82230Y69336D1*
X82169Y69456D1*
X82047Y69578D1*
X81865Y69639D1*
X81439D1*
X82682Y69031D2*
X83228D1*
X83411Y69093D1*
X83473Y69153D1*
X83533Y69274D1*
Y69396D1*
X83473Y69517D1*
X83411Y69578D1*
X83228Y69639D1*
X82682D1*
Y68363D1*
X83108Y69031D2*
X83533Y68363D1*
X84533D2*
Y69637D1*
X83925Y68788D1*
X84836D1*
X85228Y68152D2*
X86382D1*
X87503Y69637D2*
X86897D1*
X86836Y69091D1*
X86897Y69152D1*
X87079Y69213D1*
X87260D1*
X87443Y69152D1*
X87565Y69031D1*
X87625Y68848D1*
Y68728D1*
X87565Y68545D1*
X87443Y68423D1*
X87260Y68363D1*
X87079D1*
X86897Y68423D1*
X86836Y68485D1*
X86775Y68606D1*
X36869Y25097D2*
Y24125D1*
X36809Y23943D1*
X36747Y23883D1*
X36626Y23821D1*
X36504D1*
X36383Y23883D1*
X36323Y23943D1*
X36261Y24125D1*
Y24246D1*
X37261Y24853D2*
X37383Y24914D1*
X37566Y25096D1*
Y23821D1*
X21570Y20636D2*
X22542D1*
X22724Y20576D1*
X22785Y20514D1*
X22846Y20393D1*
Y20271D1*
X22785Y20150D1*
X22724Y20090D1*
X22542Y20028D1*
X22421D1*
X21875Y21090D2*
X21815D1*
X21692Y21151D1*
X21632Y21211D1*
X21572Y21333D1*
Y21576D1*
X21632Y21697D1*
X21692Y21757D1*
X21815Y21819D1*
X21935D1*
X22057Y21757D1*
X22238Y21636D1*
X22846Y21028D1*
Y21879D1*
X38348Y46630D2*
Y45659D1*
X38287Y45476D1*
X38225Y45416D1*
X38105Y45354D1*
X37983D1*
X37862Y45416D1*
X37801Y45476D1*
X37740Y45659D1*
Y45780D1*
X38740Y46386D2*
X38862Y46448D1*
X39044Y46629D1*
Y45354D1*
X39498Y46326D2*
Y46386D1*
X39559Y46508D1*
X39619Y46568D1*
X39741Y46629D1*
X39984D1*
X40105Y46568D1*
X40165Y46508D1*
X40227Y46386D1*
Y46265D1*
X40165Y46143D1*
X40044Y45962D1*
X39437Y45354D1*
X40287D1*
X64670Y25024D2*
X65642D1*
X65824Y24964D1*
X65885Y24902D1*
X65946Y24781D1*
Y24659D1*
X65885Y24539D1*
X65824Y24478D1*
X65642Y24416D1*
X65521D1*
X64915Y25416D2*
X64853Y25539D1*
X64672Y25721D1*
X65946D1*
Y26721D2*
X64672D1*
X65521Y26113D1*
Y27024D1*
X53873Y94077D2*
Y92801D1*
X54724Y94077D2*
X53873Y93226D1*
X54176Y93531D2*
X54724Y92801D1*
X55116Y93833D2*
X55238Y93894D1*
X55421Y94076D1*
Y92801D1*
X72300Y54854D2*
Y53578D1*
X73151Y54854D2*
X72300Y54003D1*
X72603Y54308D2*
X73151Y53578D1*
X73605Y54549D2*
Y54610D1*
X73665Y54732D1*
X73725Y54792D1*
X73848Y54853D1*
X74090D1*
X74211Y54792D1*
X74271Y54732D1*
X74333Y54610D1*
Y54489D1*
X74271Y54367D1*
X74151Y54186D1*
X73543Y53578D1*
X74394D1*
X58547Y70844D2*
X58424Y70784D1*
X58304Y70662D1*
X58242Y70541D1*
X58182Y70359D1*
Y70054D1*
X58242Y69873D1*
X58304Y69751D1*
X58424Y69630D1*
X58547Y69568D1*
X58789D1*
X58910Y69630D1*
X59032Y69751D1*
X59093Y69873D1*
X59153Y70054D1*
Y70359D1*
X59093Y70541D1*
X59032Y70662D1*
X58910Y70784D1*
X58789Y70844D1*
X58547D1*
X59545Y70176D2*
X60093D1*
X60274Y70237D1*
X60336Y70298D1*
X60396Y70419D1*
Y70602D1*
X60336Y70722D1*
X60274Y70784D1*
X60093Y70844D1*
X59545D1*
Y69568D1*
X61213Y70844D2*
Y69568D1*
X60788Y70844D2*
X61639D1*
X62396D2*
X62274Y70784D1*
X62153Y70662D1*
X62091Y70541D1*
X62031Y70359D1*
Y70054D1*
X62091Y69873D1*
X62153Y69751D1*
X62274Y69630D1*
X62396Y69568D1*
X62639D1*
X62760Y69630D1*
X62882Y69751D1*
X62942Y69873D1*
X63002Y70054D1*
Y70359D1*
X62942Y70541D1*
X62882Y70662D1*
X62760Y70784D1*
X62639Y70844D1*
X62396D1*
X64125Y70237D2*
X64002Y70359D1*
X63880Y70419D1*
X63699D1*
X63577Y70359D1*
X63456Y70237D1*
X63395Y70054D1*
Y69933D1*
X63456Y69751D1*
X63577Y69630D1*
X63699Y69568D1*
X63880D1*
X64002Y69630D1*
X64125Y69751D1*
X64820Y70419D2*
X64699Y70359D1*
X64577Y70237D1*
X64517Y70054D1*
Y69933D1*
X64577Y69751D1*
X64699Y69630D1*
X64820Y69568D1*
X65002D1*
X65125Y69630D1*
X65245Y69751D1*
X65307Y69933D1*
Y70054D1*
X65245Y70237D1*
X65125Y70359D1*
X65002Y70419D1*
X64820D1*
X65699D2*
Y69811D1*
X65760Y69630D1*
X65882Y69568D1*
X66064D1*
X66185Y69630D1*
X66368Y69811D1*
Y70419D2*
Y69568D1*
X66760Y70419D2*
Y69143D1*
Y70237D2*
X66882Y70357D1*
X67003Y70419D1*
X67185D1*
X67307Y70357D1*
X67428Y70237D1*
X67490Y70054D1*
Y69932D1*
X67428Y69751D1*
X67307Y69629D1*
X67185Y69568D1*
X67003D1*
X66882Y69629D1*
X66760Y69751D1*
X67882Y70844D2*
Y69568D1*
X68274Y70054D2*
X69003D1*
Y70176D1*
X68942Y70298D1*
X68882Y70359D1*
X68760Y70419D1*
X68577D1*
X68456Y70359D1*
X68334Y70237D1*
X68274Y70054D1*
Y69933D1*
X68334Y69751D1*
X68456Y69630D1*
X68577Y69568D1*
X68760D1*
X68882Y69630D1*
X69003Y69751D1*
X69395Y70419D2*
Y69568D1*
Y70054D2*
X69457Y70237D1*
X69577Y70359D1*
X69699Y70419D1*
X69882D1*
X70274Y70600D2*
X70396Y70662D1*
X70579Y70843D1*
Y69568D1*
X45375Y69727D2*
X45253Y69667D1*
X45132Y69544D1*
X45071Y69424D1*
X45010Y69241D1*
Y68937D1*
X45071Y68756D1*
X45132Y68633D1*
X45253Y68513D1*
X45375Y68451D1*
X45618D1*
X45739Y68513D1*
X45861Y68633D1*
X45921Y68756D1*
X45982Y68937D1*
Y69241D1*
X45921Y69424D1*
X45861Y69544D1*
X45739Y69667D1*
X45618Y69727D1*
X45375D1*
X46374Y69059D2*
X46921D1*
X47102Y69119D1*
X47164Y69181D1*
X47225Y69302D1*
Y69484D1*
X47164Y69605D1*
X47102Y69667D1*
X46921Y69727D1*
X46374D1*
Y68451D1*
X48042Y69727D2*
Y68451D1*
X47617Y69727D2*
X48467D1*
X49225D2*
X49102Y69667D1*
X48982Y69544D1*
X48920Y69424D1*
X48860Y69241D1*
Y68937D1*
X48920Y68756D1*
X48982Y68633D1*
X49102Y68513D1*
X49225Y68451D1*
X49467D1*
X49588Y68513D1*
X49710Y68633D1*
X49771Y68756D1*
X49831Y68937D1*
Y69241D1*
X49771Y69424D1*
X49710Y69544D1*
X49588Y69667D1*
X49467Y69727D1*
X49225D1*
X50953Y69119D2*
X50831Y69241D1*
X50709Y69302D1*
X50528D1*
X50406Y69241D1*
X50285Y69119D1*
X50223Y68937D1*
Y68816D1*
X50285Y68633D1*
X50406Y68513D1*
X50528Y68451D1*
X50709D1*
X50831Y68513D1*
X50953Y68633D1*
X51649Y69302D2*
X51528Y69241D1*
X51406Y69119D1*
X51345Y68937D1*
Y68816D1*
X51406Y68633D1*
X51528Y68513D1*
X51649Y68451D1*
X51831D1*
X51953Y68513D1*
X52074Y68633D1*
X52136Y68816D1*
Y68937D1*
X52074Y69119D1*
X51953Y69241D1*
X51831Y69302D1*
X51649D1*
X52528D2*
Y68694D1*
X52588Y68513D1*
X52710Y68451D1*
X52893D1*
X53014Y68513D1*
X53196Y68694D1*
Y69302D2*
Y68451D1*
X53588Y69302D2*
Y68026D1*
Y69119D2*
X53710Y69240D1*
X53831Y69302D1*
X54014D1*
X54136Y69240D1*
X54257Y69119D1*
X54318Y68937D1*
Y68814D1*
X54257Y68633D1*
X54136Y68511D1*
X54014Y68451D1*
X53831D1*
X53710Y68511D1*
X53588Y68633D1*
X54710Y69727D2*
Y68451D1*
X55103Y68937D2*
X55831D1*
Y69059D1*
X55771Y69181D1*
X55710Y69241D1*
X55588Y69302D1*
X55406D1*
X55285Y69241D1*
X55163Y69119D1*
X55103Y68937D1*
Y68816D1*
X55163Y68633D1*
X55285Y68513D1*
X55406Y68451D1*
X55588D1*
X55710Y68513D1*
X55831Y68633D1*
X56223Y69302D2*
Y68451D1*
Y68937D2*
X56285Y69119D1*
X56406Y69241D1*
X56528Y69302D1*
X56710D1*
X57164Y69422D2*
Y69483D1*
X57225Y69605D1*
X57285Y69665D1*
X57407Y69726D1*
X57650D1*
X57771Y69665D1*
X57831Y69605D1*
X57893Y69483D1*
Y69362D1*
X57831Y69240D1*
X57711Y69059D1*
X57103Y68451D1*
X57953D1*
X61840Y82144D2*
X61718Y82084D1*
X61597Y81962D1*
X61536Y81841D1*
X61475Y81659D1*
Y81354D1*
X61536Y81173D1*
X61597Y81051D1*
X61718Y80930D1*
X61840Y80868D1*
X62083D1*
X62204Y80930D1*
X62326Y81051D1*
X62386Y81173D1*
X62447Y81354D1*
Y81659D1*
X62386Y81841D1*
X62326Y81962D1*
X62204Y82084D1*
X62083Y82144D1*
X61840D1*
X62839Y81476D2*
X63386D1*
X63567Y81537D1*
X63629Y81598D1*
X63690Y81719D1*
Y81902D1*
X63629Y82022D1*
X63567Y82084D1*
X63386Y82144D1*
X62839D1*
Y80868D1*
X64507Y82144D2*
Y80868D1*
X64082Y82144D2*
X64932D1*
X65690D2*
X65567Y82084D1*
X65447Y81962D1*
X65385Y81841D1*
X65325Y81659D1*
Y81354D1*
X65385Y81173D1*
X65447Y81051D1*
X65567Y80930D1*
X65690Y80868D1*
X65932D1*
X66053Y80930D1*
X66175Y81051D1*
X66236Y81173D1*
X66296Y81354D1*
Y81659D1*
X66236Y81841D1*
X66175Y81962D1*
X66053Y82084D1*
X65932Y82144D1*
X65690D1*
X67418Y81537D2*
X67296Y81659D1*
X67174Y81719D1*
X66993D1*
X66871Y81659D1*
X66750Y81537D1*
X66688Y81354D1*
Y81233D1*
X66750Y81051D1*
X66871Y80930D1*
X66993Y80868D1*
X67174D1*
X67296Y80930D1*
X67418Y81051D1*
X68114Y81719D2*
X67993Y81659D1*
X67871Y81537D1*
X67810Y81354D1*
Y81233D1*
X67871Y81051D1*
X67993Y80930D1*
X68114Y80868D1*
X68296D1*
X68418Y80930D1*
X68539Y81051D1*
X68601Y81233D1*
Y81354D1*
X68539Y81537D1*
X68418Y81659D1*
X68296Y81719D1*
X68114D1*
X68993D2*
Y81111D1*
X69053Y80930D1*
X69175Y80868D1*
X69358D1*
X69479Y80930D1*
X69661Y81111D1*
Y81719D2*
Y80868D1*
X70053Y81719D2*
Y80443D1*
Y81537D2*
X70175Y81657D1*
X70296Y81719D1*
X70479D1*
X70601Y81657D1*
X70722Y81537D1*
X70783Y81354D1*
Y81232D1*
X70722Y81051D1*
X70601Y80929D1*
X70479Y80868D1*
X70296D1*
X70175Y80929D1*
X70053Y81051D1*
X71175Y82144D2*
Y80868D1*
X71568Y81354D2*
X72296D1*
Y81476D1*
X72236Y81598D1*
X72175Y81659D1*
X72053Y81719D1*
X71871D1*
X71750Y81659D1*
X71628Y81537D1*
X71568Y81354D1*
Y81233D1*
X71628Y81051D1*
X71750Y80930D1*
X71871Y80868D1*
X72053D1*
X72175Y80930D1*
X72296Y81051D1*
X72688Y81719D2*
Y80868D1*
Y81354D2*
X72750Y81537D1*
X72871Y81659D1*
X72993Y81719D1*
X73175D1*
X73690Y82143D2*
X74357D1*
X73993Y81657D1*
X74176D1*
X74296Y81597D1*
X74357Y81537D1*
X74418Y81354D1*
Y81233D1*
X74357Y81051D1*
X74236Y80929D1*
X74053Y80868D1*
X73871D1*
X73690Y80929D1*
X73629Y80990D1*
X73568Y81111D1*
X60835Y94102D2*
X60713Y94041D1*
X60593Y93919D1*
X60531Y93798D1*
X60470Y93616D1*
Y93311D1*
X60531Y93130D1*
X60593Y93008D1*
X60713Y92887D1*
X60835Y92825D1*
X61078D1*
X61199Y92887D1*
X61321Y93008D1*
X61382Y93130D1*
X61442Y93311D1*
Y93616D1*
X61382Y93798D1*
X61321Y93919D1*
X61199Y94041D1*
X61078Y94102D1*
X60835D1*
X61834Y93433D2*
X62382D1*
X62563Y93494D1*
X62624Y93555D1*
X62685Y93676D1*
Y93859D1*
X62624Y93979D1*
X62563Y94041D1*
X62382Y94102D1*
X61834D1*
Y92825D1*
X63502Y94102D2*
Y92825D1*
X63077Y94102D2*
X63928D1*
X64685D2*
X64563Y94041D1*
X64442Y93919D1*
X64380Y93798D1*
X64320Y93616D1*
Y93311D1*
X64380Y93130D1*
X64442Y93008D1*
X64563Y92887D1*
X64685Y92825D1*
X64928D1*
X65048Y92887D1*
X65171Y93008D1*
X65231Y93130D1*
X65291Y93311D1*
Y93616D1*
X65231Y93798D1*
X65171Y93919D1*
X65048Y94041D1*
X64928Y94102D1*
X64685D1*
X66413Y93494D2*
X66291Y93616D1*
X66169Y93676D1*
X65988D1*
X65866Y93616D1*
X65745Y93494D1*
X65683Y93311D1*
Y93190D1*
X65745Y93008D1*
X65866Y92887D1*
X65988Y92825D1*
X66169D1*
X66291Y92887D1*
X66413Y93008D1*
X67109Y93676D2*
X66988Y93616D1*
X66866Y93494D1*
X66806Y93311D1*
Y93190D1*
X66866Y93008D1*
X66988Y92887D1*
X67109Y92825D1*
X67291D1*
X67414Y92887D1*
X67534Y93008D1*
X67596Y93190D1*
Y93311D1*
X67534Y93494D1*
X67414Y93616D1*
X67291Y93676D1*
X67109D1*
X67988D2*
Y93068D1*
X68049Y92887D1*
X68171Y92825D1*
X68353D1*
X68474Y92887D1*
X68656Y93068D1*
Y93676D2*
Y92825D1*
X69049Y93676D2*
Y92400D1*
Y93494D2*
X69171Y93614D1*
X69291Y93676D1*
X69474D1*
X69596Y93614D1*
X69717Y93494D1*
X69779Y93311D1*
Y93189D1*
X69717Y93008D1*
X69596Y92886D1*
X69474Y92825D1*
X69291D1*
X69171Y92886D1*
X69049Y93008D1*
X70171Y94102D2*
Y92825D1*
X70563Y93311D2*
X71291D1*
Y93433D1*
X71231Y93555D1*
X71171Y93616D1*
X71049Y93676D1*
X70866D1*
X70745Y93616D1*
X70623Y93494D1*
X70563Y93311D1*
Y93190D1*
X70623Y93008D1*
X70745Y92887D1*
X70866Y92825D1*
X71049D1*
X71171Y92887D1*
X71291Y93008D1*
X71684Y93676D2*
Y92825D1*
Y93311D2*
X71745Y93494D1*
X71866Y93616D1*
X71988Y93676D1*
X72171D1*
X73171Y92825D2*
Y94100D1*
X72563Y93251D1*
X73474D1*
X72837Y33945D2*
X72717Y33886D1*
X72594Y33764D1*
X72534Y33642D1*
X72472Y33459D1*
Y33156D1*
X72534Y32973D1*
X72594Y32853D1*
X72717Y32731D1*
X72837Y32670D1*
X73080D1*
X73202Y32731D1*
X73323Y32853D1*
X73383Y32973D1*
X73445Y33156D1*
Y33459D1*
X73383Y33642D1*
X73323Y33764D1*
X73202Y33886D1*
X73080Y33945D1*
X72837D1*
X73020Y32913D2*
X73383Y32548D1*
X73959Y33944D2*
X74626D1*
X74263Y33458D1*
X74445D1*
X74566Y33397D1*
X74626Y33337D1*
X74688Y33155D1*
Y33034D1*
X74626Y32851D1*
X74506Y32729D1*
X74323Y32669D1*
X74141D1*
X73959Y32729D1*
X73899Y32791D1*
X73837Y32912D1*
X28540Y19356D2*
X29086D1*
X29268Y19418D1*
X29330Y19478D1*
X29390Y19599D1*
Y19721D1*
X29330Y19841D1*
X29268Y19903D1*
X29086Y19964D1*
X28540D1*
Y18688D1*
X28965Y19356D2*
X29390Y18688D1*
X29783Y19719D2*
X29905Y19781D1*
X30087Y19962D1*
Y18688D1*
X28267Y21356D2*
X28813D1*
X28995Y21418D1*
X29057Y21478D1*
X29117Y21599D1*
Y21721D1*
X29057Y21841D1*
X28995Y21903D1*
X28813Y21964D1*
X28267D1*
Y20688D1*
X28692Y21356D2*
X29117Y20688D1*
X29571Y21659D2*
Y21719D1*
X29632Y21841D1*
X29692Y21902D1*
X29814Y21962D1*
X30057D1*
X30178Y21902D1*
X30238Y21841D1*
X30300Y21719D1*
Y21599D1*
X30238Y21476D1*
X30117Y21295D1*
X29510Y20688D1*
X30360D1*
X68461Y24622D2*
Y25168D1*
X68400Y25351D1*
X68339Y25412D1*
X68219Y25473D1*
X68096D1*
X67976Y25412D1*
X67914Y25351D1*
X67854Y25168D1*
Y24622D1*
X69130D1*
X68461Y25047D2*
X69130Y25473D1*
X68098Y25865D2*
X68036Y25987D1*
X67855Y26170D1*
X69130D1*
X68279Y27352D2*
X68461Y27290D1*
X68584Y27170D1*
X68644Y26987D1*
Y26927D1*
X68584Y26744D1*
X68461Y26623D1*
X68279Y26562D1*
X68219D1*
X68036Y26623D1*
X67915Y26744D1*
X67855Y26927D1*
Y26987D1*
X67915Y27170D1*
X68036Y27290D1*
X68279Y27352D1*
X68584D1*
X68887Y27290D1*
X69069Y27170D1*
X69130Y26987D1*
Y26866D1*
X69069Y26684D1*
X68947Y26623D1*
X22645Y79125D2*
Y79671D1*
X22583Y79854D1*
X22523Y79916D1*
X22402Y79976D1*
X22280D1*
X22159Y79916D1*
X22097Y79854D1*
X22037Y79671D1*
Y79125D1*
X23313D1*
X22645Y79551D2*
X23313Y79976D1*
X22342Y80430D2*
X22281D1*
X22159Y80490D1*
X22099Y80551D1*
X22038Y80673D1*
Y80916D1*
X22099Y81036D1*
X22159Y81097D1*
X22281Y81158D1*
X22402D1*
X22524Y81097D1*
X22705Y80976D1*
X23313Y80368D1*
Y81219D1*
X22281Y81611D2*
X22219Y81733D1*
X22038Y81916D1*
X23313D1*
X55012Y44022D2*
X55558D1*
X55740Y44084D1*
X55802Y44145D1*
X55863Y44265D1*
Y44387D1*
X55802Y44508D1*
X55740Y44570D1*
X55558Y44630D1*
X55012D1*
Y43354D1*
X55437Y44022D2*
X55863Y43354D1*
X56317Y44326D2*
Y44386D1*
X56377Y44508D1*
X56437Y44568D1*
X56559Y44629D1*
X56802D1*
X56923Y44568D1*
X56983Y44508D1*
X57045Y44386D1*
Y44265D1*
X56983Y44143D1*
X56863Y43962D1*
X56255Y43354D1*
X57105D1*
X57559Y44326D2*
Y44386D1*
X57620Y44508D1*
X57680Y44568D1*
X57802Y44629D1*
X58045D1*
X58166Y44568D1*
X58226Y44508D1*
X58288Y44386D1*
Y44265D1*
X58226Y44143D1*
X58106Y43962D1*
X57498Y43354D1*
X58348D1*
X65380Y57239D2*
X65926D1*
X66109Y57301D1*
X66171Y57361D1*
X66231Y57482D1*
Y57604D1*
X66171Y57725D1*
X66109Y57787D1*
X65926Y57847D1*
X65380D1*
Y56571D1*
X65806Y57239D2*
X66231Y56571D1*
X66685Y57543D2*
Y57603D1*
X66745Y57725D1*
X66806Y57785D1*
X66928Y57846D1*
X67171D1*
X67291Y57785D1*
X67352Y57725D1*
X67413Y57603D1*
Y57482D1*
X67352Y57360D1*
X67231Y57179D1*
X66623Y56571D1*
X67474D1*
X68474D2*
Y57846D1*
X67866Y56996D1*
X68777D1*
X55112Y56256D2*
X55658D1*
X55840Y56318D1*
X55902Y56378D1*
X55963Y56499D1*
Y56621D1*
X55902Y56741D1*
X55840Y56803D1*
X55658Y56864D1*
X55112D1*
Y55588D1*
X55537Y56256D2*
X55963Y55588D1*
X56417Y56559D2*
Y56619D1*
X56477Y56741D1*
X56537Y56802D1*
X56659Y56862D1*
X56902D1*
X57023Y56802D1*
X57083Y56741D1*
X57145Y56619D1*
Y56499D1*
X57083Y56376D1*
X56963Y56195D1*
X56355Y55588D1*
X57205D1*
X58326Y56862D2*
X57720D1*
X57659Y56316D1*
X57720Y56376D1*
X57902Y56438D1*
X58083D1*
X58266Y56376D1*
X58388Y56256D1*
X58448Y56073D1*
Y55953D1*
X58388Y55770D1*
X58266Y55648D1*
X58083Y55588D1*
X57902D1*
X57720Y55648D1*
X57659Y55710D1*
X57598Y55830D1*
X55545Y45716D2*
Y46262D1*
X55483Y46445D1*
X55423Y46507D1*
X55302Y46567D1*
X55180D1*
X55059Y46507D1*
X54997Y46445D1*
X54937Y46262D1*
Y45716D1*
X56213D1*
X55545Y46142D2*
X56213Y46567D1*
X55242Y47021D2*
X55181D1*
X55059Y47081D1*
X54999Y47142D1*
X54938Y47264D1*
Y47507D1*
X54999Y47627D1*
X55059Y47688D1*
X55181Y47750D1*
X55302D1*
X55424Y47688D1*
X55605Y47567D1*
X56213Y46959D1*
Y47810D1*
X55119Y48931D2*
X54999Y48870D1*
X54938Y48688D1*
Y48567D1*
X54999Y48385D1*
X55181Y48263D1*
X55484Y48202D1*
X55788D1*
X56031Y48263D1*
X56153Y48385D1*
X56213Y48567D1*
Y48628D1*
X56153Y48809D1*
X56031Y48931D1*
X55848Y48991D1*
X55788D1*
X55605Y48931D1*
X55484Y48809D1*
X55424Y48628D1*
Y48567D1*
X55484Y48385D1*
X55605Y48263D1*
X55788Y48202D1*
X54911Y49419D2*
Y49965D1*
X54850Y50147D1*
X54789Y50209D1*
X54669Y50270D1*
X54546D1*
X54426Y50209D1*
X54364Y50147D1*
X54304Y49965D1*
Y49419D1*
X55580D1*
X54911Y49844D2*
X55580Y50270D1*
X54608Y50723D2*
X54548D1*
X54426Y50784D1*
X54365Y50844D1*
X54305Y50966D1*
Y51209D1*
X54365Y51330D1*
X54426Y51390D1*
X54548Y51452D1*
X54669D1*
X54791Y51390D1*
X54972Y51270D1*
X55580Y50662D1*
Y51512D1*
Y52147D2*
X54305Y52755D1*
Y51905D1*
X59999Y53726D2*
Y54272D1*
X59937Y54455D1*
X59877Y54516D1*
X59756Y54577D1*
X59634D1*
X59513Y54516D1*
X59451Y54455D1*
X59391Y54272D1*
Y53726D1*
X60667D1*
X59999Y54151D2*
X60667Y54577D1*
X59695Y55031D2*
X59635D1*
X59513Y55091D1*
X59453Y55151D1*
X59392Y55273D1*
Y55516D1*
X59453Y55637D1*
X59513Y55697D1*
X59635Y55759D1*
X59756D1*
X59878Y55697D1*
X60059Y55577D1*
X60667Y54969D1*
Y55820D1*
X59392Y56515D2*
X59453Y56334D1*
X59573Y56272D1*
X59695D1*
X59816Y56334D1*
X59878Y56455D1*
X59938Y56697D1*
X59999Y56880D1*
X60121Y57001D1*
X60242Y57061D1*
X60424D1*
X60545Y57001D1*
X60607Y56940D1*
X60667Y56758D1*
Y56515D1*
X60607Y56334D1*
X60545Y56272D1*
X60424Y56212D1*
X60242D1*
X60121Y56272D1*
X59999Y56394D1*
X59938Y56575D1*
X59878Y56818D1*
X59816Y56940D1*
X59695Y57001D1*
X59573D1*
X59453Y56940D1*
X59392Y56758D1*
Y56515D1*
X38711Y46249D2*
Y46795D1*
X38650Y46978D1*
X38589Y47039D1*
X38469Y47100D1*
X38346D1*
X38226Y47039D1*
X38164Y46978D1*
X38104Y46795D1*
Y46249D1*
X39380D1*
X38711Y46674D2*
X39380Y47100D1*
X38408Y47554D2*
X38348D1*
X38226Y47614D1*
X38165Y47674D1*
X38105Y47797D1*
Y48039D1*
X38165Y48160D1*
X38226Y48220D1*
X38348Y48282D1*
X38469D1*
X38591Y48220D1*
X38772Y48100D1*
X39380Y47492D1*
Y48343D1*
X38529Y49525D2*
X38711Y49463D1*
X38834Y49343D1*
X38894Y49160D1*
Y49100D1*
X38834Y48917D1*
X38711Y48797D1*
X38529Y48735D1*
X38469D1*
X38286Y48797D1*
X38165Y48917D1*
X38105Y49100D1*
Y49160D1*
X38165Y49343D1*
X38286Y49463D1*
X38529Y49525D1*
X38834D1*
X39137Y49463D1*
X39319Y49343D1*
X39380Y49160D1*
Y49039D1*
X39319Y48857D1*
X39197Y48797D1*
X38179Y52756D2*
X38725D1*
X38907Y52818D1*
X38969Y52878D1*
X39029Y52999D1*
Y53121D1*
X38969Y53241D1*
X38907Y53303D1*
X38725Y53364D1*
X38179D1*
Y52088D1*
X38604Y52756D2*
X39029Y52088D1*
X39544Y53362D2*
X40210D1*
X39847Y52876D1*
X40029D1*
X40150Y52816D1*
X40210Y52756D1*
X40272Y52573D1*
Y52453D1*
X40210Y52270D1*
X40090Y52148D1*
X39907Y52088D1*
X39725D1*
X39544Y52148D1*
X39483Y52210D1*
X39421Y52330D1*
X41029Y53362D2*
X40847Y53302D1*
X40725Y53119D1*
X40664Y52816D1*
Y52634D1*
X40725Y52330D1*
X40847Y52148D1*
X41029Y52088D1*
X41150D1*
X41333Y52148D1*
X41453Y52330D1*
X41515Y52634D1*
Y52816D1*
X41453Y53119D1*
X41333Y53302D1*
X41150Y53362D1*
X41029D1*
X41453Y53119D2*
X40725Y52330D1*
X38711Y52225D2*
Y52771D1*
X38650Y52954D1*
X38589Y53016D1*
X38469Y53076D1*
X38346D1*
X38226Y53016D1*
X38164Y52954D1*
X38104Y52771D1*
Y52225D1*
X39380D1*
X38711Y52651D2*
X39380Y53076D1*
X38105Y53590D2*
Y54257D1*
X38591Y53893D1*
Y54076D1*
X38651Y54197D1*
X38711Y54257D1*
X38894Y54319D1*
X39015D1*
X39197Y54257D1*
X39319Y54136D1*
X39380Y53954D1*
Y53771D1*
X39319Y53590D1*
X39258Y53530D1*
X39137Y53468D1*
X38348Y54711D2*
X38286Y54833D1*
X38105Y55016D1*
X39380D1*
X73711Y72419D2*
Y72965D1*
X73650Y73147D1*
X73589Y73209D1*
X73469Y73270D1*
X73346D1*
X73226Y73209D1*
X73164Y73147D1*
X73104Y72965D1*
Y72419D1*
X74380D1*
X73711Y72844D2*
X74380Y73270D1*
X73105Y73784D2*
Y74451D1*
X73591Y74087D1*
Y74270D1*
X73651Y74390D1*
X73711Y74451D1*
X73894Y74512D1*
X74015D1*
X74197Y74451D1*
X74319Y74330D1*
X74380Y74147D1*
Y73965D1*
X74319Y73784D1*
X74258Y73723D1*
X74137Y73662D1*
X73408Y74966D2*
X73348D1*
X73226Y75027D1*
X73165Y75087D1*
X73105Y75209D1*
Y75452D1*
X73165Y75573D1*
X73226Y75633D1*
X73348Y75695D1*
X73469D1*
X73591Y75633D1*
X73772Y75512D1*
X74380Y74905D1*
Y75755D1*
X43612Y73789D2*
X44158D1*
X44340Y73851D1*
X44402Y73911D1*
X44463Y74032D1*
Y74154D1*
X44402Y74275D1*
X44340Y74337D1*
X44158Y74397D1*
X43612D1*
Y73121D1*
X44037Y73789D2*
X44463Y73121D1*
X44977Y74396D2*
X45644D1*
X45280Y73910D1*
X45463D1*
X45583Y73849D1*
X45644Y73789D1*
X45705Y73607D1*
Y73486D1*
X45644Y73303D1*
X45523Y73181D1*
X45340Y73121D1*
X45158D1*
X44977Y73181D1*
X44917Y73243D1*
X44855Y73364D1*
X46220Y74396D2*
X46887D1*
X46523Y73910D1*
X46706D1*
X46826Y73849D1*
X46887Y73789D1*
X46948Y73607D1*
Y73486D1*
X46887Y73303D1*
X46766Y73181D1*
X46583Y73121D1*
X46401D1*
X46220Y73181D1*
X46159Y73243D1*
X46098Y73364D1*
X45415Y71689D2*
X45961D1*
X46144Y71751D1*
X46205Y71811D1*
X46266Y71932D1*
Y72054D1*
X46205Y72175D1*
X46144Y72237D1*
X45961Y72297D1*
X45415D1*
Y71021D1*
X45840Y71689D2*
X46266Y71021D1*
X46780Y72296D2*
X47447D1*
X47083Y71810D1*
X47266D1*
X47387Y71749D1*
X47447Y71689D1*
X47509Y71507D1*
Y71386D1*
X47447Y71203D1*
X47326Y71081D1*
X47144Y71021D1*
X46961D1*
X46780Y71081D1*
X46720Y71143D1*
X46658Y71264D1*
X48509Y71021D2*
Y72296D1*
X47901Y71446D1*
X48812D1*
X70145Y65719D2*
Y66265D1*
X70083Y66447D1*
X70023Y66509D1*
X69902Y66570D1*
X69780D1*
X69659Y66509D1*
X69597Y66447D1*
X69537Y66265D1*
Y65719D1*
X70813D1*
X70145Y66144D2*
X70813Y66570D1*
X69538Y67084D2*
Y67751D1*
X70024Y67387D1*
Y67570D1*
X70084Y67690D1*
X70145Y67751D1*
X70327Y67812D1*
X70448D1*
X70631Y67751D1*
X70753Y67630D1*
X70813Y67447D1*
Y67265D1*
X70753Y67084D1*
X70691Y67023D1*
X70570Y66962D1*
X69538Y68933D2*
Y68327D1*
X70084Y68266D1*
X70024Y68327D1*
X69962Y68509D1*
Y68690D1*
X70024Y68873D1*
X70145Y68995D1*
X70327Y69055D1*
X70448D1*
X70631Y68995D1*
X70753Y68873D1*
X70813Y68690D1*
Y68509D1*
X70753Y68327D1*
X70691Y68266D1*
X70570Y68205D1*
X40745Y67283D2*
Y67829D1*
X40683Y68012D1*
X40623Y68073D1*
X40502Y68134D1*
X40380D1*
X40259Y68073D1*
X40197Y68012D1*
X40137Y67829D1*
Y67283D1*
X41413D1*
X40745Y67708D2*
X41413Y68134D1*
X40138Y68648D2*
Y69315D1*
X40624Y68951D1*
Y69134D1*
X40684Y69255D1*
X40745Y69315D1*
X40927Y69377D1*
X41048D1*
X41231Y69315D1*
X41353Y69194D1*
X41413Y69012D1*
Y68829D1*
X41353Y68648D1*
X41291Y68588D1*
X41170Y68526D1*
X40319Y70497D2*
X40199Y70437D1*
X40138Y70255D1*
Y70134D1*
X40199Y69951D1*
X40381Y69829D1*
X40684Y69769D1*
X40988D1*
X41231Y69829D1*
X41353Y69951D1*
X41413Y70134D1*
Y70194D1*
X41353Y70375D1*
X41231Y70497D1*
X41048Y70558D1*
X40988D1*
X40805Y70497D1*
X40684Y70375D1*
X40624Y70194D1*
Y70134D1*
X40684Y69951D1*
X40805Y69829D1*
X40988Y69769D1*
X36578Y71619D2*
Y72165D1*
X36516Y72347D1*
X36456Y72409D1*
X36335Y72470D1*
X36213D1*
X36092Y72409D1*
X36031Y72347D1*
X35970Y72165D1*
Y71619D1*
X37246D1*
X36578Y72044D2*
X37246Y72470D1*
X35972Y72984D2*
Y73651D1*
X36457Y73287D1*
Y73470D1*
X36518Y73590D1*
X36578Y73651D1*
X36761Y73712D1*
X36881D1*
X37064Y73651D1*
X37186Y73530D1*
X37246Y73347D1*
Y73165D1*
X37186Y72984D1*
X37124Y72923D1*
X37003Y72862D1*
X37246Y74347D2*
X35972Y74955D1*
Y74105D1*
X33078Y70953D2*
Y71499D1*
X33016Y71681D1*
X32956Y71743D1*
X32835Y71804D1*
X32713D1*
X32592Y71743D1*
X32531Y71681D1*
X32470Y71499D1*
Y70953D1*
X33746D1*
X33078Y71378D2*
X33746Y71804D1*
X32472Y72318D2*
Y72985D1*
X32957Y72621D1*
Y72804D1*
X33018Y72924D1*
X33078Y72985D1*
X33261Y73046D1*
X33381D1*
X33564Y72985D1*
X33686Y72864D1*
X33746Y72681D1*
Y72499D1*
X33686Y72318D1*
X33624Y72258D1*
X33503Y72196D1*
X32472Y73742D2*
X32532Y73561D1*
X32653Y73499D1*
X32775D1*
X32896Y73561D1*
X32957Y73681D1*
X33018Y73924D1*
X33078Y74107D1*
X33200Y74228D1*
X33321Y74288D1*
X33503D1*
X33624Y74228D1*
X33686Y74167D1*
X33746Y73985D1*
Y73742D1*
X33686Y73561D1*
X33624Y73499D1*
X33503Y73439D1*
X33321D1*
X33200Y73499D1*
X33078Y73621D1*
X33018Y73802D1*
X32957Y74045D1*
X32896Y74167D1*
X32775Y74228D1*
X32653D1*
X32532Y74167D1*
X32472Y73985D1*
Y73742D1*
X73415Y38656D2*
X73961D1*
X74144Y38718D1*
X74205Y38778D1*
X74266Y38899D1*
Y39021D1*
X74205Y39141D1*
X74144Y39203D1*
X73961Y39264D1*
X73415D1*
Y37988D1*
X73840Y38656D2*
X74266Y37988D1*
X75266D2*
Y39262D1*
X74658Y38413D1*
X75569D1*
X76023Y38959D2*
Y39019D1*
X76083Y39141D1*
X76144Y39202D1*
X76266Y39262D1*
X76509D1*
X76629Y39202D1*
X76690Y39141D1*
X76752Y39019D1*
Y38899D1*
X76690Y38776D1*
X76569Y38595D1*
X75961Y37988D1*
X76812D1*
X73415Y40656D2*
X73961D1*
X74144Y40718D1*
X74205Y40778D1*
X74266Y40899D1*
Y41021D1*
X74205Y41141D1*
X74144Y41203D1*
X73961Y41264D1*
X73415D1*
Y39988D1*
X73840Y40656D2*
X74266Y39988D1*
X75266D2*
Y41262D1*
X74658Y40413D1*
X75569D1*
X76083Y41262D2*
X76750D1*
X76387Y40776D1*
X76569D1*
X76690Y40716D1*
X76750Y40656D1*
X76812Y40473D1*
Y40353D1*
X76750Y40170D1*
X76629Y40048D1*
X76447Y39988D1*
X76264D1*
X76083Y40048D1*
X76023Y40110D1*
X75961Y40230D1*
X87145Y42192D2*
Y42738D1*
X87083Y42920D1*
X87023Y42982D1*
X86902Y43043D1*
X86780D1*
X86659Y42982D1*
X86597Y42920D1*
X86537Y42738D1*
Y42192D1*
X87813D1*
X87145Y42617D2*
X87813Y43043D1*
Y44043D2*
X86538D1*
X87388Y43435D1*
Y44346D1*
X87813Y45346D2*
X86538D1*
X87388Y44738D1*
Y45649D1*
X71111Y61422D2*
Y61968D1*
X71050Y62151D1*
X70989Y62212D1*
X70869Y62273D1*
X70746D1*
X70626Y62212D1*
X70564Y62151D1*
X70504Y61968D1*
Y61422D1*
X71780D1*
X71111Y61847D2*
X71780Y62273D1*
Y63273D2*
X70505D1*
X71354Y62665D1*
Y63576D1*
X70505Y64697D2*
Y64090D1*
X71051Y64030D1*
X70991Y64090D1*
X70929Y64273D1*
Y64454D1*
X70991Y64636D1*
X71111Y64758D1*
X71294Y64819D1*
X71415D1*
X71597Y64758D1*
X71719Y64636D1*
X71780Y64454D1*
Y64273D1*
X71719Y64090D1*
X71658Y64030D1*
X71537Y63968D1*
X61046Y40664D2*
X61592D1*
X61775Y40726D1*
X61836Y40786D1*
X61897Y40907D1*
Y41029D1*
X61836Y41150D1*
X61775Y41212D1*
X61592Y41272D1*
X61046D1*
Y39996D1*
X61471Y40664D2*
X61897Y39996D1*
X62897D2*
Y41271D1*
X62289Y40421D1*
X63200D1*
X64321Y41089D2*
X64260Y41210D1*
X64078Y41271D1*
X63957D1*
X63775Y41210D1*
X63652Y41028D1*
X63592Y40724D1*
Y40421D1*
X63652Y40178D1*
X63775Y40056D1*
X63957Y39996D1*
X64017D1*
X64199Y40056D1*
X64321Y40178D1*
X64381Y40361D1*
Y40421D1*
X64321Y40604D1*
X64199Y40724D1*
X64017Y40785D1*
X63957D1*
X63775Y40724D1*
X63652Y40604D1*
X63592Y40421D1*
X48445Y31022D2*
Y31568D1*
X48383Y31751D1*
X48323Y31812D1*
X48202Y31873D1*
X48080D1*
X47959Y31812D1*
X47897Y31751D1*
X47837Y31568D1*
Y31022D1*
X49113D1*
X48445Y31447D2*
X49113Y31873D1*
Y32873D2*
X47838D1*
X48688Y32265D1*
Y33176D1*
X49113Y33811D2*
X47838Y34419D1*
Y33568D1*
X27482Y29939D2*
X28028D1*
X28211Y30001D1*
X28273Y30061D1*
X28333Y30182D1*
Y30304D1*
X28273Y30425D1*
X28211Y30487D1*
X28028Y30547D1*
X27482D1*
Y29271D1*
X27908Y29939D2*
X28333Y29271D1*
X29333D2*
Y30546D1*
X28725Y29696D1*
X29636D1*
X30332Y30546D2*
X30151Y30485D1*
X30089Y30364D1*
Y30242D1*
X30151Y30122D1*
X30271Y30060D1*
X30514Y29999D1*
X30697Y29939D1*
X30818Y29817D1*
X30878Y29696D1*
Y29514D1*
X30818Y29393D1*
X30757Y29331D1*
X30575Y29271D1*
X30332D1*
X30151Y29331D1*
X30089Y29393D1*
X30029Y29514D1*
Y29696D1*
X30089Y29817D1*
X30211Y29939D1*
X30392Y29999D1*
X30635Y30060D1*
X30757Y30122D1*
X30818Y30242D1*
Y30364D1*
X30757Y30485D1*
X30575Y30546D1*
X30332D1*
X44012Y76806D2*
X44558D1*
X44740Y76868D1*
X44802Y76928D1*
X44863Y77049D1*
Y77171D1*
X44802Y77291D1*
X44740Y77353D1*
X44558Y77414D1*
X44012D1*
Y76138D1*
X44437Y76806D2*
X44863Y76138D1*
X45863D2*
Y77412D1*
X45255Y76563D1*
X46166D1*
X47348Y76988D2*
X47287Y76806D1*
X47166Y76684D1*
X46983Y76623D1*
X46923D1*
X46741Y76684D1*
X46620Y76806D1*
X46558Y76988D1*
Y77049D1*
X46620Y77231D1*
X46741Y77352D1*
X46923Y77412D1*
X46983D1*
X47166Y77352D1*
X47287Y77231D1*
X47348Y76988D1*
Y76684D1*
X47287Y76380D1*
X47166Y76198D1*
X46983Y76138D1*
X46863D1*
X46680Y76198D1*
X46620Y76320D1*
X44828Y78085D2*
Y78632D1*
X44766Y78814D1*
X44706Y78876D1*
X44585Y78936D1*
X44463D1*
X44342Y78876D1*
X44281Y78814D1*
X44220Y78632D1*
Y78085D1*
X45496D1*
X44828Y78511D2*
X45496Y78936D1*
X44222Y80057D2*
Y79451D1*
X44768Y79390D1*
X44707Y79451D1*
X44646Y79633D1*
Y79814D1*
X44707Y79997D1*
X44828Y80119D1*
X45011Y80179D1*
X45131D1*
X45314Y80119D1*
X45436Y79997D1*
X45496Y79814D1*
Y79633D1*
X45436Y79451D1*
X45374Y79390D1*
X45253Y79328D1*
X44222Y80936D2*
X44282Y80754D1*
X44465Y80632D1*
X44768Y80571D1*
X44950D1*
X45253Y80632D1*
X45436Y80754D1*
X45496Y80936D1*
Y81057D1*
X45436Y81239D1*
X45253Y81360D1*
X44950Y81422D1*
X44768D1*
X44465Y81360D1*
X44282Y81239D1*
X44222Y81057D1*
Y80936D1*
X44465Y81360D2*
X45253Y80632D1*
X42495Y78392D2*
Y78938D1*
X42433Y79120D1*
X42373Y79182D1*
X42252Y79243D1*
X42130D1*
X42009Y79182D1*
X41947Y79120D1*
X41887Y78938D1*
Y78392D1*
X43163D1*
X42495Y78817D2*
X43163Y79243D1*
X41888Y80363D2*
Y79757D1*
X42434Y79697D1*
X42374Y79757D1*
X42312Y79939D1*
Y80120D1*
X42374Y80303D1*
X42495Y80425D1*
X42677Y80485D1*
X42798D1*
X42981Y80425D1*
X43103Y80303D1*
X43163Y80120D1*
Y79939D1*
X43103Y79757D1*
X43041Y79697D1*
X42920Y79635D1*
X42131Y80878D2*
X42069Y81000D1*
X41888Y81182D1*
X43163D1*
X52728Y93252D2*
Y93798D1*
X52666Y93981D1*
X52606Y94043D1*
X52485Y94103D1*
X52363D1*
X52242Y94043D1*
X52181Y93981D1*
X52120Y93798D1*
Y93252D1*
X53396D1*
X52728Y93678D2*
X53396Y94103D1*
X52122Y95224D2*
Y94617D1*
X52668Y94557D1*
X52607Y94617D1*
X52546Y94800D1*
Y94981D1*
X52607Y95163D1*
X52728Y95285D1*
X52911Y95346D1*
X53031D1*
X53214Y95285D1*
X53336Y95163D1*
X53396Y94981D1*
Y94800D1*
X53336Y94617D1*
X53274Y94557D1*
X53153Y94495D1*
X52425Y95800D2*
X52365D1*
X52242Y95860D1*
X52182Y95920D1*
X52122Y96043D1*
Y96285D1*
X52182Y96406D1*
X52242Y96467D1*
X52365Y96528D1*
X52485D1*
X52607Y96467D1*
X52788Y96346D1*
X53396Y95738D1*
Y96589D1*
X49579Y95772D2*
X50125D1*
X50307Y95834D1*
X50369Y95895D1*
X50429Y96015D1*
Y96137D1*
X50369Y96258D1*
X50307Y96320D1*
X50125Y96380D1*
X49579D1*
Y95104D1*
X50004Y95772D2*
X50429Y95104D1*
X51550Y96379D2*
X50944D1*
X50883Y95833D1*
X50944Y95893D1*
X51126Y95955D1*
X51307D1*
X51490Y95893D1*
X51612Y95772D1*
X51672Y95590D1*
Y95469D1*
X51612Y95287D1*
X51490Y95165D1*
X51307Y95104D1*
X51126D1*
X50944Y95165D1*
X50883Y95226D1*
X50821Y95347D1*
X52186Y96379D2*
X52853D1*
X52490Y95893D1*
X52672D1*
X52793Y95833D1*
X52853Y95772D1*
X52915Y95590D1*
Y95469D1*
X52853Y95287D1*
X52733Y95165D1*
X52550Y95104D1*
X52368D1*
X52186Y95165D1*
X52126Y95226D1*
X52064Y95347D1*
X25511Y67222D2*
Y67768D1*
X25450Y67951D1*
X25389Y68012D1*
X25269Y68073D1*
X25146D1*
X25026Y68012D1*
X24964Y67951D1*
X24904Y67768D1*
Y67222D1*
X26180D1*
X25511Y67647D2*
X26180Y68073D1*
X24905Y69193D2*
Y68587D1*
X25451Y68527D1*
X25391Y68587D1*
X25329Y68769D1*
Y68951D1*
X25391Y69133D1*
X25511Y69255D1*
X25694Y69316D1*
X25815D1*
X25997Y69255D1*
X26119Y69133D1*
X26180Y68951D1*
Y68769D1*
X26119Y68587D1*
X26058Y68527D1*
X25937Y68465D1*
X26180Y70316D2*
X24905D1*
X25754Y69708D1*
Y70619D1*
X73711Y68719D2*
Y69265D1*
X73650Y69447D1*
X73589Y69509D1*
X73469Y69570D1*
X73346D1*
X73226Y69509D1*
X73164Y69447D1*
X73104Y69265D1*
Y68719D1*
X74380D1*
X73711Y69144D2*
X74380Y69570D1*
X73105Y70690D2*
Y70084D1*
X73651Y70023D1*
X73591Y70084D1*
X73529Y70266D1*
Y70447D1*
X73591Y70630D1*
X73711Y70752D1*
X73894Y70812D1*
X74015D1*
X74197Y70752D1*
X74319Y70630D1*
X74380Y70447D1*
Y70266D1*
X74319Y70084D1*
X74258Y70023D1*
X74137Y69962D1*
X73105Y71933D2*
Y71327D1*
X73651Y71266D1*
X73591Y71327D1*
X73529Y71509D1*
Y71690D1*
X73591Y71873D1*
X73711Y71995D1*
X73894Y72055D1*
X74015D1*
X74197Y71995D1*
X74319Y71873D1*
X74380Y71690D1*
Y71509D1*
X74319Y71327D1*
X74258Y71266D1*
X74137Y71205D1*
X44043Y85539D2*
X44589D1*
X44771Y85601D1*
X44833Y85661D1*
X44893Y85782D1*
Y85904D1*
X44833Y86025D1*
X44771Y86087D1*
X44589Y86147D1*
X44043D1*
Y84871D1*
X44468Y85539D2*
X44893Y84871D1*
X46014Y86146D2*
X45408D1*
X45347Y85599D1*
X45408Y85660D1*
X45590Y85722D1*
X45771D1*
X45954Y85660D1*
X46076Y85539D1*
X46136Y85357D1*
Y85236D1*
X46076Y85053D1*
X45954Y84931D1*
X45771Y84871D1*
X45590D1*
X45408Y84931D1*
X45347Y84993D1*
X45286Y85114D1*
X47257Y85964D2*
X47197Y86085D1*
X47014Y86146D1*
X46894D1*
X46711Y86085D1*
X46589Y85903D1*
X46529Y85599D1*
Y85296D1*
X46589Y85053D1*
X46711Y84931D1*
X46894Y84871D1*
X46954D1*
X47135Y84931D1*
X47257Y85053D1*
X47318Y85236D1*
Y85296D1*
X47257Y85479D1*
X47135Y85599D1*
X46954Y85660D1*
X46894D1*
X46711Y85599D1*
X46589Y85479D1*
X46529Y85296D1*
X44412Y96272D2*
X44958D1*
X45140Y96334D1*
X45202Y96395D1*
X45263Y96515D1*
Y96637D1*
X45202Y96758D1*
X45140Y96820D1*
X44958Y96880D1*
X44412D1*
Y95604D1*
X44837Y96272D2*
X45263Y95604D1*
X46383Y96879D2*
X45777D1*
X45717Y96333D1*
X45777Y96393D1*
X45959Y96455D1*
X46140D1*
X46323Y96393D1*
X46445Y96272D1*
X46505Y96090D1*
Y95969D1*
X46445Y95787D1*
X46323Y95665D1*
X46140Y95604D1*
X45959D1*
X45777Y95665D1*
X45717Y95726D1*
X45655Y95847D1*
X47141Y95604D2*
X47748Y96879D1*
X46898D1*
X44413Y98606D2*
X44959D1*
X45141Y98668D1*
X45203Y98728D1*
X45263Y98849D1*
Y98971D1*
X45203Y99091D1*
X45141Y99153D1*
X44959Y99214D1*
X44413D1*
Y97938D1*
X44838Y98606D2*
X45263Y97938D1*
X46384Y99212D2*
X45778D1*
X45717Y98666D1*
X45778Y98726D1*
X45960Y98788D1*
X46141D1*
X46324Y98726D1*
X46446Y98606D1*
X46506Y98423D1*
Y98303D1*
X46446Y98120D1*
X46324Y97998D1*
X46141Y97938D1*
X45960D1*
X45778Y97998D1*
X45717Y98060D1*
X45655Y98180D1*
X47202Y99212D2*
X47020Y99152D1*
X46959Y99031D1*
Y98909D1*
X47020Y98788D1*
X47141Y98726D1*
X47384Y98666D1*
X47567Y98606D1*
X47687Y98484D1*
X47748Y98363D1*
Y98180D1*
X47687Y98060D1*
X47627Y97998D1*
X47444Y97938D1*
X47202D1*
X47020Y97998D1*
X46959Y98060D1*
X46898Y98180D1*
Y98363D1*
X46959Y98484D1*
X47081Y98606D1*
X47262Y98666D1*
X47505Y98726D1*
X47627Y98788D1*
X47687Y98909D1*
Y99031D1*
X47627Y99152D1*
X47444Y99212D1*
X47202D1*
X34578Y91349D2*
Y91895D1*
X34516Y92078D1*
X34456Y92139D1*
X34335Y92200D1*
X34213D1*
X34092Y92139D1*
X34031Y92078D1*
X33970Y91895D1*
Y91349D1*
X35246D1*
X34578Y91774D2*
X35246Y92200D1*
X33972Y93320D2*
Y92714D1*
X34518Y92654D1*
X34457Y92714D1*
X34396Y92897D1*
Y93078D1*
X34457Y93260D1*
X34578Y93382D1*
X34761Y93443D1*
X34881D1*
X35064Y93382D1*
X35186Y93260D1*
X35246Y93078D1*
Y92897D1*
X35186Y92714D1*
X35124Y92654D1*
X35003Y92592D1*
X34396Y94625D2*
X34578Y94563D1*
X34700Y94443D1*
X34761Y94260D1*
Y94200D1*
X34700Y94017D1*
X34578Y93897D1*
X34396Y93835D1*
X34335D1*
X34153Y93897D1*
X34032Y94017D1*
X33972Y94200D1*
Y94260D1*
X34032Y94443D1*
X34153Y94563D1*
X34396Y94625D1*
X34700D1*
X35003Y94563D1*
X35186Y94443D1*
X35246Y94260D1*
Y94139D1*
X35186Y93957D1*
X35064Y93897D1*
X30043Y95589D2*
X30589D1*
X30771Y95651D1*
X30833Y95711D1*
X30893Y95832D1*
Y95954D1*
X30833Y96075D1*
X30771Y96137D1*
X30589Y96197D1*
X30043D1*
Y94921D1*
X30468Y95589D2*
X30893Y94921D1*
X32014Y96014D2*
X31954Y96135D1*
X31771Y96196D1*
X31651D1*
X31468Y96135D1*
X31346Y95953D1*
X31286Y95649D1*
Y95346D1*
X31346Y95103D1*
X31468Y94981D1*
X31651Y94921D1*
X31711D1*
X31892Y94981D1*
X32014Y95103D1*
X32075Y95286D1*
Y95346D1*
X32014Y95529D1*
X31892Y95649D1*
X31711Y95710D1*
X31651D1*
X31468Y95649D1*
X31346Y95529D1*
X31286Y95346D1*
X32832Y96196D2*
X32649Y96135D1*
X32527Y95953D1*
X32467Y95649D1*
Y95467D1*
X32527Y95164D1*
X32649Y94981D1*
X32832Y94921D1*
X32953D1*
X33135Y94981D1*
X33256Y95164D1*
X33318Y95467D1*
Y95649D1*
X33256Y95953D1*
X33135Y96135D1*
X32953Y96196D1*
X32832D1*
X33256Y95953D2*
X32527Y95164D1*
X32545Y92056D2*
Y92602D1*
X32483Y92785D1*
X32423Y92846D1*
X32302Y92907D1*
X32180D1*
X32059Y92846D1*
X31997Y92785D1*
X31937Y92602D1*
Y92056D1*
X33213D1*
X32545Y92481D2*
X33213Y92907D1*
X32119Y94028D2*
X31999Y93967D1*
X31938Y93785D1*
Y93664D1*
X31999Y93481D1*
X32181Y93359D1*
X32484Y93299D1*
X32788D1*
X33031Y93359D1*
X33153Y93481D1*
X33213Y93664D1*
Y93724D1*
X33153Y93905D1*
X33031Y94028D1*
X32848Y94088D1*
X32788D1*
X32605Y94028D1*
X32484Y93905D1*
X32424Y93724D1*
Y93664D1*
X32484Y93481D1*
X32605Y93359D1*
X32788Y93299D1*
X32181Y94480D2*
X32119Y94602D1*
X31938Y94785D1*
X33213D1*
X37776Y99856D2*
X38322D1*
X38505Y99918D1*
X38566Y99978D1*
X38627Y100099D1*
Y100221D1*
X38566Y100341D1*
X38505Y100403D1*
X38322Y100464D1*
X37776D1*
Y99188D1*
X38201Y99856D2*
X38627Y99188D1*
X39748Y100281D2*
X39687Y100402D1*
X39505Y100462D1*
X39384D1*
X39201Y100402D1*
X39079Y100219D1*
X39019Y99916D1*
Y99613D1*
X39079Y99370D1*
X39201Y99248D1*
X39384Y99188D1*
X39444D1*
X39625Y99248D1*
X39748Y99370D1*
X39808Y99553D1*
Y99613D1*
X39748Y99795D1*
X39625Y99916D1*
X39444Y99976D1*
X39384D1*
X39201Y99916D1*
X39079Y99795D1*
X39019Y99613D1*
X40262Y100159D2*
Y100219D1*
X40322Y100341D1*
X40383Y100402D1*
X40505Y100462D1*
X40748D1*
X40868Y100402D1*
X40929Y100341D1*
X40990Y100219D1*
Y100099D1*
X40929Y99976D1*
X40808Y99795D1*
X40200Y99188D1*
X41051D1*
X38611Y89850D2*
Y90396D1*
X38550Y90578D1*
X38489Y90640D1*
X38369Y90700D1*
X38246D1*
X38126Y90640D1*
X38064Y90578D1*
X38004Y90396D1*
Y89850D1*
X39280D1*
X38611Y90275D2*
X39280Y90700D1*
X38186Y91821D2*
X38065Y91761D1*
X38005Y91578D1*
Y91458D1*
X38065Y91275D1*
X38248Y91153D1*
X38551Y91093D1*
X38854D1*
X39097Y91153D1*
X39219Y91275D1*
X39280Y91458D1*
Y91518D1*
X39219Y91699D1*
X39097Y91821D1*
X38915Y91882D1*
X38854D1*
X38672Y91821D1*
X38551Y91699D1*
X38491Y91518D1*
Y91458D1*
X38551Y91275D1*
X38672Y91153D1*
X38854Y91093D1*
X38005Y92396D2*
Y93063D1*
X38491Y92699D1*
Y92882D1*
X38551Y93002D1*
X38611Y93063D1*
X38794Y93124D1*
X38915D1*
X39097Y93063D1*
X39219Y92942D1*
X39280Y92759D1*
Y92577D1*
X39219Y92396D1*
X39158Y92335D1*
X39037Y92274D1*
X35746Y97856D2*
X36292D1*
X36475Y97918D1*
X36536Y97978D1*
X36597Y98099D1*
Y98221D1*
X36536Y98341D1*
X36475Y98403D1*
X36292Y98464D1*
X35746D1*
Y97188D1*
X36171Y97856D2*
X36597Y97188D1*
X37717Y98281D2*
X37657Y98402D1*
X37475Y98462D1*
X37354D1*
X37171Y98402D1*
X37049Y98219D1*
X36989Y97916D1*
Y97613D1*
X37049Y97370D1*
X37171Y97248D1*
X37354Y97188D1*
X37414D1*
X37595Y97248D1*
X37717Y97370D1*
X37778Y97553D1*
Y97613D1*
X37717Y97795D1*
X37595Y97916D1*
X37414Y97976D1*
X37354D1*
X37171Y97916D1*
X37049Y97795D1*
X36989Y97613D1*
X38778Y97188D2*
Y98462D1*
X38170Y97613D1*
X39081D1*
X36578Y91350D2*
Y91896D1*
X36516Y92078D1*
X36456Y92140D1*
X36335Y92200D1*
X36213D1*
X36092Y92140D1*
X36031Y92078D1*
X35970Y91896D1*
Y91350D1*
X37246D1*
X36578Y91775D2*
X37246Y92200D1*
X36153Y93321D2*
X36032Y93261D1*
X35972Y93078D1*
Y92958D1*
X36032Y92775D1*
X36215Y92653D1*
X36518Y92593D1*
X36821D1*
X37064Y92653D1*
X37186Y92775D1*
X37246Y92958D1*
Y93018D1*
X37186Y93199D1*
X37064Y93321D1*
X36881Y93382D1*
X36821D1*
X36638Y93321D1*
X36518Y93199D1*
X36457Y93018D1*
Y92958D1*
X36518Y92775D1*
X36638Y92653D1*
X36821Y92593D1*
X35972Y94502D2*
Y93896D1*
X36518Y93835D1*
X36457Y93896D1*
X36396Y94078D1*
Y94259D1*
X36457Y94442D1*
X36578Y94564D1*
X36761Y94624D1*
X36881D1*
X37064Y94564D1*
X37186Y94442D1*
X37246Y94259D1*
Y94078D1*
X37186Y93896D1*
X37124Y93835D1*
X37003Y93774D1*
X38207Y78289D2*
X38753D1*
X38936Y78351D1*
X38997Y78411D1*
X39058Y78532D1*
Y78654D1*
X38997Y78775D1*
X38936Y78837D1*
X38753Y78897D1*
X38207D1*
Y77621D1*
X38632Y78289D2*
X39058Y77621D1*
X40178Y78714D2*
X40118Y78835D1*
X39936Y78896D1*
X39815D1*
X39632Y78835D1*
X39510Y78653D1*
X39450Y78349D1*
Y78046D1*
X39510Y77803D1*
X39632Y77681D1*
X39815Y77621D1*
X39875D1*
X40056Y77681D1*
X40178Y77803D1*
X40239Y77986D1*
Y78046D1*
X40178Y78229D1*
X40056Y78349D1*
X39875Y78410D1*
X39815D1*
X39632Y78349D1*
X39510Y78229D1*
X39450Y78046D1*
X41360Y78714D2*
X41299Y78835D1*
X41117Y78896D1*
X40996D1*
X40813Y78835D1*
X40691Y78653D1*
X40631Y78349D1*
Y78046D1*
X40691Y77803D1*
X40813Y77681D1*
X40996Y77621D1*
X41056D1*
X41237Y77681D1*
X41360Y77803D1*
X41420Y77986D1*
Y78046D1*
X41360Y78229D1*
X41237Y78349D1*
X41056Y78410D1*
X40996D1*
X40813Y78349D1*
X40691Y78229D1*
X40631Y78046D1*
X40611Y93183D2*
Y93729D1*
X40550Y93912D1*
X40489Y93973D1*
X40369Y94034D1*
X40246D1*
X40126Y93973D1*
X40064Y93912D1*
X40004Y93729D1*
Y93183D1*
X41280D1*
X40611Y93608D2*
X41280Y94034D1*
X40186Y95155D2*
X40065Y95094D1*
X40005Y94912D1*
Y94791D1*
X40065Y94608D1*
X40248Y94486D1*
X40551Y94426D1*
X40854D1*
X41097Y94486D1*
X41219Y94608D1*
X41280Y94791D1*
Y94851D1*
X41219Y95032D1*
X41097Y95155D1*
X40915Y95215D1*
X40854D1*
X40672Y95155D1*
X40551Y95032D1*
X40491Y94851D1*
Y94791D1*
X40551Y94608D1*
X40672Y94486D1*
X40854Y94426D1*
X41280Y95850D2*
X40005Y96458D1*
Y95607D1*
X72706Y87956D2*
X73252D1*
X73435Y88018D1*
X73497Y88078D1*
X73557Y88199D1*
Y88321D1*
X73497Y88441D1*
X73435Y88503D1*
X73252Y88564D1*
X72706D1*
Y87288D1*
X73132Y87956D2*
X73557Y87288D1*
X74678Y88381D2*
X74617Y88502D1*
X74435Y88562D1*
X74314D1*
X74132Y88502D1*
X74010Y88319D1*
X73949Y88016D1*
Y87713D1*
X74010Y87470D1*
X74132Y87348D1*
X74314Y87288D1*
X74375D1*
X74556Y87348D1*
X74678Y87470D1*
X74738Y87653D1*
Y87713D1*
X74678Y87895D1*
X74556Y88016D1*
X74375Y88076D1*
X74314D1*
X74132Y88016D1*
X74010Y87895D1*
X73949Y87713D1*
X75921Y88138D2*
X75859Y87956D1*
X75738Y87834D1*
X75556Y87773D1*
X75495D1*
X75313Y87834D1*
X75192Y87956D1*
X75130Y88138D1*
Y88199D1*
X75192Y88381D1*
X75313Y88502D1*
X75495Y88562D1*
X75556D1*
X75738Y88502D1*
X75859Y88381D1*
X75921Y88138D1*
Y87834D1*
X75859Y87530D1*
X75738Y87348D1*
X75556Y87288D1*
X75435D1*
X75252Y87348D1*
X75192Y87470D1*
X25511Y63519D2*
Y64065D1*
X25450Y64247D1*
X25389Y64309D1*
X25269Y64370D1*
X25146D1*
X25026Y64309D1*
X24964Y64247D1*
X24904Y64065D1*
Y63519D1*
X26180D1*
X25511Y63944D2*
X26180Y64370D1*
Y65005D2*
X24905Y65612D1*
Y64762D1*
Y66370D2*
X24965Y66187D1*
X25148Y66065D1*
X25451Y66005D1*
X25634D1*
X25937Y66065D1*
X26119Y66187D1*
X26180Y66370D1*
Y66490D1*
X26119Y66673D1*
X25937Y66794D1*
X25634Y66855D1*
X25451D1*
X25148Y66794D1*
X24965Y66673D1*
X24905Y66490D1*
Y66370D1*
X25148Y66794D2*
X25937Y66065D1*
X45457Y94375D2*
X45336Y94498D1*
X45154Y94558D1*
X44911D1*
X44729Y94498D1*
X44606Y94375D1*
Y94255D1*
X44668Y94133D1*
X44729Y94072D1*
X44849Y94012D1*
X45214Y93890D1*
X45336Y93829D1*
X45397Y93768D1*
X45457Y93647D1*
Y93464D1*
X45336Y93344D1*
X45154Y93282D1*
X44911D1*
X44729Y93344D1*
X44606Y93464D1*
X45849Y94314D2*
X45971Y94375D1*
X46154Y94557D1*
Y93282D1*
X31840Y92730D2*
Y91819D1*
X31900Y91637D1*
X32022Y91516D1*
X32205Y91454D1*
X32325D1*
X32508Y91516D1*
X32630Y91637D1*
X32690Y91819D1*
Y92730D1*
X33083Y92486D2*
X33205Y92548D1*
X33387Y92729D1*
Y91454D1*
X32067Y26847D2*
Y25936D1*
X32127Y25753D1*
X32249Y25633D1*
X32432Y25571D1*
X32552D1*
X32735Y25633D1*
X32857Y25753D1*
X32917Y25936D1*
Y26847D1*
X33371Y26542D2*
Y26603D1*
X33432Y26725D1*
X33492Y26785D1*
X33614Y26846D1*
X33857D1*
X33978Y26785D1*
X34038Y26725D1*
X34100Y26603D1*
Y26482D1*
X34038Y26360D1*
X33917Y26179D1*
X33310Y25571D1*
X34160D1*
X53800Y29180D2*
Y28269D1*
X53860Y28087D1*
X53982Y27966D1*
X54165Y27904D1*
X54286D1*
X54468Y27966D1*
X54590Y28087D1*
X54651Y28269D1*
Y29180D1*
X55165Y29179D2*
X55832D1*
X55468Y28693D1*
X55651D1*
X55771Y28633D1*
X55832Y28572D1*
X55894Y28390D1*
Y28269D1*
X55832Y28087D1*
X55711Y27965D1*
X55529Y27904D1*
X55346D1*
X55165Y27965D1*
X55105Y28026D1*
X55043Y28147D1*
X49707Y42330D2*
Y41419D1*
X49768Y41237D1*
X49890Y41116D1*
X50072Y41054D1*
X50193D1*
X50376Y41116D1*
X50498Y41237D1*
X50558Y41419D1*
Y42330D1*
X51741Y41905D2*
X51679Y41722D1*
X51558Y41600D1*
X51376Y41540D1*
X51315D1*
X51133Y41600D1*
X51012Y41722D1*
X50950Y41905D1*
Y41965D1*
X51012Y42148D1*
X51133Y42268D1*
X51315Y42329D1*
X51376D1*
X51558Y42268D1*
X51679Y42148D1*
X51741Y41905D1*
Y41600D1*
X51679Y41297D1*
X51558Y41115D1*
X51376Y41054D1*
X51255D1*
X51072Y41115D1*
X51012Y41237D1*
X21218Y95994D2*
X22068Y94718D1*
Y95994D2*
X21218Y94718D1*
X22461Y95750D2*
X22583Y95812D1*
X22765Y95993D1*
Y94718D1*
X26233Y99713D2*
D112*
X25600D1*
Y98693D1*
Y99227D2*
X25989D1*
X26546Y99713D2*
X26595Y99665D1*
X26644Y99713D1*
X26595Y99763D1*
X26546Y99713D1*
X26595Y99373D2*
Y98693D1*
X26958Y99713D2*
Y98693D1*
X27417Y99713D2*
Y98887D1*
X27466Y98742D1*
X27563Y98693D1*
X27660D1*
X27271Y99373D2*
X27612D1*
X27974Y99081D2*
X28557D1*
Y99179D1*
X28508Y99277D1*
X28460Y99325D1*
X28362Y99373D1*
X28216D1*
X28120Y99325D1*
X28022Y99227D1*
X27974Y99081D1*
Y98985D1*
X28022Y98839D1*
X28120Y98742D1*
X28216Y98693D1*
X28362D1*
X28460Y98742D1*
X28557Y98839D1*
X28870Y99373D2*
Y98693D1*
Y99081D2*
X28920Y99227D1*
X29016Y99325D1*
X29114Y99373D1*
X29260D1*
X27148Y98317D2*
D11*
Y97807D1*
X27367D1*
X27440Y97831D1*
X27464Y97855D1*
X27488Y97904D1*
Y97977D1*
X27464Y98026D1*
X27440Y98050D1*
X27367Y98074D1*
X27440Y98099D1*
X27464Y98123D1*
X27488Y98171D1*
Y98220D1*
X27464Y98268D1*
X27440Y98293D1*
X27367Y98317D1*
X27148D1*
Y98074D2*
X27367D1*
X27645Y98317D2*
Y97807D1*
X27923Y98147D2*
X27875Y98123D1*
X27826Y98074D1*
X27802Y98001D1*
Y97953D1*
X27826Y97880D1*
X27875Y97831D1*
X27923Y97807D1*
X27996D1*
X28045Y97831D1*
X28093Y97880D1*
X28118Y97953D1*
Y98001D1*
X28093Y98074D1*
X28045Y98123D1*
X27996Y98147D1*
X27923D1*
X28567Y98074D2*
X28518Y98123D1*
X28469Y98147D1*
X28397D1*
X28348Y98123D1*
X28300Y98074D1*
X28275Y98001D1*
Y97953D1*
X28300Y97880D1*
X28348Y97831D1*
X28397Y97807D1*
X28469D1*
X28518Y97831D1*
X28567Y97880D1*
X28724Y98317D2*
Y97807D1*
X28967Y98147D2*
X28724Y97904D1*
X28821Y98001D2*
X28991Y97807D1*
X29148Y98001D2*
X29439D1*
Y98050D1*
X29415Y98099D1*
X29391Y98123D1*
X29342Y98147D1*
X29269D1*
X29221Y98123D1*
X29172Y98074D1*
X29148Y98001D1*
Y97953D1*
X29172Y97880D1*
X29221Y97831D1*
X29269Y97807D1*
X29342D1*
X29391Y97831D1*
X29439Y97880D1*
X29888Y98317D2*
Y97807D1*
Y98074D2*
X29839Y98123D1*
X29791Y98147D1*
X29718D1*
X29669Y98123D1*
X29620Y98074D1*
X29596Y98001D1*
Y97953D1*
X29620Y97880D1*
X29669Y97831D1*
X29718Y97807D1*
X29791D1*
X29839Y97831D1*
X29888Y97880D1*
X20027Y71235D2*
X19979Y71284D1*
X19906Y71308D1*
X19809D1*
X19736Y71284D1*
X19687Y71235D1*
Y71186D1*
X19711Y71138D1*
X19736Y71113D1*
X19784Y71089D1*
X19930Y71040D1*
X19979Y71016D1*
X20003Y70992D1*
X20027Y70943D1*
Y70870D1*
X19979Y70822D1*
X19906Y70797D1*
X19809D1*
X19736Y70822D1*
X19687Y70870D1*
X20209Y71138D2*
X20354Y70797D1*
X20306Y70700D1*
X20257Y70651D1*
X20209Y70627D1*
X20184D1*
X20500Y71138D2*
X20354Y70797D1*
X20924Y71065D2*
X20900Y71113D1*
X20827Y71138D1*
X20754D1*
X20681Y71113D1*
X20657Y71065D1*
X20681Y71016D1*
X20730Y70992D1*
X20851Y70967D1*
X20900Y70943D1*
X20924Y70894D1*
Y70870D1*
X20900Y70822D1*
X20827Y70797D1*
X20754D1*
X20681Y70822D1*
X20657Y70870D1*
X21154Y71308D2*
Y70894D1*
X21178Y70822D1*
X21227Y70797D1*
X21275D1*
X21081Y71138D2*
X21251D1*
X21432Y70992D2*
X21724D1*
Y71040D1*
X21699Y71089D1*
X21675Y71113D1*
X21626Y71138D1*
X21553D1*
X21505Y71113D1*
X21456Y71065D1*
X21432Y70992D1*
Y70943D1*
X21456Y70870D1*
X21505Y70822D1*
X21553Y70797D1*
X21626D1*
X21675Y70822D1*
X21724Y70870D1*
X21880Y71138D2*
Y70797D1*
Y71040D2*
X21953Y71113D1*
X22002Y71138D1*
X22075D1*
X22124Y71113D1*
X22148Y71040D1*
Y70797D1*
Y71040D2*
X22221Y71113D1*
X22270Y71138D1*
X22342D1*
X22391Y71113D1*
X22416Y71040D1*
Y70797D1*
X23212Y71308D2*
X23163Y71284D1*
X23115Y71235D1*
X23090Y71186D1*
X23066Y71113D1*
Y70992D1*
X23090Y70919D1*
X23115Y70870D1*
X23163Y70822D1*
X23212Y70797D1*
X23309D1*
X23358Y70822D1*
X23407Y70870D1*
X23431Y70919D1*
X23455Y70992D1*
Y71113D1*
X23431Y71186D1*
X23407Y71235D1*
X23358Y71284D1*
X23309Y71308D1*
X23212D1*
X23612D2*
Y70797D1*
X23855Y71138D2*
X23612Y70894D1*
X23709Y70992D2*
X23879Y70797D1*
X28731Y71236D2*
X29242D1*
Y71455D1*
X29217Y71528D1*
X29193Y71552D1*
X29145Y71576D1*
X29072D1*
X29023Y71552D1*
X28999Y71528D1*
X28974Y71455D1*
X28950Y71528D1*
X28926Y71552D1*
X28877Y71576D1*
X28828D1*
X28780Y71552D1*
X28755Y71528D1*
X28731Y71455D1*
Y71236D1*
X28974D2*
Y71455D1*
X28901Y71758D2*
X29242Y71903D1*
X29339Y71855D1*
X29388Y71806D1*
X29412Y71758D1*
Y71733D1*
X28901Y72049D2*
X29242Y71903D1*
X28901Y72206D2*
X29412D1*
X28974D2*
X28926Y72255D1*
X28901Y72303D1*
Y72376D1*
X28926Y72425D1*
X28974Y72473D1*
X29047Y72498D1*
X29096D1*
X29169Y72473D1*
X29218Y72425D1*
X29242Y72376D1*
Y72303D1*
X29218Y72255D1*
X29169Y72206D1*
X28901Y72946D2*
X29242D1*
X28974D2*
X28926Y72898D1*
X28901Y72849D1*
Y72777D1*
X28926Y72728D1*
X28974Y72679D1*
X29047Y72655D1*
X29096D1*
X29169Y72679D1*
X29217Y72728D1*
X29242Y72777D1*
Y72849D1*
X29217Y72898D1*
X29169Y72946D1*
X28974Y73370D2*
X28926Y73346D1*
X28901Y73273D1*
Y73200D1*
X28926Y73127D1*
X28974Y73103D1*
X29023Y73127D1*
X29047Y73176D1*
X29072Y73297D1*
X29096Y73346D1*
X29145Y73370D1*
X29169D1*
X29217Y73346D1*
X29242Y73273D1*
Y73200D1*
X29217Y73127D1*
X29169Y73103D1*
X28974Y73794D2*
X28926Y73770D1*
X28901Y73697D1*
Y73624D1*
X28926Y73551D1*
X28974Y73527D1*
X29023Y73551D1*
X29047Y73600D1*
X29072Y73721D1*
X29096Y73770D1*
X29145Y73794D1*
X29169D1*
X29217Y73770D1*
X29242Y73697D1*
Y73624D1*
X29217Y73551D1*
X29169Y73527D1*
X14973Y56859D2*
X15239D1*
X15094Y56665D1*
X15167D1*
X15215Y56641D1*
X15239Y56617D1*
X15264Y56544D1*
Y56495D1*
X15239Y56422D1*
X15191Y56374D1*
X15118Y56349D1*
X15045D1*
X14973Y56374D1*
X14948Y56398D1*
X14924Y56447D1*
X15445Y56398D2*
X15421Y56374D1*
X15445Y56349D1*
X15470Y56374D1*
X15445Y56398D1*
X15675Y56859D2*
X15942D1*
X15797Y56665D1*
X15870D1*
X15918Y56641D1*
X15942Y56617D1*
X15967Y56544D1*
Y56495D1*
X15942Y56422D1*
X15894Y56374D1*
X15821Y56349D1*
X15748D1*
X15675Y56374D1*
X15651Y56398D1*
X15627Y56447D1*
X16124Y56860D2*
X16318Y56349D1*
X16512Y56860D1*
X15082Y54394D2*
X15301D1*
X15374Y54419D1*
X15399Y54443D1*
X15423Y54491D1*
Y54540D1*
X15399Y54588D1*
X15374Y54613D1*
X15301Y54637D1*
X15082D1*
Y54127D1*
X15253Y54394D2*
X15423Y54127D1*
X15847Y54394D2*
X15823Y54443D1*
X15750Y54467D1*
X15677D1*
X15604Y54443D1*
X15580Y54394D1*
X15604Y54346D1*
X15653Y54321D1*
X15774Y54297D1*
X15823Y54273D1*
X15847Y54224D1*
Y54200D1*
X15823Y54151D1*
X15750Y54127D1*
X15677D1*
X15604Y54151D1*
X15580Y54200D1*
X16077Y54637D2*
Y54224D1*
X16101Y54151D1*
X16150Y54127D1*
X16198D1*
X16004Y54467D2*
X16174D1*
X15288Y52293D2*
X15264Y52341D1*
X15215Y52390D1*
X15167Y52414D1*
X15070D1*
X15021Y52390D1*
X14973Y52341D1*
X14948Y52293D1*
X14924Y52220D1*
Y52098D1*
X14948Y52026D1*
X14973Y51977D1*
X15021Y51929D1*
X15070Y51904D1*
X15167D1*
X15215Y51929D1*
X15264Y51977D1*
X15288Y52026D1*
Y52098D1*
X15167D1*
X15445Y52244D2*
Y51904D1*
Y52147D2*
X15518Y52220D1*
X15567Y52244D1*
X15639D1*
X15688Y52220D1*
X15712Y52147D1*
Y51904D1*
X16161Y52414D2*
Y51904D1*
Y52171D2*
X16112Y52220D1*
X16063Y52244D1*
X15990D1*
X15942Y52220D1*
X15893Y52171D1*
X15869Y52098D1*
Y52050D1*
X15893Y51977D1*
X15942Y51929D1*
X15990Y51904D1*
X16063D1*
X16112Y51929D1*
X16161Y51977D1*
X14289Y50509D2*
Y49999D1*
X14713Y50266D2*
X14689Y50315D1*
X14616Y50339D1*
X14543D1*
X14470Y50315D1*
X14445Y50266D1*
X14470Y50218D1*
X14518Y50193D1*
X14640Y50169D1*
X14689Y50145D1*
X14713Y50096D1*
Y50072D1*
X14689Y50024D1*
X14616Y49999D1*
X14543D1*
X14470Y50024D1*
X14445Y50072D1*
X14991Y50339D2*
X14943Y50315D1*
X14894Y50266D1*
X14870Y50193D1*
Y50145D1*
X14894Y50072D1*
X14943Y50024D1*
X14991Y49999D1*
X15064D1*
X15113Y50024D1*
X15161Y50072D1*
X15186Y50145D1*
Y50193D1*
X15161Y50266D1*
X15113Y50315D1*
X15064Y50339D1*
X14991D1*
X15343Y50509D2*
Y49999D1*
X16358Y50388D2*
X16334Y50436D1*
X16285Y50485D1*
X16236Y50509D1*
X16139D1*
X16090Y50485D1*
X16042Y50436D1*
X16017Y50388D1*
X15993Y50315D1*
Y50193D1*
X16017Y50121D1*
X16042Y50072D1*
X16090Y50024D1*
X16139Y49999D1*
X16236D1*
X16285Y50024D1*
X16334Y50072D1*
X16358Y50121D1*
Y50193D1*
X16236D1*
X16515Y50339D2*
Y49999D1*
Y50242D2*
X16588Y50315D1*
X16636Y50339D1*
X16709D1*
X16758Y50315D1*
X16782Y50242D1*
Y49999D1*
X17230Y50509D2*
Y49999D1*
Y50266D2*
X17182Y50315D1*
X17133Y50339D1*
X17060D1*
X17012Y50315D1*
X16963Y50266D1*
X16939Y50193D1*
Y50145D1*
X16963Y50072D1*
X17012Y50024D1*
X17060Y49999D1*
X17133D1*
X17182Y50024D1*
X17230Y50072D1*
X15789Y42696D2*
X15594Y43206D1*
X15400Y42696D1*
X15473Y42866D2*
X15716D1*
X16310Y43085D2*
X16286Y43133D1*
X16237Y43182D1*
X16189Y43206D1*
X16092D1*
X16043Y43182D1*
X15995Y43133D1*
X15970Y43085D1*
X15946Y43012D1*
Y42890D1*
X15970Y42817D1*
X15995Y42769D1*
X16043Y42720D1*
X16092Y42696D1*
X16189D1*
X16237Y42720D1*
X16286Y42769D1*
X16310Y42817D1*
X17326Y43085D2*
X17301Y43133D1*
X17253Y43182D1*
X17204Y43206D1*
X17107D1*
X17058Y43182D1*
X17010Y43133D1*
X16985Y43085D1*
X16961Y43012D1*
Y42890D1*
X16985Y42817D1*
X17010Y42769D1*
X17058Y42720D1*
X17107Y42696D1*
X17204D1*
X17253Y42720D1*
X17301Y42769D1*
X17326Y42817D1*
Y42890D1*
X17204D1*
X17482Y43036D2*
Y42696D1*
Y42939D2*
X17555Y43012D1*
X17604Y43036D1*
X17677D1*
X17726Y43012D1*
X17750Y42939D1*
Y42696D1*
X18198Y43206D2*
Y42696D1*
Y42963D2*
X18150Y43012D1*
X18101Y43036D1*
X18028D1*
X17980Y43012D1*
X17931Y42963D1*
X17907Y42890D1*
Y42842D1*
X17931Y42769D1*
X17980Y42720D1*
X18028Y42696D1*
X18101D1*
X18150Y42720D1*
X18198Y42769D1*
X15425Y40544D2*
Y40568D1*
X15449Y40617D1*
X15473Y40641D1*
X15522Y40665D1*
X15619D1*
X15667Y40641D1*
X15691Y40617D1*
X15716Y40568D1*
Y40520D1*
X15691Y40471D1*
X15643Y40398D1*
X15400Y40155D1*
X15740D1*
X16140D2*
Y40665D1*
X15897Y40325D1*
X16262D1*
X16418Y40496D2*
X16564Y40155D1*
X16710Y40496D1*
X17750Y40155D2*
X17555Y40666D1*
X17361Y40155D1*
X17434Y40325D2*
X17677D1*
X18271Y40544D2*
X18247Y40593D1*
X18198Y40642D1*
X18150Y40666D1*
X18053D1*
X18004Y40642D1*
X17955Y40593D1*
X17931Y40544D1*
X17907Y40471D1*
Y40350D1*
X17931Y40277D1*
X17955Y40228D1*
X18004Y40180D1*
X18053Y40155D1*
X18150D1*
X18198Y40180D1*
X18247Y40228D1*
X18271Y40277D1*
X15425Y38162D2*
Y38187D1*
X15449Y38235D1*
X15473Y38260D1*
X15522Y38284D1*
X15619D1*
X15667Y38260D1*
X15691Y38235D1*
X15716Y38187D1*
Y38138D1*
X15691Y38089D1*
X15643Y38017D1*
X15400Y37774D1*
X15740D1*
X16140D2*
Y38284D1*
X15897Y37944D1*
X16262D1*
X16418Y38114D2*
X16564Y37774D1*
X16710Y38114D1*
X17750Y37774D2*
X17555Y38284D1*
X17361Y37774D1*
X17434Y37944D2*
X17677D1*
X18271Y38163D2*
X18247Y38211D1*
X18198Y38260D1*
X18150Y38284D1*
X18053D1*
X18004Y38260D1*
X17955Y38211D1*
X17931Y38163D1*
X17907Y38090D1*
Y37968D1*
X17931Y37896D1*
X17955Y37847D1*
X18004Y37799D1*
X18053Y37774D1*
X18150D1*
X18198Y37799D1*
X18247Y37847D1*
X18271Y37896D1*
X15789Y35392D2*
X15594Y35903D1*
X15400Y35392D1*
X15473Y35562D2*
X15716D1*
X16310Y35781D2*
X16286Y35830D1*
X16237Y35879D1*
X16189Y35903D1*
X16092D1*
X16043Y35879D1*
X15995Y35830D1*
X15970Y35781D1*
X15946Y35708D1*
Y35587D1*
X15970Y35514D1*
X15995Y35465D1*
X16043Y35417D1*
X16092Y35392D1*
X16189D1*
X16237Y35417D1*
X16286Y35465D1*
X16310Y35514D1*
X17326Y35781D2*
X17301Y35830D1*
X17253Y35879D1*
X17204Y35903D1*
X17107D1*
X17058Y35879D1*
X17010Y35830D1*
X16985Y35781D1*
X16961Y35708D1*
Y35587D1*
X16985Y35514D1*
X17010Y35465D1*
X17058Y35417D1*
X17107Y35392D1*
X17204D1*
X17253Y35417D1*
X17301Y35465D1*
X17326Y35514D1*
Y35587D1*
X17204D1*
X17482Y35733D2*
Y35392D1*
Y35635D2*
X17555Y35708D1*
X17604Y35733D1*
X17677D1*
X17726Y35708D1*
X17750Y35635D1*
Y35392D1*
X18198Y35903D2*
Y35392D1*
Y35660D2*
X18150Y35708D1*
X18101Y35733D1*
X18028D1*
X17980Y35708D1*
X17931Y35660D1*
X17907Y35587D1*
Y35538D1*
X17931Y35465D1*
X17980Y35417D1*
X18028Y35392D1*
X18101D1*
X18150Y35417D1*
X18198Y35465D1*
X87027Y79722D2*
Y79212D1*
X86686Y79722D1*
Y79212D1*
X87548Y79601D2*
X87524Y79649D1*
X87475Y79698D1*
X87427Y79722D1*
X87329D1*
X87281Y79698D1*
X87232Y79649D1*
X87208Y79601D1*
X87183Y79528D1*
Y79406D1*
X87208Y79334D1*
X87232Y79285D1*
X87281Y79237D1*
X87329Y79212D1*
X87427D1*
X87475Y79237D1*
X87524Y79285D1*
X87548Y79334D1*
X88563Y79601D2*
X88539Y79649D1*
X88490Y79698D1*
X88442Y79722D1*
X88344D1*
X88296Y79698D1*
X88247Y79649D1*
X88223Y79601D1*
X88198Y79528D1*
Y79406D1*
X88223Y79334D1*
X88247Y79285D1*
X88296Y79237D1*
X88344Y79212D1*
X88442D1*
X88490Y79237D1*
X88539Y79285D1*
X88563Y79334D1*
X88841Y79552D2*
X88793Y79528D1*
X88744Y79479D1*
X88720Y79406D1*
Y79358D1*
X88744Y79285D1*
X88793Y79237D1*
X88841Y79212D1*
X88914D1*
X88963Y79237D1*
X89011Y79285D1*
X89036Y79358D1*
Y79406D1*
X89011Y79479D1*
X88963Y79528D1*
X88914Y79552D1*
X88841D1*
X89193D2*
Y79212D1*
Y79455D2*
X89266Y79528D1*
X89315Y79552D1*
X89387D1*
X89436Y79528D1*
X89460Y79455D1*
Y79212D1*
X89690Y79722D2*
Y79309D1*
X89714Y79237D1*
X89763Y79212D1*
X89811D1*
X89617Y79552D2*
X89787D1*
X90260D2*
Y79212D1*
Y79479D2*
X90211Y79528D1*
X90162Y79552D1*
X90090D1*
X90041Y79528D1*
X89993Y79479D1*
X89968Y79406D1*
Y79358D1*
X89993Y79285D1*
X90041Y79237D1*
X90090Y79212D1*
X90162D1*
X90211Y79237D1*
X90260Y79285D1*
X90708Y79479D2*
X90660Y79528D1*
X90611Y79552D1*
X90538D1*
X90489Y79528D1*
X90441Y79479D1*
X90416Y79406D1*
Y79358D1*
X90441Y79285D1*
X90489Y79237D1*
X90538Y79212D1*
X90611D1*
X90660Y79237D1*
X90708Y79285D1*
X90938Y79722D2*
Y79309D1*
X90962Y79237D1*
X91011Y79212D1*
X91060D1*
X90865Y79552D2*
X91035D1*
X87027Y78452D2*
Y77942D1*
X86686Y78452D1*
Y77942D1*
X87329Y78452D2*
X87281Y78428D1*
X87232Y78379D1*
X87208Y78331D1*
X87183Y78258D1*
Y78136D1*
X87208Y78064D1*
X87232Y78015D1*
X87281Y77966D1*
X87329Y77942D1*
X87427D1*
X87475Y77966D1*
X87524Y78015D1*
X87548Y78064D1*
X87572Y78136D1*
Y78258D1*
X87548Y78331D1*
X87524Y78379D1*
X87475Y78428D1*
X87427Y78452D1*
X87329D1*
X88587Y78331D2*
X88563Y78379D1*
X88514Y78428D1*
X88466Y78452D1*
X88369D1*
X88320Y78428D1*
X88271Y78379D1*
X88247Y78331D1*
X88223Y78258D1*
Y78136D1*
X88247Y78064D1*
X88271Y78015D1*
X88320Y77966D1*
X88369Y77942D1*
X88466D1*
X88514Y77966D1*
X88563Y78015D1*
X88587Y78064D1*
X88865Y78282D2*
X88817Y78258D1*
X88768Y78209D1*
X88744Y78136D1*
Y78088D1*
X88768Y78015D1*
X88817Y77966D1*
X88865Y77942D1*
X88938D1*
X88987Y77966D1*
X89035Y78015D1*
X89060Y78088D1*
Y78136D1*
X89035Y78209D1*
X88987Y78258D1*
X88938Y78282D1*
X88865D1*
X89217D2*
Y77942D1*
Y78185D2*
X89290Y78258D1*
X89339Y78282D1*
X89411D1*
X89460Y78258D1*
X89484Y78185D1*
Y77942D1*
X89714Y78452D2*
Y78039D1*
X89738Y77966D1*
X89787Y77942D1*
X89835D1*
X89641Y78282D2*
X89811D1*
X90284D2*
Y77942D1*
Y78209D2*
X90235Y78258D1*
X90187Y78282D1*
X90114D1*
X90065Y78258D1*
X90017Y78209D1*
X89992Y78136D1*
Y78088D1*
X90017Y78015D1*
X90065Y77966D1*
X90114Y77942D1*
X90187D1*
X90235Y77966D1*
X90284Y78015D1*
X90733Y78209D2*
X90684Y78258D1*
X90635Y78282D1*
X90562D1*
X90514Y78258D1*
X90465Y78209D1*
X90441Y78136D1*
Y78088D1*
X90465Y78015D1*
X90514Y77966D1*
X90562Y77942D1*
X90635D1*
X90684Y77966D1*
X90733Y78015D1*
X90962Y78452D2*
Y78039D1*
X90987Y77966D1*
X91035Y77942D1*
X91084D1*
X90889Y78282D2*
X91060D1*
X87027Y77182D2*
Y76672D1*
X86686Y77182D1*
Y76672D1*
X87329Y77182D2*
X87281Y77158D1*
X87232Y77109D1*
X87208Y77061D1*
X87183Y76988D1*
Y76866D1*
X87208Y76793D1*
X87232Y76745D1*
X87281Y76696D1*
X87329Y76672D1*
X87427D1*
X87475Y76696D1*
X87524Y76745D1*
X87548Y76793D1*
X87572Y76866D1*
Y76988D1*
X87548Y77061D1*
X87524Y77109D1*
X87475Y77158D1*
X87427Y77182D1*
X87329D1*
X88515Y76939D2*
X88466Y76988D1*
X88417Y77012D1*
X88344D1*
X88296Y76988D1*
X88247Y76939D1*
X88223Y76866D1*
Y76818D1*
X88247Y76745D1*
X88296Y76696D1*
X88344Y76672D1*
X88417D1*
X88466Y76696D1*
X88515Y76745D1*
X88793Y77012D2*
X88744Y76988D1*
X88696Y76939D1*
X88671Y76866D1*
Y76818D1*
X88696Y76745D1*
X88744Y76696D1*
X88793Y76672D1*
X88866D1*
X88915Y76696D1*
X88963Y76745D1*
X88988Y76818D1*
Y76866D1*
X88963Y76939D1*
X88915Y76988D1*
X88866Y77012D1*
X88793D1*
X89144D2*
Y76672D1*
Y76915D2*
X89217Y76988D1*
X89266Y77012D1*
X89339D1*
X89388Y76988D1*
X89412Y76915D1*
Y76672D1*
X89642Y77182D2*
Y76769D1*
X89666Y76696D1*
X89715Y76672D1*
X89763D1*
X89569Y77012D2*
X89739D1*
X90211D2*
Y76672D1*
Y76939D2*
X90163Y76988D1*
X90114Y77012D1*
X90042D1*
X89993Y76988D1*
X89944Y76939D1*
X89920Y76866D1*
Y76818D1*
X89944Y76745D1*
X89993Y76696D1*
X90042Y76672D1*
X90114D1*
X90163Y76696D1*
X90211Y76745D1*
X90660Y76939D2*
X90611Y76988D1*
X90562Y77012D1*
X90490D1*
X90441Y76988D1*
X90393Y76939D1*
X90368Y76866D1*
Y76818D1*
X90393Y76745D1*
X90441Y76696D1*
X90490Y76672D1*
X90562D1*
X90611Y76696D1*
X90660Y76745D1*
X90890Y77182D2*
Y76769D1*
X90914Y76696D1*
X90963Y76672D1*
X91011D1*
X90817Y77012D2*
X90987D1*
X87051Y75949D2*
X87027Y75998D1*
X86978Y76047D1*
X86929Y76071D1*
X86832D1*
X86783Y76047D1*
X86735Y75998D1*
X86710Y75949D1*
X86686Y75876D1*
Y75755D1*
X86710Y75682D1*
X86735Y75633D1*
X86783Y75585D1*
X86832Y75560D1*
X86929D1*
X86978Y75585D1*
X87027Y75633D1*
X87051Y75682D1*
X87329Y75901D2*
X87281Y75876D1*
X87232Y75828D1*
X87208Y75755D1*
Y75706D1*
X87232Y75633D1*
X87281Y75585D1*
X87329Y75560D1*
X87402D1*
X87451Y75585D1*
X87499Y75633D1*
X87524Y75706D1*
Y75755D1*
X87499Y75828D1*
X87451Y75876D1*
X87402Y75901D1*
X87329D1*
X87681D2*
Y75560D1*
Y75803D2*
X87754Y75876D1*
X87802Y75901D1*
X87875D1*
X87924Y75876D1*
X87948Y75803D1*
Y75560D1*
Y75803D2*
X88021Y75876D1*
X88070Y75901D1*
X88142D1*
X88191Y75876D1*
X88216Y75803D1*
Y75560D1*
X88373Y75901D2*
Y75560D1*
Y75803D2*
X88446Y75876D1*
X88494Y75901D1*
X88567D1*
X88616Y75876D1*
X88640Y75803D1*
Y75560D1*
Y75803D2*
X88713Y75876D1*
X88762Y75901D1*
X88834D1*
X88883Y75876D1*
X88908Y75803D1*
Y75560D1*
X89186Y75901D2*
X89138Y75876D1*
X89089Y75828D1*
X89065Y75755D1*
Y75706D1*
X89089Y75633D1*
X89138Y75585D1*
X89186Y75560D1*
X89259D1*
X89308Y75585D1*
X89356Y75633D1*
X89381Y75706D1*
Y75755D1*
X89356Y75828D1*
X89308Y75876D1*
X89259Y75901D1*
X89186D1*
X89538D2*
Y75560D1*
Y75803D2*
X89611Y75876D1*
X89659Y75901D1*
X89732D1*
X89781Y75876D1*
X89805Y75803D1*
Y75560D1*
X77954Y22249D2*
Y21738D1*
X78294Y22249D2*
Y21738D1*
X77954Y22006D2*
X78294D1*
X78451Y22249D2*
X78475Y22225D1*
X78500Y22249D1*
X78475Y22274D1*
X78451Y22249D1*
X78475Y22079D2*
Y21738D1*
X78948Y22055D2*
Y21665D1*
X78924Y21593D1*
X78900Y21568D1*
X78851Y21544D1*
X78778D1*
X78730Y21568D1*
X78948Y21982D2*
X78900Y22030D1*
X78851Y22055D1*
X78778D1*
X78730Y22030D1*
X78681Y21982D1*
X78657Y21909D1*
Y21860D1*
X78681Y21787D1*
X78730Y21738D1*
X78778Y21714D1*
X78851D1*
X78900Y21738D1*
X78948Y21787D1*
X79105Y22249D2*
Y21738D1*
Y21982D2*
X79178Y22055D1*
X79227Y22079D1*
X79300D1*
X79348Y22055D1*
X79373Y21982D1*
Y21738D1*
X80023Y22249D2*
Y21738D1*
X80193D1*
X80266Y21763D1*
X80315Y21811D1*
X80339Y21860D1*
X80363Y21933D1*
Y22055D1*
X80339Y22128D1*
X80315Y22176D1*
X80266Y22225D1*
X80193Y22249D1*
X80023D1*
X80520D2*
X80544Y22225D1*
X80569Y22249D1*
X80544Y22274D1*
X80520Y22249D1*
X80544Y22079D2*
Y21738D1*
X80920Y22249D2*
X80872D1*
X80823Y22225D1*
X80799Y22152D1*
Y21738D1*
X80726Y22079D2*
X80896D1*
X81271Y22249D2*
X81223D1*
X81174Y22225D1*
X81150Y22152D1*
Y21738D1*
X81077Y22079D2*
X81247D1*
X81922Y22249D2*
Y21738D1*
X82079Y22079D2*
Y21738D1*
Y21982D2*
X82152Y22055D1*
X82201Y22079D1*
X82273D1*
X82322Y22055D1*
X82346Y21982D1*
Y21738D1*
X82503Y22079D2*
Y21568D1*
Y22006D2*
X82552Y22054D1*
X82600Y22079D1*
X82673D1*
X82722Y22054D1*
X82770Y22006D1*
X82795Y21933D1*
Y21884D1*
X82770Y21811D1*
X82722Y21763D1*
X82673Y21738D1*
X82600D1*
X82552Y21763D1*
X82503Y21811D1*
X82952Y22079D2*
Y21836D1*
X82976Y21763D1*
X83025Y21738D1*
X83098D1*
X83146Y21763D1*
X83219Y21836D1*
Y22079D2*
Y21738D1*
X83449Y22249D2*
Y21836D1*
X83473Y21763D1*
X83522Y21738D1*
X83570D1*
X83376Y22079D2*
X83546D1*
X78270Y21296D2*
X77954D1*
Y20786D1*
Y21053D2*
X78148D1*
X78427Y21296D2*
X78451Y21272D1*
X78476Y21296D1*
X78451Y21321D1*
X78427Y21296D1*
X78451Y21126D2*
Y20786D1*
X78633Y21296D2*
Y20786D1*
X78863Y21296D2*
Y20883D1*
X78887Y20810D1*
X78936Y20786D1*
X78984D1*
X78790Y21126D2*
X78960D1*
X79141Y20980D2*
X79432D1*
Y21029D1*
X79408Y21078D1*
X79384Y21102D1*
X79335Y21126D1*
X79262D1*
X79214Y21102D1*
X79165Y21053D1*
X79141Y20980D1*
Y20932D1*
X79165Y20859D1*
X79214Y20810D1*
X79262Y20786D1*
X79335D1*
X79384Y20810D1*
X79432Y20859D1*
X79589Y21126D2*
Y20786D1*
Y20980D2*
X79614Y21053D1*
X79662Y21102D1*
X79711Y21126D1*
X79784D1*
X80483Y21296D2*
X80750D1*
X80605Y21101D1*
X80678D1*
X80726Y21077D1*
X80750Y21053D1*
X80775Y20980D1*
Y20932D1*
X80750Y20859D1*
X80702Y20810D1*
X80629Y20786D1*
X80556D1*
X80483Y20810D1*
X80459Y20835D1*
X80435Y20883D1*
X81426Y21296D2*
Y20786D1*
X81582Y21126D2*
Y20786D1*
Y21029D2*
X81655Y21102D1*
X81704Y21126D1*
X81777D1*
X81826Y21102D1*
X81850Y21029D1*
Y20786D1*
X82007Y21126D2*
Y20616D1*
Y21053D2*
X82055Y21101D1*
X82104Y21126D1*
X82177D1*
X82226Y21101D1*
X82274Y21053D1*
X82299Y20980D1*
Y20931D1*
X82274Y20859D1*
X82226Y20810D1*
X82177Y20786D1*
X82104D1*
X82055Y20810D1*
X82007Y20859D1*
X82455Y21126D2*
Y20883D1*
X82480Y20810D1*
X82528Y20786D1*
X82601D1*
X82650Y20810D1*
X82723Y20883D1*
Y21126D2*
Y20786D1*
X82953Y21296D2*
Y20883D1*
X82977Y20810D1*
X83026Y20786D1*
X83074D1*
X82880Y21126D2*
X83050D1*
X78270Y20344D2*
X77954D1*
Y19833D1*
Y20100D2*
X78148D1*
X78427Y20344D2*
X78451Y20319D1*
X78476Y20344D1*
X78451Y20368D1*
X78427Y20344D1*
X78451Y20173D2*
Y19833D1*
X78633Y20344D2*
Y19833D1*
X78863Y20344D2*
Y19930D1*
X78887Y19858D1*
X78936Y19833D1*
X78984D1*
X78790Y20173D2*
X78960D1*
X79141Y20027D2*
X79432D1*
Y20076D1*
X79408Y20125D1*
X79384Y20149D1*
X79335Y20173D1*
X79262D1*
X79214Y20149D1*
X79165Y20100D1*
X79141Y20027D1*
Y19979D1*
X79165Y19906D1*
X79214Y19858D1*
X79262Y19833D1*
X79335D1*
X79384Y19858D1*
X79432Y19906D1*
X79589Y20173D2*
Y19833D1*
Y20027D2*
X79614Y20100D1*
X79662Y20149D1*
X79711Y20173D1*
X79784D1*
X80459Y20222D2*
Y20246D1*
X80483Y20295D1*
X80508Y20319D1*
X80556Y20343D1*
X80654D1*
X80702Y20319D1*
X80726Y20295D1*
X80751Y20246D1*
Y20198D1*
X80726Y20149D1*
X80678Y20076D1*
X80435Y19833D1*
X80775D1*
X81426Y20344D2*
Y19833D1*
X81582Y20173D2*
Y19833D1*
Y20076D2*
X81655Y20149D1*
X81704Y20173D1*
X81777D1*
X81826Y20149D1*
X81850Y20076D1*
Y19833D1*
X82007Y20173D2*
Y19663D1*
Y20100D2*
X82055Y20149D1*
X82104Y20173D1*
X82177D1*
X82226Y20149D1*
X82274Y20100D1*
X82299Y20027D1*
Y19979D1*
X82274Y19906D1*
X82226Y19857D1*
X82177Y19833D1*
X82104D1*
X82055Y19857D1*
X82007Y19906D1*
X82455Y20173D2*
Y19930D1*
X82480Y19858D1*
X82528Y19833D1*
X82601D1*
X82650Y19858D1*
X82723Y19930D1*
Y20173D2*
Y19833D1*
X82953Y20344D2*
Y19930D1*
X82977Y19858D1*
X83026Y19833D1*
X83074D1*
X82880Y20173D2*
X83050D1*
X78270Y19391D2*
X77954D1*
Y18881D1*
Y19148D2*
X78148D1*
X78427Y19391D2*
X78451Y19367D1*
X78476Y19391D1*
X78451Y19416D1*
X78427Y19391D1*
X78451Y19221D2*
Y18881D1*
X78633Y19391D2*
Y18881D1*
X78863Y19391D2*
Y18978D1*
X78887Y18905D1*
X78936Y18881D1*
X78984D1*
X78790Y19221D2*
X78960D1*
X79141Y19075D2*
X79432D1*
Y19124D1*
X79408Y19173D1*
X79384Y19197D1*
X79335Y19221D1*
X79262D1*
X79214Y19197D1*
X79165Y19148D1*
X79141Y19075D1*
Y19027D1*
X79165Y18954D1*
X79214Y18905D1*
X79262Y18881D1*
X79335D1*
X79384Y18905D1*
X79432Y18954D1*
X79589Y19221D2*
Y18881D1*
Y19075D2*
X79614Y19148D1*
X79662Y19197D1*
X79711Y19221D1*
X79784D1*
X80435Y19293D2*
X80483Y19318D1*
X80556Y19390D1*
Y18881D1*
X81207Y19391D2*
Y18881D1*
X81364Y19221D2*
Y18881D1*
Y19124D2*
X81437Y19197D1*
X81486Y19221D1*
X81558D1*
X81607Y19197D1*
X81631Y19124D1*
Y18881D1*
X81788Y19221D2*
Y18710D1*
Y19148D2*
X81837Y19196D1*
X81885Y19221D1*
X81958D1*
X82007Y19196D1*
X82055Y19148D1*
X82080Y19075D1*
Y19026D1*
X82055Y18954D1*
X82007Y18905D1*
X81958Y18881D1*
X81885D1*
X81837Y18905D1*
X81788Y18954D1*
X82237Y19221D2*
Y18978D1*
X82261Y18905D1*
X82310Y18881D1*
X82383D1*
X82431Y18905D1*
X82504Y18978D1*
Y19221D2*
Y18881D1*
X82734Y19391D2*
Y18978D1*
X82758Y18905D1*
X82807Y18881D1*
X82855D1*
X82661Y19221D2*
X82831D1*
X83828Y80992D2*
Y80482D1*
X84169Y80992D2*
Y80482D1*
X83828Y80749D2*
X84169D1*
X84326Y80992D2*
Y80482D1*
X84496D1*
X84569Y80507D1*
X84618Y80555D1*
X84642Y80604D1*
X84666Y80676D1*
Y80798D1*
X84642Y80871D1*
X84618Y80919D1*
X84569Y80968D1*
X84496Y80992D1*
X84326D1*
X84823Y80749D2*
X85041D1*
X85114Y80774D1*
X85139Y80798D1*
X85163Y80846D1*
Y80895D1*
X85139Y80944D1*
X85114Y80968D1*
X85041Y80992D1*
X84823D1*
Y80482D1*
X84993Y80749D2*
X85163Y80482D1*
X85563D2*
Y80992D1*
X85320Y80652D1*
X85684D1*
X85841Y80398D2*
X86303D1*
X86751Y80992D2*
X86508D1*
X86484Y80773D1*
X86508Y80798D1*
X86581Y80822D1*
X86654D1*
X86727Y80798D1*
X86776Y80749D1*
X86800Y80676D1*
Y80628D1*
X86776Y80555D1*
X86727Y80506D1*
X86654Y80482D1*
X86581D1*
X86508Y80506D1*
X86484Y80531D1*
X86460Y80579D1*
X87451Y80992D2*
Y80482D1*
X87742D1*
X88190Y80822D2*
Y80482D1*
Y80749D2*
X88142Y80798D1*
X88093Y80822D1*
X88021D1*
X87972Y80798D1*
X87924Y80749D1*
X87899Y80676D1*
Y80628D1*
X87924Y80555D1*
X87972Y80507D1*
X88021Y80482D1*
X88093D1*
X88142Y80507D1*
X88190Y80555D1*
X88372Y80822D2*
X88517Y80482D1*
X88469Y80385D1*
X88420Y80336D1*
X88372Y80312D1*
X88347D1*
X88663Y80822D2*
X88517Y80482D1*
X88941Y80822D2*
X88893Y80798D1*
X88844Y80749D1*
X88820Y80676D1*
Y80628D1*
X88844Y80555D1*
X88893Y80507D1*
X88941Y80482D1*
X89014D1*
X89063Y80507D1*
X89112Y80555D1*
X89136Y80628D1*
Y80676D1*
X89112Y80749D1*
X89063Y80798D1*
X89014Y80822D1*
X88941D1*
X89293D2*
Y80579D1*
X89317Y80507D1*
X89366Y80482D1*
X89439D1*
X89487Y80507D1*
X89560Y80579D1*
Y80822D2*
Y80482D1*
X89790Y80992D2*
Y80579D1*
X89814Y80507D1*
X89863Y80482D1*
X89912D1*
X89717Y80822D2*
X89887D1*
X75731Y23519D2*
Y23008D1*
X76072Y23519D2*
Y23008D1*
X75731Y23276D2*
X76072D1*
X76228Y23519D2*
Y23008D1*
X76399D1*
X76472Y23033D1*
X76520Y23081D1*
X76545Y23130D1*
X76569Y23203D1*
Y23325D1*
X76545Y23398D1*
X76520Y23446D1*
X76472Y23495D1*
X76399Y23519D1*
X76228D1*
X76726Y23276D2*
X76944D1*
X77017Y23300D1*
X77042Y23325D1*
X77066Y23373D1*
Y23422D1*
X77042Y23470D1*
X77017Y23495D1*
X76944Y23519D1*
X76726D1*
Y23008D1*
X76896Y23276D2*
X77066Y23008D1*
X77466D2*
Y23518D1*
X77223Y23179D1*
X77587D1*
X77744Y22924D2*
X78206D1*
X78387Y23397D2*
Y23421D1*
X78411Y23470D1*
X78436Y23494D1*
X78484Y23518D1*
X78582D1*
X78630Y23494D1*
X78654Y23470D1*
X78679Y23421D1*
Y23373D1*
X78654Y23324D1*
X78606Y23252D1*
X78363Y23008D1*
X78703D1*
X79353Y23519D2*
Y23008D1*
X79645D1*
X80093Y23349D2*
Y23008D1*
Y23276D2*
X80045Y23325D1*
X79996Y23349D1*
X79924D1*
X79875Y23325D1*
X79826Y23276D1*
X79802Y23203D1*
Y23154D1*
X79826Y23081D1*
X79875Y23033D1*
X79924Y23008D1*
X79996D1*
X80045Y23033D1*
X80093Y23081D1*
X80275Y23349D2*
X80420Y23008D1*
X80372Y22911D1*
X80323Y22862D1*
X80275Y22838D1*
X80250D1*
X80566Y23349D2*
X80420Y23008D1*
X80844Y23349D2*
X80796Y23325D1*
X80747Y23276D1*
X80723Y23203D1*
Y23154D1*
X80747Y23081D1*
X80796Y23033D1*
X80844Y23008D1*
X80917D1*
X80966Y23033D1*
X81015Y23081D1*
X81039Y23154D1*
Y23203D1*
X81015Y23276D1*
X80966Y23325D1*
X80917Y23349D1*
X80844D1*
X81196D2*
Y23106D1*
X81220Y23033D1*
X81269Y23008D1*
X81342D1*
X81390Y23033D1*
X81463Y23106D1*
Y23349D2*
Y23008D1*
X81693Y23519D2*
Y23106D1*
X81717Y23033D1*
X81766Y23008D1*
X81815D1*
X81620Y23349D2*
X81790D1*
X78609Y90909D2*
D113*
Y90143D1*
X78864D1*
X78973Y90180D1*
X79047Y90252D1*
X79083Y90326D1*
X79119Y90434D1*
Y90617D1*
X79083Y90727D1*
X79047Y90799D1*
X78973Y90872D1*
X78864Y90909D1*
X78609D1*
X79354D2*
X79391Y90872D1*
X79428Y90909D1*
X79391Y90946D1*
X79354Y90909D1*
X79391Y90653D2*
Y90143D1*
X79663Y90653D2*
Y89888D1*
Y90544D2*
X79736Y90616D1*
X79809Y90653D1*
X79918D1*
X79992Y90616D1*
X80064Y90544D1*
X80101Y90434D1*
Y90361D1*
X80064Y90252D1*
X79992Y90179D1*
X79918Y90143D1*
X79809D1*
X79736Y90179D1*
X79663Y90252D1*
X81587Y90799D2*
X81515Y90872D1*
X81406Y90909D1*
X81260D1*
X81150Y90872D1*
X81077Y90799D1*
Y90727D1*
X81114Y90653D1*
X81150Y90617D1*
X81223Y90581D1*
X81442Y90508D1*
X81515Y90471D1*
X81551Y90434D1*
X81587Y90362D1*
Y90252D1*
X81515Y90180D1*
X81406Y90143D1*
X81260D1*
X81150Y90180D1*
X81077Y90252D1*
X81823Y90653D2*
X81968Y90143D1*
X82114Y90653D1*
X82260Y90143D1*
X82406Y90653D1*
X82641Y90909D2*
X82677Y90872D1*
X82714Y90909D1*
X82677Y90946D1*
X82641Y90909D1*
X82677Y90653D2*
Y90143D1*
X83059Y90909D2*
Y90289D1*
X83095Y90180D1*
X83168Y90143D1*
X83241D1*
X82949Y90653D2*
X83205D1*
X83914Y90544D2*
X83841Y90617D1*
X83768Y90653D1*
X83659D1*
X83586Y90617D1*
X83513Y90544D1*
X83476Y90434D1*
Y90362D1*
X83513Y90252D1*
X83586Y90180D1*
X83659Y90143D1*
X83768D1*
X83841Y90180D1*
X83914Y90252D1*
X84150Y90909D2*
Y90143D1*
Y90508D2*
X84259Y90617D1*
X84332Y90653D1*
X84442D1*
X84514Y90617D1*
X84550Y90508D1*
Y90143D1*
X86109D2*
Y90909D1*
X85818Y90143D1*
X85526Y90909D1*
Y90143D1*
X86527Y90653D2*
X86454Y90617D1*
X86381Y90544D1*
X86345Y90434D1*
Y90362D1*
X86381Y90252D1*
X86454Y90180D1*
X86527Y90143D1*
X86636D1*
X86709Y90180D1*
X86782Y90252D1*
X86819Y90362D1*
Y90434D1*
X86782Y90544D1*
X86709Y90617D1*
X86636Y90653D1*
X86527D1*
X87491Y90909D2*
Y90143D1*
Y90544D2*
X87419Y90617D1*
X87346Y90653D1*
X87236D1*
X87164Y90617D1*
X87090Y90544D1*
X87054Y90434D1*
Y90362D1*
X87090Y90252D1*
X87164Y90180D1*
X87236Y90143D1*
X87346D1*
X87419Y90180D1*
X87491Y90252D1*
X87727Y90434D2*
X88164D1*
Y90508D1*
X88127Y90581D1*
X88091Y90617D1*
X88018Y90653D1*
X87908D1*
X87836Y90617D1*
X87763Y90544D1*
X87727Y90434D1*
Y90362D1*
X87763Y90252D1*
X87836Y90180D1*
X87908Y90143D1*
X88018D1*
X88091Y90180D1*
X88164Y90252D1*
X88800Y90544D2*
X88764Y90617D1*
X88654Y90653D1*
X88545D1*
X88435Y90617D1*
X88399Y90544D1*
X88435Y90471D1*
X88509Y90434D1*
X88690Y90398D1*
X88764Y90362D1*
X88800Y90289D1*
Y90252D1*
X88764Y90180D1*
X88654Y90143D1*
X88545D1*
X88435Y90180D1*
X88399Y90252D1*
X81606Y89468D2*
D11*
X81655Y89493D1*
X81728Y89565D1*
Y89055D1*
X82378Y89310D2*
X82659D1*
X83650Y89493D2*
X83602Y89542D1*
X83529Y89566D1*
X83431D1*
X83358Y89542D1*
X83310Y89493D1*
Y89445D1*
X83334Y89396D1*
X83358Y89372D1*
X83407Y89347D1*
X83553Y89299D1*
X83602Y89274D1*
X83626Y89250D1*
X83650Y89201D1*
Y89128D1*
X83602Y89080D1*
X83529Y89055D1*
X83431D1*
X83358Y89080D1*
X83310Y89128D1*
X83807Y89566D2*
X83831Y89542D1*
X83856Y89566D1*
X83831Y89591D1*
X83807Y89566D1*
X83831Y89396D2*
Y89055D1*
X84012Y89396D2*
Y89055D1*
Y89299D2*
X84085Y89372D1*
X84134Y89396D1*
X84207D1*
X84256Y89372D1*
X84280Y89299D1*
Y89055D1*
Y89299D2*
X84353Y89372D1*
X84402Y89396D1*
X84474D1*
X84523Y89372D1*
X84548Y89299D1*
Y89055D1*
X84704Y89396D2*
Y89153D1*
X84729Y89080D1*
X84777Y89055D1*
X84850D1*
X84899Y89080D1*
X84972Y89153D1*
Y89396D2*
Y89055D1*
X85129Y89566D2*
Y89055D1*
X85577Y89396D2*
Y89055D1*
Y89323D2*
X85529Y89372D1*
X85480Y89396D1*
X85407D1*
X85359Y89372D1*
X85310Y89323D1*
X85286Y89250D1*
Y89201D1*
X85310Y89128D1*
X85359Y89080D1*
X85407Y89055D1*
X85480D1*
X85529Y89080D1*
X85577Y89128D1*
X85807Y89566D2*
Y89153D1*
X85831Y89080D1*
X85880Y89055D1*
X85928D1*
X85734Y89396D2*
X85904D1*
X86085Y89250D2*
X86376D1*
Y89299D1*
X86352Y89347D1*
X86328Y89372D1*
X86279Y89396D1*
X86206D1*
X86158Y89372D1*
X86109Y89323D1*
X86085Y89250D1*
Y89201D1*
X86109Y89128D1*
X86158Y89080D1*
X86206Y89055D1*
X86279D1*
X86328Y89080D1*
X86376Y89128D1*
X87416Y89055D2*
Y89566D1*
X87221Y89055D1*
X87027Y89566D1*
Y89055D1*
X87694Y89396D2*
X87645Y89372D1*
X87597Y89323D1*
X87572Y89250D1*
Y89201D1*
X87597Y89128D1*
X87645Y89080D1*
X87694Y89055D1*
X87767D1*
X87816Y89080D1*
X87864Y89128D1*
X87889Y89201D1*
Y89250D1*
X87864Y89323D1*
X87816Y89372D1*
X87767Y89396D1*
X87694D1*
X88337Y89566D2*
Y89055D1*
Y89323D2*
X88289Y89372D1*
X88240Y89396D1*
X88167D1*
X88119Y89372D1*
X88070Y89323D1*
X88046Y89250D1*
Y89201D1*
X88070Y89128D1*
X88119Y89080D1*
X88167Y89055D1*
X88240D1*
X88289Y89080D1*
X88337Y89128D1*
X88494Y89250D2*
X88785D1*
Y89299D1*
X88761Y89347D1*
X88737Y89372D1*
X88688Y89396D1*
X88615D1*
X88567Y89372D1*
X88518Y89323D1*
X88494Y89250D1*
Y89201D1*
X88518Y89128D1*
X88567Y89080D1*
X88615Y89055D1*
X88688D1*
X88737Y89080D1*
X88785Y89128D1*
X89557Y89396D2*
X89509Y89372D1*
X89460Y89323D1*
X89436Y89250D1*
Y89201D1*
X89460Y89128D1*
X89509Y89080D1*
X89557Y89055D1*
X89630D1*
X89679Y89080D1*
X89727Y89128D1*
X89752Y89201D1*
Y89250D1*
X89727Y89323D1*
X89679Y89372D1*
X89630Y89396D1*
X89557D1*
X89909D2*
Y89055D1*
Y89299D2*
X89982Y89372D1*
X90031Y89396D1*
X90103D1*
X90152Y89372D1*
X90176Y89299D1*
Y89055D1*
X81630Y88491D2*
Y88516D1*
X81655Y88564D1*
X81679Y88589D1*
X81728Y88613D1*
X81825D1*
X81873Y88589D1*
X81897Y88564D1*
X81922Y88516D1*
Y88467D1*
X81897Y88418D1*
X81849Y88346D1*
X81606Y88103D1*
X81946D1*
X82597Y88358D2*
X82877D1*
X83868Y88540D2*
X83820Y88589D1*
X83747Y88613D1*
X83650D1*
X83577Y88589D1*
X83528Y88540D1*
Y88492D1*
X83553Y88443D1*
X83577Y88419D1*
X83625Y88395D1*
X83771Y88346D1*
X83820Y88322D1*
X83844Y88297D1*
X83868Y88249D1*
Y88176D1*
X83820Y88128D1*
X83747Y88103D1*
X83650D1*
X83577Y88128D1*
X83528Y88176D1*
X84025Y88613D2*
X84049Y88589D1*
X84074Y88613D1*
X84049Y88638D1*
X84025Y88613D1*
X84049Y88443D2*
Y88103D1*
X84231Y88443D2*
Y88103D1*
Y88346D2*
X84304Y88419D1*
X84353Y88443D1*
X84425D1*
X84474Y88419D1*
X84498Y88346D1*
Y88103D1*
Y88346D2*
X84571Y88419D1*
X84620Y88443D1*
X84692D1*
X84741Y88419D1*
X84766Y88346D1*
Y88103D1*
X84923Y88443D2*
Y88200D1*
X84947Y88128D1*
X84996Y88103D1*
X85069D1*
X85117Y88128D1*
X85190Y88200D1*
Y88443D2*
Y88103D1*
X85347Y88613D2*
Y88103D1*
X85795Y88443D2*
Y88103D1*
Y88370D2*
X85747Y88419D1*
X85698Y88443D1*
X85626D1*
X85577Y88419D1*
X85529Y88370D1*
X85504Y88297D1*
Y88249D1*
X85529Y88176D1*
X85577Y88128D1*
X85626Y88103D1*
X85698D1*
X85747Y88128D1*
X85795Y88176D1*
X86025Y88613D2*
Y88200D1*
X86049Y88128D1*
X86098Y88103D1*
X86147D1*
X85952Y88443D2*
X86122D1*
X86303Y88297D2*
X86595D1*
Y88346D1*
X86571Y88395D1*
X86547Y88419D1*
X86498Y88443D1*
X86425D1*
X86376Y88419D1*
X86328Y88370D1*
X86303Y88297D1*
Y88249D1*
X86328Y88176D1*
X86376Y88128D1*
X86425Y88103D1*
X86498D1*
X86547Y88128D1*
X86595Y88176D1*
X87440Y88613D2*
X87391D1*
X87343Y88589D1*
X87318Y88516D1*
Y88103D1*
X87245Y88443D2*
X87416D1*
X87597Y88613D2*
X87621Y88589D1*
X87645Y88613D1*
X87621Y88638D1*
X87597Y88613D1*
X87621Y88443D2*
Y88103D1*
X87802Y88613D2*
Y88103D1*
X88032Y88613D2*
Y88200D1*
X88056Y88128D1*
X88105Y88103D1*
X88154D1*
X87959Y88443D2*
X88129D1*
X88310Y88297D2*
X88602D1*
Y88346D1*
X88578Y88395D1*
X88554Y88419D1*
X88505Y88443D1*
X88432D1*
X88383Y88419D1*
X88335Y88370D1*
X88310Y88297D1*
Y88249D1*
X88335Y88176D1*
X88383Y88128D1*
X88432Y88103D1*
X88505D1*
X88554Y88128D1*
X88602Y88176D1*
X88759Y88443D2*
Y88103D1*
Y88297D2*
X88783Y88370D1*
X88832Y88419D1*
X88881Y88443D1*
X88954D1*
X89604Y88516D2*
X89653Y88540D1*
X89726Y88613D1*
Y88103D1*
X90498Y88443D2*
X90450Y88419D1*
X90401Y88370D1*
X90377Y88297D1*
Y88249D1*
X90401Y88176D1*
X90450Y88128D1*
X90498Y88103D1*
X90571D1*
X90620Y88128D1*
X90668Y88176D1*
X90693Y88249D1*
Y88297D1*
X90668Y88370D1*
X90620Y88419D1*
X90571Y88443D1*
X90498D1*
X90850D2*
Y88103D1*
Y88346D2*
X90923Y88419D1*
X90972Y88443D1*
X91044D1*
X91093Y88419D1*
X91117Y88346D1*
Y88103D1*
X81655Y87660D2*
X81921D1*
X81776Y87466D1*
X81849D1*
X81897Y87442D1*
X81921Y87418D1*
X81946Y87345D1*
Y87296D1*
X81921Y87223D1*
X81873Y87174D1*
X81800Y87150D1*
X81727D1*
X81655Y87174D1*
X81630Y87199D1*
X81606Y87247D1*
X82597Y87405D2*
X82877D1*
X83868Y87588D2*
X83820Y87637D1*
X83747Y87661D1*
X83650D1*
X83577Y87637D1*
X83528Y87588D1*
Y87539D1*
X83553Y87491D1*
X83577Y87466D1*
X83625Y87442D1*
X83771Y87393D1*
X83820Y87369D1*
X83844Y87345D1*
X83868Y87296D1*
Y87223D1*
X83820Y87175D1*
X83747Y87150D1*
X83650D1*
X83577Y87175D1*
X83528Y87223D1*
X84025Y87661D2*
X84049Y87637D1*
X84074Y87661D1*
X84049Y87685D1*
X84025Y87661D1*
X84049Y87491D2*
Y87150D1*
X84231Y87491D2*
Y87150D1*
Y87393D2*
X84304Y87466D1*
X84353Y87491D1*
X84425D1*
X84474Y87466D1*
X84498Y87393D1*
Y87150D1*
Y87393D2*
X84571Y87466D1*
X84620Y87491D1*
X84692D1*
X84741Y87466D1*
X84766Y87393D1*
Y87150D1*
X84923Y87491D2*
Y87247D1*
X84947Y87175D1*
X84996Y87150D1*
X85069D1*
X85117Y87175D1*
X85190Y87247D1*
Y87491D2*
Y87150D1*
X85347Y87661D2*
Y87150D1*
X85795Y87491D2*
Y87150D1*
Y87418D2*
X85747Y87466D1*
X85698Y87491D1*
X85626D1*
X85577Y87466D1*
X85529Y87418D1*
X85504Y87345D1*
Y87296D1*
X85529Y87223D1*
X85577Y87175D1*
X85626Y87150D1*
X85698D1*
X85747Y87175D1*
X85795Y87223D1*
X86025Y87661D2*
Y87247D1*
X86049Y87175D1*
X86098Y87150D1*
X86147D1*
X85952Y87491D2*
X86122D1*
X86303Y87345D2*
X86595D1*
Y87393D1*
X86571Y87442D1*
X86547Y87466D1*
X86498Y87491D1*
X86425D1*
X86376Y87466D1*
X86328Y87418D1*
X86303Y87345D1*
Y87296D1*
X86328Y87223D1*
X86376Y87175D1*
X86425Y87150D1*
X86498D1*
X86547Y87175D1*
X86595Y87223D1*
X87440Y87661D2*
X87391D1*
X87343Y87637D1*
X87318Y87564D1*
Y87150D1*
X87245Y87491D2*
X87416D1*
X87597Y87661D2*
X87621Y87637D1*
X87645Y87661D1*
X87621Y87685D1*
X87597Y87661D1*
X87621Y87491D2*
Y87150D1*
X87802Y87661D2*
Y87150D1*
X88032Y87661D2*
Y87247D1*
X88056Y87175D1*
X88105Y87150D1*
X88154D1*
X87959Y87491D2*
X88129D1*
X88310Y87345D2*
X88602D1*
Y87393D1*
X88578Y87442D1*
X88554Y87466D1*
X88505Y87491D1*
X88432D1*
X88383Y87466D1*
X88335Y87418D1*
X88310Y87345D1*
Y87296D1*
X88335Y87223D1*
X88383Y87175D1*
X88432Y87150D1*
X88505D1*
X88554Y87175D1*
X88602Y87223D1*
X88759Y87491D2*
Y87150D1*
Y87345D2*
X88783Y87418D1*
X88832Y87466D1*
X88881Y87491D1*
X88954D1*
X89629Y87539D2*
Y87563D1*
X89653Y87612D1*
X89677Y87636D1*
X89726Y87660D1*
X89823D1*
X89871Y87636D1*
X89896Y87612D1*
X89920Y87563D1*
Y87515D1*
X89896Y87466D1*
X89847Y87393D1*
X89604Y87150D1*
X89944D1*
X90716Y87491D2*
X90668Y87466D1*
X90619Y87418D1*
X90595Y87345D1*
Y87296D1*
X90619Y87223D1*
X90668Y87175D1*
X90716Y87150D1*
X90789D1*
X90838Y87175D1*
X90887Y87223D1*
X90911Y87296D1*
Y87345D1*
X90887Y87418D1*
X90838Y87466D1*
X90789Y87491D1*
X90716D1*
X91068D2*
Y87150D1*
Y87393D2*
X91141Y87466D1*
X91190Y87491D1*
X91262D1*
X91311Y87466D1*
X91335Y87393D1*
Y87150D1*
X81849Y86198D2*
Y86708D1*
X81606Y86368D1*
X81970D1*
X82621Y86453D2*
X82902D1*
X83892Y86635D2*
X83844Y86684D1*
X83771Y86708D1*
X83674D1*
X83601Y86684D1*
X83552Y86635D1*
Y86587D1*
X83577Y86538D1*
X83601Y86514D1*
X83649Y86490D1*
X83795Y86441D1*
X83844Y86417D1*
X83868Y86392D1*
X83892Y86344D1*
Y86271D1*
X83844Y86222D1*
X83771Y86198D1*
X83674D1*
X83601Y86222D1*
X83552Y86271D1*
X84049Y86708D2*
X84073Y86684D1*
X84098Y86708D1*
X84073Y86733D1*
X84049Y86708D1*
X84073Y86538D2*
Y86198D1*
X84255Y86538D2*
Y86198D1*
Y86441D2*
X84328Y86514D1*
X84377Y86538D1*
X84449D1*
X84498Y86514D1*
X84522Y86441D1*
Y86198D1*
Y86441D2*
X84595Y86514D1*
X84644Y86538D1*
X84717D1*
X84765Y86514D1*
X84790Y86441D1*
Y86198D1*
X84947Y86538D2*
Y86295D1*
X84971Y86222D1*
X85020Y86198D1*
X85093D1*
X85141Y86222D1*
X85214Y86295D1*
Y86538D2*
Y86198D1*
X85371Y86708D2*
Y86198D1*
X85820Y86538D2*
Y86198D1*
Y86465D2*
X85771Y86514D1*
X85722Y86538D1*
X85650D1*
X85601Y86514D1*
X85553Y86465D1*
X85528Y86392D1*
Y86344D1*
X85553Y86271D1*
X85601Y86222D1*
X85650Y86198D1*
X85722D1*
X85771Y86222D1*
X85820Y86271D1*
X86049Y86708D2*
Y86295D1*
X86074Y86222D1*
X86122Y86198D1*
X86171D1*
X85976Y86538D2*
X86147D1*
X86328Y86392D2*
X86619D1*
Y86441D1*
X86595Y86490D1*
X86571Y86514D1*
X86522Y86538D1*
X86449D1*
X86401Y86514D1*
X86352Y86465D1*
X86328Y86392D1*
Y86344D1*
X86352Y86271D1*
X86401Y86222D1*
X86449Y86198D1*
X86522D1*
X86571Y86222D1*
X86619Y86271D1*
X87464Y86708D2*
X87416D1*
X87367Y86684D1*
X87343Y86611D1*
Y86198D1*
X87270Y86538D2*
X87440D1*
X87621Y86708D2*
X87645Y86684D1*
X87670Y86708D1*
X87645Y86733D1*
X87621Y86708D1*
X87645Y86538D2*
Y86198D1*
X87827Y86708D2*
Y86198D1*
X88056Y86708D2*
Y86295D1*
X88081Y86222D1*
X88129Y86198D1*
X88178D1*
X87983Y86538D2*
X88154D1*
X88335Y86392D2*
X88626D1*
Y86441D1*
X88602Y86490D1*
X88578Y86514D1*
X88529Y86538D1*
X88456D1*
X88408Y86514D1*
X88359Y86465D1*
X88335Y86392D1*
Y86344D1*
X88359Y86271D1*
X88408Y86222D1*
X88456Y86198D1*
X88529D1*
X88578Y86222D1*
X88626Y86271D1*
X88783Y86538D2*
Y86198D1*
Y86392D2*
X88808Y86465D1*
X88856Y86514D1*
X88905Y86538D1*
X88978D1*
X89677Y86708D2*
X89944D1*
X89798Y86513D1*
X89871D1*
X89920Y86489D1*
X89944Y86465D1*
X89969Y86392D1*
Y86344D1*
X89944Y86271D1*
X89896Y86222D1*
X89823Y86198D1*
X89750D1*
X89677Y86222D1*
X89653Y86246D1*
X89628Y86295D1*
X90741Y86538D2*
X90692Y86514D1*
X90643Y86465D1*
X90619Y86392D1*
Y86344D1*
X90643Y86271D1*
X90692Y86222D1*
X90741Y86198D1*
X90814D1*
X90862Y86222D1*
X90911Y86271D1*
X90935Y86344D1*
Y86392D1*
X90911Y86465D1*
X90862Y86514D1*
X90814Y86538D1*
X90741D1*
X91092D2*
Y86198D1*
Y86441D2*
X91165Y86514D1*
X91214Y86538D1*
X91287D1*
X91335Y86514D1*
X91360Y86441D1*
Y86198D1*
X81727Y82897D2*
X81655Y82873D1*
X81630Y82825D1*
Y82776D1*
X81655Y82728D1*
X81703Y82703D1*
X81800Y82679D1*
X81873Y82655D1*
X81921Y82606D1*
X81945Y82557D1*
Y82484D1*
X81921Y82436D1*
X81897Y82411D1*
X81824Y82387D1*
X81727D1*
X81655Y82411D1*
X81630Y82436D1*
X81606Y82484D1*
Y82557D1*
X81630Y82606D1*
X81679Y82655D1*
X81751Y82679D1*
X81848Y82703D1*
X81897Y82728D1*
X81921Y82776D1*
Y82825D1*
X81897Y82873D1*
X81824Y82897D1*
X81727D1*
X82596Y82642D2*
X82877D1*
X83868Y82825D2*
X83819Y82874D1*
X83746Y82898D1*
X83649D1*
X83576Y82874D1*
X83527Y82825D1*
Y82776D1*
X83552Y82728D1*
X83576Y82703D1*
X83625Y82679D1*
X83771Y82630D1*
X83819Y82606D1*
X83844Y82582D1*
X83868Y82533D1*
Y82460D1*
X83819Y82412D1*
X83746Y82387D1*
X83649D1*
X83576Y82412D1*
X83527Y82460D1*
X84025Y82728D2*
Y82217D1*
Y82655D2*
X84073Y82703D1*
X84122Y82728D1*
X84195D1*
X84244Y82703D1*
X84292Y82655D1*
X84317Y82582D1*
Y82533D1*
X84292Y82460D1*
X84244Y82411D1*
X84195Y82387D1*
X84122D1*
X84073Y82411D1*
X84025Y82460D1*
X84765Y82728D2*
Y82387D1*
Y82655D2*
X84717Y82703D1*
X84668Y82728D1*
X84595D1*
X84546Y82703D1*
X84498Y82655D1*
X84473Y82582D1*
Y82533D1*
X84498Y82460D1*
X84546Y82412D1*
X84595Y82387D1*
X84668D1*
X84717Y82412D1*
X84765Y82460D1*
X84922Y82728D2*
Y82387D1*
Y82582D2*
X84947Y82655D1*
X84995Y82703D1*
X85044Y82728D1*
X85117D1*
X85274Y82582D2*
X85565D1*
Y82630D1*
X85541Y82679D1*
X85517Y82703D1*
X85468Y82728D1*
X85395D1*
X85347Y82703D1*
X85298Y82655D1*
X85274Y82582D1*
Y82533D1*
X85298Y82460D1*
X85347Y82412D1*
X85395Y82387D1*
X85468D1*
X85517Y82412D1*
X85565Y82460D1*
X81897Y85755D2*
X81655D1*
X81630Y85536D1*
X81655Y85561D1*
X81728Y85585D1*
X81800D1*
X81873Y85561D1*
X81922Y85512D1*
X81946Y85439D1*
Y85391D1*
X81922Y85318D1*
X81873Y85269D1*
X81800Y85245D1*
X81728D1*
X81655Y85269D1*
X81630Y85294D1*
X81606Y85342D1*
X82597Y85500D2*
X82877D1*
X83868Y85682D2*
X83820Y85731D1*
X83747Y85755D1*
X83650D1*
X83577Y85731D1*
X83528Y85682D1*
Y85634D1*
X83553Y85585D1*
X83577Y85561D1*
X83625Y85537D1*
X83771Y85488D1*
X83820Y85464D1*
X83844Y85439D1*
X83868Y85391D1*
Y85318D1*
X83820Y85270D1*
X83747Y85245D1*
X83650D1*
X83577Y85270D1*
X83528Y85318D1*
X84025Y85755D2*
X84049Y85731D1*
X84074Y85755D1*
X84049Y85780D1*
X84025Y85755D1*
X84049Y85585D2*
Y85245D1*
X84231Y85585D2*
Y85245D1*
Y85488D2*
X84304Y85561D1*
X84353Y85585D1*
X84425D1*
X84474Y85561D1*
X84498Y85488D1*
Y85245D1*
Y85488D2*
X84571Y85561D1*
X84620Y85585D1*
X84692D1*
X84741Y85561D1*
X84766Y85488D1*
Y85245D1*
X84923Y85585D2*
Y85342D1*
X84947Y85270D1*
X84996Y85245D1*
X85069D1*
X85117Y85270D1*
X85190Y85342D1*
Y85585D2*
Y85245D1*
X85347Y85755D2*
Y85245D1*
X85795Y85585D2*
Y85245D1*
Y85512D2*
X85747Y85561D1*
X85698Y85585D1*
X85626D1*
X85577Y85561D1*
X85529Y85512D1*
X85504Y85439D1*
Y85391D1*
X85529Y85318D1*
X85577Y85270D1*
X85626Y85245D1*
X85698D1*
X85747Y85270D1*
X85795Y85318D1*
X86025Y85755D2*
Y85342D1*
X86049Y85270D1*
X86098Y85245D1*
X86147D1*
X85952Y85585D2*
X86122D1*
X86303Y85439D2*
X86595D1*
Y85488D1*
X86571Y85537D1*
X86547Y85561D1*
X86498Y85585D1*
X86425D1*
X86376Y85561D1*
X86328Y85512D1*
X86303Y85439D1*
Y85391D1*
X86328Y85318D1*
X86376Y85270D1*
X86425Y85245D1*
X86498D1*
X86547Y85270D1*
X86595Y85318D1*
X87245Y85755D2*
Y85245D1*
X87586Y85755D2*
Y85245D1*
X87245Y85512D2*
X87586D1*
X87743Y85755D2*
X87767Y85731D1*
X87791Y85755D1*
X87767Y85780D1*
X87743Y85755D1*
X87767Y85585D2*
Y85245D1*
X88240Y85561D2*
Y85172D1*
X88216Y85100D1*
X88192Y85075D1*
X88143Y85051D1*
X88070D1*
X88021Y85075D1*
X88240Y85488D2*
X88192Y85536D1*
X88143Y85561D1*
X88070D1*
X88021Y85536D1*
X87973Y85488D1*
X87948Y85415D1*
Y85366D1*
X87973Y85294D1*
X88021Y85245D1*
X88070Y85221D1*
X88143D1*
X88192Y85245D1*
X88240Y85294D1*
X88397Y85755D2*
Y85245D1*
Y85488D2*
X88470Y85561D1*
X88519Y85585D1*
X88592D1*
X88640Y85561D1*
X88664Y85488D1*
Y85245D1*
X89315Y85755D2*
Y85245D1*
X89485D1*
X89558Y85270D1*
X89607Y85318D1*
X89631Y85367D1*
X89655Y85439D1*
Y85561D1*
X89631Y85634D1*
X89607Y85682D1*
X89558Y85731D1*
X89485Y85755D1*
X89315D1*
X89812D2*
X89836Y85731D1*
X89861Y85755D1*
X89836Y85780D1*
X89812Y85755D1*
X89836Y85585D2*
Y85245D1*
X90212Y85755D2*
X90163D1*
X90115Y85731D1*
X90090Y85658D1*
Y85245D1*
X90017Y85585D2*
X90188D1*
X90563Y85755D2*
X90515D1*
X90466Y85731D1*
X90442Y85658D1*
Y85245D1*
X90369Y85585D2*
X90539D1*
X81897Y84730D2*
X81873Y84778D1*
X81800Y84802D1*
X81752D1*
X81679Y84778D1*
X81630Y84705D1*
X81606Y84584D1*
Y84463D1*
X81630Y84365D1*
X81679Y84317D1*
X81752Y84292D1*
X81776D1*
X81848Y84317D1*
X81897Y84365D1*
X81921Y84438D1*
Y84463D1*
X81897Y84536D1*
X81848Y84584D1*
X81776Y84608D1*
X81752D1*
X81679Y84584D1*
X81630Y84536D1*
X81606Y84463D1*
X82572Y84547D2*
X82853D1*
X83844Y84730D2*
X83795Y84779D1*
X83722Y84803D1*
X83625D1*
X83552Y84779D1*
X83503Y84730D1*
Y84682D1*
X83528Y84633D1*
X83552Y84609D1*
X83600Y84584D1*
X83746Y84536D1*
X83795Y84511D1*
X83819Y84487D1*
X83844Y84438D1*
Y84365D1*
X83795Y84317D1*
X83722Y84292D1*
X83625D1*
X83552Y84317D1*
X83503Y84365D1*
X84000Y84803D2*
X84025Y84779D1*
X84049Y84803D1*
X84025Y84828D1*
X84000Y84803D1*
X84025Y84633D2*
Y84292D1*
X84206Y84633D2*
Y84292D1*
Y84536D2*
X84279Y84609D1*
X84328Y84633D1*
X84400D1*
X84449Y84609D1*
X84473Y84536D1*
Y84292D1*
Y84536D2*
X84546Y84609D1*
X84595Y84633D1*
X84668D1*
X84717Y84609D1*
X84741Y84536D1*
Y84292D1*
X84898Y84633D2*
Y84390D1*
X84922Y84317D1*
X84971Y84292D1*
X85044D1*
X85093Y84317D1*
X85166Y84390D1*
Y84633D2*
Y84292D1*
X85322Y84803D2*
Y84292D1*
X85771Y84633D2*
Y84292D1*
Y84560D2*
X85722Y84609D1*
X85674Y84633D1*
X85601D1*
X85552Y84609D1*
X85504Y84560D1*
X85479Y84487D1*
Y84438D1*
X85504Y84365D1*
X85552Y84317D1*
X85601Y84292D1*
X85674D1*
X85722Y84317D1*
X85771Y84365D1*
X86001Y84803D2*
Y84390D1*
X86025Y84317D1*
X86074Y84292D1*
X86122D1*
X85928Y84633D2*
X86098D1*
X86279Y84487D2*
X86570D1*
Y84536D1*
X86546Y84584D1*
X86522Y84609D1*
X86473Y84633D1*
X86400D1*
X86352Y84609D1*
X86303Y84560D1*
X86279Y84487D1*
Y84438D1*
X86303Y84365D1*
X86352Y84317D1*
X86400Y84292D1*
X86473D1*
X86522Y84317D1*
X86570Y84365D1*
X87610Y84292D2*
X87415Y84803D1*
X87221Y84292D1*
X87294Y84463D2*
X87537D1*
X87767Y84803D2*
Y84292D1*
X87924Y84803D2*
Y84292D1*
X88574Y84803D2*
Y84292D1*
X88866D1*
X89338Y84803D2*
X89023D1*
Y84292D1*
X89338D1*
X89023Y84560D2*
X89217D1*
X89495Y84803D2*
Y84292D1*
X89665D1*
X89738Y84317D1*
X89787Y84365D1*
X89811Y84414D1*
X89835Y84487D1*
Y84609D1*
X89811Y84682D1*
X89787Y84730D1*
X89738Y84779D1*
X89665Y84803D1*
X89495D1*
X90259Y84560D2*
X90235Y84609D1*
X90162Y84633D1*
X90089D1*
X90016Y84609D1*
X89992Y84560D1*
X90016Y84511D1*
X90065Y84487D1*
X90186Y84463D1*
X90235Y84438D1*
X90259Y84390D1*
Y84365D1*
X90235Y84317D1*
X90162Y84292D1*
X90089D1*
X90016Y84317D1*
X89992Y84365D1*
X91056Y84803D2*
X91007Y84779D1*
X90959Y84730D1*
X90934Y84682D1*
X90910Y84609D1*
Y84487D1*
X90934Y84414D1*
X90959Y84365D1*
X91007Y84317D1*
X91056Y84292D1*
X91153D1*
X91202Y84317D1*
X91250Y84365D1*
X91275Y84414D1*
X91299Y84487D1*
Y84609D1*
X91275Y84682D1*
X91250Y84730D1*
X91202Y84779D1*
X91153Y84803D1*
X91056D1*
X91456Y84633D2*
Y84292D1*
Y84536D2*
X91529Y84609D1*
X91577Y84633D1*
X91650D1*
X91699Y84609D1*
X91723Y84536D1*
Y84292D1*
X81703Y83340D2*
X81946Y83850D1*
X81606D1*
X82597Y83595D2*
X82877D1*
X83674Y83850D2*
X83625Y83826D1*
X83577Y83777D1*
X83552Y83729D1*
X83528Y83656D1*
Y83534D1*
X83552Y83462D1*
X83577Y83413D1*
X83625Y83365D1*
X83674Y83340D1*
X83771D1*
X83819Y83365D1*
X83868Y83413D1*
X83892Y83462D1*
X83917Y83534D1*
Y83656D1*
X83892Y83729D1*
X83868Y83777D1*
X83819Y83826D1*
X83771Y83850D1*
X83674D1*
X84073Y83680D2*
Y83437D1*
X84098Y83365D1*
X84146Y83340D1*
X84219D1*
X84268Y83365D1*
X84341Y83437D1*
Y83680D2*
Y83340D1*
X84571Y83850D2*
Y83437D1*
X84595Y83365D1*
X84644Y83340D1*
X84692D1*
X84498Y83680D2*
X84668D1*
X84849D2*
Y83170D1*
Y83607D2*
X84898Y83655D1*
X84946Y83680D1*
X85019D1*
X85068Y83655D1*
X85116Y83607D1*
X85141Y83534D1*
Y83485D1*
X85116Y83413D1*
X85068Y83364D1*
X85019Y83340D1*
X84946D1*
X84898Y83364D1*
X84849Y83413D1*
X85298Y83680D2*
Y83437D1*
X85322Y83365D1*
X85371Y83340D1*
X85444D1*
X85492Y83365D1*
X85565Y83437D1*
Y83680D2*
Y83340D1*
X85795Y83850D2*
Y83437D1*
X85819Y83365D1*
X85868Y83340D1*
X85916D1*
X85722Y83680D2*
X85892D1*
X86567D2*
Y83340D1*
Y83534D2*
X86591Y83607D1*
X86640Y83656D1*
X86689Y83680D1*
X86762D1*
X86918Y83534D2*
X87210D1*
Y83583D1*
X87186Y83632D1*
X87162Y83656D1*
X87113Y83680D1*
X87040D1*
X86991Y83656D1*
X86943Y83607D1*
X86918Y83534D1*
Y83486D1*
X86943Y83413D1*
X86991Y83365D1*
X87040Y83340D1*
X87113D1*
X87162Y83365D1*
X87210Y83413D1*
X87367Y83850D2*
Y83340D1*
X87815Y83680D2*
Y83340D1*
Y83607D2*
X87767Y83656D1*
X87718Y83680D1*
X87645D1*
X87597Y83656D1*
X87548Y83607D1*
X87524Y83534D1*
Y83486D1*
X87548Y83413D1*
X87597Y83365D1*
X87645Y83340D1*
X87718D1*
X87767Y83365D1*
X87815Y83413D1*
X87997Y83680D2*
X88142Y83340D1*
X88094Y83243D1*
X88045Y83194D1*
X87997Y83170D1*
X87972D1*
X88288Y83680D2*
X88142Y83340D1*
X89060Y83680D2*
X89012Y83656D1*
X88963Y83607D1*
X88939Y83534D1*
Y83486D1*
X88963Y83413D1*
X89012Y83365D1*
X89060Y83340D1*
X89133D1*
X89182Y83365D1*
X89230Y83413D1*
X89255Y83486D1*
Y83534D1*
X89230Y83607D1*
X89182Y83656D1*
X89133Y83680D1*
X89060D1*
X89412D2*
Y83340D1*
Y83583D2*
X89485Y83656D1*
X89534Y83680D1*
X89606D1*
X89655Y83656D1*
X89679Y83583D1*
Y83340D1*
X58379Y101115D2*
D114*
X57114D1*
Y99073D1*
Y100143D2*
X57892D1*
X59007Y101115D2*
X59103Y101019D1*
X59202Y101115D1*
X59103Y101214D1*
X59007Y101115D1*
X59103Y100435D2*
Y99073D1*
X59829Y101115D2*
Y99073D1*
X60749Y101115D2*
Y99462D1*
X60845Y99172D1*
X61041Y99073D1*
X61234D1*
X60457Y100435D2*
X61137D1*
X61861Y99851D2*
X63027D1*
Y100046D1*
X62931Y100241D1*
X62834Y100338D1*
X62639Y100435D1*
X62347D1*
X62153Y100338D1*
X61958Y100143D1*
X61861Y99851D1*
Y99657D1*
X61958Y99365D1*
X62153Y99172D1*
X62347Y99073D1*
X62639D1*
X62834Y99172D1*
X63027Y99365D1*
X63655Y100435D2*
Y99073D1*
Y99851D2*
X63754Y100143D1*
X63947Y100338D1*
X64142Y100435D1*
X64434D1*
X68494Y100630D2*
X68398Y100823D1*
X68202Y101019D1*
X68009Y101115D1*
X67621D1*
X67425Y101019D1*
X67232Y100823D1*
X67133Y100630D1*
X67037Y100338D1*
Y99851D1*
X67133Y99561D1*
X67232Y99365D1*
X67425Y99172D1*
X67621Y99073D1*
X68009D1*
X68202Y99172D1*
X68398Y99365D1*
X68494Y99561D1*
X69607Y100435D2*
X69414Y100338D1*
X69218Y100143D1*
X69122Y99851D1*
Y99657D1*
X69218Y99365D1*
X69414Y99172D1*
X69607Y99073D1*
X69899D1*
X70094Y99172D1*
X70288Y99365D1*
X70386Y99657D1*
Y99851D1*
X70288Y100143D1*
X70094Y100338D1*
X69899Y100435D1*
X69607D1*
X71014D2*
Y99073D1*
Y100046D2*
X71306Y100338D1*
X71501Y100435D1*
X71791D1*
X71987Y100338D1*
X72083Y100046D1*
Y99073D1*
X73003Y101115D2*
Y99462D1*
X73099Y99172D1*
X73295Y99073D1*
X73488D1*
X72711Y100435D2*
X73391D1*
X74115D2*
Y99073D1*
Y99851D2*
X74214Y100143D1*
X74407Y100338D1*
X74603Y100435D1*
X74895D1*
X76007D2*
X75814Y100338D1*
X75619Y100143D1*
X75522Y99851D1*
Y99657D1*
X75619Y99365D1*
X75814Y99172D1*
X76007Y99073D1*
X76299D1*
X76495Y99172D1*
X76688Y99365D1*
X76787Y99657D1*
Y99851D1*
X76688Y100143D1*
X76495Y100338D1*
X76299Y100435D1*
X76007D1*
X77414Y101115D2*
Y99073D1*
X78132Y97847D2*
D113*
X78460D1*
X78570Y97884D1*
X78607Y97920D1*
X78643Y97993D1*
Y98066D1*
X78607Y98139D1*
X78570Y98176D1*
X78460Y98212D1*
X78132D1*
Y97446D1*
X78388Y97847D2*
X78643Y97446D1*
X78878Y98212D2*
X78914Y98176D1*
X78951Y98212D1*
X78914Y98249D1*
X78878Y98212D1*
X78914Y97957D2*
Y97446D1*
X79625Y97847D2*
X79551Y97920D1*
X79478Y97957D1*
X79370D1*
X79296Y97920D1*
X79224Y97847D1*
X79187Y97738D1*
Y97665D1*
X79224Y97556D1*
X79296Y97483D1*
X79370Y97446D1*
X79478D1*
X79551Y97483D1*
X79625Y97556D1*
X79860Y98212D2*
Y97446D1*
X80225Y97957D2*
X79860Y97592D1*
X80006Y97738D2*
X80261Y97446D1*
X78520Y96919D2*
X78484Y96991D1*
X78411Y97064D1*
X78338Y97101D1*
X78193D1*
X78119Y97064D1*
X78047Y96991D1*
X78010Y96919D1*
X77974Y96809D1*
Y96626D1*
X78010Y96518D1*
X78047Y96444D1*
X78119Y96372D1*
X78193Y96335D1*
X78338D1*
X78411Y96372D1*
X78484Y96444D1*
X78520Y96518D1*
Y96626D1*
X78338D1*
X78756Y96845D2*
Y96335D1*
Y96626D2*
X78793Y96736D1*
X78865Y96809D1*
X78938Y96845D1*
X79048D1*
X79720D2*
Y96335D1*
Y96736D2*
X79648Y96809D1*
X79575Y96845D1*
X79466D1*
X79393Y96809D1*
X79320Y96736D1*
X79283Y96626D1*
Y96554D1*
X79320Y96444D1*
X79393Y96372D1*
X79466Y96335D1*
X79575D1*
X79648Y96372D1*
X79720Y96444D1*
X79956Y96845D2*
Y96335D1*
Y96700D2*
X80065Y96809D1*
X80138Y96845D1*
X80247D1*
X80320Y96809D1*
X80357Y96700D1*
Y96335D1*
X80701Y97101D2*
Y96481D1*
X80738Y96372D1*
X80811Y96335D1*
X80883D1*
X80592Y96845D2*
X80847D1*
X78557Y95223D2*
Y95989D1*
X78265Y95223D1*
X77974Y95989D1*
Y95223D1*
X78792Y95989D2*
X78828Y95953D1*
X78865Y95989D1*
X78828Y96026D1*
X78792Y95989D1*
X78828Y95734D2*
Y95223D1*
X79538Y95624D2*
X79465Y95698D1*
X79392Y95734D1*
X79283D1*
X79210Y95698D1*
X79137Y95624D1*
X79100Y95515D1*
Y95442D1*
X79137Y95333D1*
X79210Y95261D1*
X79283Y95223D1*
X79392D1*
X79465Y95261D1*
X79538Y95333D1*
X79774Y95989D2*
Y95223D1*
Y95588D2*
X79883Y95698D1*
X79956Y95734D1*
X80066D1*
X80138Y95698D1*
X80175Y95588D1*
Y95223D1*
X80847Y95734D2*
Y95223D1*
Y95624D2*
X80775Y95698D1*
X80701Y95734D1*
X80593D1*
X80519Y95698D1*
X80447Y95624D1*
X80410Y95515D1*
Y95442D1*
X80447Y95333D1*
X80519Y95261D1*
X80593Y95223D1*
X80701D1*
X80775Y95261D1*
X80847Y95333D1*
X81082Y95515D2*
X81520D1*
Y95588D1*
X81483Y95661D1*
X81447Y95698D1*
X81374Y95734D1*
X81264D1*
X81192Y95698D1*
X81119Y95624D1*
X81082Y95515D1*
Y95442D1*
X81119Y95333D1*
X81192Y95261D1*
X81264Y95223D1*
X81374D1*
X81447Y95261D1*
X81520Y95333D1*
X81755Y95989D2*
Y95223D1*
X63856Y60744D2*
D112*
X63759Y60695D1*
X63661Y60598D1*
X63613Y60501D1*
Y60307D1*
X63661Y60209D1*
X63759Y60112D1*
X63856Y60063D1*
X64002Y60015D1*
X64245D1*
X64390Y60063D1*
X64488Y60112D1*
X64585Y60209D1*
X64634Y60307D1*
Y60501D1*
X64585Y60598D1*
X64488Y60695D1*
X64390Y60744D1*
X63613Y61738D2*
X64634D1*
X63613Y61057D1*
X64634D1*
X63613Y62052D2*
X64099Y62440D1*
X64634D1*
X63613Y62829D2*
X64099Y62440D1*
X63808Y63142D2*
X63759Y63240D1*
X63614Y63386D1*
X64634D1*
Y63894D2*
X63614Y64380D1*
Y63700D1*
X63613Y65326D2*
Y64694D1*
X64634D1*
X64099D2*
Y65083D1*
X50957Y59626D2*
X50861Y59578D1*
X50763Y59480D1*
X50715Y59383D1*
Y59189D1*
X50763Y59091D1*
X50861Y58995D1*
X50957Y58945D1*
X51103Y58897D1*
X51347D1*
X51492Y58945D1*
X51590Y58995D1*
X51686Y59091D1*
X51736Y59189D1*
Y59383D1*
X51686Y59480D1*
X51590Y59578D1*
X51492Y59626D1*
X50715Y60620D2*
X51736D1*
X50715Y59940D1*
X51736D1*
X50715Y60934D2*
X51201Y61323D1*
X51736D1*
X50715Y61711D2*
X51201Y61323D1*
X50910Y62025D2*
X50861Y62123D1*
X50716Y62269D1*
X51736D1*
Y62777D2*
X50716Y63263D1*
Y62582D1*
X50715Y64209D2*
Y63577D1*
X51736D1*
X51201D2*
Y63965D1*
X67422Y72044D2*
X67326Y71995D1*
X67228Y71898D1*
X67180Y71801D1*
Y71607D1*
X67228Y71509D1*
X67326Y71412D1*
X67422Y71363D1*
X67568Y71315D1*
X67812D1*
X67957Y71363D1*
X68055Y71412D1*
X68151Y71509D1*
X68201Y71607D1*
Y71801D1*
X68151Y71898D1*
X68055Y71995D1*
X67957Y72044D1*
X67180Y73038D2*
X68201D1*
X67180Y72357D1*
X68201D1*
X67180Y73352D2*
X67666Y73740D1*
X68201D1*
X67180Y74129D2*
X67666Y73740D1*
X67375Y74442D2*
X67326Y74540D1*
X67181Y74686D1*
X68201D1*
Y75194D2*
X67181Y75680D1*
Y75000D1*
X67180Y76626D2*
Y75994D1*
X68201D1*
X67666D2*
Y76383D1*
X66448Y84001D2*
X66351Y83952D1*
X66253Y83855D1*
X66205Y83758D1*
Y83564D1*
X66253Y83466D1*
X66351Y83369D1*
X66448Y83320D1*
X66594Y83272D1*
X66837D1*
X66982Y83320D1*
X67080Y83369D1*
X67177Y83466D1*
X67226Y83564D1*
Y83758D1*
X67177Y83855D1*
X67080Y83952D1*
X66982Y84001D1*
X66205Y84995D2*
X67226D1*
X66205Y84314D1*
X67226D1*
X66205Y85309D2*
X66691Y85697D1*
X67226D1*
X66205Y86086D2*
X66691Y85697D1*
X66401Y86400D2*
X66351Y86497D1*
X66206Y86643D1*
X67226D1*
Y87151D2*
X66206Y87638D1*
Y86957D1*
X66205Y88584D2*
Y87951D1*
X67226D1*
X66691D2*
Y88340D1*
M02*
