G04 DipTrace 2.4.0.2*
%INBottom.gbr*%
%MOMM*%
%ADD13C,0.381*%
%ADD17C,1.524*%
%ADD18R,1.524X1.524*%
%ADD25R,1.778X1.778*%
%ADD26C,1.778*%
%ADD27C,1.524*%
%ADD28C,1.778*%
%ADD29R,3.0X1.0*%
%ADD30C,5.08*%
%ADD31O,5.0X8.0*%
%ADD32C,1.271*%
%ADD34R,5.0X5.0*%
%ADD35C,1.5*%
%ADD36O,2.0X1.0*%
%ADD37C,3.0*%
%ADD38R,1.27X1.27*%
%ADD44R,1.6X1.6*%
%ADD45C,1.6*%
%ADD46C,0.635*%
%FSLAX53Y53*%
G04*
G71*
G90*
G75*
G01*
%LNBottom*%
%LPD*%
X82349Y39800D2*
D13*
X80507Y37959D1*
X57172D1*
X56410Y38720D1*
Y82345D1*
X37042Y41387D2*
X34971D1*
Y38847D1*
X37042D1*
Y43928D2*
X39114D1*
Y47502D1*
X39033Y47583D1*
X37042Y33768D2*
X39114D1*
Y31228D1*
X37042D1*
X52410Y26379D2*
Y15805D1*
X53172Y15043D1*
X55597D1*
X57652Y17099D1*
X20591Y27213D2*
Y22133D1*
X37042Y36307D2*
X34745D1*
X33673Y37379D1*
X24077D1*
X23315Y38141D1*
Y69379D1*
X21871D1*
X20550Y68058D1*
X37042Y28688D2*
X47428D1*
X52917Y74378D2*
Y47710D1*
X23315Y69379D2*
X24077D1*
Y92430D1*
X37042Y38847D2*
X39114D1*
Y36307D1*
X37042D1*
Y31228D2*
X34844D1*
X20591Y22133D2*
Y20267D1*
X20590Y20266D1*
Y17050D1*
X101927Y89146D2*
Y62175D1*
X20350Y47738D2*
Y50922D1*
X20360Y50931D1*
Y52820D1*
X66697Y51421D2*
X67713Y52437D1*
Y65962D1*
X66252Y67422D1*
X77317Y49960D2*
Y51421D1*
X76194D1*
X101721Y48957D2*
Y45953D1*
X102147Y45528D1*
X101927Y62175D2*
Y55826D1*
X101721Y55620D1*
Y48957D1*
X104467Y62196D2*
Y89285D1*
X103717Y90035D1*
X110675Y62196D2*
Y13519D1*
X109913Y12757D1*
X79774D1*
X75432Y17099D1*
X93212Y44306D2*
Y19639D1*
X112343Y26820D2*
Y42406D1*
X67210Y29359D2*
X52283D1*
X51521Y28597D1*
Y15043D1*
X52283Y14281D1*
X64995D1*
X67812Y17099D1*
X29180Y54400D2*
X25855Y57725D1*
Y93958D1*
X20322Y99490D1*
X64792Y58850D2*
X63205Y57263D1*
Y49488D1*
X81608Y109650D2*
Y91436D1*
X61807Y82345D2*
X65300Y78853D1*
Y76312D1*
X126837Y65566D2*
Y60960D1*
X127281Y60517D1*
Y55017D1*
X96986Y92192D2*
X94319D1*
Y81392D1*
X103036Y29325D2*
Y42406D1*
X66321Y27709D2*
X61682D1*
X55112Y21139D1*
Y19639D1*
X77317Y27709D2*
X66321D1*
X63205Y49488D2*
Y42682D1*
X66321Y39566D1*
X81015Y59554D2*
X82031D1*
Y50278D1*
X82349Y49960D1*
X80873Y83399D2*
X81850Y82422D1*
Y62399D1*
X81015Y61565D1*
Y59554D1*
X81608Y91436D2*
Y90230D1*
X80873Y89495D1*
Y83399D1*
X94319Y81392D2*
Y71125D1*
X94498Y70947D1*
X50949Y89151D2*
X49963Y88164D1*
Y14281D1*
X50725Y13519D1*
X66773D1*
X70352Y17099D1*
X80498Y21988D2*
Y28930D1*
X103372Y19639D2*
Y22509D1*
X102147Y23734D1*
Y44306D1*
X100911Y90162D2*
Y61365D1*
X100832Y61286D1*
Y19639D1*
X98293Y75424D2*
Y19639D1*
X95752D2*
Y78187D1*
X98435Y80869D1*
Y82651D1*
Y85162D1*
X96098Y87500D1*
X53875Y83297D2*
Y95314D1*
X96986Y111847D2*
Y94093D1*
X83647Y111847D2*
Y81459D1*
X83258Y81070D1*
X78206Y37069D2*
X75847D1*
X34248Y69518D2*
Y83737D1*
X61491Y40455D2*
Y69518D1*
X75847Y37069D2*
X61491D1*
X72285Y39800D2*
X69237D1*
X68475Y40562D1*
Y105396D1*
X67713Y106157D1*
X59331D1*
X58569Y106920D1*
Y107999D1*
X60156D1*
X62760Y110603D1*
X107119Y35875D2*
Y32447D1*
X72285Y30830D2*
X85022D1*
X72285Y44184D2*
Y49960D1*
X103579Y44306D2*
Y69914D1*
X89626Y75424D2*
Y67422D1*
X87127Y44184D2*
Y39546D1*
X70253Y75424D2*
Y106348D1*
X69491Y107110D1*
X60220D1*
X72285Y49960D2*
X70253Y51992D1*
Y75424D1*
X99324Y23391D2*
Y84960D1*
X87127Y47166D2*
Y111974D1*
X86365Y112736D1*
X25311D1*
X24549Y111974D1*
Y105332D1*
X25430Y104450D1*
X26960D1*
X50852Y82149D2*
Y42406D1*
X30169Y82149D2*
X26920Y85398D1*
Y103130D1*
X36800Y54400D2*
X33359Y57840D1*
Y104697D1*
X34058Y105396D1*
X61045D1*
X61807Y104633D1*
Y92505D1*
X33359Y104697D2*
X31880D1*
X30737Y105840D1*
X26890D1*
X57680Y110603D2*
X59051Y111974D1*
X71269D1*
X72031Y111212D1*
Y81329D1*
X74825Y78535D1*
X71162Y41261D2*
X73745Y43844D1*
Y62224D1*
Y62986D1*
X72349D1*
X72031Y62668D1*
Y62438D1*
X74507Y89151D2*
X76158Y87500D1*
Y63748D1*
X76920Y62986D1*
Y60570D1*
X76158Y63748D2*
X75269D1*
X73745Y62224D1*
X79984Y90039D2*
Y82173D1*
X80834Y81323D1*
Y70153D1*
X80961D1*
X60602Y39736D2*
Y59390D1*
X58571Y61422D1*
X80961Y70153D2*
Y65141D1*
X58571Y61422D2*
X59587Y62438D1*
Y65898D1*
X77174Y71423D2*
Y94087D1*
X79050Y33315D2*
X52600D1*
X51838Y34077D1*
Y92200D1*
X46870D1*
X83809Y63445D2*
Y55627D1*
X85587Y53849D1*
Y51890D1*
Y35875D1*
X84825Y35113D1*
X82685D1*
X78953Y98030D2*
Y58954D1*
X77682Y57684D1*
X59713Y41261D2*
Y53961D1*
X89546Y25617D2*
Y28930D1*
X85620Y58665D2*
Y65332D1*
X121889Y52817D2*
X132165D1*
X132927Y53579D1*
Y86611D1*
X107119Y57903D2*
Y68496D1*
X107881Y69258D1*
X118761D1*
X119523Y70020D1*
Y81024D1*
X80540Y54937D2*
Y44530D1*
X83809Y41261D1*
Y36116D1*
X89626D2*
Y30830D1*
X83809Y36116D2*
X56093D1*
X96641Y24306D2*
Y76312D1*
X69364Y44237D2*
Y84288D1*
X75396Y96203D2*
Y90039D1*
X54594Y96203D2*
X46498D1*
X45736Y95441D1*
Y71817D1*
X47392Y70162D1*
Y30521D1*
X46630Y29759D1*
X34745D1*
X33673Y28688D1*
X27517D1*
X39922Y86611D2*
Y35601D1*
X39160Y34839D1*
X34491D1*
X30879Y31228D1*
X27517D1*
X109786Y33336D2*
Y64614D1*
X110548Y65376D1*
X113871D1*
X58825Y32299D2*
X85911D1*
X24966Y88320D2*
Y38847D1*
X27517D1*
X31251Y78408D2*
Y42149D1*
X30489Y41387D1*
X27517D1*
X34209Y43928D2*
Y48004D1*
X38871Y52666D1*
Y81133D1*
X34820Y101078D2*
X41700D1*
X43478Y99300D1*
X44345D1*
X46631Y101586D1*
X55648D1*
X56410Y102348D1*
Y104004D1*
X66252Y57262D2*
Y63805D1*
X65175Y64883D1*
X56410Y92505D2*
Y100824D1*
X55648Y101586D1*
X65300Y73772D2*
X59585Y79487D1*
Y89330D1*
X56410Y92505D1*
X65175Y64883D2*
X64540Y65517D1*
Y68503D1*
X65300Y69263D1*
Y73772D1*
X84698Y41514D2*
Y53072D1*
X71142Y79297D2*
Y67668D1*
X84698Y53072D2*
Y53643D1*
X84381Y53961D1*
X83682D1*
X82920Y54722D1*
Y66787D1*
X84463Y34224D2*
X54568D1*
X53806Y34986D1*
Y72815D1*
X23060Y70268D2*
Y84250D1*
X20163D1*
X49165Y91309D2*
X50949D1*
X46377Y99338D2*
X48980D1*
Y99340D1*
X121291Y40712D2*
X124743Y37260D1*
X137926D1*
X29180Y59843D2*
Y69323D1*
X123517Y78484D2*
Y63661D1*
X120402Y60546D1*
Y32942D1*
X121164Y32180D1*
X137926D1*
X29180Y74109D2*
Y76308D1*
X20550Y57770D2*
Y59911D1*
Y59912D1*
Y62978D1*
X141183Y100443D2*
Y73500D1*
X139880D1*
X20550Y62978D2*
X17142Y66385D1*
Y91541D1*
X89626Y48373D2*
Y55992D1*
X64666Y50377D2*
Y47583D1*
X22171Y56471D2*
Y44033D1*
X20750Y42611D1*
X15364Y98131D2*
Y42758D1*
X20750Y37373D1*
Y32293D2*
X17125D1*
X22061Y83361D2*
Y74808D1*
X20550Y73296D1*
X94740Y68692D2*
X93848Y67800D1*
Y57014D1*
X65797Y102983D2*
Y94093D1*
X91404Y48067D2*
Y86933D1*
X90076Y88261D1*
X90515Y76439D2*
Y22021D1*
X88132Y19639D1*
X94740Y21099D2*
Y66793D1*
X104579Y53707D2*
X104706Y53579D1*
Y18432D1*
X103372Y17099D1*
X125295Y59184D2*
Y92320D1*
X124534Y93082D1*
X91547D1*
X90076Y91610D1*
X117745Y90421D2*
X118634Y89531D1*
Y71544D1*
X106992D1*
X106230Y70782D1*
Y15043D1*
X105468Y14281D1*
X99055D1*
X98293Y15043D1*
Y17099D1*
X109786Y14721D2*
Y31225D1*
X95209Y82741D2*
Y91293D1*
X96641Y15610D2*
X92161D1*
X90672Y17099D1*
X95209Y91293D2*
Y91051D1*
X104706D1*
X105468Y90289D1*
Y16372D1*
X104706Y15610D1*
X99943D1*
X79306Y21988D2*
Y29057D1*
X80068Y29819D1*
X87572D1*
X88334Y30581D1*
Y48150D1*
X87889Y48595D1*
Y77676D1*
X88778Y78565D1*
X88132Y14408D2*
Y17099D1*
X122628Y88060D2*
Y68370D1*
X109659D1*
X108897Y67608D1*
Y14281D1*
X108135Y13519D1*
X86354D1*
X85592Y14281D1*
Y17099D1*
X118334Y65892D2*
Y44923D1*
X113233Y39822D1*
Y27963D1*
X119380Y21815D1*
Y12884D1*
X117297D1*
X40811Y31257D2*
Y100188D1*
X53299Y27395D2*
Y18913D1*
X55112Y17099D1*
D46*
X39033Y47583D3*
X52410Y26379D3*
X24077Y92430D3*
X47428Y28688D3*
X52917Y47710D3*
Y74378D3*
X34844Y31228D3*
X102147Y45528D3*
X101927Y62175D3*
Y89146D3*
X66697Y51421D3*
X76194D3*
X101721Y48957D3*
X103717Y90035D3*
X104467Y62196D3*
X110675D3*
X93212Y44306D3*
X112343Y42406D3*
Y26820D3*
X67210Y29359D3*
X66321Y27709D3*
Y39566D3*
X81608Y91436D3*
X64792Y58850D3*
X81015Y59554D3*
X77317Y27709D3*
X96986Y92192D3*
X103036Y42406D3*
Y29325D3*
X81608Y109650D3*
X127281Y55017D3*
X126837Y65566D3*
X63205Y49488D3*
X94498Y70947D3*
X80873Y83399D3*
X94319Y81392D3*
X50949Y89151D3*
X80498Y28930D3*
Y21988D3*
X102147Y44306D3*
X100911Y90162D3*
X100832Y61286D3*
X98293Y75424D3*
X96098Y87500D3*
X98435Y82651D3*
X53875Y95314D3*
Y83297D3*
X96986Y94093D3*
Y111847D3*
X83258Y81070D3*
X83647Y111847D3*
X75847Y37069D3*
X34248Y83737D3*
Y69518D3*
X78206Y37069D3*
X61491Y69518D3*
Y40455D3*
Y37069D3*
X107119Y32447D3*
Y35875D3*
X85022Y30830D3*
X72285D3*
X103579Y69914D3*
X89626Y67422D3*
Y75424D3*
X70253D3*
X72285Y44184D3*
X87127D3*
X103579Y44306D3*
X60220Y107110D3*
X99324Y84960D3*
Y23391D3*
X50852Y42406D3*
Y82149D3*
X30169D3*
X72031Y62438D3*
X71162Y41261D3*
X76920Y60570D3*
X74507Y89151D3*
X80961Y65141D3*
X59587Y65898D3*
X79984Y90039D3*
X80961Y70153D3*
X58571Y61422D3*
X60602Y39736D3*
X77174Y94087D3*
Y71423D3*
X46870Y92200D3*
X79050Y33315D3*
X85587Y51890D3*
X82685Y35113D3*
X83809Y63445D3*
X77682Y57684D3*
X78953Y98030D3*
X59713Y53961D3*
X89546Y28930D3*
Y25617D3*
X59713Y41261D3*
X85620Y65332D3*
X132927Y86611D3*
X85620Y58665D3*
X121889Y52817D3*
X119523Y81024D3*
X107119Y57903D3*
X56093Y36116D3*
X89626Y30830D3*
Y36116D3*
X80540Y54937D3*
X83809Y36116D3*
X96641Y76312D3*
Y24306D3*
X69364Y84288D3*
Y44237D3*
X75396Y90039D3*
Y96203D3*
X54594D3*
X39922Y86611D3*
X113871Y65376D3*
X109786Y33336D3*
X85911Y32299D3*
X58825D3*
X24966Y88320D3*
X31251Y78408D3*
X38871Y81133D3*
X34209Y43928D3*
X56410Y104004D3*
X65175Y64883D3*
X84698Y53072D3*
Y41514D3*
X71142Y67668D3*
Y79297D3*
X82920Y66787D3*
X53806Y72815D3*
X84463Y34224D3*
X23060Y70268D3*
X50949Y91309D3*
X49165D3*
X48980Y99340D3*
X46377Y99338D3*
X121291Y40712D3*
X29180Y59843D3*
X123517Y78484D3*
X29180Y74109D3*
X17142Y91541D3*
X141183Y100443D3*
X89626Y55992D3*
Y48373D3*
X64666Y47583D3*
Y50377D3*
X22171Y56471D3*
X15364Y98131D3*
X17125Y32293D3*
X22061Y83361D3*
X93848Y57014D3*
X94740Y68692D3*
X65797Y102983D3*
Y94093D3*
X90076Y88261D3*
X91404Y48067D3*
X90515Y76439D3*
X94740Y66793D3*
Y21099D3*
X104579Y53707D3*
X90076Y91610D3*
X125295Y59184D3*
X118634Y71544D3*
X117745Y90421D3*
X109786Y31225D3*
Y14721D3*
X96641Y15610D3*
X99943D3*
X95209Y91293D3*
Y82741D3*
X88778Y78565D3*
X79306Y21988D3*
X88132Y14408D3*
X122628Y68370D3*
Y88060D3*
X117297Y12884D3*
X118334Y65892D3*
X113233Y39822D3*
X40811Y100188D3*
Y31257D3*
X53299Y27395D3*
D17*
X65300Y76312D3*
D18*
Y73772D3*
D17*
X74825Y81075D3*
D18*
Y78535D3*
D25*
X72285Y49960D3*
D26*
Y39800D3*
D25*
X77317D3*
D26*
Y49960D3*
D25*
X56410Y82345D3*
D26*
Y92505D3*
D25*
X66252Y67422D3*
D26*
Y57262D3*
D25*
X82349Y49960D3*
D26*
Y39800D3*
D25*
X61807Y92505D3*
D26*
Y82345D3*
D27*
X103372Y19639D3*
X100832D3*
X98293D3*
X95752D3*
X93212D3*
X90672D3*
X88132D3*
X85592D3*
X83052D3*
X80513D3*
X77972D3*
X75432D3*
X72892D3*
X70352D3*
X67812D3*
X65272D3*
X62732D3*
X60192D3*
X57652D3*
X55112D3*
Y17099D3*
X57652D3*
X60192D3*
X62732D3*
X65272D3*
X67812D3*
X70352D3*
X72892D3*
X75432D3*
X77972D3*
X80513D3*
X83052D3*
X85592D3*
X88132D3*
X90672D3*
X93212D3*
X95752D3*
X98293D3*
X100832D3*
X103372D3*
D28*
X34820Y103617D3*
Y101077D3*
X44027Y103935D3*
Y101395D3*
D29*
X37042Y26147D3*
Y28688D3*
Y31228D3*
Y33767D3*
Y36307D3*
Y38847D3*
Y41387D3*
Y43928D3*
X27517D3*
Y41387D3*
Y38847D3*
Y36307D3*
Y33767D3*
Y31228D3*
Y28688D3*
Y26147D3*
D30*
X113805Y109968D3*
X43900Y60900D3*
X43855Y109332D3*
X114100Y60900D3*
D31*
X114160Y17730D3*
X44310Y17790D3*
D34*
X139880Y73500D3*
Y51116D3*
D35*
X137767Y42340D3*
X137926Y37260D3*
Y32180D3*
X137768Y27100D3*
Y22020D3*
Y16781D3*
X20322Y79170D3*
X20163Y84250D3*
Y89330D3*
X20322Y94410D3*
Y99490D3*
Y104729D3*
X20350Y47738D3*
X20360Y52820D3*
X20550Y57770D3*
Y62978D3*
Y68058D3*
Y73296D3*
X20590Y17050D3*
X20591Y22133D3*
Y27213D3*
X20750Y32293D3*
Y37373D3*
Y42611D3*
G36*
X26140Y106340D2*
X25890Y106090D1*
Y105590D1*
X26140Y105340D1*
X27640D1*
X27890Y105590D1*
Y106090D1*
X27640Y106340D1*
X26140D1*
X25890Y106090D1*
Y105590D1*
X26140Y105340D1*
X27640D1*
X27890Y105590D1*
Y106090D1*
X27640Y106340D1*
X26140D1*
X25890Y106090D1*
Y105590D1*
X26140Y105340D1*
X27640D1*
X27890Y105590D1*
Y106090D1*
X27640Y106340D1*
X26140D1*
G37*
D36*
X26960Y104450D3*
X26920Y103130D3*
D37*
X29180Y54400D3*
X36800D3*
X29180Y69323D3*
X36800Y72815D3*
X29180Y76308D3*
D32*
X87127Y39546D3*
D38*
Y47166D3*
D44*
X62760Y110603D3*
D45*
X60220D3*
X57680D3*
M02*
