G04 DipTrace 2.4.0.2*
%INBottomSilk.gbr*%
%MOMM*%
%ADD10C,0.254*%
%ADD16C,0.5*%
%FSLAX53Y53*%
G04*
G71*
G90*
G75*
G01*
%LNBotSilk*%
%LPD*%
X26640Y81070D2*
D10*
X39023D1*
Y51860D1*
X26640D1*
Y81070D1*
X27275Y69322D2*
D16*
X27280Y69455D1*
X27294Y69587D1*
X27317Y69718D1*
X27349Y69847D1*
X27390Y69973D1*
X27440Y70096D1*
X27498Y70216D1*
X27565Y70331D1*
X27639Y70441D1*
X27721Y70546D1*
X27810Y70645D1*
X27906Y70737D1*
X28007Y70822D1*
X28115Y70901D1*
X28228Y70971D1*
X28345Y71033D1*
X28467Y71088D1*
X28592Y71133D1*
X28719Y71170D1*
X28849Y71197D1*
X28981Y71216D1*
X29114Y71225D1*
X29247D1*
X29379Y71216D1*
X29511Y71197D1*
X29641Y71170D1*
X29769Y71133D1*
X29894Y71088D1*
X30015Y71033D1*
X30133Y70971D1*
X30246Y70901D1*
X30353Y70822D1*
X30455Y70737D1*
X30551Y70645D1*
X30640Y70546D1*
X30721Y70441D1*
X30796Y70331D1*
X30862Y70216D1*
X30921Y70096D1*
X30970Y69973D1*
X31012Y69847D1*
X31044Y69718D1*
X31067Y69587D1*
X31081Y69455D1*
X31085Y69322D1*
X31081Y69189D1*
X31067Y69057D1*
X31044Y68926D1*
X31012Y68797D1*
X30970Y68670D1*
X30921Y68547D1*
X30862Y68428D1*
X30796Y68313D1*
X30721Y68202D1*
X30640Y68098D1*
X30551Y67999D1*
X30455Y67906D1*
X30353Y67821D1*
X30246Y67743D1*
X30133Y67672D1*
X30015Y67610D1*
X29894Y67556D1*
X29769Y67510D1*
X29641Y67474D1*
X29511Y67446D1*
X29379Y67428D1*
X29247Y67418D1*
X29114D1*
X28981Y67428D1*
X28849Y67446D1*
X28719Y67474D1*
X28592Y67510D1*
X28467Y67556D1*
X28345Y67610D1*
X28228Y67672D1*
X28115Y67743D1*
X28007Y67821D1*
X27906Y67906D1*
X27810Y67999D1*
X27721Y68098D1*
X27639Y68202D1*
X27565Y68313D1*
X27498Y68428D1*
X27440Y68547D1*
X27390Y68670D1*
X27349Y68797D1*
X27317Y68926D1*
X27294Y69057D1*
X27280Y69189D1*
X27275Y69322D1*
X34895Y72815D2*
X34900Y72948D1*
X34914Y73080D1*
X34937Y73211D1*
X34969Y73340D1*
X35010Y73467D1*
X35060Y73590D1*
X35118Y73709D1*
X35185Y73824D1*
X35259Y73935D1*
X35341Y74039D1*
X35430Y74138D1*
X35526Y74231D1*
X35628Y74316D1*
X35735Y74394D1*
X35848Y74465D1*
X35965Y74527D1*
X36087Y74581D1*
X36212Y74627D1*
X36340Y74663D1*
X36470Y74691D1*
X36601Y74709D1*
X36734Y74719D1*
X36867D1*
X37000Y74709D1*
X37131Y74691D1*
X37261Y74663D1*
X37389Y74627D1*
X37514Y74581D1*
X37636Y74527D1*
X37753Y74465D1*
X37866Y74394D1*
X37973Y74316D1*
X38075Y74231D1*
X38171Y74138D1*
X38260Y74039D1*
X38342Y73935D1*
X38416Y73824D1*
X38483Y73709D1*
X38541Y73590D1*
X38591Y73467D1*
X38632Y73340D1*
X38664Y73211D1*
X38687Y73080D1*
X38701Y72948D1*
X38705Y72815D1*
X38701Y72682D1*
X38687Y72550D1*
X38664Y72419D1*
X38632Y72290D1*
X38591Y72164D1*
X38541Y72041D1*
X38483Y71921D1*
X38416Y71806D1*
X38342Y71696D1*
X38260Y71591D1*
X38171Y71492D1*
X38075Y71400D1*
X37973Y71314D1*
X37866Y71236D1*
X37753Y71166D1*
X37636Y71104D1*
X37514Y71049D1*
X37389Y71004D1*
X37261Y70967D1*
X37131Y70940D1*
X37000Y70921D1*
X36867Y70912D1*
X36734D1*
X36601Y70921D1*
X36470Y70940D1*
X36340Y70967D1*
X36212Y71004D1*
X36087Y71049D1*
X35965Y71104D1*
X35848Y71166D1*
X35735Y71236D1*
X35628Y71314D1*
X35526Y71400D1*
X35430Y71492D1*
X35341Y71591D1*
X35259Y71696D1*
X35185Y71806D1*
X35118Y71921D1*
X35060Y72041D1*
X35010Y72164D1*
X34969Y72290D1*
X34937Y72419D1*
X34914Y72550D1*
X34900Y72682D1*
X34895Y72815D1*
X27275Y76307D2*
X27280Y76440D1*
X27294Y76573D1*
X27317Y76704D1*
X27349Y76833D1*
X27390Y76959D1*
X27440Y77083D1*
X27498Y77202D1*
X27565Y77317D1*
X27639Y77428D1*
X27721Y77532D1*
X27810Y77631D1*
X27906Y77724D1*
X28007Y77809D1*
X28115Y77887D1*
X28228Y77958D1*
X28345Y78020D1*
X28467Y78074D1*
X28592Y78120D1*
X28719Y78157D1*
X28849Y78184D1*
X28981Y78203D1*
X29114Y78212D1*
X29247D1*
X29379Y78203D1*
X29511Y78184D1*
X29641Y78157D1*
X29769Y78120D1*
X29894Y78074D1*
X30015Y78020D1*
X30133Y77958D1*
X30246Y77887D1*
X30353Y77809D1*
X30455Y77724D1*
X30551Y77631D1*
X30640Y77532D1*
X30721Y77428D1*
X30796Y77317D1*
X30862Y77202D1*
X30921Y77083D1*
X30970Y76959D1*
X31012Y76833D1*
X31044Y76704D1*
X31067Y76573D1*
X31081Y76440D1*
X31085Y76307D1*
X31081Y76174D1*
X31067Y76042D1*
X31044Y75911D1*
X31012Y75782D1*
X30970Y75655D1*
X30921Y75532D1*
X30862Y75413D1*
X30796Y75297D1*
X30721Y75187D1*
X30640Y75082D1*
X30551Y74983D1*
X30455Y74891D1*
X30353Y74805D1*
X30246Y74727D1*
X30133Y74657D1*
X30015Y74594D1*
X29894Y74540D1*
X29769Y74495D1*
X29641Y74458D1*
X29511Y74430D1*
X29379Y74412D1*
X29247Y74403D1*
X29114D1*
X28981Y74412D1*
X28849Y74430D1*
X28719Y74458D1*
X28592Y74495D1*
X28467Y74540D1*
X28345Y74594D1*
X28228Y74657D1*
X28115Y74727D1*
X28007Y74805D1*
X27906Y74891D1*
X27810Y74983D1*
X27721Y75082D1*
X27639Y75187D1*
X27565Y75297D1*
X27498Y75413D1*
X27440Y75532D1*
X27390Y75655D1*
X27349Y75782D1*
X27317Y75911D1*
X27294Y76042D1*
X27280Y76174D1*
X27275Y76307D1*
X34895Y54400D2*
X34900Y54533D1*
X34914Y54665D1*
X34937Y54796D1*
X34969Y54925D1*
X35010Y55052D1*
X35060Y55175D1*
X35118Y55295D1*
X35185Y55410D1*
X35259Y55520D1*
X35341Y55625D1*
X35430Y55724D1*
X35526Y55816D1*
X35628Y55902D1*
X35735Y55980D1*
X35848Y56050D1*
X35965Y56113D1*
X36087Y56167D1*
X36212Y56212D1*
X36340Y56249D1*
X36470Y56277D1*
X36601Y56295D1*
X36734Y56305D1*
X36867D1*
X37000Y56295D1*
X37131Y56277D1*
X37261Y56249D1*
X37389Y56212D1*
X37514Y56167D1*
X37636Y56113D1*
X37753Y56050D1*
X37866Y55980D1*
X37973Y55902D1*
X38075Y55816D1*
X38171Y55724D1*
X38260Y55625D1*
X38342Y55520D1*
X38416Y55410D1*
X38483Y55295D1*
X38541Y55175D1*
X38591Y55052D1*
X38632Y54925D1*
X38664Y54796D1*
X38687Y54665D1*
X38701Y54533D1*
X38705Y54400D1*
X38701Y54267D1*
X38687Y54135D1*
X38664Y54004D1*
X38632Y53874D1*
X38591Y53748D1*
X38541Y53625D1*
X38483Y53505D1*
X38416Y53390D1*
X38342Y53280D1*
X38260Y53175D1*
X38171Y53076D1*
X38075Y52983D1*
X37973Y52898D1*
X37866Y52820D1*
X37753Y52749D1*
X37636Y52687D1*
X37514Y52633D1*
X37389Y52587D1*
X37261Y52550D1*
X37131Y52523D1*
X37000Y52504D1*
X36867Y52495D1*
X36734D1*
X36601Y52504D1*
X36470Y52523D1*
X36340Y52550D1*
X36212Y52587D1*
X36087Y52633D1*
X35965Y52687D1*
X35848Y52749D1*
X35735Y52820D1*
X35628Y52898D1*
X35526Y52983D1*
X35430Y53076D1*
X35341Y53175D1*
X35259Y53280D1*
X35185Y53390D1*
X35118Y53505D1*
X35060Y53625D1*
X35010Y53748D1*
X34969Y53874D1*
X34937Y54004D1*
X34914Y54135D1*
X34900Y54267D1*
X34895Y54400D1*
X27275D2*
X27280Y54533D1*
X27294Y54665D1*
X27317Y54796D1*
X27349Y54925D1*
X27390Y55052D1*
X27440Y55175D1*
X27498Y55295D1*
X27565Y55410D1*
X27639Y55520D1*
X27721Y55625D1*
X27810Y55724D1*
X27906Y55816D1*
X28007Y55902D1*
X28115Y55980D1*
X28228Y56050D1*
X28345Y56113D1*
X28467Y56167D1*
X28592Y56212D1*
X28719Y56249D1*
X28849Y56277D1*
X28981Y56295D1*
X29114Y56305D1*
X29247D1*
X29379Y56295D1*
X29511Y56277D1*
X29641Y56249D1*
X29769Y56212D1*
X29894Y56167D1*
X30015Y56113D1*
X30133Y56050D1*
X30246Y55980D1*
X30353Y55902D1*
X30455Y55816D1*
X30551Y55724D1*
X30640Y55625D1*
X30721Y55520D1*
X30796Y55410D1*
X30862Y55295D1*
X30921Y55175D1*
X30970Y55052D1*
X31012Y54925D1*
X31044Y54796D1*
X31067Y54665D1*
X31081Y54533D1*
X31085Y54400D1*
X31081Y54267D1*
X31067Y54135D1*
X31044Y54004D1*
X31012Y53874D1*
X30970Y53748D1*
X30921Y53625D1*
X30862Y53505D1*
X30796Y53390D1*
X30721Y53280D1*
X30640Y53175D1*
X30551Y53076D1*
X30455Y52983D1*
X30353Y52898D1*
X30246Y52820D1*
X30133Y52749D1*
X30015Y52687D1*
X29894Y52633D1*
X29769Y52587D1*
X29641Y52550D1*
X29511Y52523D1*
X29379Y52504D1*
X29247Y52495D1*
X29114D1*
X28981Y52504D1*
X28849Y52523D1*
X28719Y52550D1*
X28592Y52587D1*
X28467Y52633D1*
X28345Y52687D1*
X28228Y52749D1*
X28115Y52820D1*
X28007Y52898D1*
X27906Y52983D1*
X27810Y53076D1*
X27721Y53175D1*
X27639Y53280D1*
X27565Y53390D1*
X27498Y53505D1*
X27440Y53625D1*
X27390Y53748D1*
X27349Y53874D1*
X27317Y54004D1*
X27294Y54135D1*
X27280Y54267D1*
X27275Y54400D1*
M02*
