G04 DipTrace 2.4.0.2*
%INBottomDimension.gbr*%
%MOMM*%
%ADD11C,0.076*%
%ADD12C,0.064*%
%FSLAX53Y53*%
G04*
G71*
G90*
G75*
G01*
%LNBotDimension*%
%LPD*%
X137767Y42340D2*
D12*
X133072D1*
X137926Y37260D2*
X133072D1*
X133405Y39800D2*
Y41673D1*
G36*
Y42340D2*
X133539Y41673D1*
X133272D1*
X133405Y42340D1*
G37*
Y39800D2*
D12*
Y37926D1*
G36*
Y37260D2*
X133272Y37926D1*
X133539D1*
X133405Y37260D1*
G37*
X144758Y45006D2*
D12*
X147391D1*
X144758Y14527D2*
X147391D1*
X147058Y29767D2*
Y44339D1*
G36*
Y45006D2*
X147191Y44339D1*
X146925D1*
X147058Y45006D1*
G37*
Y29767D2*
D12*
Y15194D1*
G36*
Y14527D2*
X146925Y15194D1*
X147191D1*
X147058Y14527D1*
G37*
X20322Y79170D2*
D12*
X25518D1*
X20163Y84250D2*
X25518D1*
X25184Y81710D2*
Y79837D1*
G36*
Y79170D2*
X25051Y79837D1*
X25318D1*
X25184Y79170D1*
G37*
Y81710D2*
D12*
Y83584D1*
G36*
Y84250D2*
X25318Y83584D1*
X25051D1*
X25184Y84250D1*
G37*
X13832Y76504D2*
D12*
X11199D1*
X13832Y106983D2*
X11199D1*
X11532Y91743D2*
Y77171D1*
G36*
Y76504D2*
X11399Y77171D1*
X11665D1*
X11532Y76504D1*
G37*
Y91743D2*
D12*
Y106316D1*
G36*
Y106983D2*
X11665Y106316D1*
X11399D1*
X11532Y106983D1*
G37*
X20350Y47738D2*
D12*
X25945D1*
X20360Y52820D2*
X25945D1*
X25612Y50279D2*
Y48404D1*
G36*
Y47738D2*
X25479Y48404D1*
X25745D1*
X25612Y47738D1*
G37*
Y50279D2*
D12*
Y52153D1*
G36*
Y52820D2*
X25745Y52153D1*
X25479D1*
X25612Y52820D1*
G37*
X14259Y45071D2*
D12*
X11626D1*
X14259Y75550D2*
X11626D1*
X11959Y60311D2*
Y45738D1*
G36*
Y45071D2*
X11826Y45738D1*
X12093D1*
X11959Y45071D1*
G37*
Y60311D2*
D12*
Y74883D1*
G36*
Y75550D2*
X12093Y74883D1*
X11826D1*
X11959Y75550D1*
G37*
X20590Y17050D2*
D12*
X25945D1*
X20591Y22133D2*
X25945D1*
X25612Y19591D2*
Y17717D1*
G36*
Y17050D2*
X25479Y17717D1*
X25745D1*
X25612Y17050D1*
G37*
Y19591D2*
D12*
Y21466D1*
G36*
Y22133D2*
X25745Y21466D1*
X25479D1*
X25612Y22133D1*
G37*
X14259Y14387D2*
D12*
X11626D1*
X14259Y44865D2*
X11626D1*
X11959Y29626D2*
Y15053D1*
G36*
Y14387D2*
X11826Y15053D1*
X12093D1*
X11959Y14387D1*
G37*
Y29626D2*
D12*
Y44199D1*
G36*
Y44865D2*
X12093Y44199D1*
X11826D1*
X11959Y44865D1*
G37*
X132741Y40318D2*
D11*
Y40560D1*
X132959Y40584D1*
X132935Y40560D1*
X132910Y40487D1*
Y40415D1*
X132935Y40342D1*
X132983Y40293D1*
X133056Y40269D1*
X133104D1*
X133177Y40293D1*
X133226Y40342D1*
X133250Y40415D1*
Y40487D1*
X133226Y40560D1*
X133202Y40584D1*
X133153Y40609D1*
X133202Y40088D2*
X133226Y40112D1*
X133250Y40088D1*
X133226Y40063D1*
X133202Y40088D1*
X132741Y39760D2*
X132765Y39833D1*
X132838Y39882D1*
X132959Y39906D1*
X133032D1*
X133153Y39882D1*
X133226Y39833D1*
X133250Y39760D1*
Y39712D1*
X133226Y39639D1*
X133153Y39591D1*
X133032Y39566D1*
X132959D1*
X132838Y39591D1*
X132765Y39639D1*
X132741Y39712D1*
Y39760D1*
X132838Y39591D2*
X133153Y39882D1*
X132741Y39288D2*
X132765Y39360D1*
X132813Y39385D1*
X132862D1*
X132910Y39360D1*
X132935Y39312D1*
X132959Y39215D1*
X132983Y39142D1*
X133032Y39093D1*
X133080Y39069D1*
X133153D1*
X133202Y39093D1*
X133226Y39117D1*
X133250Y39190D1*
Y39288D1*
X133226Y39360D1*
X133202Y39385D1*
X133153Y39409D1*
X133080D1*
X133032Y39385D1*
X132983Y39336D1*
X132959Y39263D1*
X132935Y39166D1*
X132910Y39117D1*
X132862Y39093D1*
X132813D1*
X132765Y39117D1*
X132741Y39190D1*
Y39288D1*
X147723Y28746D2*
Y29013D1*
X147529Y28867D1*
Y28940D1*
X147505Y28988D1*
X147480Y29013D1*
X147407Y29037D1*
X147359D1*
X147286Y29013D1*
X147237Y28964D1*
X147213Y28891D1*
Y28818D1*
X147237Y28746D1*
X147262Y28722D1*
X147310Y28697D1*
X147723Y29340D2*
X147699Y29267D1*
X147626Y29218D1*
X147505Y29194D1*
X147432D1*
X147310Y29218D1*
X147237Y29267D1*
X147213Y29340D1*
Y29388D1*
X147237Y29461D1*
X147310Y29510D1*
X147432Y29534D1*
X147505D1*
X147626Y29510D1*
X147699Y29461D1*
X147723Y29388D1*
Y29340D1*
X147626Y29510D2*
X147310Y29218D1*
X147262Y29715D2*
X147237Y29691D1*
X147213Y29715D1*
X147237Y29740D1*
X147262Y29715D1*
X147213Y30140D2*
X147723D1*
X147383Y29897D1*
Y30261D1*
X147723Y30540D2*
X147699Y30467D1*
X147651Y30442D1*
X147602D1*
X147553Y30467D1*
X147529Y30515D1*
X147505Y30613D1*
X147480Y30686D1*
X147432Y30734D1*
X147383Y30758D1*
X147310D1*
X147262Y30734D1*
X147237Y30710D1*
X147213Y30637D1*
Y30540D1*
X147237Y30467D1*
X147262Y30442D1*
X147310Y30418D1*
X147383D1*
X147432Y30442D1*
X147480Y30491D1*
X147505Y30564D1*
X147529Y30661D1*
X147553Y30710D1*
X147602Y30734D1*
X147651D1*
X147699Y30710D1*
X147723Y30637D1*
Y30540D1*
X25849Y81192D2*
Y80950D1*
X25631Y80926D1*
X25655Y80950D1*
X25680Y81023D1*
Y81095D1*
X25655Y81168D1*
X25607Y81217D1*
X25534Y81241D1*
X25486D1*
X25413Y81217D1*
X25364Y81168D1*
X25340Y81095D1*
Y81023D1*
X25364Y80950D1*
X25388Y80926D1*
X25437Y80901D1*
X25388Y81422D2*
X25364Y81398D1*
X25340Y81422D1*
X25364Y81447D1*
X25388Y81422D1*
X25849Y81750D2*
X25825Y81677D1*
X25752Y81628D1*
X25631Y81604D1*
X25558D1*
X25437Y81628D1*
X25364Y81677D1*
X25340Y81750D1*
Y81798D1*
X25364Y81871D1*
X25437Y81919D1*
X25558Y81944D1*
X25631D1*
X25752Y81919D1*
X25825Y81871D1*
X25849Y81798D1*
Y81750D1*
X25752Y81919D2*
X25437Y81628D1*
X25849Y82222D2*
X25825Y82150D1*
X25777Y82125D1*
X25728D1*
X25680Y82150D1*
X25655Y82198D1*
X25631Y82295D1*
X25607Y82368D1*
X25558Y82417D1*
X25510Y82441D1*
X25437D1*
X25388Y82417D1*
X25364Y82393D1*
X25340Y82320D1*
Y82222D1*
X25364Y82150D1*
X25388Y82125D1*
X25437Y82101D1*
X25510D1*
X25558Y82125D1*
X25607Y82174D1*
X25631Y82247D1*
X25655Y82344D1*
X25680Y82393D1*
X25728Y82417D1*
X25777D1*
X25825Y82393D1*
X25849Y82320D1*
Y82222D1*
X10867Y92764D2*
Y92497D1*
X11061Y92643D1*
Y92570D1*
X11085Y92522D1*
X11110Y92497D1*
X11183Y92473D1*
X11231D1*
X11304Y92497D1*
X11353Y92546D1*
X11377Y92619D1*
Y92692D1*
X11353Y92764D1*
X11328Y92788D1*
X11280Y92813D1*
X10867Y92170D2*
X10891Y92243D1*
X10964Y92292D1*
X11085Y92316D1*
X11158D1*
X11280Y92292D1*
X11353Y92243D1*
X11377Y92170D1*
Y92122D1*
X11353Y92049D1*
X11280Y92000D1*
X11158Y91976D1*
X11085D1*
X10964Y92000D1*
X10891Y92049D1*
X10867Y92122D1*
Y92170D1*
X10964Y92000D2*
X11280Y92292D1*
X11328Y91795D2*
X11353Y91819D1*
X11377Y91795D1*
X11353Y91770D1*
X11328Y91795D1*
X11377Y91370D2*
X10867D1*
X11207Y91613D1*
Y91249D1*
X10867Y90970D2*
X10891Y91043D1*
X10939Y91068D1*
X10988D1*
X11037Y91043D1*
X11061Y90995D1*
X11085Y90897D1*
X11110Y90824D1*
X11158Y90776D1*
X11207Y90752D1*
X11280D1*
X11328Y90776D1*
X11353Y90800D1*
X11377Y90873D1*
Y90970D1*
X11353Y91043D1*
X11328Y91068D1*
X11280Y91092D1*
X11207D1*
X11158Y91068D1*
X11110Y91019D1*
X11085Y90946D1*
X11061Y90849D1*
X11037Y90800D1*
X10988Y90776D1*
X10939D1*
X10891Y90800D1*
X10867Y90873D1*
Y90970D1*
X26277Y49761D2*
Y49519D1*
X26059Y49494D1*
X26083Y49519D1*
X26107Y49592D1*
Y49664D1*
X26083Y49737D1*
X26034Y49786D1*
X25961Y49810D1*
X25913D1*
X25840Y49786D1*
X25791Y49737D1*
X25767Y49664D1*
Y49592D1*
X25791Y49519D1*
X25816Y49494D1*
X25864Y49470D1*
X25816Y49991D2*
X25791Y49967D1*
X25767Y49991D1*
X25791Y50016D1*
X25816Y49991D1*
X26277Y50319D2*
X26253Y50246D1*
X26180Y50197D1*
X26059Y50173D1*
X25986D1*
X25864Y50197D1*
X25791Y50246D1*
X25767Y50319D1*
Y50367D1*
X25791Y50440D1*
X25864Y50488D1*
X25986Y50513D1*
X26059D1*
X26180Y50488D1*
X26253Y50440D1*
X26277Y50367D1*
Y50319D1*
X26180Y50488D2*
X25864Y50197D1*
X26277Y50791D2*
X26253Y50719D1*
X26205Y50694D1*
X26156D1*
X26107Y50719D1*
X26083Y50767D1*
X26059Y50864D1*
X26034Y50937D1*
X25986Y50985D1*
X25937Y51009D1*
X25864D1*
X25816Y50985D1*
X25791Y50961D1*
X25767Y50888D1*
Y50791D1*
X25791Y50719D1*
X25816Y50694D1*
X25864Y50670D1*
X25937D1*
X25986Y50694D1*
X26034Y50743D1*
X26059Y50815D1*
X26083Y50912D1*
X26107Y50961D1*
X26156Y50985D1*
X26205D1*
X26253Y50961D1*
X26277Y50888D1*
Y50791D1*
X11295Y61332D2*
Y61065D1*
X11489Y61210D1*
Y61137D1*
X11513Y61089D1*
X11537Y61065D1*
X11610Y61040D1*
X11658D1*
X11731Y61065D1*
X11780Y61113D1*
X11804Y61186D1*
Y61259D1*
X11780Y61332D1*
X11756Y61356D1*
X11707Y61381D1*
X11295Y60737D2*
X11319Y60810D1*
X11392Y60859D1*
X11513Y60883D1*
X11586D1*
X11707Y60859D1*
X11780Y60810D1*
X11804Y60737D1*
Y60689D1*
X11780Y60616D1*
X11707Y60568D1*
X11586Y60543D1*
X11513D1*
X11392Y60568D1*
X11319Y60616D1*
X11295Y60689D1*
Y60737D1*
X11392Y60568D2*
X11707Y60859D1*
X11756Y60362D2*
X11780Y60386D1*
X11804Y60362D1*
X11780Y60337D1*
X11756Y60362D1*
X11804Y59937D2*
X11295D1*
X11634Y60181D1*
Y59816D1*
X11295Y59538D2*
X11319Y59610D1*
X11367Y59635D1*
X11416D1*
X11464Y59610D1*
X11489Y59562D1*
X11513Y59465D1*
X11537Y59392D1*
X11586Y59344D1*
X11634Y59320D1*
X11707D1*
X11756Y59344D1*
X11780Y59368D1*
X11804Y59441D1*
Y59538D1*
X11780Y59610D1*
X11756Y59635D1*
X11707Y59659D1*
X11634D1*
X11586Y59635D1*
X11537Y59586D1*
X11513Y59514D1*
X11489Y59417D1*
X11464Y59368D1*
X11416Y59344D1*
X11367D1*
X11319Y59368D1*
X11295Y59441D1*
Y59538D1*
X26277Y19074D2*
Y18831D1*
X26059Y18807D1*
X26083Y18831D1*
X26107Y18904D1*
Y18977D1*
X26083Y19050D1*
X26034Y19098D1*
X25961Y19123D1*
X25913D1*
X25840Y19098D1*
X25791Y19050D1*
X25767Y18977D1*
Y18904D1*
X25791Y18831D1*
X25816Y18807D1*
X25864Y18782D1*
X25816Y19304D2*
X25791Y19279D1*
X25767Y19304D1*
X25791Y19328D1*
X25816Y19304D1*
X26277Y19631D2*
X26253Y19558D1*
X26180Y19509D1*
X26059Y19485D1*
X25986D1*
X25864Y19509D1*
X25791Y19558D1*
X25767Y19631D1*
Y19679D1*
X25791Y19752D1*
X25864Y19801D1*
X25986Y19825D1*
X26059D1*
X26180Y19801D1*
X26253Y19752D1*
X26277Y19679D1*
Y19631D1*
X26180Y19801D2*
X25864Y19509D1*
X26277Y20104D2*
X26253Y20031D1*
X26205Y20006D1*
X26156D1*
X26107Y20031D1*
X26083Y20079D1*
X26059Y20177D1*
X26034Y20250D1*
X25986Y20298D1*
X25937Y20322D1*
X25864D1*
X25816Y20298D1*
X25791Y20274D1*
X25767Y20201D1*
Y20104D1*
X25791Y20031D1*
X25816Y20006D1*
X25864Y19982D1*
X25937D1*
X25986Y20006D1*
X26034Y20055D1*
X26059Y20128D1*
X26083Y20225D1*
X26107Y20274D1*
X26156Y20298D1*
X26205D1*
X26253Y20274D1*
X26277Y20201D1*
Y20104D1*
X11295Y30647D2*
Y30380D1*
X11489Y30525D1*
Y30452D1*
X11513Y30404D1*
X11537Y30380D1*
X11610Y30355D1*
X11658D1*
X11731Y30380D1*
X11780Y30428D1*
X11804Y30501D1*
Y30574D1*
X11780Y30647D1*
X11756Y30671D1*
X11707Y30696D1*
X11295Y30052D2*
X11319Y30125D1*
X11392Y30174D1*
X11513Y30198D1*
X11586D1*
X11707Y30174D1*
X11780Y30125D1*
X11804Y30052D1*
Y30004D1*
X11780Y29931D1*
X11707Y29883D1*
X11586Y29858D1*
X11513D1*
X11392Y29883D1*
X11319Y29931D1*
X11295Y30004D1*
Y30052D1*
X11392Y29883D2*
X11707Y30174D1*
X11756Y29677D2*
X11780Y29701D1*
X11804Y29677D1*
X11780Y29652D1*
X11756Y29677D1*
X11804Y29252D2*
X11295D1*
X11634Y29496D1*
Y29131D1*
X11295Y28853D2*
X11319Y28925D1*
X11367Y28950D1*
X11416D1*
X11464Y28925D1*
X11489Y28877D1*
X11513Y28780D1*
X11537Y28707D1*
X11586Y28659D1*
X11634Y28635D1*
X11707D1*
X11756Y28659D1*
X11780Y28683D1*
X11804Y28756D1*
Y28853D1*
X11780Y28925D1*
X11756Y28950D1*
X11707Y28974D1*
X11634D1*
X11586Y28950D1*
X11537Y28901D1*
X11513Y28829D1*
X11489Y28732D1*
X11464Y28683D1*
X11416Y28659D1*
X11367D1*
X11319Y28683D1*
X11295Y28756D1*
Y28853D1*
M02*
