M48
METRIC,0000.00
T01C0.305
T02C0.5
T03C0.559
T04C0.889
T05C0.899
T06C0.9
T07C0.965
T08C1.0
T09C1.168
T10C1.3
T11C3.0
T12C3.175
%
T01
X+003903Y+004758
X+003421Y+004393
X+003484Y+003123
X+004081Y+003126
X+004743Y+002869
X+005241Y+002638
X+005330Y+002739
X+005882Y+003230
X+005609Y+003612
X+006149Y+003707
X+006060Y+003974
X+006149Y+004046
X+005971Y+004126
X+006632Y+003957
X+007116Y+004126
X+007228Y+004418
X+006936Y+004424
X+006467Y+004758
X+006320Y+004949
X+006467Y+005038
X+006670Y+005142
X+005971Y+005396
X+006479Y+005885
X+006517Y+006488
X+005959Y+006590
X+006149Y+006952
X+005381Y+007281
X+005292Y+007438
X+005085Y+008215
X+005388Y+008330
X+005095Y+008915
X+005095Y+009131
X+004917Y+009131
X+004687Y+009220
X+004638Y+009934
X+004898Y+009934
X+005388Y+009531
X+005459Y+009620
X+005641Y+010400
X+006022Y+010711
X+006580Y+010298
X+006580Y+009409
X+007540Y+009620
X+007717Y+009409
X+007895Y+009803
X+008161Y+009144
X+007998Y+009004
X+007540Y+009004
X+007451Y+008915
X+006936Y+008429
X+007114Y+007930
X+007025Y+007542
X+007114Y+006767
X+007203Y+006244
X+007692Y+006057
X+007768Y+005768
X+008102Y+005955
X+008054Y+005494
X+008470Y+005307
X+008559Y+005189
X+008963Y+004837
X+009140Y+004807
X+009321Y+004431
X+008713Y+004418
X+008470Y+004151
X+008381Y+003612
X+008268Y+003511
X+008446Y+003422
X+008591Y+003230
X+008502Y+003083
X+008963Y+003083
X+008955Y+002893
X+008955Y+002562
X+009474Y+002110
X+009664Y+002431
X+009932Y+002339
X+010304Y+002932
X+010712Y+003245
X+010979Y+003334
X+010979Y+003122
X+011234Y+002682
X+010712Y+003588
X+011323Y+003982
X+011234Y+004241
X+010358Y+004431
X+010215Y+004431
X+010215Y+004553
X+010304Y+004241
X+010172Y+004896
X+010458Y+005371
X+010712Y+005790
X+010447Y+006220
X+010193Y+006218
X+010083Y+006129
X+009385Y+005701
X+008963Y+005599
X+008562Y+005866
X+008381Y+006345
X+008562Y+006533
X+008292Y+006679
X+008096Y+006514
X+008096Y+007015
X+007717Y+007142
X+008326Y+008107
X+008087Y+008340
X+008878Y+007856
X+009051Y+007644
X+008963Y+007542
X+009450Y+007095
X+009474Y+006869
X+009474Y+006679
X+008963Y+006742
X+009664Y+007631
X+009829Y+007542
X+009432Y+008139
X+009521Y+008274
X+009843Y+008265
X+009932Y+008496
X+009610Y+008750
X+009521Y+009129
X+009699Y+009219
X+009699Y+009409
X+010091Y+009016
X+010193Y+008915
X+010372Y+009004
X+009008Y+009161
X+009008Y+008826
X+010358Y+006991
X+011067Y+006220
X+011387Y+006538
X+011833Y+006589
X+012263Y+006837
X+012684Y+006557
X+012530Y+005918
X+012728Y+005502
X+012189Y+005282
X+012129Y+004071
X+011730Y+001288
X+010979Y+001472
X+009994Y+001561
X+009664Y+001561
X+008813Y+001441
X+008050Y+002199
X+007931Y+002199
X+007732Y+002771
X+008050Y+002893
X+007905Y+003331
X+007821Y+003707
X+007585Y+003707
X+007228Y+003083
X+006721Y+002936
X+006632Y+002771
X+005085Y+004241
X+005292Y+004771
X+005857Y+006142
X+007619Y+005142
X+008963Y+003612
X+011863Y+007154
X+012352Y+007848
X+011952Y+008102
X+012263Y+008806
X+011775Y+009042
X+013293Y+008661
X+014118Y+010044
X+009699Y+011185
X+008365Y+011185
X+008161Y+010965
X+004081Y+010019
X+003992Y+008661
X+003887Y+008113
X+003425Y+008374
X+003017Y+008215
X+003125Y+007841
X+002918Y+007411
X+003425Y+006952
X+002918Y+005984
X+002217Y+005647
X+002306Y+007027
X+002206Y+008336
X+002497Y+008832
X+002408Y+009243
X+001714Y+009154
X+001536Y+009813
X+001713Y+003229
T02
X+003704Y+002615
X+003704Y+002869
X+003704Y+003123
X+003704Y+003377
X+003704Y+003631
X+003704Y+003885
X+003704Y+004139
X+003704Y+004393
X+002752Y+004393
X+002752Y+004139
X+002752Y+003885
X+002752Y+003631
X+002752Y+003377
X+002752Y+003123
X+002752Y+002869
X+002752Y+002615
X+002059Y+002721
X+002059Y+002213
X+002059Y+001705
X+002075Y+003229
X+002075Y+003737
X+002075Y+004261
X+002035Y+004774
X+002036Y+005282
X+002055Y+005777
X+002055Y+006298
X+002055Y+006806
X+002055Y+007330
X+002032Y+007917
X+002016Y+008425
X+002016Y+008933
X+002032Y+009441
X+002032Y+009949
X+002032Y+010473
X+002696Y+010445
X+002692Y+010313
X+002689Y+010584
X+013777Y+004234
X+013793Y+003726
X+013793Y+003218
X+013777Y+002710
X+013777Y+002202
X+013777Y+001678
T03
X+008713Y+003955
X+008713Y+004717
T04
X+003482Y+010362
X+003482Y+010108
X+004403Y+010139
X+004403Y+010394
T05
X+010337Y+001964
X+010083Y+001964
X+010083Y+001710
X+010337Y+001710
X+009829Y+001710
X+009575Y+001710
X+009321Y+001710
X+009067Y+001710
X+008813Y+001710
X+008559Y+001710
X+008305Y+001710
X+008051Y+001710
X+007797Y+001710
X+007543Y+001710
X+007289Y+001710
X+007035Y+001710
X+006781Y+001710
X+006527Y+001710
X+006273Y+001710
X+006019Y+001710
X+006019Y+001964
X+006273Y+001964
X+006527Y+001964
X+006781Y+001964
X+007035Y+001964
X+007289Y+001964
X+007543Y+001964
X+007797Y+001964
X+008051Y+001964
X+008305Y+001964
X+008559Y+001964
X+008813Y+001964
X+009067Y+001964
X+009321Y+001964
X+009575Y+001964
X+009829Y+001964
X+005765Y+001964
X+005511Y+001964
X+005511Y+001710
X+005765Y+001710
T06
X+013988Y+007323G85X+013988Y+007377
X+013988Y+005084G85X+013988Y+005139
T07
X+006530Y+007631
X+006530Y+007377
X+007483Y+007853
X+007483Y+008108
T08
X+006276Y+011060
X+006022Y+011060
X+005768Y+011060
T09
X+007228Y+004996
X+007732Y+004996
X+008235Y+004996
X+008235Y+003980
X+007732Y+003980
X+007228Y+003980
X+006625Y+005726
X+006625Y+006742
X+006181Y+008234
X+005641Y+008234
X+005641Y+009250
X+006181Y+009250
T10
X+002918Y+005440
X+003680Y+005440
X+002918Y+006932
X+002918Y+007631
X+003680Y+007281
T11
X+011416Y+001623G85X+011416Y+001923
X+004431Y+001629G85X+004431Y+001929
T12
X+011380Y+010997
X+011410Y+006090
X+004390Y+006090
X+004385Y+010933
T00
M30
