G04 DipTrace 2.4.0.2*
%INTop.gbr*%
%MOMM*%
%ADD13C,0.381*%
%ADD17C,1.524*%
%ADD18R,1.524X1.524*%
%ADD19R,2.35X2.65*%
%ADD20R,1.35X2.15*%
%ADD21R,2.55X3.75*%
%ADD22R,2.15X1.35*%
%ADD23R,3.75X2.55*%
%ADD24R,0.9X0.9*%
%ADD25R,1.778X1.778*%
%ADD26C,1.778*%
%ADD27C,1.524*%
%ADD28C,1.778*%
%ADD29R,3.0X1.0*%
%ADD30C,5.08*%
%ADD31O,5.0X8.0*%
%ADD32C,1.271*%
%ADD33R,1.78X1.52*%
%ADD34R,5.0X5.0*%
%ADD35C,1.5*%
%ADD36O,2.0X1.0*%
%ADD37C,3.0*%
%ADD38R,1.27X1.27*%
%ADD39R,1.5X1.3*%
%ADD40R,1.3X1.5*%
%ADD41R,1.8X3.2*%
%ADD42R,1.6X1.8*%
%ADD43R,1.8X1.6*%
%ADD44R,1.6X1.6*%
%ADD45C,1.6*%
%ADD46C,0.635*%
%FSLAX53Y53*%
G04*
G71*
G90*
G75*
G01*
%LNTop*%
%LPD*%
X82349Y39800D2*
D13*
X85111D1*
X86064Y40752D1*
X93340D1*
X94101Y41514D1*
Y45655D1*
X94864Y46417D1*
X105782D1*
X106544Y45655D1*
Y39696D1*
X107306Y38934D1*
X127697D1*
X139880Y51116D1*
X20591Y27213D2*
X23567Y30189D1*
X31861D1*
X32899Y31228D1*
X34844D1*
X47428Y28688D2*
Y29733D1*
X48190Y30495D1*
X51965D1*
Y29164D1*
X24077Y92430D2*
X31058D1*
X31820Y93192D1*
Y95149D1*
X37042Y41387D2*
X39114D1*
X39876Y42149D1*
Y43166D1*
X39114Y43928D1*
X37042D1*
Y33768D2*
X39114D1*
X39876Y34530D1*
Y35545D1*
X39114Y36307D1*
X37042D1*
X52917Y74378D2*
Y75836D1*
X37042Y28688D2*
X39114D1*
Y26147D1*
X37042D1*
X34844Y31228D2*
Y28688D1*
X37042D1*
X52440Y46251D2*
X51678D1*
Y47583D1*
X39033D1*
X52917Y47710D2*
X52757D1*
X52440Y47392D1*
Y46251D1*
X51965Y29164D2*
Y26823D1*
X52410Y26379D1*
X102147Y45528D2*
X96175D1*
Y44306D1*
X20350Y47738D2*
X22171D1*
X23033Y48599D1*
X66697D1*
Y51421D1*
X77317Y49960D2*
X78932Y48345D1*
X83351D1*
X84268Y49262D1*
X99918D1*
X100223Y48957D1*
X101721D1*
X101927Y62175D2*
X101038Y63064D1*
Y64276D1*
X102130Y65367D1*
Y66788D1*
X101927Y89146D2*
X110820D1*
X115650Y93976D1*
X119148D1*
X119910Y94739D1*
Y96633D1*
X96175Y44306D2*
X97497D1*
Y35876D1*
X96734Y35114D1*
X83574D1*
Y30830D1*
X66697Y51421D2*
X76194D1*
X103717Y90035D2*
Y92192D1*
X104468Y62196D2*
X110675D1*
X93212Y44306D2*
X91651D1*
X112343Y42406D2*
X114271D1*
X67210Y29359D2*
X69750Y26820D1*
X112343D1*
X113242Y80123D2*
X115995D1*
X116744Y79373D1*
X126075D1*
X126837Y78611D1*
Y76312D1*
X103036Y29325D2*
X97367D1*
X29180Y54400D2*
Y50250D1*
X29942Y49488D1*
X63205D1*
X96098Y81392D2*
X94319D1*
X66321Y39566D2*
Y27709D1*
X120280Y42600D2*
Y45755D1*
X121042Y46517D1*
X126519D1*
X127281Y47279D1*
Y55017D1*
X81608Y91436D2*
X82359Y92188D1*
X83715D1*
X81015Y59554D2*
X75315D1*
X75225Y59644D1*
X71967D1*
X87207Y109650D2*
X81608D1*
X96986Y92192D2*
X99590D1*
X103036Y42406D2*
X100699D1*
X126837Y76312D2*
Y66788D1*
X126520Y66470D1*
X126837Y66153D1*
Y65566D1*
X77317Y27709D2*
Y39800D1*
X97367Y29325D2*
Y27709D1*
X88098D1*
X77317D1*
X74825Y81075D2*
X70727D1*
X69457Y82345D1*
X61807D1*
X80873Y83399D2*
X77149D1*
X74825Y81075D1*
X91652Y79487D2*
X90302D1*
X89540Y80249D1*
Y82637D1*
X88778Y83399D1*
X80873D1*
X94319Y81392D2*
Y80249D1*
X93558Y79487D1*
X91652D1*
X121180Y66470D2*
Y63313D1*
X120480Y62613D1*
Y57100D1*
X106257Y68692D2*
X107579D1*
Y64773D1*
X108341Y64011D1*
X118460D1*
X119223Y64773D1*
Y66470D1*
X121180D1*
X94498Y70947D2*
X105495D1*
X106257Y70185D1*
Y68692D1*
X92605Y70439D2*
Y70756D1*
X94308D1*
X94498Y70947D1*
X88098Y28930D2*
Y27709D1*
X127281Y55017D2*
X128818D1*
X129580Y55779D1*
Y57100D1*
X71967Y59644D2*
X65586D1*
X64792Y58850D1*
X81608Y109650D2*
X80447D1*
X80129Y109968D1*
X77682D1*
X124990Y66470D2*
X126520D1*
X121180D2*
X124990D1*
X50949Y89151D2*
X68665D1*
X69427Y89913D1*
Y92192D1*
X80498Y28930D2*
X79050D1*
X103372Y19639D2*
X101023Y21988D1*
X80498D1*
X102147Y44306D2*
X100699D1*
X100832Y61286D2*
X102689D1*
X103451Y62048D1*
Y66031D1*
X104213Y66793D1*
X106257D1*
X100911Y90162D2*
Y95781D1*
X100149Y96543D1*
X81508D1*
X80746Y95781D1*
Y92188D1*
X79270D1*
X111342Y80123D2*
Y78611D1*
X105940D1*
Y80123D1*
X104431D1*
Y76186D1*
X103669Y75424D1*
X98293D1*
X96098Y87500D2*
Y95019D1*
X95335Y95781D1*
X83715D1*
Y94087D1*
X98435Y82651D2*
X101685D1*
X102447Y81889D1*
Y80123D1*
X53875Y95314D2*
X77992D1*
X79984Y97305D1*
X102955D1*
X103717Y96543D1*
Y94093D1*
X53875Y83297D2*
X49425D1*
X96986Y111847D2*
X83647D1*
X96986Y94093D2*
X99590D1*
X83258Y81070D2*
X81810D1*
X83647Y111847D2*
X82288Y113206D1*
X28799D1*
X20322Y104729D1*
X75847Y37069D2*
Y28930D1*
X74526D1*
X34248Y69518D2*
X61491D1*
X34248Y83737D2*
X32582D1*
X31820Y84499D1*
Y86100D1*
X78206Y37069D2*
X95413D1*
X96175Y37831D1*
Y42406D1*
X61491Y37069D2*
Y40455D1*
Y69518D2*
X74515D1*
X74642Y69645D1*
X79587D1*
X62760Y110603D2*
X65853D1*
X66488Y109968D1*
X72285D1*
X85022Y30830D2*
X88098D1*
X107119Y35875D2*
X105223Y37771D1*
Y42406D1*
X72285Y39800D2*
Y30830D1*
X88098D2*
Y32447D1*
X107119D1*
X60220Y110603D2*
Y107110D1*
X89626Y67422D2*
X92605D1*
X70253Y75424D2*
X89626D1*
X87127Y44184D2*
X72285D1*
X103579Y44306D2*
X105223D1*
X60220Y107110D2*
X58701Y105591D1*
X44027D1*
Y103935D1*
X92605Y67422D2*
X93851D1*
Y69152D1*
X94614Y69914D1*
X103579D1*
X99324Y23391D2*
X32346D1*
X29589Y26147D1*
X27517D1*
X99324Y84960D2*
X99451Y85087D1*
X120862D1*
Y83615D1*
X50852Y42406D2*
X91651D1*
X30169Y82149D2*
X50852D1*
X57680Y110603D2*
X55838Y112444D1*
X35582D1*
X34820Y111682D1*
Y103617D1*
X72031Y62438D2*
X53679D1*
X52917Y63200D1*
Y66788D1*
X71162Y41261D2*
X64347D1*
Y38371D1*
X76920Y60570D2*
X98245D1*
X99007Y61332D1*
Y67925D1*
X99769Y68688D1*
X102130D1*
X74507Y89151D2*
Y92188D1*
X59587Y65898D2*
X69019D1*
X69899Y66779D1*
X75236D1*
X76874Y65141D1*
X80961D1*
X79984Y90039D2*
X77047D1*
X76285Y90801D1*
Y94087D1*
X74507D1*
X80961Y70153D2*
X82893Y72085D1*
X107579D1*
X108341Y71323D1*
Y67550D1*
X109103Y66788D1*
X111020D1*
X58571Y61422D2*
X51139D1*
X50377Y62184D1*
Y66788D1*
X60602Y39736D2*
Y33736D1*
X61365Y32974D1*
X64347D1*
X77174Y94087D2*
X79270D1*
X77174Y71423D2*
X56220D1*
X55458Y72185D1*
Y75836D1*
X46870Y92200D2*
X35120D1*
X34360Y92961D1*
Y95149D1*
X79050Y30830D2*
Y33315D1*
X52440Y55300D2*
Y59644D1*
X53202Y60406D1*
X65706D1*
X66841Y61540D1*
X81904D1*
X83809Y63445D1*
X85587Y51890D2*
X119618D1*
X120380Y51128D1*
Y48600D1*
X82685Y35113D2*
X82252Y34681D1*
Y28930D1*
X83574D1*
X83809Y63445D2*
Y69962D1*
X85620D1*
X89546Y25617D2*
X60475D1*
X59713Y26379D1*
Y41261D1*
Y53961D2*
X76920D1*
X77682Y54722D1*
Y56310D1*
X89546Y28930D2*
X92622D1*
X59713Y41261D2*
X52727D1*
X51965Y40498D1*
Y38212D1*
X77682Y56310D2*
Y57684D1*
X78953Y98030D2*
X78990Y98067D1*
X118010D1*
Y96633D1*
X122280Y48600D2*
Y50933D1*
X121889Y51324D1*
Y52817D1*
X85620Y65332D2*
Y67105D1*
X132927Y86611D2*
Y88060D1*
X85620Y58665D2*
X76032D1*
X72667Y55300D1*
X54980D1*
X121889Y52817D2*
X103690D1*
X102928Y53579D1*
Y55017D1*
X103690Y55779D1*
X107246D1*
X108008Y56541D1*
Y58792D1*
X85747D1*
X85620Y58665D1*
X119523Y81024D2*
X132610D1*
Y82980D1*
X80540Y54937D2*
Y56310D1*
X56093Y36116D2*
Y38212D1*
X54505D1*
X89626Y30830D2*
X92622D1*
X83809Y36116D2*
X89626D1*
X80540Y56310D2*
Y57776D1*
X86445D1*
X86572Y57903D1*
X107119D1*
X96641Y76312D2*
X102907D1*
X103669Y77075D1*
Y80682D1*
X104431Y81444D1*
X107840D1*
Y80123D1*
X96641Y24306D2*
X50187D1*
X49425Y25068D1*
Y29164D1*
X69364Y84288D2*
X96657D1*
X97419Y83526D1*
Y80885D1*
X98181Y80123D1*
X100547D1*
X69364Y44237D2*
X49900D1*
Y46251D1*
X75396Y90039D2*
Y89341D1*
X75714Y89024D1*
X84275D1*
X85036Y89785D1*
Y93648D1*
X85798Y94410D1*
X88478D1*
X54594Y96203D2*
X75396D1*
X39922Y86611D2*
X113903D1*
X116824Y89531D1*
X119783D1*
X120545Y90293D1*
Y92505D1*
X113871Y65376D2*
Y67930D1*
X114633Y68692D1*
X116735D1*
X85911Y32299D2*
X86948Y33336D1*
X109786D1*
X58825Y32299D2*
X32567D1*
X31099Y33768D1*
X27517D1*
Y36307D2*
X29589D1*
X30660Y37379D1*
X42191D1*
X48107Y43295D1*
X88333D1*
X92217Y47179D1*
X108985D1*
X109747Y46417D1*
Y44756D1*
X24966Y88320D2*
X45521D1*
X46469Y87373D1*
X90965D1*
Y93330D1*
X91727Y94093D1*
X93240D1*
X31251Y78408D2*
X68729D1*
X70253Y76884D1*
X78965D1*
X79727Y77646D1*
Y81529D1*
X80489Y82291D1*
X83857D1*
X84438Y81710D1*
X86572D1*
X38871Y81133D2*
X54002D1*
X54764Y81895D1*
Y85087D1*
X55526Y85849D1*
X118005D1*
Y88060D1*
X34209Y43928D2*
X27517D1*
X56410Y104004D2*
X91843D1*
X92605Y104766D1*
Y109650D1*
X65300Y73772D2*
X121237D1*
Y76312D1*
X65175Y64883D2*
X71967D1*
X84698Y53072D2*
X97873D1*
X98635Y53834D1*
Y55992D1*
X84698Y41514D2*
X75288D1*
X74526Y40752D1*
Y30830D1*
X71142Y79297D2*
X30042D1*
X29280Y80059D1*
Y86100D1*
X79587Y66787D2*
X77257D1*
X76377Y67668D1*
X71142D1*
X82920Y66787D2*
X79587D1*
X53806Y72815D2*
X36800D1*
X84463Y34224D2*
X129652D1*
X137767Y42340D1*
X20322Y79170D2*
X27517Y71975D1*
X30467D1*
X32035Y70407D1*
X78063D1*
Y72085D1*
X78825Y72847D1*
X110258D1*
X111020Y72085D1*
Y68688D1*
X23060Y70268D2*
X26592Y66736D1*
X38871D1*
X39633Y65974D1*
Y53833D1*
X40395Y53071D1*
X80540D1*
X82318Y54849D1*
X92115D1*
X93258Y55992D1*
X96735D1*
X50949Y91309D2*
X51970Y92331D1*
Y98157D1*
X52732Y98919D1*
X127965D1*
X128726Y98157D1*
Y83742D1*
X129489Y82980D1*
X130710D1*
X49165Y91309D2*
Y90092D1*
X48403Y89330D1*
X20163D1*
X48980Y99340D2*
X49321Y99681D1*
X130266D1*
X131028Y98919D1*
Y88060D1*
X46377Y99338D2*
Y98114D1*
X45505Y97242D1*
X21184D1*
X20322Y96380D1*
Y94410D1*
X29180Y59843D2*
X38109D1*
X38871Y59081D1*
Y53071D1*
X39633Y52309D1*
X82666D1*
X84953Y50024D1*
X115850D1*
X116612Y49261D1*
Y41474D1*
X117374Y40712D1*
X121291D1*
X29180Y74109D2*
X32198D1*
X35735Y77646D1*
X66633D1*
X69745Y74534D1*
X112851D1*
X116800Y78484D1*
X123517D1*
X141183Y100443D2*
X47750D1*
Y97836D1*
X46394Y96480D1*
X26683D1*
X21744Y91541D1*
X17142D1*
X89626Y55992D2*
X88478D1*
X64666Y47583D2*
X84177D1*
X84966Y48373D1*
X89626D1*
X22171Y56471D2*
Y57000D1*
X29961D1*
X31251Y55709D1*
Y51139D1*
X32013Y50377D1*
X64666D1*
X15364Y98131D2*
X44726D1*
X45488Y98893D1*
Y103808D1*
X46250Y104570D1*
X50060D1*
X17125Y32293D2*
Y90000D1*
X17777Y90652D1*
X47800D1*
Y94728D1*
X50060D1*
X22061Y83361D2*
X26132Y87431D1*
X36939D1*
X39486Y84885D1*
X49425D1*
X93848Y57014D2*
X86890D1*
Y55992D1*
X94740Y68692D2*
X97685D1*
X65797Y102983D2*
X50060D1*
X69427Y94093D2*
X65797D1*
X90076Y88261D2*
X50060D1*
Y93140D1*
X91404Y48067D2*
X113509D1*
X114271Y47305D1*
Y44306D1*
X90515Y76439D2*
X82572D1*
X81810Y77201D1*
Y79170D1*
X94740Y66793D2*
X97685D1*
X94740Y21099D2*
X54541D1*
X53779Y20337D1*
Y16305D1*
X54541Y15543D1*
X71337D1*
X72892Y17099D1*
X104579Y53707D2*
X121618D1*
X122380Y54469D1*
Y57100D1*
Y63153D1*
X123142Y63915D1*
X128309D1*
X129071Y64677D1*
Y79373D1*
X128309Y80135D1*
X118825D1*
X118062Y80897D1*
Y83615D1*
X125295Y59184D2*
Y57100D1*
X127680D1*
X90076Y91610D2*
X88478D1*
X127680Y57100D2*
Y58422D1*
X144020D1*
Y27770D1*
X140420Y24170D1*
X107457D1*
X106068Y22782D1*
Y16372D1*
X105306Y15610D1*
X102321D1*
X100832Y17099D1*
X118634Y71544D2*
X120418D1*
X121180Y70782D1*
Y68370D1*
X117745Y90421D2*
Y92505D1*
X109786Y31225D2*
X97367D1*
X109786Y14721D2*
X95752D1*
Y17099D1*
X99943Y15610D2*
X96641D1*
X95209Y91293D2*
X93240D1*
X95209Y82741D2*
X91652D1*
Y81388D1*
X96098Y79492D2*
Y77549D1*
X88778D1*
Y78565D1*
X88132Y14408D2*
X53017D1*
X52255Y15170D1*
Y21226D1*
X53017Y21988D1*
X79306D1*
X88778Y78565D2*
X88433Y78910D1*
X86572D1*
X122628Y68370D2*
X124990D1*
X122628Y88060D2*
X120805D1*
X117297Y12884D2*
X93974D1*
X93212Y13646D1*
Y17099D1*
X109747Y41956D2*
Y40584D1*
X110509Y39822D1*
X113233D1*
X118334Y65892D2*
X116735D1*
X113233Y39822D2*
X122180D1*
Y42600D1*
X40811Y100188D2*
X42018Y101395D1*
X44027D1*
X53299Y27395D2*
X55966D1*
X56728Y28157D1*
Y30495D1*
X55966Y31257D1*
X40811D1*
D46*
X39033Y47583D3*
X52410Y26379D3*
X24077Y92430D3*
X47428Y28688D3*
X52917Y47710D3*
Y74378D3*
X34844Y31228D3*
X102147Y45528D3*
X101927Y62175D3*
Y89146D3*
X66697Y51421D3*
X76194D3*
X101721Y48957D3*
X103717Y90035D3*
X104467Y62196D3*
X110675D3*
X93212Y44306D3*
X112343Y42406D3*
Y26820D3*
X67210Y29359D3*
X66321Y27709D3*
Y39566D3*
X81608Y91436D3*
X64792Y58850D3*
X81015Y59554D3*
X77317Y27709D3*
X96986Y92192D3*
X103036Y42406D3*
Y29325D3*
X81608Y109650D3*
X127281Y55017D3*
X126837Y65566D3*
X63205Y49488D3*
X94498Y70947D3*
X80873Y83399D3*
X94319Y81392D3*
X50949Y89151D3*
X80498Y28930D3*
Y21988D3*
X102147Y44306D3*
X100911Y90162D3*
X100832Y61286D3*
X98293Y75424D3*
X96098Y87500D3*
X98435Y82651D3*
X53875Y95314D3*
Y83297D3*
X96986Y94093D3*
Y111847D3*
X83258Y81070D3*
X83647Y111847D3*
X75847Y37069D3*
X34248Y83737D3*
Y69518D3*
X78206Y37069D3*
X61491Y69518D3*
Y40455D3*
Y37069D3*
X107119Y32447D3*
Y35875D3*
X85022Y30830D3*
X72285D3*
X103579Y69914D3*
X89626Y67422D3*
Y75424D3*
X70253D3*
X72285Y44184D3*
X87127D3*
X103579Y44306D3*
X60220Y107110D3*
X99324Y84960D3*
Y23391D3*
X50852Y42406D3*
Y82149D3*
X30169D3*
X72031Y62438D3*
X71162Y41261D3*
X76920Y60570D3*
X74507Y89151D3*
X80961Y65141D3*
X59587Y65898D3*
X79984Y90039D3*
X80961Y70153D3*
X58571Y61422D3*
X60602Y39736D3*
X77174Y94087D3*
Y71423D3*
X46870Y92200D3*
X79050Y33315D3*
X85587Y51890D3*
X82685Y35113D3*
X83809Y63445D3*
X77682Y57684D3*
X78953Y98030D3*
X59713Y53961D3*
X89546Y28930D3*
Y25617D3*
X59713Y41261D3*
X85620Y65332D3*
X132927Y86611D3*
X85620Y58665D3*
X121889Y52817D3*
X119523Y81024D3*
X107119Y57903D3*
X56093Y36116D3*
X89626Y30830D3*
Y36116D3*
X80540Y54937D3*
X83809Y36116D3*
X96641Y76312D3*
Y24306D3*
X69364Y84288D3*
Y44237D3*
X75396Y90039D3*
Y96203D3*
X54594D3*
X39922Y86611D3*
X113871Y65376D3*
X109786Y33336D3*
X85911Y32299D3*
X58825D3*
X24966Y88320D3*
X31251Y78408D3*
X38871Y81133D3*
X34209Y43928D3*
X56410Y104004D3*
X65175Y64883D3*
X84698Y53072D3*
Y41514D3*
X71142Y67668D3*
Y79297D3*
X82920Y66787D3*
X53806Y72815D3*
X84463Y34224D3*
X23060Y70268D3*
X50949Y91309D3*
X49165D3*
X48980Y99340D3*
X46377Y99338D3*
X121291Y40712D3*
X29180Y59843D3*
X123517Y78484D3*
X29180Y74109D3*
X17142Y91541D3*
X141183Y100443D3*
X89626Y55992D3*
Y48373D3*
X64666Y47583D3*
Y50377D3*
X22171Y56471D3*
X15364Y98131D3*
X17125Y32293D3*
X22061Y83361D3*
X93848Y57014D3*
X94740Y68692D3*
X65797Y102983D3*
Y94093D3*
X90076Y88261D3*
X91404Y48067D3*
X90515Y76439D3*
X94740Y66793D3*
Y21099D3*
X104579Y53707D3*
X90076Y91610D3*
X125295Y59184D3*
X118634Y71544D3*
X117745Y90421D3*
X109786Y31225D3*
Y14721D3*
X96641Y15610D3*
X99943D3*
X95209Y91293D3*
Y82741D3*
X88778Y78565D3*
X79306Y21988D3*
X88132Y14408D3*
X122628Y68370D3*
Y88060D3*
X117297Y12884D3*
X118334Y65892D3*
X113233Y39822D3*
X40811Y100188D3*
Y31257D3*
X53299Y27395D3*
D17*
X65300Y76312D3*
D18*
Y73772D3*
D19*
X71967Y64883D3*
Y59644D3*
D20*
X79587Y66787D3*
Y69645D3*
D21*
X64347Y32974D3*
Y38371D3*
D20*
X85620Y67105D3*
Y69962D3*
D22*
X80540Y56310D3*
X77682D3*
D23*
X72285Y109968D3*
X77682D3*
D17*
X74825Y81075D3*
D18*
Y78535D3*
D20*
X92605Y67422D3*
Y70439D3*
D23*
Y109650D3*
X87207D3*
D24*
X50060Y102983D3*
Y104570D3*
D25*
X72285Y49960D3*
D26*
Y39800D3*
D25*
X77317D3*
D26*
Y49960D3*
D25*
X56410Y82345D3*
D26*
Y92505D3*
D25*
X66252Y67422D3*
D26*
Y57262D3*
D25*
X82349Y49960D3*
D26*
Y39800D3*
D25*
X61807Y92505D3*
D26*
Y82345D3*
D24*
X50060Y93140D3*
Y94728D3*
X86890Y55993D3*
X88478D3*
X49425Y83297D3*
Y84885D3*
D27*
X103372Y19639D3*
X100832D3*
X98293D3*
X95752D3*
X93212D3*
X90672D3*
X88132D3*
X85592D3*
X83052D3*
X80513D3*
X77972D3*
X75432D3*
X72892D3*
X70352D3*
X67812D3*
X65272D3*
X62732D3*
X60192D3*
X57652D3*
X55112D3*
Y17099D3*
X57652D3*
X60192D3*
X62732D3*
X65272D3*
X67812D3*
X70352D3*
X72892D3*
X75432D3*
X77972D3*
X80513D3*
X83052D3*
X85592D3*
X88132D3*
X90672D3*
X93212D3*
X95752D3*
X98293D3*
X100832D3*
X103372D3*
D28*
X34820Y103617D3*
Y101077D3*
X44027Y103935D3*
Y101395D3*
D29*
X37042Y26147D3*
Y28688D3*
Y31228D3*
Y33767D3*
Y36307D3*
Y38847D3*
Y41387D3*
Y43928D3*
X27517D3*
Y41387D3*
Y38847D3*
Y36307D3*
Y33767D3*
Y31228D3*
Y28688D3*
Y26147D3*
D30*
X113805Y109968D3*
X43900Y60900D3*
X43855Y109332D3*
X114100Y60900D3*
D31*
X114160Y17730D3*
X44310Y17790D3*
D33*
X29280Y86100D3*
X31820D3*
X34360D3*
Y95149D3*
X31820D3*
X29280D3*
X50377Y66788D3*
X52917D3*
X55458D3*
Y75836D3*
X52917D3*
X50377D3*
X54980Y55300D3*
X52440D3*
X49900D3*
Y46251D3*
X52440D3*
X54980D3*
X54505Y38212D3*
X51965D3*
X49425D3*
Y29164D3*
X51965D3*
X54505D3*
D34*
X139880Y73500D3*
Y51116D3*
D35*
X137767Y42340D3*
X137926Y37260D3*
Y32180D3*
X137768Y27100D3*
Y22020D3*
Y16781D3*
X20322Y79170D3*
X20163Y84250D3*
Y89330D3*
X20322Y94410D3*
Y99490D3*
Y104729D3*
X20350Y47738D3*
X20360Y52820D3*
X20550Y57770D3*
Y62978D3*
Y68058D3*
Y73296D3*
X20590Y17050D3*
X20591Y22133D3*
Y27213D3*
X20750Y32293D3*
Y37373D3*
Y42611D3*
G36*
X26140Y106340D2*
X25890Y106090D1*
Y105590D1*
X26140Y105340D1*
X27640D1*
X27890Y105590D1*
Y106090D1*
X27640Y106340D1*
X26140D1*
X25890Y106090D1*
Y105590D1*
X26140Y105340D1*
X27640D1*
X27890Y105590D1*
Y106090D1*
X27640Y106340D1*
X26140D1*
X25890Y106090D1*
Y105590D1*
X26140Y105340D1*
X27640D1*
X27890Y105590D1*
Y106090D1*
X27640Y106340D1*
X26140D1*
G37*
D36*
X26960Y104450D3*
X26920Y103130D3*
D37*
X29180Y54400D3*
X36800D3*
X29180Y69323D3*
X36800Y72815D3*
X29180Y76308D3*
D32*
X87127Y39546D3*
D38*
Y47166D3*
D39*
X69427Y94093D3*
Y92192D3*
X97685Y68692D3*
Y66793D3*
X91651Y44306D3*
Y42406D3*
X74526Y28930D3*
Y30830D3*
X74507Y92188D3*
Y94087D3*
X102130Y66788D3*
Y68688D3*
X96175Y44306D3*
Y42406D3*
X79050Y28930D3*
Y30830D3*
X79270Y92188D3*
Y94087D3*
X106257Y68692D3*
Y66793D3*
X100699Y42406D3*
Y44306D3*
D40*
X119910Y96633D3*
X118010D3*
D39*
X83574Y30830D3*
Y28930D3*
D40*
X102447Y80123D3*
X100547D3*
X105940D3*
X107840D3*
X113242D3*
X111342D3*
D39*
X83715Y92188D3*
Y94087D3*
X99590Y94093D3*
Y92192D3*
D40*
X98635Y55992D3*
X96735D3*
D39*
X111020Y66788D3*
Y68688D3*
D40*
X132927Y88060D3*
X131028D3*
X132610Y82980D3*
X130710D3*
D39*
X105223Y42406D3*
Y44306D3*
X88098Y28930D3*
Y30830D3*
D41*
X121237Y76312D3*
X126837D3*
D42*
X120862Y83615D3*
X118062D3*
D43*
X88478Y94410D3*
Y91610D3*
D42*
X120545Y92505D3*
X117745D3*
D43*
X116735Y68692D3*
Y65892D3*
X109747Y44756D3*
Y41956D3*
D39*
X81810Y79170D3*
Y81070D3*
X92622Y28930D3*
Y30830D3*
D43*
X93240Y94093D3*
Y91293D3*
D42*
X118005Y88060D3*
X120805D3*
D43*
X86572Y81710D3*
Y78910D3*
D39*
X121180Y66470D3*
Y68370D3*
X114271Y44306D3*
Y42406D3*
X97367Y29325D3*
Y31225D3*
D40*
X120280Y42600D3*
X122180D3*
D39*
X91652Y79487D3*
Y81388D3*
X96098Y81392D3*
Y79492D3*
D40*
X129580Y57100D3*
X127680D3*
X120480D3*
X122380D3*
D39*
X124990Y66470D3*
Y68370D3*
D40*
X120380Y48600D3*
X122280D3*
D39*
X103717Y94093D3*
Y92192D3*
D44*
X62760Y110603D3*
D45*
X60220D3*
X57680D3*
M02*
