G04 DipTrace 2.4.0.2*
%INTopMask.gbr*%
%MOMM*%
%ADD59C,1.8*%
%ADD61R,1.8X1.8*%
%ADD63R,2.0X1.8*%
%ADD65R,1.8X2.0*%
%ADD67R,2.0X3.4*%
%ADD69R,1.5X1.7*%
%ADD71R,1.7X1.5*%
%ADD73R,1.47X1.47*%
%ADD75C,1.47*%
%ADD77C,3.2*%
%ADD79O,2.2X1.2*%
%ADD81C,1.7*%
%ADD82R,5.2X5.2*%
%ADD84R,1.98X1.72*%
%ADD86O,5.2X8.2*%
%ADD88C,5.28*%
%ADD90R,3.2X1.2*%
%ADD92C,1.978*%
%ADD94C,1.724*%
%ADD96C,1.978*%
%ADD98R,1.978X1.978*%
%ADD100R,1.1X1.1*%
%ADD102R,3.95X2.75*%
%ADD104R,2.35X1.55*%
%ADD106R,2.75X3.95*%
%ADD108R,1.55X2.35*%
%ADD110R,2.55X2.85*%
%ADD112R,1.724X1.724*%
%ADD114C,1.724*%
%FSLAX53Y53*%
G04*
G71*
G90*
G75*
G01*
%LNTopMask*%
%LPD*%
D114*
X65300Y76312D3*
D112*
Y73772D3*
D110*
X71967Y64883D3*
Y59644D3*
D108*
X79587Y66787D3*
Y69645D3*
D106*
X64347Y32974D3*
Y38371D3*
D108*
X85620Y67105D3*
Y69962D3*
D104*
X80540Y56310D3*
X77682D3*
D102*
X72285Y109968D3*
X77682D3*
D114*
X74825Y81075D3*
D112*
Y78535D3*
D108*
X92605Y67422D3*
Y70439D3*
D102*
Y109650D3*
X87207D3*
D100*
X50060Y102983D3*
Y104570D3*
D98*
X72285Y49960D3*
D96*
Y39800D3*
D98*
X77317D3*
D96*
Y49960D3*
D98*
X56410Y82345D3*
D96*
Y92505D3*
D98*
X66252Y67422D3*
D96*
Y57262D3*
D98*
X82349Y49960D3*
D96*
Y39800D3*
D98*
X61807Y92505D3*
D96*
Y82345D3*
D100*
X50060Y93140D3*
Y94728D3*
X86890Y55993D3*
X88478D3*
X49425Y83297D3*
Y84885D3*
D94*
X103372Y19639D3*
X100832D3*
X98293D3*
X95752D3*
X93212D3*
X90672D3*
X88132D3*
X85592D3*
X83052D3*
X80513D3*
X77972D3*
X75432D3*
X72892D3*
X70352D3*
X67812D3*
X65272D3*
X62732D3*
X60192D3*
X57652D3*
X55112D3*
Y17099D3*
X57652D3*
X60192D3*
X62732D3*
X65272D3*
X67812D3*
X70352D3*
X72892D3*
X75432D3*
X77972D3*
X80513D3*
X83052D3*
X85592D3*
X88132D3*
X90672D3*
X93212D3*
X95752D3*
X98293D3*
X100832D3*
X103372D3*
D92*
X34820Y103617D3*
Y101077D3*
X44027Y103935D3*
Y101395D3*
D90*
X37042Y26147D3*
Y28688D3*
Y31228D3*
Y33767D3*
Y36307D3*
Y38847D3*
Y41387D3*
Y43928D3*
X27517D3*
Y41387D3*
Y38847D3*
Y36307D3*
Y33767D3*
Y31228D3*
Y28688D3*
Y26147D3*
D88*
X113805Y109968D3*
X43900Y60900D3*
X43855Y109332D3*
X114100Y60900D3*
D86*
X114160Y17730D3*
X44310Y17790D3*
D84*
X29280Y86100D3*
X31820D3*
X34360D3*
Y95149D3*
X31820D3*
X29280D3*
X50377Y66788D3*
X52917D3*
X55458D3*
Y75836D3*
X52917D3*
X50377D3*
X54980Y55300D3*
X52440D3*
X49900D3*
Y46251D3*
X52440D3*
X54980D3*
X54505Y38212D3*
X51965D3*
X49425D3*
Y29164D3*
X51965D3*
X54505D3*
D82*
X139880Y73500D3*
Y51116D3*
D81*
X137767Y42340D3*
X137926Y37260D3*
Y32180D3*
X137768Y27100D3*
Y22020D3*
Y16781D3*
X20322Y79170D3*
X20163Y84250D3*
Y89330D3*
X20322Y94410D3*
Y99490D3*
Y104729D3*
X20350Y47738D3*
X20360Y52820D3*
X20550Y57770D3*
Y62978D3*
Y68058D3*
Y73296D3*
X20590Y17050D3*
X20591Y22133D3*
Y27213D3*
X20750Y32293D3*
Y37373D3*
Y42611D3*
G36*
X26099Y106440D2*
X25790Y106131D1*
Y105549D1*
X26099Y105240D1*
X27681D1*
X27990Y105549D1*
Y106131D1*
X27681Y106440D1*
X26099D1*
X25790Y106131D1*
Y105549D1*
X26099Y105240D1*
X27681D1*
X27990Y105549D1*
Y106131D1*
X27681Y106440D1*
X26099D1*
X25790Y106131D1*
Y105549D1*
X26099Y105240D1*
X27681D1*
X27990Y105549D1*
Y106131D1*
X27681Y106440D1*
X26099D1*
G37*
D79*
X26960Y104450D3*
X26920Y103130D3*
D77*
X29180Y54400D3*
X36800D3*
X29180Y69323D3*
X36800Y72815D3*
X29180Y76308D3*
D75*
X87127Y39546D3*
D73*
Y47166D3*
D71*
X69427Y94093D3*
Y92192D3*
X97685Y68692D3*
Y66793D3*
X91651Y44306D3*
Y42406D3*
X74526Y28930D3*
Y30830D3*
X74507Y92188D3*
Y94087D3*
X102130Y66788D3*
Y68688D3*
X96175Y44306D3*
Y42406D3*
X79050Y28930D3*
Y30830D3*
X79270Y92188D3*
Y94087D3*
X106257Y68692D3*
Y66793D3*
X100699Y42406D3*
Y44306D3*
D69*
X119910Y96633D3*
X118010D3*
D71*
X83574Y30830D3*
Y28930D3*
D69*
X102447Y80123D3*
X100547D3*
X105940D3*
X107840D3*
X113242D3*
X111342D3*
D71*
X83715Y92188D3*
Y94087D3*
X99590Y94093D3*
Y92192D3*
D69*
X98635Y55992D3*
X96735D3*
D71*
X111020Y66788D3*
Y68688D3*
D69*
X132927Y88060D3*
X131028D3*
X132610Y82980D3*
X130710D3*
D71*
X105223Y42406D3*
Y44306D3*
X88098Y28930D3*
Y30830D3*
D67*
X121237Y76312D3*
X126837D3*
D65*
X120862Y83615D3*
X118062D3*
D63*
X88478Y94410D3*
Y91610D3*
D65*
X120545Y92505D3*
X117745D3*
D63*
X116735Y68692D3*
Y65892D3*
X109747Y44756D3*
Y41956D3*
D71*
X81810Y79170D3*
Y81070D3*
X92622Y28930D3*
Y30830D3*
D63*
X93240Y94093D3*
Y91293D3*
D65*
X118005Y88060D3*
X120805D3*
D63*
X86572Y81710D3*
Y78910D3*
D71*
X121180Y66470D3*
Y68370D3*
X114271Y44306D3*
Y42406D3*
X97367Y29325D3*
Y31225D3*
D69*
X120280Y42600D3*
X122180D3*
D71*
X91652Y79487D3*
Y81388D3*
X96098Y81392D3*
Y79492D3*
D69*
X129580Y57100D3*
X127680D3*
X120480D3*
X122380D3*
D71*
X124990Y66470D3*
Y68370D3*
D69*
X120380Y48600D3*
X122280D3*
D71*
X103717Y94093D3*
Y92192D3*
D61*
X62760Y110603D3*
D59*
X60220D3*
X57680D3*
M02*
