G04 DipTrace 2.4.0.2*
%INTopPaste.gbr*%
%MOMM*%
%ADD64R,1.6X1.4*%
%ADD66R,1.4X1.6*%
%ADD68R,1.6X3.0*%
%ADD70R,1.1X1.3*%
%ADD72R,1.3X1.1*%
%ADD85R,1.58X1.32*%
%ADD101R,0.7X0.7*%
%ADD103R,3.55X2.35*%
%ADD105R,1.95X1.15*%
%ADD107R,2.35X3.55*%
%ADD109R,1.15X1.95*%
%ADD111R,2.15X2.45*%
%FSLAX53Y53*%
G04*
G71*
G90*
G75*
G01*
%LNTopPaste*%
%LPD*%
D111*
X71967Y64883D3*
Y59644D3*
D109*
X79587Y66787D3*
Y69645D3*
D107*
X64347Y32974D3*
Y38371D3*
D109*
X85620Y67105D3*
Y69962D3*
D105*
X80540Y56310D3*
X77682D3*
D103*
X72285Y109968D3*
X77682D3*
D109*
X92605Y67422D3*
Y70439D3*
D103*
Y109650D3*
X87207D3*
D101*
X50060Y102983D3*
Y104570D3*
Y93140D3*
Y94728D3*
X86890Y55993D3*
X88478D3*
X49425Y83297D3*
Y84885D3*
D85*
X29280Y86100D3*
X31820D3*
X34360D3*
Y95149D3*
X31820D3*
X29280D3*
X50377Y66788D3*
X52917D3*
X55458D3*
Y75836D3*
X52917D3*
X50377D3*
X54980Y55300D3*
X52440D3*
X49900D3*
Y46251D3*
X52440D3*
X54980D3*
X54505Y38212D3*
X51965D3*
X49425D3*
Y29164D3*
X51965D3*
X54505D3*
D72*
X69427Y94093D3*
Y92192D3*
X97685Y68692D3*
Y66793D3*
X91651Y44306D3*
Y42406D3*
X74526Y28930D3*
Y30830D3*
X74507Y92188D3*
Y94087D3*
X102130Y66788D3*
Y68688D3*
X96175Y44306D3*
Y42406D3*
X79050Y28930D3*
Y30830D3*
X79270Y92188D3*
Y94087D3*
X106257Y68692D3*
Y66793D3*
X100699Y42406D3*
Y44306D3*
D70*
X119910Y96633D3*
X118010D3*
D72*
X83574Y30830D3*
Y28930D3*
D70*
X102447Y80123D3*
X100547D3*
X105940D3*
X107840D3*
X113242D3*
X111342D3*
D72*
X83715Y92188D3*
Y94087D3*
X99590Y94093D3*
Y92192D3*
D70*
X98635Y55992D3*
X96735D3*
D72*
X111020Y66788D3*
Y68688D3*
D70*
X132927Y88060D3*
X131028D3*
X132610Y82980D3*
X130710D3*
D72*
X105223Y42406D3*
Y44306D3*
X88098Y28930D3*
Y30830D3*
D68*
X121237Y76312D3*
X126837D3*
D66*
X120862Y83615D3*
X118062D3*
D64*
X88478Y94410D3*
Y91610D3*
D66*
X120545Y92505D3*
X117745D3*
D64*
X116735Y68692D3*
Y65892D3*
X109747Y44756D3*
Y41956D3*
D72*
X81810Y79170D3*
Y81070D3*
X92622Y28930D3*
Y30830D3*
D64*
X93240Y94093D3*
Y91293D3*
D66*
X118005Y88060D3*
X120805D3*
D64*
X86572Y81710D3*
Y78910D3*
D72*
X121180Y66470D3*
Y68370D3*
X114271Y44306D3*
Y42406D3*
X97367Y29325D3*
Y31225D3*
D70*
X120280Y42600D3*
X122180D3*
D72*
X91652Y79487D3*
Y81388D3*
X96098Y81392D3*
Y79492D3*
D70*
X129580Y57100D3*
X127680D3*
X120480D3*
X122380D3*
D72*
X124990Y66470D3*
Y68370D3*
D70*
X120380Y48600D3*
X122280D3*
D72*
X103717Y94093D3*
Y92192D3*
M02*
