G04 DipTrace 2.4.0.2*
%INTopSilk.gbr*%
%MOMM*%
%ADD10C,0.254*%
%ADD14C,0.5*%
%ADD15C,0.0*%
%ADD32C,1.271*%
%ADD45O,0.391X0.392*%
%ADD127C,0.196*%
%ADD128C,0.157*%
%ADD129C,0.118*%
%ADD130C,0.314*%
%FSLAX53Y53*%
G04*
G71*
G90*
G75*
G01*
%LNTopSilk*%
%LPD*%
X34929Y47015D2*
D10*
X32071D1*
Y37808D1*
X34929D1*
Y47015D1*
X34452Y46539D2*
X32548D1*
X40829Y47115D2*
X37971D1*
Y37908D1*
X40829D1*
Y47115D1*
X40352Y46639D2*
X38448D1*
X46729Y47115D2*
X43871D1*
Y37908D1*
X46729D1*
Y47115D1*
X46252Y46639D2*
X44348D1*
X52571Y64608D2*
X55429D1*
Y73815D1*
X52571D1*
Y64608D1*
X53048Y65084D2*
X54952D1*
X22984Y40023D2*
X29016D1*
Y37800D1*
X22984D1*
Y40023D1*
X23301Y39864D2*
Y37959D1*
X54876Y42835D2*
X51324D1*
X54876Y39787D2*
X51324D1*
Y42835D2*
G03X51324Y39787I-2J-1524D01*
G01*
X54876D2*
G03X54876Y42835I2J1524D01*
G01*
X59471Y38208D2*
X62329D1*
Y47415D1*
X59471D1*
Y38208D1*
X59948Y38684D2*
X61852D1*
X65684Y41323D2*
X71716D1*
Y39100D1*
X65684D1*
Y41323D1*
X66001Y41164D2*
Y39259D1*
X42698Y58417D2*
X47302D1*
Y70006D1*
X42698D1*
Y58417D1*
Y59211D2*
X47302D1*
X65384Y46623D2*
X71416D1*
Y44400D1*
X65384D1*
Y46623D1*
X65701Y46464D2*
Y44559D1*
X104311Y92828D2*
X102089D1*
Y86795D1*
X104311D1*
Y92828D1*
X104153Y92510D2*
X102247D1*
X69394Y77009D2*
X57806D1*
Y81613D1*
X69394D1*
Y77009D1*
X68601D2*
Y81613D1*
X50276Y50988D2*
Y47435D1*
X53324Y50988D2*
Y47435D1*
X50276D2*
G03X53324Y47435I1524J-2D01*
G01*
Y50988D2*
G03X50276Y50988I-1524J2D01*
G01*
X58611Y56528D2*
X56389D1*
Y50495D1*
X58611D1*
Y56528D1*
X58453Y56210D2*
X56547D1*
X61698Y50417D2*
X66302D1*
Y62006D1*
X61698D1*
Y50417D1*
Y51211D2*
X66302D1*
X64525Y66564D2*
X64074Y66111D1*
X62325D2*
X64074D1*
X64525Y73911D2*
Y66564D1*
X61875Y73911D2*
Y66564D1*
Y73911D2*
X64525D1*
X61875Y66564D2*
X62325Y66111D1*
X63001Y70160D2*
X63399D1*
X63200Y70362D2*
Y69965D1*
X47452Y83886D2*
X47000Y84337D1*
Y86086D2*
Y84337D1*
X54800Y83886D2*
X47452D1*
X54800Y86536D2*
X47452D1*
X54800D2*
Y83886D1*
X47452Y86536D2*
X47000Y86086D1*
X51048Y85410D2*
Y85013D1*
X51251Y85211D2*
X50853D1*
X69852Y52286D2*
X69400Y52737D1*
Y54486D2*
Y52737D1*
X77200Y52286D2*
X69852D1*
X77200Y54936D2*
X69852D1*
X77200D2*
Y52286D1*
X69852Y54936D2*
X69400Y54486D1*
X73448Y53810D2*
Y53413D1*
X73651Y53611D2*
X73253D1*
X49525Y73464D2*
X49075Y73011D1*
X47325D2*
X49075D1*
X49525Y80811D2*
Y73464D1*
X46875Y80811D2*
Y73464D1*
Y80811D2*
X49525D1*
X46875Y73464D2*
X47325Y73011D1*
X48001Y77060D2*
X48399D1*
X48200Y77262D2*
Y76865D1*
X82925Y52064D2*
X82474Y51611D1*
X80726D2*
X82474D1*
X82925Y59411D2*
Y52064D1*
X80275Y59411D2*
Y52064D1*
Y59411D2*
X82925D1*
X80275Y52064D2*
X80726Y51611D1*
X81401Y55660D2*
X81799D1*
X81600Y55862D2*
Y55465D1*
X101275Y44259D2*
X101726Y44711D1*
X103474D2*
X101726D1*
X101275Y36911D2*
Y44259D1*
X103925Y36911D2*
Y44259D1*
Y36911D2*
X101275D1*
X103925Y44259D2*
X103474Y44711D1*
X102799Y40663D2*
X102401D1*
X102600Y40460D2*
Y40858D1*
X78668Y77027D2*
X80732D1*
Y80996D1*
X78668D1*
Y77027D1*
X78827Y77821D2*
X80573D1*
X18032Y62396D2*
X15968D1*
Y58427D1*
X18032D1*
Y62396D1*
X17873Y61602D2*
X16127D1*
X78284Y94179D2*
X74316D1*
Y96243D1*
X78284D1*
Y94179D1*
X77491Y94338D2*
Y96085D1*
X24129Y32382D2*
X21589D1*
X24129Y22222D2*
Y32382D1*
X21589Y22222D2*
Y32382D1*
X24129Y22222D2*
X21589D1*
X28733Y34034D2*
D15*
X28098D1*
X33750Y30033D2*
X30702D1*
X34385Y21143D2*
X35655D1*
X28416D2*
X34385D1*
X25876D2*
X28416D1*
X36036D2*
X38576D1*
X35655D2*
X36036D1*
X30372Y24954D2*
Y22667D1*
X34080Y24954D2*
Y22667D1*
X38576Y21143D2*
Y33335D1*
X25876D2*
Y21143D1*
X26193Y33335D2*
X25876D1*
X26193Y34148D2*
Y33335D1*
X26778Y34732D2*
X26193Y34148D1*
X37674Y34732D2*
X36938D1*
X35134D2*
X34398D1*
X32594D2*
X31858D1*
X27514D2*
X26778D1*
X30054D2*
X29318D1*
X27514D2*
X28098Y34148D1*
X28416Y24954D2*
X29432D1*
X30702D2*
X29432D1*
X30702D2*
Y30033D1*
X33750Y24954D2*
Y30033D1*
X35020Y24954D2*
X33750D1*
X35020D2*
X36036D1*
X38576Y33335D2*
X38258D1*
Y34148D1*
X37674Y34732D1*
X36353Y34148D2*
X36938Y34732D1*
X35134D2*
X35718Y34148D1*
X33813D2*
X34398Y34732D1*
X32594D2*
X33178Y34148D1*
X31273D2*
X31858Y34732D1*
X30054D2*
X30638Y34148D1*
X28733D2*
X29318Y34732D1*
X31273Y30033D2*
Y24191D1*
X30638Y24954D2*
Y24191D1*
X31273D2*
X30638D1*
X31273Y34034D2*
X30638D1*
X33813Y24954D2*
Y24191D1*
X33178Y30033D2*
Y24191D1*
X33813D2*
X33178D1*
X33813Y34034D2*
X33178D1*
X35718D2*
X36353D1*
X36036Y24954D2*
Y22667D1*
Y21143D1*
X29432Y24954D2*
Y22667D1*
X28416Y24954D2*
Y22667D1*
X29432D1*
X35386D2*
X35337Y22944D1*
X35386Y22667D2*
X36036D1*
X35020Y24954D2*
Y22944D1*
X35337D2*
X35020D1*
Y22667D2*
Y22944D1*
X34654Y22667D2*
X35020D1*
X29432D2*
X34654D1*
X34385Y21143D1*
X35386Y22667D2*
X35655Y21143D1*
X28416Y22667D2*
Y21143D1*
X78483Y34514D2*
X77847D1*
X83499Y30513D2*
X80451D1*
X84134Y21623D2*
X85404D1*
X78165D2*
X84134D1*
X75625D2*
X78165D1*
X85785D2*
X88325D1*
X85404D2*
X85785D1*
X80121Y25433D2*
Y23146D1*
X83829Y25433D2*
Y23146D1*
X88325Y21623D2*
Y33815D1*
X75625D2*
Y21623D1*
X75942Y33815D2*
X75625D1*
X75942Y34628D2*
Y33815D1*
X76527Y35212D2*
X75942Y34628D1*
X87423Y35212D2*
X86687D1*
X84883D2*
X84147D1*
X82343D2*
X81607D1*
X77263D2*
X76527D1*
X79803D2*
X79067D1*
X77263D2*
X77847Y34628D1*
X78165Y25433D2*
X79181D1*
X80451D2*
X79181D1*
X80451D2*
Y30513D1*
X83499Y25433D2*
Y30513D1*
X84769Y25433D2*
X83499D1*
X84769D2*
X85785D1*
X88325Y33815D2*
X88008D1*
Y34628D1*
X87423Y35212D1*
X86103Y34628D2*
X86687Y35212D1*
X84883D2*
X85467Y34628D1*
X83562D2*
X84147Y35212D1*
X82343D2*
X82928Y34628D1*
X81022D2*
X81607Y35212D1*
X79803D2*
X80388Y34628D1*
X78483D2*
X79067Y35212D1*
X81022Y30513D2*
Y24671D1*
X80388Y25433D2*
Y24671D1*
X81022D2*
X80388D1*
X81022Y34514D2*
X80388D1*
X83562Y25433D2*
Y24671D1*
X82928Y30513D2*
Y24671D1*
X83562D2*
X82928D1*
X83562Y34514D2*
X82928D1*
X85467D2*
X86103D1*
X85785Y25433D2*
Y23146D1*
Y21623D1*
X79181Y25433D2*
Y23146D1*
X78165Y25433D2*
Y23146D1*
X79181D1*
X85135D2*
X85086Y23424D1*
X85135Y23146D2*
X85785D1*
X84769Y25433D2*
Y23424D1*
X85086D2*
X84769D1*
Y23146D2*
Y23424D1*
X84403Y23146D2*
X84769D1*
X79181D2*
X84403D1*
X84134Y21623D1*
X85135Y23146D2*
X85404Y21623D1*
X78165Y23146D2*
Y21623D1*
X61533Y34484D2*
X60897D1*
X66549Y30483D2*
X63501D1*
X67184Y21593D2*
X68454D1*
X61215D2*
X67184D1*
X58675D2*
X61215D1*
X68835D2*
X71375D1*
X68454D2*
X68835D1*
X63171Y25403D2*
Y23116D1*
X66879Y25403D2*
Y23116D1*
X71375Y21593D2*
Y33785D1*
X58675D2*
Y21593D1*
X58992Y33785D2*
X58675D1*
X58992Y34598D2*
Y33785D1*
X59577Y35182D2*
X58992Y34598D1*
X70473Y35182D2*
X69737D1*
X67933D2*
X67197D1*
X65393D2*
X64657D1*
X60313D2*
X59577D1*
X62853D2*
X62117D1*
X60313D2*
X60897Y34598D1*
X61215Y25403D2*
X62231D1*
X63501D2*
X62231D1*
X63501D2*
Y30483D1*
X66549Y25403D2*
Y30483D1*
X67819Y25403D2*
X66549D1*
X67819D2*
X68835D1*
X71375Y33785D2*
X71058D1*
Y34598D1*
X70473Y35182D1*
X69153Y34598D2*
X69737Y35182D1*
X67933D2*
X68517Y34598D1*
X66612D2*
X67197Y35182D1*
X65393D2*
X65978Y34598D1*
X64072D2*
X64657Y35182D1*
X62853D2*
X63438Y34598D1*
X61533D2*
X62117Y35182D1*
X64072Y30483D2*
Y24641D1*
X63438Y25403D2*
Y24641D1*
X64072D2*
X63438D1*
X64072Y34484D2*
X63438D1*
X66612Y25403D2*
Y24641D1*
X65978Y30483D2*
Y24641D1*
X66612D2*
X65978D1*
X66612Y34484D2*
X65978D1*
X68517D2*
X69153D1*
X68835Y25403D2*
Y23116D1*
Y21593D1*
X62231Y25403D2*
Y23116D1*
X61215Y25403D2*
Y23116D1*
X62231D1*
X68185D2*
X68136Y23394D1*
X68185Y23116D2*
X68835D1*
X67819Y25403D2*
Y23394D1*
X68136D2*
X67819D1*
Y23116D2*
Y23394D1*
X67453Y23116D2*
X67819D1*
X62231D2*
X67453D1*
X67184Y21593D1*
X68185Y23116D2*
X68454Y21593D1*
X61215Y23116D2*
Y21593D1*
X110400Y97081D2*
X116600D1*
X117412Y98321D2*
X116600D1*
X117594D2*
X117412D1*
X116600Y99322D2*
X117412D1*
Y98321D1*
X110400D2*
X109588D1*
Y99322D2*
X110400D1*
X109588D2*
Y98321D1*
X117412Y99322D2*
X117594D1*
X109406D2*
X109588D1*
X109406Y98321D2*
X109155Y98572D1*
X109588Y98321D2*
X109406D1*
X108600Y99071D2*
X109155D1*
X109406Y99322D1*
X117845Y98572D2*
X117594Y98321D1*
Y99322D2*
X117845Y99071D1*
X118400D1*
Y98572D2*
X117845D1*
X109155D2*
X108600D1*
Y99071D2*
Y98572D1*
X109155Y99071D2*
Y98572D1*
X117845Y99071D2*
Y98572D1*
X118400Y99071D2*
Y98572D1*
X117412Y100861D2*
X116600D1*
X117594D2*
X117412D1*
X116600Y101861D2*
X117412D1*
Y100861D1*
X110400D2*
X109588D1*
Y101861D2*
X110400D1*
X109588D2*
Y100861D1*
X117412Y101861D2*
X117594D1*
X109406D2*
X109588D1*
X109406Y100861D2*
X109155Y101112D1*
X109588Y100861D2*
X109406D1*
X108600Y101612D2*
X109155D1*
X109406Y101861D1*
X117845Y101112D2*
X117594Y100861D1*
Y101861D2*
X117845Y101612D1*
X118400D1*
Y101112D2*
X117845D1*
X109155D2*
X108600D1*
Y101612D2*
Y101112D1*
X109155Y101612D2*
Y101112D1*
X117845Y101612D2*
Y101112D1*
X118400Y101612D2*
Y101112D1*
X117412Y103402D2*
X116600D1*
X117594D2*
X117412D1*
X116600Y104401D2*
X117412D1*
Y103402D1*
X110400D2*
X109588D1*
Y104401D2*
X110400D1*
X109588D2*
Y103402D1*
X117412Y104401D2*
X117594D1*
X109406D2*
X109588D1*
X109406Y103402D2*
X109155Y103651D1*
X109588Y103402D2*
X109406D1*
X108600Y104150D2*
X109155D1*
X109406Y104401D1*
X117845Y103651D2*
X117594Y103402D1*
Y104401D2*
X117845Y104150D1*
X118400D1*
Y103651D2*
X117845D1*
X109155D2*
X108600D1*
Y104150D2*
Y103651D1*
X109155Y104150D2*
Y103651D1*
X117845Y104150D2*
Y103651D1*
X118400Y104150D2*
Y103651D1*
X117412Y105940D2*
X116600D1*
X117594D2*
X117412D1*
X116600Y106942D2*
X117412D1*
Y105940D1*
X110400D2*
X109588D1*
Y106942D2*
X110400D1*
X109588D2*
Y105940D1*
X117412Y106942D2*
X117594D1*
X109406D2*
X109588D1*
X109406Y105940D2*
X109155Y106191D1*
X109588Y105940D2*
X109406D1*
X108600Y106691D2*
X109155D1*
X109406Y106942D1*
X117845Y106191D2*
X117594Y105940D1*
Y106942D2*
X117845Y106691D1*
X118400D1*
Y106191D2*
X117845D1*
X109155D2*
X108600D1*
Y106691D2*
Y106191D1*
X109155Y106691D2*
Y106191D1*
X117845Y106691D2*
Y106191D1*
X118400Y106691D2*
Y106191D1*
X117412Y108481D2*
X116600D1*
X117594D2*
X117412D1*
X116600Y109482D2*
X117412D1*
Y108481D1*
X110400D2*
X109588D1*
Y109482D2*
X110400D1*
X109588D2*
Y108481D1*
X117412Y109482D2*
X117594D1*
X109406D2*
X109588D1*
X109406Y108481D2*
X109155Y108732D1*
X109588Y108481D2*
X109406D1*
X108600Y109231D2*
X109155D1*
X109406Y109482D1*
X117845Y108732D2*
X117594Y108481D1*
Y109482D2*
X117845Y109231D1*
X118400D1*
Y108732D2*
X117845D1*
X109155D2*
X108600D1*
Y109231D2*
Y108732D1*
X109155Y109231D2*
Y108732D1*
X117845Y109231D2*
Y108732D1*
X118400Y109231D2*
Y108732D1*
X117412Y111022D2*
X116600D1*
X117594D2*
X117412D1*
X116600Y112021D2*
X117412D1*
Y111022D1*
X110400D2*
X109588D1*
Y112021D2*
X110400D1*
X109588D2*
Y111022D1*
X117412Y112021D2*
X117594D1*
X109406D2*
X109588D1*
X109406Y111022D2*
X109155Y111272D1*
X109588Y111022D2*
X109406D1*
X108600Y111772D2*
X109155D1*
X109406Y112021D1*
X117845Y111272D2*
X117594Y111022D1*
Y112021D2*
X117845Y111772D1*
X118400D1*
Y111272D2*
X117845D1*
X109155D2*
X108600D1*
Y111772D2*
Y111272D1*
X109155Y111772D2*
Y111272D1*
X117845Y111772D2*
Y111272D1*
X118400Y111772D2*
Y111272D1*
X117412Y113562D2*
X116600D1*
X117594D2*
X117412D1*
X116600Y114561D2*
X117412D1*
Y113562D1*
X110400D2*
X109588D1*
Y114561D2*
X110400D1*
X109588D2*
Y113562D1*
X117412Y114561D2*
X117594D1*
X109406D2*
X109588D1*
X109406Y113562D2*
X109155Y113811D1*
X109588Y113562D2*
X109406D1*
X108600Y114310D2*
X109155D1*
X109406Y114561D1*
X117845Y113811D2*
X117594Y113562D1*
Y114561D2*
X117845Y114310D1*
X118400D1*
Y113811D2*
X117845D1*
X109155D2*
X108600D1*
Y114310D2*
Y113811D1*
X109155Y114310D2*
Y113811D1*
X117845Y114310D2*
Y113811D1*
X118400Y114310D2*
Y113811D1*
X117412Y116101D2*
X116600D1*
X117594D2*
X117412D1*
X116600Y117102D2*
X117412D1*
Y116101D1*
X110400D2*
X109588D1*
Y117102D2*
X110400D1*
X109588D2*
Y116101D1*
X117412Y117102D2*
X117594D1*
X109406D2*
X109588D1*
X109406Y116101D2*
X109155Y116351D1*
X109588Y116101D2*
X109406D1*
X108600Y116851D2*
X109155D1*
X109406Y117102D1*
X117845Y116351D2*
X117594Y116101D1*
Y117102D2*
X117845Y116851D1*
X118400D1*
Y116351D2*
X117845D1*
X109155D2*
X108600D1*
Y116851D2*
Y116351D1*
X109155Y116851D2*
Y116351D1*
X117845Y116851D2*
Y116351D1*
X118400Y116851D2*
Y116351D1*
X114100Y98321D2*
X115099D1*
Y99322D2*
Y98321D1*
X114100D2*
Y99322D1*
X115099D1*
X114100Y100861D2*
X115099D1*
Y101861D2*
Y100861D1*
X114100D2*
Y101861D1*
X115099D1*
X114100Y103402D2*
X115099D1*
Y104401D2*
Y103402D1*
X114100D2*
Y104401D1*
X115099D1*
X114100Y105940D2*
X115099D1*
Y106942D2*
Y105940D1*
X114100D2*
Y106942D1*
X115099D1*
X114100Y108481D2*
X115099D1*
Y109482D2*
Y108481D1*
X114100D2*
Y109482D1*
X115099D1*
X114100Y111022D2*
X115099D1*
Y112021D2*
Y111022D1*
X114100D2*
Y112021D1*
X115099D1*
X114100Y113562D2*
X115099D1*
Y114561D2*
Y113562D1*
X114100D2*
Y114561D1*
X115099D1*
X114100Y116101D2*
X115099D1*
Y117102D2*
Y116101D1*
X114100D2*
Y117102D1*
X115099D1*
X111800Y98221D2*
Y99422D1*
X115200D1*
Y98221D1*
X111800D1*
Y100761D2*
Y101961D1*
X115200D1*
Y100761D1*
X111800D1*
Y103302D2*
Y104501D1*
X115200D1*
Y103302D1*
X111800D1*
Y105840D2*
Y107042D1*
X115200D1*
Y105840D1*
X111800D1*
Y108381D2*
Y109582D1*
X115200D1*
Y108381D1*
X111800D1*
Y110922D2*
Y112121D1*
X115200D1*
Y110922D1*
X111800D1*
Y113462D2*
Y114661D1*
X115200D1*
Y113462D1*
X111800D1*
Y116001D2*
Y117202D1*
X115200D1*
Y116001D1*
X111800D1*
X110400Y97081D2*
Y118341D1*
X116600D2*
Y97081D1*
X110400Y118341D2*
X116600D1*
X120023Y50164D2*
D10*
X107006D1*
Y39369D1*
X120023D1*
Y50164D1*
D32*
X110498Y48418D3*
X106530Y53817D2*
D10*
X119548D1*
Y64612D1*
X106530D1*
Y53817D1*
D32*
X116055Y55563D3*
X120341Y79536D2*
D10*
X107323D1*
Y68741D1*
X120341D1*
Y79536D1*
D32*
X110816Y77790D3*
X120341Y93984D2*
D10*
X107323D1*
Y83189D1*
X120341D1*
Y93984D1*
D32*
X110816Y92238D3*
X103459Y52261D2*
D10*
G03X103463Y48369I-1722J-1948D01*
G01*
X103446Y48365D2*
Y52265D1*
X100746Y55985D2*
X102654D1*
Y60437D1*
X100746D1*
Y55985D1*
X75125Y77464D2*
X74674Y77011D1*
X72926D2*
X74674D1*
X75125Y84811D2*
Y77464D1*
X72475Y84811D2*
Y77464D1*
Y84811D2*
X75125D1*
X72475Y77464D2*
X72926Y77011D1*
X73601Y81060D2*
X73999D1*
X73800Y81262D2*
Y80865D1*
X50802Y92712D2*
X53998D1*
X50802Y89711D2*
X53998D1*
X102299Y99611D2*
X101701D1*
X102299Y98012D2*
X101701D1*
X102299Y104511D2*
X101701D1*
X102299Y102912D2*
X101701D1*
X102299Y109311D2*
X101701D1*
X102299Y107712D2*
X101701D1*
X102299Y114211D2*
X101701D1*
X102299Y112612D2*
X101701D1*
X96599Y111312D2*
Y111911D1*
X95001Y111312D2*
Y111911D1*
X102299Y119011D2*
X101701D1*
X102299Y117412D2*
X101701D1*
X94899Y118511D2*
X94301D1*
X94899Y116912D2*
X94301D1*
X89999Y113611D2*
X89401D1*
X89999Y112012D2*
X89401D1*
X72349Y101561D2*
X80599D1*
Y110562D1*
X71601D2*
X80599D1*
X71601Y102312D2*
Y110562D1*
X72349Y101561D2*
X71601Y102312D1*
D14*
X71351Y99561D3*
X26608Y94458D2*
D10*
G02X26608Y94458I126J0D01*
G01*
Y92204D2*
G03X26608Y91167I3J-518D01*
G01*
Y93234D2*
Y92204D1*
Y91167D2*
Y90138D1*
X23509Y93234D2*
Y90138D1*
X26608Y93234D2*
X23509D1*
X26608Y90138D2*
X23509D1*
X17759Y103028D2*
X27958D1*
X17759D2*
Y105728D1*
X27958Y103028D2*
Y105728D1*
D45*
X19083Y100010D3*
X38752Y81961D2*
D10*
Y71261D1*
X39250Y81961D2*
Y71261D1*
X34550Y81961D2*
Y71261D1*
Y81961D2*
X39250D1*
X34550Y71261D2*
X39250D1*
X72779Y115725D2*
X78621D1*
X72779Y120297D2*
X78621D1*
X72779Y116233D2*
X78621D1*
Y119789D2*
X72779D1*
X78621D2*
G02X78621Y116233I0J-1778D01*
G01*
Y120297D2*
G02X78621Y115725I0J-2286D01*
G01*
X72779Y120297D2*
G03X72779Y115725I0J-2286D01*
G01*
Y119789D2*
G03X72779Y116233I0J-1778D01*
G01*
X75446Y118900D2*
X75954D1*
Y117123D1*
X75446D1*
Y118900D1*
X76335D2*
Y118011D1*
Y117123D1*
X75065Y118900D2*
Y118011D1*
Y117123D1*
X76335Y118011D2*
X76971D1*
X75065D2*
X74429D1*
X90545Y33839D2*
X119755D1*
Y21456D1*
X90545D1*
Y33839D1*
X115261Y23968D2*
D14*
G02X115261Y23968I1905J0D01*
G01*
X97003Y31589D2*
X97008Y31722D1*
X97021Y31854D1*
X97043Y31985D1*
X97074Y32114D1*
X97113Y32241D1*
X97161Y32364D1*
X97217Y32483D1*
X97281Y32599D1*
X97352Y32709D1*
X97430Y32814D1*
X97516Y32912D1*
X97607Y33005D1*
X97705Y33090D1*
X97808Y33168D1*
X97916Y33239D1*
X98029Y33301D1*
X98145Y33355D1*
X98265Y33401D1*
X98387Y33438D1*
X98512Y33465D1*
X98638Y33484D1*
X98765Y33493D1*
X98893D1*
X99020Y33484D1*
X99146Y33465D1*
X99271Y33438D1*
X99393Y33401D1*
X99513Y33355D1*
X99629Y33301D1*
X99742Y33239D1*
X99850Y33168D1*
X99953Y33090D1*
X100051Y33005D1*
X100142Y32912D1*
X100228Y32814D1*
X100306Y32709D1*
X100377Y32599D1*
X100441Y32483D1*
X100497Y32364D1*
X100545Y32241D1*
X100584Y32114D1*
X100615Y31985D1*
X100637Y31854D1*
X100650Y31722D1*
X100655Y31589D1*
X100650Y31456D1*
X100637Y31324D1*
X100615Y31193D1*
X100584Y31064D1*
X100545Y30937D1*
X100497Y30814D1*
X100441Y30695D1*
X100377Y30579D1*
X100306Y30469D1*
X100228Y30364D1*
X100142Y30266D1*
X100051Y30173D1*
X99953Y30088D1*
X99850Y30010D1*
X99742Y29939D1*
X99629Y29877D1*
X99513Y29823D1*
X99393Y29777D1*
X99271Y29740D1*
X99146Y29713D1*
X99020Y29694D1*
X98893Y29685D1*
X98765D1*
X98638Y29694D1*
X98512Y29713D1*
X98387Y29740D1*
X98265Y29777D1*
X98145Y29823D1*
X98029Y29877D1*
X97916Y29939D1*
X97808Y30010D1*
X97705Y30088D1*
X97607Y30173D1*
X97516Y30266D1*
X97430Y30364D1*
X97352Y30469D1*
X97281Y30579D1*
X97217Y30695D1*
X97161Y30814D1*
X97113Y30937D1*
X97074Y31064D1*
X97043Y31193D1*
X97021Y31324D1*
X97008Y31456D1*
X97003Y31589D1*
X115420D2*
X115424Y31722D1*
X115438Y31854D1*
X115460Y31985D1*
X115491Y32114D1*
X115530Y32241D1*
X115578Y32364D1*
X115634Y32483D1*
X115697Y32599D1*
X115769Y32709D1*
X115847Y32814D1*
X115932Y32912D1*
X116024Y33005D1*
X116122Y33090D1*
X116225Y33168D1*
X116333Y33239D1*
X116445Y33301D1*
X116562Y33355D1*
X116682Y33401D1*
X116804Y33438D1*
X116929Y33465D1*
X117055Y33484D1*
X117182Y33493D1*
X117310D1*
X117437Y33484D1*
X117563Y33465D1*
X117688Y33438D1*
X117810Y33401D1*
X117930Y33355D1*
X118046Y33301D1*
X118159Y33239D1*
X118267Y33168D1*
X118370Y33090D1*
X118468Y33005D1*
X118559Y32912D1*
X118645Y32814D1*
X118723Y32709D1*
X118794Y32599D1*
X118858Y32483D1*
X118914Y32364D1*
X118962Y32241D1*
X119001Y32114D1*
X119032Y31985D1*
X119054Y31854D1*
X119067Y31722D1*
X119072Y31589D1*
X119067Y31456D1*
X119054Y31324D1*
X119032Y31193D1*
X119001Y31064D1*
X118962Y30937D1*
X118914Y30814D1*
X118858Y30695D1*
X118794Y30579D1*
X118723Y30469D1*
X118645Y30364D1*
X118559Y30266D1*
X118468Y30173D1*
X118370Y30088D1*
X118267Y30010D1*
X118159Y29939D1*
X118046Y29877D1*
X117930Y29823D1*
X117810Y29777D1*
X117688Y29740D1*
X117563Y29713D1*
X117437Y29694D1*
X117310Y29685D1*
X117182D1*
X117055Y29694D1*
X116929Y29713D1*
X116804Y29740D1*
X116682Y29777D1*
X116562Y29823D1*
X116445Y29877D1*
X116333Y29939D1*
X116225Y30010D1*
X116122Y30088D1*
X116024Y30173D1*
X115932Y30266D1*
X115847Y30364D1*
X115769Y30469D1*
X115697Y30579D1*
X115634Y30695D1*
X115578Y30814D1*
X115530Y30937D1*
X115491Y31064D1*
X115460Y31193D1*
X115438Y31324D1*
X115424Y31456D1*
X115420Y31589D1*
X100337Y23968D2*
G02X100337Y23968I1905J0D01*
G01*
X93510D2*
X93515Y24101D1*
X93528Y24233D1*
X93550Y24364D1*
X93581Y24493D1*
X93620Y24620D1*
X93668Y24743D1*
X93724Y24863D1*
X93788Y24978D1*
X93859Y25088D1*
X93937Y25193D1*
X94023Y25292D1*
X94114Y25384D1*
X94212Y25470D1*
X94315Y25548D1*
X94423Y25618D1*
X94536Y25681D1*
X94652Y25735D1*
X94772Y25780D1*
X94894Y25817D1*
X95019Y25844D1*
X95145Y25863D1*
X95272Y25872D1*
X95400D1*
X95527Y25863D1*
X95653Y25844D1*
X95778Y25817D1*
X95900Y25780D1*
X96020Y25735D1*
X96136Y25681D1*
X96249Y25618D1*
X96357Y25548D1*
X96460Y25470D1*
X96558Y25384D1*
X96649Y25292D1*
X96735Y25193D1*
X96813Y25088D1*
X96884Y24978D1*
X96948Y24863D1*
X97004Y24743D1*
X97052Y24620D1*
X97091Y24493D1*
X97122Y24364D1*
X97144Y24233D1*
X97157Y24101D1*
X97162Y23968D1*
X97157Y23835D1*
X97144Y23703D1*
X97122Y23572D1*
X97091Y23443D1*
X97052Y23317D1*
X97004Y23193D1*
X96948Y23074D1*
X96884Y22959D1*
X96813Y22848D1*
X96735Y22744D1*
X96649Y22645D1*
X96558Y22552D1*
X96460Y22467D1*
X96357Y22389D1*
X96249Y22318D1*
X96136Y22256D1*
X96020Y22202D1*
X95900Y22156D1*
X95778Y22120D1*
X95653Y22092D1*
X95527Y22073D1*
X95400Y22064D1*
X95272D1*
X95145Y22073D1*
X95019Y22092D1*
X94894Y22120D1*
X94772Y22156D1*
X94652Y22202D1*
X94536Y22256D1*
X94423Y22318D1*
X94315Y22389D1*
X94212Y22467D1*
X94114Y22552D1*
X94023Y22645D1*
X93937Y22744D1*
X93859Y22848D1*
X93788Y22959D1*
X93724Y23074D1*
X93668Y23193D1*
X93620Y23317D1*
X93581Y23443D1*
X93550Y23572D1*
X93528Y23703D1*
X93515Y23835D1*
X93510Y23968D1*
X45243Y34194D2*
D15*
X44607D1*
X50259Y30193D2*
X47211D1*
X50894Y21303D2*
X52164D1*
X44925D2*
X50894D1*
X42385D2*
X44925D1*
X52545D2*
X55085D1*
X52164D2*
X52545D1*
X46881Y25113D2*
Y22826D1*
X50589Y25113D2*
Y22826D1*
X55085Y21303D2*
Y33495D1*
X42385D2*
Y21303D1*
X42703Y33495D2*
X42385D1*
X42703Y34308D2*
Y33495D1*
X43287Y34892D2*
X42703Y34308D1*
X54183Y34892D2*
X53447D1*
X51643D2*
X50907D1*
X49103D2*
X48367D1*
X44023D2*
X43287D1*
X46563D2*
X45827D1*
X44023D2*
X44607Y34308D1*
X44925Y25113D2*
X45941D1*
X47211D2*
X45941D1*
X47211D2*
Y30193D1*
X50259Y25113D2*
Y30193D1*
X51529Y25113D2*
X50259D1*
X51529D2*
X52545D1*
X55085Y33495D2*
X54768D1*
Y34308D1*
X54183Y34892D1*
X52863Y34308D2*
X53447Y34892D1*
X51643D2*
X52227Y34308D1*
X50322D2*
X50907Y34892D1*
X49103D2*
X49688Y34308D1*
X47782D2*
X48367Y34892D1*
X46563D2*
X47148Y34308D1*
X45243D2*
X45827Y34892D1*
X47782Y30193D2*
Y24351D1*
X47148Y25113D2*
Y24351D1*
X47782D2*
X47148D1*
X47782Y34194D2*
X47148D1*
X50322Y25113D2*
Y24351D1*
X49688Y30193D2*
Y24351D1*
X50322D2*
X49688D1*
X50322Y34194D2*
X49688D1*
X52227D2*
X52863D1*
X52545Y25113D2*
Y22826D1*
Y21303D1*
X45941Y25113D2*
Y22826D1*
X44925Y25113D2*
Y22826D1*
X45941D1*
X51895D2*
X51846Y23104D1*
X51895Y22826D2*
X52545D1*
X51529Y25113D2*
Y23104D1*
X51846D2*
X51529D1*
Y22826D2*
Y23104D1*
X51163Y22826D2*
X51529D1*
X45941D2*
X51163D1*
X50894Y21303D1*
X51895Y22826D2*
X52164Y21303D1*
X44925Y22826D2*
Y21303D1*
X87001Y65883D2*
D10*
X95257D1*
Y37861D1*
X87001D1*
Y65883D1*
X33607Y48572D2*
D127*
X33547Y48692D1*
X33425Y48815D1*
X33304Y48875D1*
X33061D1*
X32939Y48815D1*
X32818Y48692D1*
X32756Y48572D1*
X32696Y48389D1*
Y48085D1*
X32756Y47904D1*
X32818Y47781D1*
X32939Y47661D1*
X33061Y47599D1*
X33304D1*
X33425Y47661D1*
X33547Y47781D1*
X33607Y47904D1*
X33999Y48631D2*
X34121Y48692D1*
X34304Y48874D1*
Y47599D1*
X39234Y48672D2*
X39174Y48792D1*
X39052Y48915D1*
X38931Y48975D1*
X38688D1*
X38566Y48915D1*
X38445Y48792D1*
X38383Y48672D1*
X38323Y48489D1*
Y48185D1*
X38383Y48004D1*
X38445Y47881D1*
X38566Y47761D1*
X38688Y47699D1*
X38931D1*
X39052Y47761D1*
X39174Y47881D1*
X39234Y48004D1*
X39688Y48670D2*
Y48731D1*
X39748Y48853D1*
X39809Y48913D1*
X39931Y48974D1*
X40174D1*
X40294Y48913D1*
X40355Y48853D1*
X40417Y48731D1*
Y48610D1*
X40355Y48488D1*
X40234Y48307D1*
X39626Y47699D1*
X40477D1*
X45134Y48672D2*
X45074Y48792D1*
X44952Y48915D1*
X44831Y48975D1*
X44588D1*
X44466Y48915D1*
X44345Y48792D1*
X44283Y48672D1*
X44223Y48489D1*
Y48185D1*
X44283Y48004D1*
X44345Y47881D1*
X44466Y47761D1*
X44588Y47699D1*
X44831D1*
X44952Y47761D1*
X45074Y47881D1*
X45134Y48004D1*
X45648Y48974D2*
X46315D1*
X45952Y48488D1*
X46134D1*
X46255Y48427D1*
X46315Y48367D1*
X46377Y48185D1*
Y48064D1*
X46315Y47881D1*
X46194Y47759D1*
X46012Y47699D1*
X45829D1*
X45648Y47759D1*
X45588Y47821D1*
X45526Y47942D1*
X53804Y75372D2*
X53744Y75492D1*
X53621Y75615D1*
X53501Y75675D1*
X53258D1*
X53136Y75615D1*
X53015Y75492D1*
X52953Y75372D1*
X52893Y75189D1*
Y74885D1*
X52953Y74704D1*
X53015Y74581D1*
X53136Y74461D1*
X53258Y74399D1*
X53501D1*
X53621Y74461D1*
X53744Y74581D1*
X53804Y74704D1*
X54804Y74399D2*
Y75674D1*
X54196Y74824D1*
X55107D1*
X25834Y41579D2*
X25774Y41700D1*
X25652Y41822D1*
X25531Y41882D1*
X25288D1*
X25166Y41822D1*
X25045Y41700D1*
X24983Y41579D1*
X24923Y41397D1*
Y41092D1*
X24983Y40911D1*
X25045Y40789D1*
X25166Y40668D1*
X25288Y40606D1*
X25531D1*
X25652Y40668D1*
X25774Y40789D1*
X25834Y40911D1*
X26955Y41881D2*
X26348D1*
X26288Y41335D1*
X26348Y41395D1*
X26531Y41457D1*
X26712D1*
X26894Y41395D1*
X27017Y41275D1*
X27077Y41092D1*
Y40971D1*
X27017Y40789D1*
X26894Y40667D1*
X26712Y40606D1*
X26531D1*
X26348Y40667D1*
X26288Y40729D1*
X26226Y40849D1*
X52586Y44392D2*
X52525Y44513D1*
X52403Y44635D1*
X52282Y44695D1*
X52040D1*
X51917Y44635D1*
X51797Y44513D1*
X51735Y44392D1*
X51675Y44210D1*
Y43905D1*
X51735Y43724D1*
X51797Y43602D1*
X51917Y43481D1*
X52040Y43419D1*
X52282D1*
X52403Y43481D1*
X52525Y43602D1*
X52586Y43724D1*
X52978Y44451D2*
X53100Y44513D1*
X53283Y44694D1*
Y43419D1*
X53918D2*
X54525Y44694D1*
X53675D1*
X57915Y42298D2*
X57794Y42237D1*
X57672Y42115D1*
X57611Y41995D1*
Y41752D1*
X57672Y41630D1*
X57794Y41509D1*
X57915Y41447D1*
X58097Y41387D1*
X58402D1*
X58583Y41447D1*
X58705Y41509D1*
X58826Y41630D1*
X58887Y41752D1*
Y41995D1*
X58826Y42115D1*
X58705Y42237D1*
X58583Y42298D1*
X57856Y42690D2*
X57794Y42812D1*
X57613Y42995D1*
X58887D1*
X57613Y43690D2*
X57673Y43509D1*
X57794Y43447D1*
X57916D1*
X58037Y43509D1*
X58099Y43630D1*
X58159Y43872D1*
X58219Y44055D1*
X58341Y44176D1*
X58462Y44236D1*
X58645D1*
X58765Y44176D1*
X58827Y44115D1*
X58887Y43933D1*
Y43690D1*
X58827Y43509D1*
X58765Y43447D1*
X58645Y43387D1*
X58462D1*
X58341Y43447D1*
X58219Y43569D1*
X58159Y43750D1*
X58099Y43993D1*
X58037Y44115D1*
X57916Y44176D1*
X57794D1*
X57673Y44115D1*
X57613Y43933D1*
Y43690D1*
X68216Y42879D2*
X68156Y43000D1*
X68033Y43122D1*
X67913Y43182D1*
X67670D1*
X67548Y43122D1*
X67427Y43000D1*
X67365Y42879D1*
X67305Y42697D1*
Y42392D1*
X67365Y42211D1*
X67427Y42089D1*
X67548Y41968D1*
X67670Y41906D1*
X67913D1*
X68033Y41968D1*
X68156Y42089D1*
X68216Y42211D1*
X68608Y42938D2*
X68730Y43000D1*
X68913Y43181D1*
Y41906D1*
X70095Y42757D2*
X70033Y42575D1*
X69913Y42452D1*
X69730Y42392D1*
X69670D1*
X69487Y42452D1*
X69367Y42575D1*
X69305Y42757D1*
Y42817D1*
X69367Y43000D1*
X69487Y43121D1*
X69670Y43181D1*
X69730D1*
X69913Y43121D1*
X70033Y43000D1*
X70095Y42757D1*
Y42452D1*
X70033Y42149D1*
X69913Y41967D1*
X69730Y41906D1*
X69609D1*
X69427Y41967D1*
X69367Y42089D1*
X44213Y71562D2*
X44152Y71683D1*
X44030Y71805D1*
X43909Y71866D1*
X43667D1*
X43544Y71805D1*
X43424Y71683D1*
X43362Y71562D1*
X43302Y71380D1*
Y71075D1*
X43362Y70894D1*
X43424Y70772D1*
X43544Y70651D1*
X43667Y70590D1*
X43909D1*
X44030Y70651D1*
X44152Y70772D1*
X44213Y70894D1*
X44667Y71561D2*
Y71621D1*
X44727Y71743D1*
X44787Y71804D1*
X44909Y71864D1*
X45152D1*
X45273Y71804D1*
X45333Y71743D1*
X45395Y71621D1*
Y71501D1*
X45333Y71378D1*
X45213Y71197D1*
X44605Y70590D1*
X45456D1*
X46213Y71864D2*
X46030Y71804D1*
X45908Y71621D1*
X45848Y71318D1*
Y71136D1*
X45908Y70832D1*
X46030Y70650D1*
X46213Y70590D1*
X46333D1*
X46516Y70650D1*
X46637Y70832D1*
X46698Y71136D1*
Y71318D1*
X46637Y71621D1*
X46516Y71804D1*
X46333Y71864D1*
X46213D1*
X46637Y71621D2*
X45908Y70832D1*
X67886Y48179D2*
X67825Y48300D1*
X67703Y48422D1*
X67582Y48482D1*
X67340D1*
X67217Y48422D1*
X67097Y48300D1*
X67035Y48179D1*
X66975Y47997D1*
Y47692D1*
X67035Y47511D1*
X67097Y47389D1*
X67217Y47268D1*
X67340Y47206D1*
X67582D1*
X67703Y47268D1*
X67825Y47389D1*
X67886Y47511D1*
X68340Y48178D2*
Y48238D1*
X68400Y48360D1*
X68460Y48421D1*
X68583Y48481D1*
X68825D1*
X68946Y48421D1*
X69006Y48360D1*
X69068Y48238D1*
Y48117D1*
X69006Y47995D1*
X68886Y47814D1*
X68278Y47206D1*
X69129D1*
X69521Y48238D2*
X69643Y48300D1*
X69825Y48481D1*
Y47206D1*
X100532Y89024D2*
X100411Y88964D1*
X100289Y88842D1*
X100229Y88721D1*
Y88478D1*
X100289Y88356D1*
X100411Y88235D1*
X100532Y88173D1*
X100715Y88113D1*
X101019D1*
X101200Y88173D1*
X101322Y88235D1*
X101443Y88356D1*
X101505Y88478D1*
Y88721D1*
X101443Y88842D1*
X101322Y88964D1*
X101200Y89024D1*
X100534Y89478D2*
X100473D1*
X100351Y89538D1*
X100291Y89599D1*
X100230Y89721D1*
Y89964D1*
X100291Y90084D1*
X100351Y90145D1*
X100473Y90207D1*
X100594D1*
X100716Y90145D1*
X100897Y90024D1*
X101505Y89416D1*
Y90267D1*
X100534Y90721D2*
X100473D1*
X100351Y90781D1*
X100291Y90842D1*
X100230Y90964D1*
Y91207D1*
X100291Y91327D1*
X100351Y91388D1*
X100473Y91449D1*
X100594D1*
X100716Y91388D1*
X100897Y91267D1*
X101505Y90659D1*
Y91510D1*
X62813Y83170D2*
X62752Y83291D1*
X62630Y83413D1*
X62509Y83473D1*
X62267D1*
X62144Y83413D1*
X62024Y83291D1*
X61962Y83170D1*
X61902Y82987D1*
Y82683D1*
X61962Y82502D1*
X62024Y82380D1*
X62144Y82259D1*
X62267Y82197D1*
X62509D1*
X62630Y82259D1*
X62752Y82380D1*
X62813Y82502D1*
X63267Y83168D2*
Y83229D1*
X63327Y83351D1*
X63387Y83411D1*
X63509Y83472D1*
X63752D1*
X63873Y83411D1*
X63933Y83351D1*
X63995Y83229D1*
Y83108D1*
X63933Y82986D1*
X63813Y82805D1*
X63205Y82197D1*
X64056D1*
X64570Y83472D2*
X65237D1*
X64873Y82986D1*
X65056D1*
X65176Y82926D1*
X65237Y82865D1*
X65298Y82683D1*
Y82562D1*
X65237Y82380D1*
X65116Y82257D1*
X64933Y82197D1*
X64751D1*
X64570Y82257D1*
X64509Y82319D1*
X64448Y82440D1*
X48719Y48394D2*
X48599Y48333D1*
X48476Y48211D1*
X48416Y48091D1*
Y47848D1*
X48476Y47726D1*
X48599Y47605D1*
X48719Y47543D1*
X48902Y47483D1*
X49206D1*
X49388Y47543D1*
X49510Y47605D1*
X49630Y47726D1*
X49692Y47848D1*
Y48091D1*
X49630Y48211D1*
X49510Y48333D1*
X49388Y48394D1*
X48721Y48848D2*
X48660D1*
X48538Y48908D1*
X48478Y48969D1*
X48418Y49091D1*
Y49334D1*
X48478Y49454D1*
X48538Y49515D1*
X48660Y49576D1*
X48781D1*
X48903Y49515D1*
X49084Y49394D1*
X49692Y48786D1*
Y49637D1*
Y50637D2*
X48418D1*
X49267Y50029D1*
Y50940D1*
X54832Y52724D2*
X54711Y52664D1*
X54589Y52542D1*
X54529Y52421D1*
Y52178D1*
X54589Y52056D1*
X54711Y51935D1*
X54832Y51873D1*
X55015Y51813D1*
X55319D1*
X55500Y51873D1*
X55622Y51935D1*
X55743Y52056D1*
X55805Y52178D1*
Y52421D1*
X55743Y52542D1*
X55622Y52664D1*
X55500Y52724D1*
X54834Y53178D2*
X54773D1*
X54651Y53238D1*
X54591Y53299D1*
X54530Y53421D1*
Y53664D1*
X54591Y53784D1*
X54651Y53845D1*
X54773Y53907D1*
X54894D1*
X55016Y53845D1*
X55197Y53724D1*
X55805Y53116D1*
Y53967D1*
X54530Y55088D2*
Y54481D1*
X55076Y54421D1*
X55016Y54481D1*
X54954Y54664D1*
Y54845D1*
X55016Y55027D1*
X55137Y55149D1*
X55319Y55210D1*
X55440D1*
X55622Y55149D1*
X55745Y55027D1*
X55805Y54845D1*
Y54664D1*
X55745Y54481D1*
X55683Y54421D1*
X55562Y54359D1*
X63213Y63562D2*
X63152Y63683D1*
X63030Y63805D1*
X62909Y63866D1*
X62667D1*
X62544Y63805D1*
X62424Y63683D1*
X62362Y63562D1*
X62302Y63380D1*
Y63075D1*
X62362Y62894D1*
X62424Y62772D1*
X62544Y62651D1*
X62667Y62590D1*
X62909D1*
X63030Y62651D1*
X63152Y62772D1*
X63213Y62894D1*
X63667Y63561D2*
Y63621D1*
X63727Y63743D1*
X63787Y63804D1*
X63909Y63864D1*
X64152D1*
X64273Y63804D1*
X64333Y63743D1*
X64395Y63621D1*
Y63501D1*
X64333Y63378D1*
X64213Y63197D1*
X63605Y62590D1*
X64456D1*
X65091D2*
X65698Y63864D1*
X64848D1*
X60015Y68616D2*
X61291D1*
Y69042D1*
X61229Y69224D1*
X61109Y69346D1*
X60987Y69407D1*
X60806Y69467D1*
X60501D1*
X60318Y69407D1*
X60198Y69346D1*
X60076Y69224D1*
X60015Y69042D1*
Y68616D1*
X60259Y69859D2*
X60198Y69981D1*
X60017Y70164D1*
X61291D1*
X60017Y71284D2*
Y70678D1*
X60563Y70618D1*
X60502Y70678D1*
X60441Y70860D1*
Y71042D1*
X60502Y71224D1*
X60623Y71346D1*
X60806Y71407D1*
X60926D1*
X61109Y71346D1*
X61231Y71224D1*
X61291Y71042D1*
Y70860D1*
X61231Y70678D1*
X61169Y70618D1*
X61048Y70556D1*
X49536Y88396D2*
Y87120D1*
X49961D1*
X50144Y87182D1*
X50266Y87303D1*
X50326Y87425D1*
X50386Y87606D1*
Y87911D1*
X50326Y88093D1*
X50266Y88214D1*
X50144Y88336D1*
X49961Y88396D1*
X49536D1*
X50779Y88152D2*
X50901Y88214D1*
X51083Y88395D1*
Y87120D1*
X52204Y88214D2*
X52144Y88334D1*
X51961Y88395D1*
X51840D1*
X51658Y88334D1*
X51536Y88152D1*
X51475Y87849D1*
Y87546D1*
X51536Y87303D1*
X51658Y87181D1*
X51840Y87120D1*
X51901D1*
X52082Y87181D1*
X52204Y87303D1*
X52264Y87485D1*
Y87546D1*
X52204Y87728D1*
X52082Y87849D1*
X51901Y87909D1*
X51840D1*
X51658Y87849D1*
X51536Y87728D1*
X51475Y87546D1*
X71905Y56796D2*
Y55520D1*
X72330D1*
X72513Y55582D1*
X72635Y55703D1*
X72695Y55825D1*
X72756Y56006D1*
Y56311D1*
X72695Y56493D1*
X72635Y56614D1*
X72513Y56736D1*
X72330Y56796D1*
X71905D1*
X73148Y56552D2*
X73270Y56614D1*
X73452Y56795D1*
Y55520D1*
X74087D2*
X74695Y56795D1*
X73844D1*
X45015Y75517D2*
X46291D1*
Y75942D1*
X46229Y76125D1*
X46109Y76247D1*
X45987Y76307D1*
X45806Y76368D1*
X45501D1*
X45318Y76307D1*
X45198Y76247D1*
X45076Y76125D1*
X45015Y75942D1*
Y75517D1*
X45259Y76760D2*
X45198Y76882D1*
X45017Y77064D1*
X46291D1*
X45017Y77760D2*
X45077Y77579D1*
X45198Y77517D1*
X45320D1*
X45441Y77579D1*
X45502Y77699D1*
X45563Y77942D1*
X45623Y78125D1*
X45745Y78246D1*
X45866Y78306D1*
X46048D1*
X46169Y78246D1*
X46231Y78185D1*
X46291Y78003D1*
Y77760D1*
X46231Y77579D1*
X46169Y77517D1*
X46048Y77457D1*
X45866D1*
X45745Y77517D1*
X45623Y77639D1*
X45563Y77820D1*
X45502Y78063D1*
X45441Y78185D1*
X45320Y78246D1*
X45198D1*
X45077Y78185D1*
X45017Y78003D1*
Y77760D1*
X78415Y54146D2*
X79691D1*
Y54572D1*
X79629Y54754D1*
X79509Y54876D1*
X79387Y54937D1*
X79206Y54997D1*
X78901D1*
X78718Y54937D1*
X78598Y54876D1*
X78476Y54754D1*
X78415Y54572D1*
Y54146D1*
X78659Y55389D2*
X78598Y55511D1*
X78417Y55694D1*
X79691D1*
X78841Y56876D2*
X79023Y56815D1*
X79145Y56694D1*
X79206Y56511D1*
Y56451D1*
X79145Y56269D1*
X79023Y56148D1*
X78841Y56086D1*
X78780D1*
X78598Y56148D1*
X78477Y56269D1*
X78417Y56451D1*
Y56511D1*
X78477Y56694D1*
X78598Y56815D1*
X78841Y56876D1*
X79145D1*
X79448Y56815D1*
X79631Y56694D1*
X79691Y56511D1*
Y56391D1*
X79631Y56208D1*
X79509Y56148D1*
X99415Y39143D2*
X100691D1*
Y39568D1*
X100629Y39751D1*
X100509Y39873D1*
X100387Y39933D1*
X100206Y39994D1*
X99901D1*
X99718Y39933D1*
X99598Y39873D1*
X99476Y39751D1*
X99415Y39568D1*
Y39143D1*
X99720Y40448D2*
X99659D1*
X99537Y40508D1*
X99477Y40569D1*
X99417Y40691D1*
Y40934D1*
X99477Y41054D1*
X99537Y41115D1*
X99659Y41176D1*
X99780D1*
X99902Y41115D1*
X100083Y40994D1*
X100691Y40386D1*
Y41237D1*
X99417Y41994D2*
X99477Y41811D1*
X99659Y41689D1*
X99963Y41629D1*
X100145D1*
X100448Y41689D1*
X100631Y41811D1*
X100691Y41994D1*
Y42115D1*
X100631Y42297D1*
X100448Y42418D1*
X100145Y42480D1*
X99963D1*
X99659Y42418D1*
X99477Y42297D1*
X99417Y42115D1*
Y41994D1*
X99659Y42418D2*
X100448Y41689D1*
X76808Y77616D2*
X78084D1*
Y78042D1*
X78023Y78224D1*
X77902Y78346D1*
X77780Y78407D1*
X77599Y78467D1*
X77294D1*
X77111Y78407D1*
X76991Y78346D1*
X76869Y78224D1*
X76808Y78042D1*
Y77616D1*
X77113Y78921D2*
X77053D1*
X76930Y78981D1*
X76870Y79042D1*
X76810Y79164D1*
Y79407D1*
X76870Y79527D1*
X76930Y79588D1*
X77053Y79649D1*
X77173D1*
X77295Y79588D1*
X77476Y79467D1*
X78084Y78859D1*
Y79710D1*
X77053Y80102D2*
X76991Y80224D1*
X76810Y80407D1*
X78084D1*
X14108Y58743D2*
X15384D1*
Y59168D1*
X15323Y59351D1*
X15202Y59473D1*
X15080Y59533D1*
X14899Y59594D1*
X14594D1*
X14411Y59533D1*
X14291Y59473D1*
X14169Y59351D1*
X14108Y59168D1*
Y58743D1*
X14413Y60048D2*
X14353D1*
X14230Y60108D1*
X14170Y60169D1*
X14110Y60291D1*
Y60534D1*
X14170Y60654D1*
X14230Y60715D1*
X14353Y60776D1*
X14473D1*
X14595Y60715D1*
X14776Y60594D1*
X15384Y59986D1*
Y60837D1*
X14413Y61291D2*
X14353D1*
X14230Y61351D1*
X14170Y61411D1*
X14110Y61534D1*
Y61776D1*
X14170Y61897D1*
X14230Y61957D1*
X14353Y62019D1*
X14473D1*
X14595Y61957D1*
X14776Y61837D1*
X15384Y61229D1*
Y62080D1*
X74632Y98103D2*
Y96827D1*
X75057D1*
X75240Y96889D1*
X75362Y97010D1*
X75422Y97132D1*
X75482Y97313D1*
Y97617D1*
X75422Y97800D1*
X75362Y97921D1*
X75240Y98043D1*
X75057Y98103D1*
X74632D1*
X75936Y97798D2*
Y97859D1*
X75997Y97981D1*
X76057Y98041D1*
X76179Y98102D1*
X76422D1*
X76543Y98041D1*
X76603Y97981D1*
X76665Y97859D1*
Y97738D1*
X76603Y97616D1*
X76483Y97435D1*
X75875Y96827D1*
X76725D1*
X77240Y98102D2*
X77906D1*
X77543Y97616D1*
X77725D1*
X77846Y97556D1*
X77906Y97495D1*
X77968Y97313D1*
Y97192D1*
X77906Y97010D1*
X77786Y96887D1*
X77603Y96827D1*
X77421D1*
X77240Y96887D1*
X77179Y96949D1*
X77118Y97070D1*
X19729Y23861D2*
X21005D1*
X19729Y24711D2*
X21005D1*
X20337Y23861D2*
Y24711D1*
X19729Y25103D2*
X21005D1*
Y25529D1*
X20944Y25711D1*
X20823Y25833D1*
X20701Y25894D1*
X20520Y25954D1*
X20215D1*
X20032Y25894D1*
X19912Y25833D1*
X19790Y25711D1*
X19729Y25529D1*
Y25103D1*
X20337Y26346D2*
Y26892D1*
X20275Y27075D1*
X20215Y27137D1*
X20094Y27197D1*
X19972D1*
X19851Y27137D1*
X19790Y27075D1*
X19729Y26892D1*
Y26346D1*
X21005D1*
X20337Y26772D2*
X21005Y27197D1*
Y28197D2*
X19731D1*
X20580Y27589D1*
Y28500D1*
X21216Y28892D2*
Y30046D1*
X19973Y30439D2*
X19912Y30561D1*
X19731Y30743D1*
X21005D1*
X28512Y36592D2*
Y35316D1*
X29362Y36592D2*
Y35316D1*
X28512Y35984D2*
X29362D1*
X29754Y36592D2*
Y35316D1*
X30180D1*
X30362Y35378D1*
X30484Y35499D1*
X30545Y35621D1*
X30605Y35802D1*
Y36107D1*
X30545Y36289D1*
X30484Y36410D1*
X30362Y36532D1*
X30180Y36592D1*
X29754D1*
X30997Y35984D2*
X31543D1*
X31726Y36046D1*
X31788Y36107D1*
X31848Y36227D1*
Y36349D1*
X31788Y36470D1*
X31726Y36532D1*
X31543Y36592D1*
X30997D1*
Y35316D1*
X31423Y35984D2*
X31848Y35316D1*
X32848D2*
Y36591D1*
X32240Y35742D1*
X33151D1*
X33543Y35106D2*
X34697D1*
X35212Y36591D2*
X35879D1*
X35515Y36105D1*
X35697D1*
X35818Y36045D1*
X35879Y35984D1*
X35940Y35802D1*
Y35681D1*
X35879Y35499D1*
X35758Y35377D1*
X35575Y35316D1*
X35393D1*
X35212Y35377D1*
X35151Y35438D1*
X35090Y35559D1*
X78230Y37072D2*
Y35796D1*
X79081Y37072D2*
Y35796D1*
X78230Y36464D2*
X79081D1*
X79473Y37072D2*
Y35796D1*
X79899D1*
X80081Y35858D1*
X80203Y35978D1*
X80264Y36100D1*
X80324Y36282D1*
Y36586D1*
X80264Y36769D1*
X80203Y36889D1*
X80081Y37012D1*
X79899Y37072D1*
X79473D1*
X80716Y36464D2*
X81262D1*
X81445Y36526D1*
X81507Y36586D1*
X81567Y36707D1*
Y36829D1*
X81507Y36950D1*
X81445Y37012D1*
X81262Y37072D1*
X80716D1*
Y35796D1*
X81142Y36464D2*
X81567Y35796D1*
X82567D2*
Y37070D1*
X81959Y36221D1*
X82870D1*
X83262Y35585D2*
X84416D1*
X85416Y35796D2*
Y37070D1*
X84808Y36221D1*
X85720D1*
X61311Y37042D2*
Y35766D1*
X62161Y37042D2*
Y35766D1*
X61311Y36434D2*
X62161D1*
X62554Y37042D2*
Y35766D1*
X62979D1*
X63161Y35828D1*
X63284Y35948D1*
X63344Y36070D1*
X63404Y36252D1*
Y36556D1*
X63344Y36739D1*
X63284Y36859D1*
X63161Y36982D1*
X62979Y37042D1*
X62554D1*
X63796Y36434D2*
X64342D1*
X64525Y36496D1*
X64587Y36556D1*
X64647Y36677D1*
Y36799D1*
X64587Y36920D1*
X64525Y36982D1*
X64342Y37042D1*
X63796D1*
Y35766D1*
X64222Y36434D2*
X64647Y35766D1*
X65647D2*
Y37040D1*
X65039Y36191D1*
X65950D1*
X66343Y35555D2*
X67496D1*
X68617Y37040D2*
X68011D1*
X67950Y36494D1*
X68011Y36555D1*
X68193Y36617D1*
X68374D1*
X68557Y36555D1*
X68679Y36434D1*
X68739Y36252D1*
Y36131D1*
X68679Y35948D1*
X68557Y35826D1*
X68374Y35766D1*
X68193D1*
X68011Y35826D1*
X67950Y35888D1*
X67889Y36009D1*
X45556Y53521D2*
Y52550D1*
X45495Y52367D1*
X45433Y52307D1*
X45313Y52245D1*
X45191D1*
X45070Y52307D1*
X45009Y52367D1*
X44948Y52550D1*
Y52671D1*
X45948Y53277D2*
X46070Y53339D1*
X46252Y53520D1*
Y52245D1*
X72590Y45345D2*
X73562D1*
X73744Y45285D1*
X73804Y45223D1*
X73866Y45103D1*
Y44980D1*
X73804Y44860D1*
X73744Y44799D1*
X73562Y44738D1*
X73441D1*
X72834Y45738D2*
X72773Y45860D1*
X72592Y46042D1*
X73866D1*
X72895Y46496D2*
X72834D1*
X72712Y46557D1*
X72652Y46617D1*
X72592Y46739D1*
Y46982D1*
X72652Y47103D1*
X72712Y47163D1*
X72834Y47225D1*
X72955D1*
X73077Y47163D1*
X73258Y47042D1*
X73866Y46434D1*
Y47285D1*
X49990Y56515D2*
X50962D1*
X51144Y56455D1*
X51204Y56393D1*
X51266Y56272D1*
Y56150D1*
X51204Y56030D1*
X51144Y55969D1*
X50962Y55907D1*
X50841D1*
X50234Y56907D2*
X50173Y57030D1*
X49992Y57212D1*
X51266D1*
Y58212D2*
X49992D1*
X50841Y57604D1*
Y58515D1*
X112726Y120201D2*
Y118925D1*
X113577Y120201D2*
X112726Y119351D1*
X113029Y119655D2*
X113577Y118925D1*
X113969Y119957D2*
X114091Y120019D1*
X114274Y120200D1*
Y118925D1*
X107681Y52024D2*
X107559Y51964D1*
X107438Y51842D1*
X107376Y51721D1*
X107316Y51539D1*
Y51234D1*
X107376Y51053D1*
X107438Y50931D1*
X107559Y50810D1*
X107681Y50748D1*
X107924D1*
X108044Y50810D1*
X108167Y50931D1*
X108227Y51053D1*
X108287Y51234D1*
Y51539D1*
X108227Y51721D1*
X108167Y51842D1*
X108044Y51964D1*
X107924Y52024D1*
X107681D1*
X108679Y51356D2*
X109227D1*
X109408Y51416D1*
X109470Y51478D1*
X109530Y51599D1*
Y51781D1*
X109470Y51902D1*
X109408Y51964D1*
X109227Y52024D1*
X108679D1*
Y50748D1*
X110348Y52024D2*
Y50748D1*
X109922Y52024D2*
X110773D1*
X111530D2*
X111408Y51964D1*
X111287Y51842D1*
X111226Y51721D1*
X111165Y51539D1*
Y51234D1*
X111226Y51053D1*
X111287Y50931D1*
X111408Y50810D1*
X111530Y50748D1*
X111773D1*
X111894Y50810D1*
X112016Y50931D1*
X112076Y51053D1*
X112137Y51234D1*
Y51539D1*
X112076Y51721D1*
X112016Y51842D1*
X111894Y51964D1*
X111773Y52024D1*
X111530D1*
X113259Y51416D2*
X113137Y51539D1*
X113015Y51599D1*
X112833D1*
X112711Y51539D1*
X112591Y51416D1*
X112529Y51234D1*
Y51113D1*
X112591Y50931D1*
X112711Y50810D1*
X112833Y50748D1*
X113015D1*
X113137Y50810D1*
X113259Y50931D1*
X113954Y51599D2*
X113833Y51539D1*
X113711Y51416D1*
X113651Y51234D1*
Y51113D1*
X113711Y50931D1*
X113833Y50810D1*
X113954Y50748D1*
X114137D1*
X114259Y50810D1*
X114380Y50931D1*
X114441Y51113D1*
Y51234D1*
X114380Y51416D1*
X114259Y51539D1*
X114137Y51599D1*
X113954D1*
X114834D2*
Y50991D1*
X114894Y50810D1*
X115016Y50748D1*
X115199D1*
X115319Y50810D1*
X115502Y50991D1*
Y51599D2*
Y50748D1*
X115894Y51599D2*
Y50323D1*
Y51416D2*
X116016Y51537D1*
X116137Y51599D1*
X116319D1*
X116441Y51537D1*
X116562Y51416D1*
X116624Y51234D1*
Y51112D1*
X116562Y50931D1*
X116441Y50809D1*
X116319Y50748D1*
X116137D1*
X116016Y50809D1*
X115894Y50931D1*
X117016Y52024D2*
Y50748D1*
X117408Y51234D2*
X118137D1*
Y51356D1*
X118076Y51478D1*
X118016Y51539D1*
X117894Y51599D1*
X117711D1*
X117591Y51539D1*
X117469Y51416D1*
X117408Y51234D1*
Y51113D1*
X117469Y50931D1*
X117591Y50810D1*
X117711Y50748D1*
X117894D1*
X118016Y50810D1*
X118137Y50931D1*
X118529Y51599D2*
Y50748D1*
Y51234D2*
X118591Y51416D1*
X118711Y51539D1*
X118834Y51599D1*
X119016D1*
X119408Y51780D2*
X119530Y51842D1*
X119713Y52023D1*
Y50748D1*
X106932Y66472D2*
X106810Y66411D1*
X106690Y66289D1*
X106628Y66168D1*
X106567Y65986D1*
Y65681D1*
X106628Y65500D1*
X106690Y65378D1*
X106810Y65257D1*
X106932Y65195D1*
X107175D1*
X107296Y65257D1*
X107418Y65378D1*
X107479Y65500D1*
X107539Y65681D1*
Y65986D1*
X107479Y66168D1*
X107418Y66289D1*
X107296Y66411D1*
X107175Y66472D1*
X106932D1*
X107931Y65803D2*
X108479D1*
X108660Y65864D1*
X108721Y65925D1*
X108782Y66046D1*
Y66229D1*
X108721Y66349D1*
X108660Y66411D1*
X108479Y66472D1*
X107931D1*
Y65195D1*
X109599Y66472D2*
Y65195D1*
X109174Y66472D2*
X110025D1*
X110782D2*
X110660Y66411D1*
X110539Y66289D1*
X110477Y66168D1*
X110417Y65986D1*
Y65681D1*
X110477Y65500D1*
X110539Y65378D1*
X110660Y65257D1*
X110782Y65195D1*
X111025D1*
X111145Y65257D1*
X111268Y65378D1*
X111328Y65500D1*
X111388Y65681D1*
Y65986D1*
X111328Y66168D1*
X111268Y66289D1*
X111145Y66411D1*
X111025Y66472D1*
X110782D1*
X112510Y65864D2*
X112388Y65986D1*
X112266Y66046D1*
X112085D1*
X111963Y65986D1*
X111842Y65864D1*
X111780Y65681D1*
Y65560D1*
X111842Y65378D1*
X111963Y65257D1*
X112085Y65195D1*
X112266D1*
X112388Y65257D1*
X112510Y65378D1*
X113206Y66046D2*
X113085Y65986D1*
X112963Y65864D1*
X112903Y65681D1*
Y65560D1*
X112963Y65378D1*
X113085Y65257D1*
X113206Y65195D1*
X113388D1*
X113510Y65257D1*
X113631Y65378D1*
X113693Y65560D1*
Y65681D1*
X113631Y65864D1*
X113510Y65986D1*
X113388Y66046D1*
X113206D1*
X114085D2*
Y65438D1*
X114145Y65257D1*
X114268Y65195D1*
X114450D1*
X114571Y65257D1*
X114753Y65438D1*
Y66046D2*
Y65195D1*
X115145Y66046D2*
Y64770D1*
Y65864D2*
X115268Y65984D1*
X115388Y66046D1*
X115571D1*
X115693Y65984D1*
X115814Y65864D1*
X115875Y65681D1*
Y65559D1*
X115814Y65378D1*
X115693Y65256D1*
X115571Y65195D1*
X115388D1*
X115268Y65256D1*
X115145Y65378D1*
X116268Y66472D2*
Y65195D1*
X116660Y65681D2*
X117388D1*
Y65803D1*
X117328Y65925D1*
X117268Y65986D1*
X117146Y66046D1*
X116963D1*
X116842Y65986D1*
X116720Y65864D1*
X116660Y65681D1*
Y65560D1*
X116720Y65378D1*
X116842Y65257D1*
X116963Y65195D1*
X117146D1*
X117268Y65257D1*
X117388Y65378D1*
X117781Y66046D2*
Y65195D1*
Y65681D2*
X117842Y65864D1*
X117963Y65986D1*
X118085Y66046D1*
X118268D1*
X118722Y66167D2*
Y66227D1*
X118782Y66349D1*
X118842Y66410D1*
X118964Y66470D1*
X119207D1*
X119328Y66410D1*
X119388Y66349D1*
X119450Y66227D1*
Y66107D1*
X119388Y65984D1*
X119268Y65803D1*
X118660Y65195D1*
X119511D1*
X107725Y81396D2*
X107603Y81336D1*
X107482Y81214D1*
X107421Y81093D1*
X107360Y80910D1*
Y80606D1*
X107421Y80425D1*
X107482Y80302D1*
X107603Y80182D1*
X107725Y80120D1*
X107968D1*
X108089Y80182D1*
X108211Y80302D1*
X108271Y80425D1*
X108332Y80606D1*
Y80910D1*
X108271Y81093D1*
X108211Y81214D1*
X108089Y81336D1*
X107968Y81396D1*
X107725D1*
X108724Y80728D2*
X109271D1*
X109453Y80788D1*
X109514Y80850D1*
X109575Y80971D1*
Y81153D1*
X109514Y81274D1*
X109453Y81336D1*
X109271Y81396D1*
X108724D1*
Y80120D1*
X110392Y81396D2*
Y80120D1*
X109967Y81396D2*
X110818D1*
X111575D2*
X111453Y81336D1*
X111332Y81214D1*
X111270Y81093D1*
X111210Y80910D1*
Y80606D1*
X111270Y80425D1*
X111332Y80302D1*
X111453Y80182D1*
X111575Y80120D1*
X111818D1*
X111938Y80182D1*
X112060Y80302D1*
X112121Y80425D1*
X112181Y80606D1*
Y80910D1*
X112121Y81093D1*
X112060Y81214D1*
X111938Y81336D1*
X111818Y81396D1*
X111575D1*
X113303Y80788D2*
X113181Y80910D1*
X113059Y80971D1*
X112878D1*
X112756Y80910D1*
X112635Y80788D1*
X112573Y80606D1*
Y80485D1*
X112635Y80302D1*
X112756Y80182D1*
X112878Y80120D1*
X113059D1*
X113181Y80182D1*
X113303Y80302D1*
X113999Y80971D2*
X113878Y80910D1*
X113756Y80788D1*
X113695Y80606D1*
Y80485D1*
X113756Y80302D1*
X113878Y80182D1*
X113999Y80120D1*
X114181D1*
X114303Y80182D1*
X114424Y80302D1*
X114486Y80485D1*
Y80606D1*
X114424Y80788D1*
X114303Y80910D1*
X114181Y80971D1*
X113999D1*
X114878D2*
Y80363D1*
X114938Y80182D1*
X115061Y80120D1*
X115243D1*
X115364Y80182D1*
X115546Y80363D1*
Y80971D2*
Y80120D1*
X115938Y80971D2*
Y79695D1*
Y80788D2*
X116061Y80909D1*
X116181Y80971D1*
X116364D1*
X116486Y80909D1*
X116607Y80788D1*
X116668Y80606D1*
Y80484D1*
X116607Y80302D1*
X116486Y80180D1*
X116364Y80120D1*
X116181D1*
X116061Y80180D1*
X115938Y80302D1*
X117061Y81396D2*
Y80120D1*
X117453Y80606D2*
X118181D1*
Y80728D1*
X118121Y80850D1*
X118061Y80910D1*
X117938Y80971D1*
X117756D1*
X117635Y80910D1*
X117513Y80788D1*
X117453Y80606D1*
Y80485D1*
X117513Y80302D1*
X117635Y80182D1*
X117756Y80120D1*
X117938D1*
X118061Y80182D1*
X118181Y80302D1*
X118573Y80971D2*
Y80120D1*
Y80606D2*
X118635Y80788D1*
X118756Y80910D1*
X118878Y80971D1*
X119061D1*
X119575Y81395D2*
X120242D1*
X119878Y80909D1*
X120061D1*
X120181Y80849D1*
X120242Y80788D1*
X120303Y80606D1*
Y80485D1*
X120242Y80302D1*
X120121Y80180D1*
X119938Y80120D1*
X119756D1*
X119575Y80180D1*
X119515Y80242D1*
X119453Y80363D1*
X107695Y95844D2*
X107573Y95783D1*
X107452Y95661D1*
X107390Y95541D1*
X107330Y95358D1*
Y95053D1*
X107390Y94872D1*
X107452Y94750D1*
X107573Y94630D1*
X107695Y94568D1*
X107938D1*
X108059Y94630D1*
X108181Y94750D1*
X108241Y94872D1*
X108302Y95053D1*
Y95358D1*
X108241Y95541D1*
X108181Y95661D1*
X108059Y95783D1*
X107938Y95844D1*
X107695D1*
X108694Y95176D2*
X109241D1*
X109422Y95236D1*
X109484Y95298D1*
X109544Y95418D1*
Y95601D1*
X109484Y95722D1*
X109422Y95783D1*
X109241Y95844D1*
X108694D1*
Y94568D1*
X110362Y95844D2*
Y94568D1*
X109937Y95844D2*
X110787D1*
X111545D2*
X111422Y95783D1*
X111302Y95661D1*
X111240Y95541D1*
X111180Y95358D1*
Y95053D1*
X111240Y94872D1*
X111302Y94750D1*
X111422Y94630D1*
X111545Y94568D1*
X111787D1*
X111908Y94630D1*
X112030Y94750D1*
X112091Y94872D1*
X112151Y95053D1*
Y95358D1*
X112091Y95541D1*
X112030Y95661D1*
X111908Y95783D1*
X111787Y95844D1*
X111545D1*
X113273Y95236D2*
X113151Y95358D1*
X113029Y95418D1*
X112848D1*
X112726Y95358D1*
X112605Y95236D1*
X112543Y95053D1*
Y94933D1*
X112605Y94750D1*
X112726Y94630D1*
X112848Y94568D1*
X113029D1*
X113151Y94630D1*
X113273Y94750D1*
X113969Y95418D2*
X113848Y95358D1*
X113726Y95236D1*
X113665Y95053D1*
Y94933D1*
X113726Y94750D1*
X113848Y94630D1*
X113969Y94568D1*
X114151D1*
X114273Y94630D1*
X114394Y94750D1*
X114456Y94933D1*
Y95053D1*
X114394Y95236D1*
X114273Y95358D1*
X114151Y95418D1*
X113969D1*
X114848D2*
Y94811D1*
X114908Y94630D1*
X115030Y94568D1*
X115213D1*
X115334Y94630D1*
X115516Y94811D1*
Y95418D2*
Y94568D1*
X115908Y95418D2*
Y94142D1*
Y95236D2*
X116030Y95357D1*
X116151Y95418D1*
X116334D1*
X116456Y95357D1*
X116576Y95236D1*
X116638Y95053D1*
Y94931D1*
X116576Y94750D1*
X116456Y94628D1*
X116334Y94568D1*
X116151D1*
X116030Y94628D1*
X115908Y94750D1*
X117030Y95844D2*
Y94568D1*
X117423Y95053D2*
X118151D1*
Y95176D1*
X118091Y95298D1*
X118030Y95358D1*
X117908Y95418D1*
X117726D1*
X117605Y95358D1*
X117483Y95236D1*
X117423Y95053D1*
Y94933D1*
X117483Y94750D1*
X117605Y94630D1*
X117726Y94568D1*
X117908D1*
X118030Y94630D1*
X118151Y94750D1*
X118543Y95418D2*
Y94568D1*
Y95053D2*
X118605Y95236D1*
X118726Y95358D1*
X118848Y95418D1*
X119030D1*
X120030Y94568D2*
Y95842D1*
X119423Y94993D1*
X120334D1*
X100557Y54773D2*
X100436Y54714D1*
X100314Y54592D1*
X100254Y54470D1*
X100192Y54287D1*
Y53984D1*
X100254Y53801D1*
X100314Y53681D1*
X100436Y53558D1*
X100557Y53498D1*
X100800D1*
X100922Y53558D1*
X101043Y53681D1*
X101103Y53801D1*
X101165Y53984D1*
Y54287D1*
X101103Y54470D1*
X101043Y54592D1*
X100922Y54714D1*
X100800Y54773D1*
X100557D1*
X100740Y53741D2*
X101103Y53376D1*
X101679Y54771D2*
X102346D1*
X101983Y54286D1*
X102165D1*
X102286Y54225D1*
X102346Y54165D1*
X102408Y53982D1*
Y53862D1*
X102346Y53679D1*
X102225Y53557D1*
X102043Y53497D1*
X101860D1*
X101679Y53557D1*
X101619Y53619D1*
X101557Y53740D1*
X26298Y43938D2*
Y44484D1*
X26236Y44666D1*
X26176Y44728D1*
X26055Y44788D1*
X25933D1*
X25812Y44728D1*
X25751Y44666D1*
X25690Y44484D1*
Y43938D1*
X26966D1*
X26298Y44363D2*
X26966Y44788D1*
X25934Y45180D2*
X25873Y45303D1*
X25692Y45485D1*
X26966D1*
X21798Y43665D2*
Y44211D1*
X21736Y44393D1*
X21676Y44455D1*
X21555Y44515D1*
X21433D1*
X21312Y44455D1*
X21251Y44393D1*
X21190Y44211D1*
Y43665D1*
X22466D1*
X21798Y44090D2*
X22466Y44515D1*
X21495Y44969D2*
X21434D1*
X21312Y45030D1*
X21252Y45090D1*
X21192Y45212D1*
Y45455D1*
X21252Y45576D1*
X21312Y45636D1*
X21434Y45698D1*
X21555D1*
X21677Y45636D1*
X21858Y45515D1*
X22466Y44907D1*
Y45758D1*
X99494Y56846D2*
Y57392D1*
X99432Y57575D1*
X99372Y57637D1*
X99251Y57697D1*
X99129D1*
X99008Y57637D1*
X98947Y57575D1*
X98886Y57392D1*
Y56846D1*
X100162D1*
X99494Y57272D2*
X100162Y57697D1*
X99130Y58089D2*
X99069Y58211D1*
X98888Y58394D1*
X100162D1*
X99312Y59576D2*
X99494Y59515D1*
X99616Y59394D1*
X99677Y59211D1*
Y59151D1*
X99616Y58969D1*
X99494Y58848D1*
X99312Y58786D1*
X99251D1*
X99069Y58848D1*
X98948Y58969D1*
X98888Y59151D1*
Y59211D1*
X98948Y59394D1*
X99069Y59515D1*
X99312Y59576D1*
X99616D1*
X99919Y59515D1*
X100102Y59394D1*
X100162Y59211D1*
Y59091D1*
X100102Y58908D1*
X99980Y58848D1*
X27805Y68213D2*
X28351D1*
X28533Y68275D1*
X28595Y68336D1*
X28656Y68456D1*
Y68578D1*
X28595Y68699D1*
X28533Y68761D1*
X28351Y68821D1*
X27805D1*
Y67545D1*
X28230Y68213D2*
X28656Y67545D1*
X29109Y68517D2*
Y68577D1*
X29170Y68699D1*
X29230Y68759D1*
X29352Y68820D1*
X29595D1*
X29716Y68759D1*
X29776Y68699D1*
X29838Y68577D1*
Y68456D1*
X29776Y68334D1*
X29656Y68153D1*
X29048Y67545D1*
X29898D1*
X30291Y68577D2*
X30413Y68639D1*
X30595Y68820D1*
Y67545D1*
X99698Y63443D2*
Y63989D1*
X99636Y64172D1*
X99576Y64233D1*
X99455Y64294D1*
X99333D1*
X99212Y64233D1*
X99151Y64172D1*
X99090Y63989D1*
Y63443D1*
X100366D1*
X99698Y63868D2*
X100366Y64294D1*
X99395Y64748D2*
X99334D1*
X99212Y64808D1*
X99152Y64869D1*
X99092Y64991D1*
Y65234D1*
X99152Y65354D1*
X99212Y65415D1*
X99334Y65476D1*
X99455D1*
X99577Y65415D1*
X99758Y65294D1*
X100366Y64686D1*
Y65537D1*
X99395Y65991D2*
X99334D1*
X99212Y66051D1*
X99152Y66111D1*
X99092Y66234D1*
Y66476D1*
X99152Y66597D1*
X99212Y66657D1*
X99334Y66719D1*
X99455D1*
X99577Y66657D1*
X99758Y66537D1*
X100366Y65929D1*
Y66780D1*
X95098Y68513D2*
Y69059D1*
X95036Y69242D1*
X94976Y69303D1*
X94855Y69364D1*
X94733D1*
X94612Y69303D1*
X94551Y69242D1*
X94490Y69059D1*
Y68513D1*
X95766D1*
X95098Y68938D2*
X95766Y69364D1*
X94795Y69818D2*
X94734D1*
X94612Y69878D1*
X94552Y69938D1*
X94492Y70060D1*
Y70303D1*
X94552Y70424D1*
X94612Y70484D1*
X94734Y70546D1*
X94855D1*
X94977Y70484D1*
X95158Y70364D1*
X95766Y69756D1*
Y70607D1*
Y71607D2*
X94492D1*
X95341Y70999D1*
Y71910D1*
X101498Y69743D2*
Y70289D1*
X101436Y70472D1*
X101376Y70533D1*
X101255Y70594D1*
X101133D1*
X101012Y70533D1*
X100951Y70472D1*
X100890Y70289D1*
Y69743D1*
X102166D1*
X101498Y70168D2*
X102166Y70594D1*
X101195Y71048D2*
X101134D1*
X101012Y71108D1*
X100952Y71169D1*
X100892Y71291D1*
Y71534D1*
X100952Y71654D1*
X101012Y71715D1*
X101134Y71776D1*
X101255D1*
X101377Y71715D1*
X101558Y71594D1*
X102166Y70986D1*
Y71837D1*
X100892Y72957D2*
Y72351D1*
X101438Y72291D1*
X101377Y72351D1*
X101316Y72534D1*
Y72715D1*
X101377Y72897D1*
X101498Y73019D1*
X101681Y73080D1*
X101801D1*
X101984Y73019D1*
X102106Y72897D1*
X102166Y72715D1*
Y72534D1*
X102106Y72351D1*
X102044Y72291D1*
X101923Y72229D1*
X41098Y72974D2*
Y73520D1*
X41036Y73703D1*
X40976Y73764D1*
X40855Y73825D1*
X40733D1*
X40612Y73764D1*
X40551Y73703D1*
X40490Y73520D1*
Y72974D1*
X41766D1*
X41098Y73399D2*
X41766Y73825D1*
X40795Y74279D2*
X40734D1*
X40612Y74339D1*
X40552Y74399D1*
X40492Y74522D1*
Y74764D1*
X40552Y74885D1*
X40612Y74945D1*
X40734Y75007D1*
X40855D1*
X40977Y74945D1*
X41158Y74825D1*
X41766Y74217D1*
Y75068D1*
X40673Y76188D2*
X40552Y76128D1*
X40492Y75946D1*
Y75825D1*
X40552Y75642D1*
X40734Y75520D1*
X41038Y75460D1*
X41341D1*
X41584Y75520D1*
X41706Y75642D1*
X41766Y75825D1*
Y75885D1*
X41706Y76066D1*
X41584Y76188D1*
X41401Y76249D1*
X41341D1*
X41158Y76188D1*
X41038Y76066D1*
X40977Y75885D1*
Y75825D1*
X41038Y75642D1*
X41158Y75520D1*
X41341Y75460D1*
X77698Y38243D2*
Y38789D1*
X77636Y38972D1*
X77576Y39033D1*
X77455Y39094D1*
X77333D1*
X77212Y39033D1*
X77151Y38972D1*
X77090Y38789D1*
Y38243D1*
X78366D1*
X77698Y38668D2*
X78366Y39094D1*
X77395Y39548D2*
X77334D1*
X77212Y39608D1*
X77152Y39669D1*
X77092Y39791D1*
Y40034D1*
X77152Y40154D1*
X77212Y40215D1*
X77334Y40276D1*
X77455D1*
X77577Y40215D1*
X77758Y40094D1*
X78366Y39486D1*
Y40337D1*
Y40972D2*
X77092Y41580D1*
Y40729D1*
X90498Y68544D2*
Y69090D1*
X90436Y69272D1*
X90376Y69334D1*
X90255Y69395D1*
X90133D1*
X90012Y69334D1*
X89951Y69272D1*
X89890Y69090D1*
Y68544D1*
X91166D1*
X90498Y68969D2*
X91166Y69395D1*
X90195Y69848D2*
X90134D1*
X90012Y69909D1*
X89952Y69969D1*
X89892Y70091D1*
Y70334D1*
X89952Y70455D1*
X90012Y70515D1*
X90134Y70577D1*
X90255D1*
X90377Y70515D1*
X90558Y70395D1*
X91166Y69787D1*
Y70637D1*
X89892Y71333D2*
X89952Y71152D1*
X90073Y71090D1*
X90195D1*
X90316Y71152D1*
X90377Y71272D1*
X90438Y71515D1*
X90498Y71698D1*
X90620Y71819D1*
X90741Y71879D1*
X90923D1*
X91044Y71819D1*
X91106Y71758D1*
X91166Y71576D1*
Y71333D1*
X91106Y71152D1*
X91044Y71090D1*
X90923Y71030D1*
X90741D1*
X90620Y71090D1*
X90498Y71212D1*
X90438Y71393D1*
X90377Y71636D1*
X90316Y71758D1*
X90195Y71819D1*
X90073D1*
X89952Y71758D1*
X89892Y71576D1*
Y71333D1*
X101498Y75973D2*
Y76519D1*
X101436Y76702D1*
X101376Y76764D1*
X101255Y76824D1*
X101133D1*
X101012Y76764D1*
X100951Y76702D1*
X100890Y76519D1*
Y75973D1*
X102166D1*
X101498Y76399D2*
X102166Y76824D1*
X101195Y77278D2*
X101134D1*
X101012Y77338D1*
X100952Y77399D1*
X100892Y77521D1*
Y77764D1*
X100952Y77884D1*
X101012Y77945D1*
X101134Y78007D1*
X101255D1*
X101377Y77945D1*
X101558Y77824D1*
X102166Y77216D1*
Y78067D1*
X101316Y79249D2*
X101498Y79188D1*
X101620Y79067D1*
X101681Y78884D1*
Y78824D1*
X101620Y78642D1*
X101498Y78521D1*
X101316Y78459D1*
X101255D1*
X101073Y78521D1*
X100952Y78642D1*
X100892Y78824D1*
Y78884D1*
X100952Y79067D1*
X101073Y79188D1*
X101316Y79249D1*
X101620D1*
X101923Y79188D1*
X102106Y79067D1*
X102166Y78884D1*
Y78764D1*
X102106Y78581D1*
X101984Y78521D1*
X36332Y69413D2*
X36878D1*
X37060Y69475D1*
X37122Y69536D1*
X37182Y69656D1*
Y69778D1*
X37122Y69899D1*
X37060Y69961D1*
X36878Y70021D1*
X36332D1*
Y68745D1*
X36757Y69413D2*
X37182Y68745D1*
X37697Y70020D2*
X38364D1*
X38000Y69534D1*
X38182D1*
X38303Y69474D1*
X38364Y69413D1*
X38425Y69231D1*
Y69110D1*
X38364Y68928D1*
X38243Y68806D1*
X38060Y68745D1*
X37878D1*
X37697Y68806D1*
X37636Y68867D1*
X37575Y68988D1*
X39183Y70020D2*
X39000Y69959D1*
X38878Y69777D1*
X38818Y69474D1*
Y69291D1*
X38878Y68988D1*
X39000Y68806D1*
X39183Y68745D1*
X39303D1*
X39486Y68806D1*
X39606Y68988D1*
X39668Y69291D1*
Y69474D1*
X39606Y69777D1*
X39486Y69959D1*
X39303Y70020D1*
X39183D1*
X39606Y69777D2*
X38878Y68988D1*
X63998Y85016D2*
Y85562D1*
X63936Y85745D1*
X63876Y85807D1*
X63755Y85867D1*
X63633D1*
X63512Y85807D1*
X63451Y85745D1*
X63390Y85562D1*
Y85016D1*
X64666D1*
X63998Y85442D2*
X64666Y85867D1*
X63392Y86381D2*
Y87048D1*
X63877Y86684D1*
Y86867D1*
X63938Y86988D1*
X63998Y87048D1*
X64181Y87110D1*
X64301D1*
X64484Y87048D1*
X64606Y86927D1*
X64666Y86745D1*
Y86562D1*
X64606Y86381D1*
X64544Y86321D1*
X64423Y86259D1*
X63634Y87502D2*
X63573Y87624D1*
X63392Y87807D1*
X64666D1*
X66298Y64943D2*
Y65489D1*
X66236Y65672D1*
X66176Y65733D1*
X66055Y65794D1*
X65933D1*
X65812Y65733D1*
X65751Y65672D1*
X65690Y65489D1*
Y64943D1*
X66966D1*
X66298Y65368D2*
X66966Y65794D1*
X65692Y66308D2*
Y66975D1*
X66177Y66611D1*
Y66794D1*
X66238Y66915D1*
X66298Y66975D1*
X66481Y67037D1*
X66601D1*
X66784Y66975D1*
X66906Y66854D1*
X66966Y66672D1*
Y66489D1*
X66906Y66308D1*
X66844Y66248D1*
X66723Y66186D1*
X65995Y67491D2*
X65934D1*
X65812Y67551D1*
X65752Y67611D1*
X65692Y67734D1*
Y67976D1*
X65752Y68097D1*
X65812Y68157D1*
X65934Y68219D1*
X66055D1*
X66177Y68157D1*
X66358Y68037D1*
X66966Y67429D1*
Y68280D1*
X68098Y57943D2*
Y58489D1*
X68036Y58672D1*
X67976Y58733D1*
X67855Y58794D1*
X67733D1*
X67612Y58733D1*
X67551Y58672D1*
X67490Y58489D1*
Y57943D1*
X68766D1*
X68098Y58368D2*
X68766Y58794D1*
X67492Y59308D2*
Y59975D1*
X67977Y59611D1*
Y59794D1*
X68038Y59915D1*
X68098Y59975D1*
X68281Y60037D1*
X68401D1*
X68584Y59975D1*
X68706Y59854D1*
X68766Y59672D1*
Y59489D1*
X68706Y59308D1*
X68644Y59248D1*
X68523Y59186D1*
X67492Y60551D2*
Y61218D1*
X67977Y60854D1*
Y61037D1*
X68038Y61157D1*
X68098Y61218D1*
X68281Y61280D1*
X68401D1*
X68584Y61218D1*
X68706Y61097D1*
X68766Y60915D1*
Y60732D1*
X68706Y60551D1*
X68644Y60491D1*
X68523Y60429D1*
X101002Y85013D2*
X101548D1*
X101730Y85075D1*
X101792Y85136D1*
X101852Y85256D1*
Y85378D1*
X101792Y85499D1*
X101730Y85561D1*
X101548Y85621D1*
X101002D1*
Y84345D1*
X101427Y85013D2*
X101852Y84345D1*
X102367Y85620D2*
X103033D1*
X102670Y85134D1*
X102852D1*
X102973Y85074D1*
X103033Y85013D1*
X103095Y84831D1*
Y84710D1*
X103033Y84528D1*
X102913Y84406D1*
X102730Y84345D1*
X102548D1*
X102367Y84406D1*
X102306Y84467D1*
X102244Y84588D1*
X104095Y84345D2*
Y85620D1*
X103487Y84771D1*
X104398D1*
X95732Y89613D2*
X96278D1*
X96460Y89675D1*
X96522Y89736D1*
X96582Y89856D1*
Y89978D1*
X96522Y90099D1*
X96460Y90161D1*
X96278Y90221D1*
X95732D1*
Y88945D1*
X96157Y89613D2*
X96582Y88945D1*
X97097Y90220D2*
X97764D1*
X97400Y89734D1*
X97583D1*
X97703Y89674D1*
X97764Y89613D1*
X97825Y89431D1*
Y89310D1*
X97764Y89128D1*
X97643Y89006D1*
X97460Y88945D1*
X97278D1*
X97097Y89006D1*
X97036Y89067D1*
X96975Y89188D1*
X98946Y90220D2*
X98340D1*
X98279Y89674D1*
X98340Y89734D1*
X98522Y89796D1*
X98703D1*
X98886Y89734D1*
X99008Y89613D1*
X99068Y89431D1*
Y89310D1*
X99008Y89128D1*
X98886Y89006D1*
X98703Y88945D1*
X98522D1*
X98340Y89006D1*
X98279Y89067D1*
X98218Y89188D1*
X89998Y86874D2*
Y87420D1*
X89936Y87603D1*
X89876Y87664D1*
X89755Y87725D1*
X89633D1*
X89512Y87664D1*
X89451Y87603D1*
X89390Y87420D1*
Y86874D1*
X90666D1*
X89998Y87299D2*
X90666Y87725D1*
X89392Y88239D2*
Y88906D1*
X89877Y88542D1*
Y88725D1*
X89938Y88845D1*
X89998Y88906D1*
X90181Y88968D1*
X90301D1*
X90484Y88906D1*
X90606Y88785D1*
X90666Y88603D1*
Y88420D1*
X90606Y88239D1*
X90544Y88179D1*
X90423Y88117D1*
X89573Y90088D2*
X89452Y90028D1*
X89392Y89846D1*
Y89725D1*
X89452Y89542D1*
X89634Y89420D1*
X89938Y89360D1*
X90241D1*
X90484Y89420D1*
X90606Y89542D1*
X90666Y89725D1*
Y89785D1*
X90606Y89966D1*
X90484Y90088D1*
X90301Y90149D1*
X90241D1*
X90058Y90088D1*
X89938Y89966D1*
X89877Y89785D1*
Y89725D1*
X89938Y89542D1*
X90058Y89420D1*
X90241Y89360D1*
X67532Y75213D2*
X68078D1*
X68260Y75275D1*
X68322Y75336D1*
X68382Y75456D1*
Y75578D1*
X68322Y75699D1*
X68260Y75761D1*
X68078Y75821D1*
X67532D1*
Y74545D1*
X67957Y75213D2*
X68382Y74545D1*
X68897Y75820D2*
X69564D1*
X69200Y75334D1*
X69383D1*
X69503Y75274D1*
X69564Y75213D1*
X69625Y75031D1*
Y74910D1*
X69564Y74728D1*
X69443Y74606D1*
X69260Y74545D1*
X69078D1*
X68897Y74606D1*
X68836Y74667D1*
X68775Y74788D1*
X70260Y74545D2*
X70868Y75820D1*
X70018D1*
X17198Y35344D2*
Y35890D1*
X17136Y36072D1*
X17076Y36134D1*
X16955Y36195D1*
X16833D1*
X16712Y36134D1*
X16651Y36072D1*
X16590Y35890D1*
Y35344D1*
X17866D1*
X17198Y35769D2*
X17866Y36195D1*
X16592Y36709D2*
Y37376D1*
X17077Y37012D1*
Y37195D1*
X17138Y37315D1*
X17198Y37376D1*
X17381Y37437D1*
X17501D1*
X17684Y37376D1*
X17806Y37255D1*
X17866Y37072D1*
Y36890D1*
X17806Y36709D1*
X17744Y36648D1*
X17623Y36587D1*
X16592Y38133D2*
X16652Y37952D1*
X16773Y37890D1*
X16895D1*
X17016Y37952D1*
X17077Y38072D1*
X17138Y38315D1*
X17198Y38498D1*
X17320Y38619D1*
X17441Y38679D1*
X17623D1*
X17744Y38619D1*
X17806Y38558D1*
X17866Y38376D1*
Y38133D1*
X17806Y37952D1*
X17744Y37890D1*
X17623Y37830D1*
X17441D1*
X17320Y37890D1*
X17198Y38012D1*
X17138Y38193D1*
X17077Y38436D1*
X17016Y38558D1*
X16895Y38619D1*
X16773D1*
X16652Y38558D1*
X16592Y38376D1*
Y38133D1*
X77698Y44413D2*
Y44959D1*
X77636Y45142D1*
X77576Y45203D1*
X77455Y45264D1*
X77333D1*
X77212Y45203D1*
X77151Y45142D1*
X77090Y44959D1*
Y44413D1*
X78366D1*
X77698Y44838D2*
X78366Y45264D1*
Y46264D2*
X77092D1*
X77941Y45656D1*
Y46567D1*
X77395Y47021D2*
X77334D1*
X77212Y47081D1*
X77152Y47142D1*
X77092Y47264D1*
Y47507D1*
X77152Y47627D1*
X77212Y47688D1*
X77334Y47749D1*
X77455D1*
X77577Y47688D1*
X77758Y47567D1*
X78366Y46959D1*
Y47810D1*
X38198Y52113D2*
Y52659D1*
X38136Y52842D1*
X38076Y52903D1*
X37955Y52964D1*
X37833D1*
X37712Y52903D1*
X37651Y52842D1*
X37590Y52659D1*
Y52113D1*
X38866D1*
X38198Y52538D2*
X38866Y52964D1*
Y53964D2*
X37592D1*
X38441Y53356D1*
Y54267D1*
X37592Y54781D2*
Y55448D1*
X38077Y55084D1*
Y55267D1*
X38138Y55388D1*
X38198Y55448D1*
X38381Y55510D1*
X38501D1*
X38684Y55448D1*
X38806Y55327D1*
X38866Y55145D1*
Y54962D1*
X38806Y54781D1*
X38744Y54721D1*
X38623Y54659D1*
X51316Y37988D2*
X51862D1*
X52045Y38050D1*
X52107Y38110D1*
X52167Y38231D1*
Y38353D1*
X52107Y38474D1*
X52045Y38536D1*
X51862Y38596D1*
X51316D1*
Y37320D1*
X51742Y37988D2*
X52167Y37320D1*
X53167D2*
Y38595D1*
X52559Y37745D1*
X53470D1*
X54470Y37320D2*
Y38595D1*
X53863Y37745D1*
X54774D1*
X33598Y50113D2*
Y50659D1*
X33536Y50842D1*
X33476Y50903D1*
X33355Y50964D1*
X33233D1*
X33112Y50903D1*
X33051Y50842D1*
X32990Y50659D1*
Y50113D1*
X34266D1*
X33598Y50538D2*
X34266Y50964D1*
Y51964D2*
X32992D1*
X33841Y51356D1*
Y52267D1*
X32992Y53388D2*
Y52781D1*
X33538Y52721D1*
X33477Y52781D1*
X33416Y52964D1*
Y53145D1*
X33477Y53327D1*
X33598Y53449D1*
X33781Y53510D1*
X33901D1*
X34084Y53449D1*
X34206Y53327D1*
X34266Y53145D1*
Y52964D1*
X34206Y52781D1*
X34144Y52721D1*
X34023Y52659D1*
X71223Y79244D2*
Y79790D1*
X71161Y79972D1*
X71101Y80034D1*
X70980Y80095D1*
X70858D1*
X70737Y80034D1*
X70676Y79972D1*
X70615Y79790D1*
Y79244D1*
X71891D1*
X71223Y79669D2*
X71891Y80095D1*
Y81095D2*
X70617D1*
X71466Y80487D1*
Y81398D1*
X70798Y82519D2*
X70677Y82458D1*
X70617Y82276D1*
Y82155D1*
X70677Y81972D1*
X70859Y81850D1*
X71163Y81790D1*
X71466D1*
X71709Y81850D1*
X71831Y81972D1*
X71891Y82155D1*
Y82215D1*
X71831Y82396D1*
X71709Y82519D1*
X71526Y82579D1*
X71466D1*
X71283Y82519D1*
X71163Y82396D1*
X71102Y82215D1*
Y82155D1*
X71163Y81972D1*
X71283Y81850D1*
X71466Y81790D1*
X58902Y87413D2*
X59448D1*
X59630Y87475D1*
X59692Y87536D1*
X59752Y87656D1*
Y87778D1*
X59692Y87899D1*
X59630Y87961D1*
X59448Y88021D1*
X58902D1*
Y86745D1*
X59327Y87413D2*
X59752Y86745D1*
X60752D2*
Y88020D1*
X60144Y87171D1*
X61056D1*
X61691Y86745D2*
X62298Y88020D1*
X61448D1*
X50702Y94063D2*
X51248D1*
X51431Y94125D1*
X51493Y94186D1*
X51553Y94306D1*
Y94428D1*
X51493Y94549D1*
X51431Y94611D1*
X51248Y94671D1*
X50702D1*
Y93395D1*
X51128Y94063D2*
X51553Y93395D1*
X52553D2*
Y94670D1*
X51945Y93821D1*
X52856D1*
X53552Y94670D2*
X53371Y94609D1*
X53309Y94489D1*
Y94367D1*
X53371Y94246D1*
X53491Y94184D1*
X53734Y94124D1*
X53917Y94063D1*
X54037Y93941D1*
X54098Y93821D1*
Y93638D1*
X54037Y93517D1*
X53977Y93456D1*
X53795Y93395D1*
X53552D1*
X53371Y93456D1*
X53309Y93517D1*
X53248Y93638D1*
Y93821D1*
X53309Y93941D1*
X53431Y94063D1*
X53612Y94124D1*
X53855Y94184D1*
X53977Y94246D1*
X54037Y94367D1*
Y94489D1*
X53977Y94609D1*
X53795Y94670D1*
X53552D1*
X100332Y100963D2*
X100878D1*
X101060Y101025D1*
X101122Y101086D1*
X101182Y101206D1*
Y101328D1*
X101122Y101449D1*
X101060Y101511D1*
X100878Y101571D1*
X100332D1*
Y100295D1*
X100757Y100963D2*
X101182Y100295D1*
X102183D2*
Y101570D1*
X101575Y100721D1*
X102486D1*
X103668Y101146D2*
X103606Y100963D1*
X103486Y100841D1*
X103303Y100781D1*
X103243D1*
X103060Y100841D1*
X102940Y100963D1*
X102878Y101146D1*
Y101206D1*
X102940Y101389D1*
X103060Y101509D1*
X103243Y101570D1*
X103303D1*
X103486Y101509D1*
X103606Y101389D1*
X103668Y101146D1*
Y100841D1*
X103606Y100538D1*
X103486Y100356D1*
X103303Y100295D1*
X103183D1*
X103000Y100356D1*
X102940Y100478D1*
X100332Y105863D2*
X100878D1*
X101060Y105925D1*
X101122Y105986D1*
X101182Y106106D1*
Y106228D1*
X101122Y106349D1*
X101060Y106411D1*
X100878Y106471D1*
X100332D1*
Y105195D1*
X100757Y105863D2*
X101182Y105195D1*
X102303Y106470D2*
X101697D1*
X101636Y105924D1*
X101697Y105984D1*
X101879Y106046D1*
X102060D1*
X102243Y105984D1*
X102365Y105863D1*
X102425Y105681D1*
Y105560D1*
X102365Y105378D1*
X102243Y105256D1*
X102060Y105195D1*
X101879D1*
X101697Y105256D1*
X101636Y105317D1*
X101575Y105438D1*
X103183Y106470D2*
X103000Y106409D1*
X102878Y106227D1*
X102818Y105924D1*
Y105741D1*
X102878Y105438D1*
X103000Y105256D1*
X103183Y105195D1*
X103303D1*
X103486Y105256D1*
X103606Y105438D1*
X103668Y105741D1*
Y105924D1*
X103606Y106227D1*
X103486Y106409D1*
X103303Y106470D1*
X103183D1*
X103606Y106227D2*
X102878Y105438D1*
X100605Y110663D2*
X101151D1*
X101333Y110725D1*
X101395Y110786D1*
X101456Y110906D1*
Y111028D1*
X101395Y111149D1*
X101333Y111211D1*
X101151Y111271D1*
X100605D1*
Y109995D1*
X101030Y110663D2*
X101456Y109995D1*
X102576Y111270D2*
X101970D1*
X101909Y110724D1*
X101970Y110784D1*
X102152Y110846D1*
X102333D1*
X102516Y110784D1*
X102638Y110663D1*
X102698Y110481D1*
Y110360D1*
X102638Y110178D1*
X102516Y110056D1*
X102333Y109995D1*
X102152D1*
X101970Y110056D1*
X101909Y110117D1*
X101848Y110238D1*
X103091Y111027D2*
X103213Y111089D1*
X103395Y111270D1*
Y109995D1*
X100332Y115563D2*
X100878D1*
X101060Y115625D1*
X101122Y115686D1*
X101182Y115806D1*
Y115928D1*
X101122Y116049D1*
X101060Y116111D1*
X100878Y116171D1*
X100332D1*
Y114895D1*
X100757Y115563D2*
X101182Y114895D1*
X102303Y116170D2*
X101697D1*
X101636Y115624D1*
X101697Y115684D1*
X101879Y115746D1*
X102060D1*
X102243Y115684D1*
X102365Y115563D1*
X102425Y115381D1*
Y115260D1*
X102365Y115078D1*
X102243Y114956D1*
X102060Y114895D1*
X101879D1*
X101697Y114956D1*
X101636Y115017D1*
X101575Y115138D1*
X102879Y115867D2*
Y115927D1*
X102940Y116049D1*
X103000Y116109D1*
X103122Y116170D1*
X103365D1*
X103486Y116109D1*
X103546Y116049D1*
X103608Y115927D1*
Y115806D1*
X103546Y115684D1*
X103425Y115503D1*
X102818Y114895D1*
X103668D1*
X93648Y109943D2*
Y110489D1*
X93586Y110672D1*
X93526Y110733D1*
X93405Y110794D1*
X93283D1*
X93162Y110733D1*
X93101Y110672D1*
X93040Y110489D1*
Y109943D1*
X94316D1*
X93648Y110368D2*
X94316Y110794D1*
X93042Y111915D2*
Y111308D1*
X93588Y111248D1*
X93527Y111308D1*
X93466Y111491D1*
Y111672D1*
X93527Y111854D1*
X93648Y111976D1*
X93831Y112037D1*
X93951D1*
X94134Y111976D1*
X94256Y111854D1*
X94316Y111672D1*
Y111491D1*
X94256Y111308D1*
X94194Y111248D1*
X94073Y111186D1*
X93042Y112551D2*
Y113218D1*
X93527Y112854D1*
Y113037D1*
X93588Y113157D1*
X93648Y113218D1*
X93831Y113280D1*
X93951D1*
X94134Y113218D1*
X94256Y113097D1*
X94316Y112915D1*
Y112732D1*
X94256Y112551D1*
X94194Y112491D1*
X94073Y112429D1*
X17198Y41613D2*
Y42159D1*
X17136Y42342D1*
X17076Y42403D1*
X16955Y42464D1*
X16833D1*
X16712Y42403D1*
X16651Y42342D1*
X16590Y42159D1*
Y41613D1*
X17866D1*
X17198Y42038D2*
X17866Y42464D1*
X16592Y43584D2*
Y42978D1*
X17138Y42918D1*
X17077Y42978D1*
X17016Y43160D1*
Y43342D1*
X17077Y43524D1*
X17198Y43646D1*
X17381Y43707D1*
X17501D1*
X17684Y43646D1*
X17806Y43524D1*
X17866Y43342D1*
Y43160D1*
X17806Y42978D1*
X17744Y42918D1*
X17623Y42856D1*
X17866Y44707D2*
X16592D1*
X17441Y44099D1*
Y45010D1*
X88498Y80543D2*
Y81089D1*
X88436Y81272D1*
X88376Y81333D1*
X88255Y81394D1*
X88133D1*
X88012Y81333D1*
X87951Y81272D1*
X87890Y81089D1*
Y80543D1*
X89166D1*
X88498Y80968D2*
X89166Y81394D1*
X87892Y82515D2*
Y81908D1*
X88438Y81848D1*
X88377Y81908D1*
X88316Y82091D1*
Y82272D1*
X88377Y82454D1*
X88498Y82576D1*
X88681Y82637D1*
X88801D1*
X88984Y82576D1*
X89106Y82454D1*
X89166Y82272D1*
Y82091D1*
X89106Y81908D1*
X89044Y81848D1*
X88923Y81786D1*
X87892Y83757D2*
Y83151D1*
X88438Y83091D1*
X88377Y83151D1*
X88316Y83334D1*
Y83515D1*
X88377Y83697D1*
X88498Y83819D1*
X88681Y83880D1*
X88801D1*
X88984Y83819D1*
X89106Y83697D1*
X89166Y83515D1*
Y83334D1*
X89106Y83151D1*
X89044Y83091D1*
X88923Y83029D1*
X100363Y120363D2*
X100909D1*
X101091Y120425D1*
X101153Y120486D1*
X101213Y120606D1*
Y120728D1*
X101153Y120849D1*
X101091Y120911D1*
X100909Y120971D1*
X100363D1*
Y119695D1*
X100788Y120363D2*
X101213Y119695D1*
X102334Y120970D2*
X101728D1*
X101667Y120424D1*
X101728Y120484D1*
X101910Y120546D1*
X102091D1*
X102274Y120484D1*
X102396Y120363D1*
X102456Y120181D1*
Y120060D1*
X102396Y119878D1*
X102274Y119756D1*
X102091Y119695D1*
X101910D1*
X101728Y119756D1*
X101667Y119817D1*
X101606Y119938D1*
X103577Y120789D2*
X103517Y120909D1*
X103334Y120970D1*
X103213D1*
X103031Y120909D1*
X102909Y120727D1*
X102848Y120424D1*
Y120121D1*
X102909Y119878D1*
X103031Y119756D1*
X103213Y119695D1*
X103274D1*
X103455Y119756D1*
X103577Y119878D1*
X103637Y120060D1*
Y120121D1*
X103577Y120303D1*
X103455Y120424D1*
X103274Y120484D1*
X103213D1*
X103031Y120424D1*
X102909Y120303D1*
X102848Y120121D1*
X92932Y119863D2*
X93478D1*
X93660Y119925D1*
X93722Y119986D1*
X93782Y120106D1*
Y120228D1*
X93722Y120349D1*
X93660Y120411D1*
X93478Y120471D1*
X92932D1*
Y119195D1*
X93357Y119863D2*
X93782Y119195D1*
X94903Y120470D2*
X94297D1*
X94236Y119924D1*
X94297Y119984D1*
X94479Y120046D1*
X94660D1*
X94843Y119984D1*
X94965Y119863D1*
X95025Y119681D1*
Y119560D1*
X94965Y119378D1*
X94843Y119256D1*
X94660Y119195D1*
X94479D1*
X94297Y119256D1*
X94236Y119317D1*
X94175Y119438D1*
X95660Y119195D2*
X96268Y120470D1*
X95418D1*
X88032Y114963D2*
X88579D1*
X88761Y115025D1*
X88823Y115086D1*
X88883Y115206D1*
Y115328D1*
X88823Y115449D1*
X88761Y115511D1*
X88579Y115571D1*
X88032D1*
Y114295D1*
X88458Y114963D2*
X88883Y114295D1*
X90004Y115570D2*
X89397D1*
X89337Y115024D1*
X89397Y115084D1*
X89580Y115146D1*
X89761D1*
X89944Y115084D1*
X90066Y114963D1*
X90126Y114781D1*
Y114660D1*
X90066Y114478D1*
X89944Y114356D1*
X89761Y114295D1*
X89580D1*
X89397Y114356D1*
X89337Y114417D1*
X89275Y114538D1*
X90821Y115570D2*
X90640Y115509D1*
X90579Y115389D1*
Y115267D1*
X90640Y115146D1*
X90761Y115084D1*
X91004Y115024D1*
X91186Y114963D1*
X91307Y114841D1*
X91368Y114721D1*
Y114538D1*
X91307Y114417D1*
X91247Y114356D1*
X91064Y114295D1*
X90821D1*
X90640Y114356D1*
X90579Y114417D1*
X90518Y114538D1*
Y114721D1*
X90579Y114841D1*
X90701Y114963D1*
X90882Y115024D1*
X91125Y115084D1*
X91247Y115146D1*
X91307Y115267D1*
Y115389D1*
X91247Y115509D1*
X91064Y115570D1*
X90821D1*
X93998Y103073D2*
Y103619D1*
X93936Y103802D1*
X93876Y103864D1*
X93755Y103924D1*
X93633D1*
X93512Y103864D1*
X93451Y103802D1*
X93390Y103619D1*
Y103073D1*
X94666D1*
X93998Y103499D2*
X94666Y103924D1*
X93392Y105045D2*
Y104438D1*
X93938Y104378D1*
X93877Y104438D1*
X93816Y104621D1*
Y104802D1*
X93877Y104984D1*
X93998Y105107D1*
X94181Y105167D1*
X94301D1*
X94484Y105107D1*
X94606Y104984D1*
X94666Y104802D1*
Y104621D1*
X94606Y104438D1*
X94544Y104378D1*
X94423Y104316D1*
X93816Y106349D2*
X93998Y106288D1*
X94120Y106167D1*
X94181Y105984D1*
Y105924D1*
X94120Y105742D1*
X93998Y105621D1*
X93816Y105559D1*
X93755D1*
X93573Y105621D1*
X93452Y105742D1*
X93392Y105924D1*
Y105984D1*
X93452Y106167D1*
X93573Y106288D1*
X93816Y106349D1*
X94120D1*
X94423Y106288D1*
X94606Y106167D1*
X94666Y105984D1*
Y105864D1*
X94606Y105681D1*
X94484Y105621D1*
X75063Y75213D2*
X75609D1*
X75791Y75275D1*
X75853Y75336D1*
X75913Y75456D1*
Y75578D1*
X75853Y75699D1*
X75791Y75761D1*
X75609Y75821D1*
X75063D1*
Y74545D1*
X75488Y75213D2*
X75913Y74545D1*
X77034Y75639D2*
X76974Y75759D1*
X76791Y75820D1*
X76671D1*
X76488Y75759D1*
X76366Y75577D1*
X76306Y75274D1*
Y74971D1*
X76366Y74728D1*
X76488Y74606D1*
X76671Y74545D1*
X76731D1*
X76912Y74606D1*
X77034Y74728D1*
X77094Y74910D1*
Y74971D1*
X77034Y75153D1*
X76912Y75274D1*
X76731Y75334D1*
X76671D1*
X76488Y75274D1*
X76366Y75153D1*
X76306Y74971D1*
X77852Y75820D2*
X77669Y75759D1*
X77547Y75577D1*
X77487Y75274D1*
Y75091D1*
X77547Y74788D1*
X77669Y74606D1*
X77852Y74545D1*
X77972D1*
X78155Y74606D1*
X78276Y74788D1*
X78337Y75091D1*
Y75274D1*
X78276Y75577D1*
X78155Y75759D1*
X77972Y75820D1*
X77852D1*
X78276Y75577D2*
X77547Y74788D1*
X79598Y62747D2*
Y63293D1*
X79536Y63476D1*
X79476Y63537D1*
X79355Y63598D1*
X79233D1*
X79112Y63537D1*
X79051Y63476D1*
X78990Y63293D1*
Y62747D1*
X80266D1*
X79598Y63172D2*
X80266Y63598D1*
X79173Y64719D2*
X79052Y64658D1*
X78992Y64476D1*
Y64355D1*
X79052Y64172D1*
X79234Y64050D1*
X79538Y63990D1*
X79841D1*
X80084Y64050D1*
X80206Y64172D1*
X80266Y64355D1*
Y64415D1*
X80206Y64596D1*
X80084Y64719D1*
X79901Y64779D1*
X79841D1*
X79658Y64719D1*
X79538Y64596D1*
X79477Y64415D1*
Y64355D1*
X79538Y64172D1*
X79658Y64050D1*
X79841Y63990D1*
X79234Y65171D2*
X79173Y65293D1*
X78992Y65476D1*
X80266D1*
X85498Y89974D2*
Y90520D1*
X85436Y90703D1*
X85376Y90764D1*
X85255Y90825D1*
X85133D1*
X85012Y90764D1*
X84951Y90703D1*
X84890Y90520D1*
Y89974D1*
X86166D1*
X85498Y90399D2*
X86166Y90825D1*
X85073Y91945D2*
X84952Y91885D1*
X84892Y91703D1*
Y91582D1*
X84952Y91399D1*
X85134Y91277D1*
X85438Y91217D1*
X85741D1*
X85984Y91277D1*
X86106Y91399D1*
X86166Y91582D1*
Y91642D1*
X86106Y91823D1*
X85984Y91945D1*
X85801Y92006D1*
X85741D1*
X85558Y91945D1*
X85438Y91823D1*
X85377Y91642D1*
Y91582D1*
X85438Y91399D1*
X85558Y91277D1*
X85741Y91217D1*
X85195Y92460D2*
X85134D1*
X85012Y92520D1*
X84952Y92581D1*
X84892Y92703D1*
Y92946D1*
X84952Y93066D1*
X85012Y93127D1*
X85134Y93188D1*
X85255D1*
X85377Y93127D1*
X85558Y93006D1*
X86166Y92398D1*
Y93249D1*
X15798Y22774D2*
Y23320D1*
X15736Y23503D1*
X15676Y23564D1*
X15555Y23625D1*
X15433D1*
X15312Y23564D1*
X15251Y23503D1*
X15190Y23320D1*
Y22774D1*
X16466D1*
X15798Y23199D2*
X16466Y23625D1*
X15373Y24745D2*
X15252Y24685D1*
X15192Y24503D1*
Y24382D1*
X15252Y24199D1*
X15434Y24077D1*
X15738Y24017D1*
X16041D1*
X16284Y24077D1*
X16406Y24199D1*
X16466Y24382D1*
Y24442D1*
X16406Y24623D1*
X16284Y24745D1*
X16101Y24806D1*
X16041D1*
X15858Y24745D1*
X15738Y24623D1*
X15677Y24442D1*
Y24382D1*
X15738Y24199D1*
X15858Y24077D1*
X16041Y24017D1*
X15192Y25320D2*
Y25987D1*
X15677Y25623D1*
Y25806D1*
X15738Y25927D1*
X15798Y25987D1*
X15981Y26049D1*
X16101D1*
X16284Y25987D1*
X16406Y25866D1*
X16466Y25684D1*
Y25501D1*
X16406Y25320D1*
X16344Y25260D1*
X16223Y25198D1*
X89098Y105544D2*
Y106090D1*
X89036Y106272D1*
X88976Y106334D1*
X88855Y106395D1*
X88733D1*
X88612Y106334D1*
X88551Y106272D1*
X88490Y106090D1*
Y105544D1*
X89766D1*
X89098Y105969D2*
X89766Y106395D1*
X88673Y107515D2*
X88552Y107455D1*
X88492Y107272D1*
Y107152D1*
X88552Y106969D1*
X88734Y106847D1*
X89038Y106787D1*
X89341D1*
X89584Y106847D1*
X89706Y106969D1*
X89766Y107152D1*
Y107212D1*
X89706Y107393D1*
X89584Y107515D1*
X89401Y107576D1*
X89341D1*
X89158Y107515D1*
X89038Y107393D1*
X88977Y107212D1*
Y107152D1*
X89038Y106969D1*
X89158Y106847D1*
X89341Y106787D1*
X89766Y108576D2*
X88492D1*
X89341Y107968D1*
Y108879D1*
X79198Y83974D2*
Y84520D1*
X79136Y84703D1*
X79076Y84764D1*
X78955Y84825D1*
X78833D1*
X78712Y84764D1*
X78651Y84703D1*
X78590Y84520D1*
Y83974D1*
X79866D1*
X79198Y84399D2*
X79866Y84825D1*
X78773Y85945D2*
X78652Y85885D1*
X78592Y85703D1*
Y85582D1*
X78652Y85399D1*
X78834Y85277D1*
X79138Y85217D1*
X79441D1*
X79684Y85277D1*
X79806Y85399D1*
X79866Y85582D1*
Y85642D1*
X79806Y85823D1*
X79684Y85945D1*
X79501Y86006D1*
X79441D1*
X79258Y85945D1*
X79138Y85823D1*
X79077Y85642D1*
Y85582D1*
X79138Y85399D1*
X79258Y85277D1*
X79441Y85217D1*
X78592Y87127D2*
Y86520D1*
X79138Y86460D1*
X79077Y86520D1*
X79016Y86703D1*
Y86884D1*
X79077Y87066D1*
X79198Y87188D1*
X79381Y87249D1*
X79501D1*
X79684Y87188D1*
X79806Y87066D1*
X79866Y86884D1*
Y86703D1*
X79806Y86520D1*
X79744Y86460D1*
X79623Y86398D1*
X93494Y100813D2*
X94040D1*
X94222Y100875D1*
X94284Y100936D1*
X94344Y101056D1*
Y101178D1*
X94284Y101299D1*
X94222Y101361D1*
X94040Y101421D1*
X93494D1*
Y100145D1*
X93919Y100813D2*
X94344Y100145D1*
X95465Y101239D2*
X95405Y101359D1*
X95222Y101420D1*
X95101D1*
X94919Y101359D1*
X94797Y101177D1*
X94736Y100874D1*
Y100571D1*
X94797Y100328D1*
X94919Y100206D1*
X95101Y100145D1*
X95162D1*
X95343Y100206D1*
X95465Y100328D1*
X95525Y100510D1*
Y100571D1*
X95465Y100753D1*
X95343Y100874D1*
X95162Y100934D1*
X95101D1*
X94919Y100874D1*
X94797Y100753D1*
X94736Y100571D1*
X96646Y101239D2*
X96586Y101359D1*
X96403Y101420D1*
X96283D1*
X96100Y101359D1*
X95978Y101177D1*
X95918Y100874D1*
Y100571D1*
X95978Y100328D1*
X96100Y100206D1*
X96283Y100145D1*
X96343D1*
X96524Y100206D1*
X96646Y100328D1*
X96706Y100510D1*
Y100571D1*
X96646Y100753D1*
X96524Y100874D1*
X96343Y100934D1*
X96283D1*
X96100Y100874D1*
X95978Y100753D1*
X95918Y100571D1*
X84598Y105674D2*
Y106220D1*
X84536Y106403D1*
X84476Y106464D1*
X84355Y106525D1*
X84233D1*
X84112Y106464D1*
X84051Y106403D1*
X83990Y106220D1*
Y105674D1*
X85266D1*
X84598Y106099D2*
X85266Y106525D1*
X84173Y107645D2*
X84052Y107585D1*
X83992Y107403D1*
Y107282D1*
X84052Y107099D1*
X84234Y106977D1*
X84538Y106917D1*
X84841D1*
X85084Y106977D1*
X85206Y107099D1*
X85266Y107282D1*
Y107342D1*
X85206Y107523D1*
X85084Y107645D1*
X84901Y107706D1*
X84841D1*
X84658Y107645D1*
X84538Y107523D1*
X84477Y107342D1*
Y107282D1*
X84538Y107099D1*
X84658Y106977D1*
X84841Y106917D1*
X85266Y108341D2*
X83992Y108949D1*
Y108098D1*
X96493Y77613D2*
X97039D1*
X97221Y77675D1*
X97283Y77736D1*
X97344Y77856D1*
Y77978D1*
X97283Y78099D1*
X97221Y78161D1*
X97039Y78221D1*
X96493D1*
Y76945D1*
X96918Y77613D2*
X97344Y76945D1*
X98464Y78039D2*
X98404Y78159D1*
X98221Y78220D1*
X98101D1*
X97918Y78159D1*
X97796Y77977D1*
X97736Y77674D1*
Y77371D1*
X97796Y77128D1*
X97918Y77006D1*
X98101Y76945D1*
X98161D1*
X98342Y77006D1*
X98464Y77128D1*
X98525Y77310D1*
Y77371D1*
X98464Y77553D1*
X98342Y77674D1*
X98161Y77734D1*
X98101D1*
X97918Y77674D1*
X97796Y77553D1*
X97736Y77371D1*
X99707Y77796D2*
X99645Y77613D1*
X99525Y77491D1*
X99342Y77431D1*
X99282D1*
X99099Y77491D1*
X98979Y77613D1*
X98917Y77796D1*
Y77856D1*
X98979Y78039D1*
X99099Y78159D1*
X99282Y78220D1*
X99342D1*
X99525Y78159D1*
X99645Y78039D1*
X99707Y77796D1*
Y77491D1*
X99645Y77188D1*
X99525Y77006D1*
X99342Y76945D1*
X99221D1*
X99039Y77006D1*
X98979Y77128D1*
X74698Y87843D2*
Y88389D1*
X74636Y88572D1*
X74576Y88633D1*
X74455Y88694D1*
X74333D1*
X74212Y88633D1*
X74151Y88572D1*
X74090Y88389D1*
Y87843D1*
X75366D1*
X74698Y88268D2*
X75366Y88694D1*
Y89329D2*
X74092Y89937D1*
Y89086D1*
Y90694D2*
X74152Y90511D1*
X74334Y90389D1*
X74638Y90329D1*
X74820D1*
X75123Y90389D1*
X75306Y90511D1*
X75366Y90694D1*
Y90815D1*
X75306Y90997D1*
X75123Y91118D1*
X74820Y91180D1*
X74638D1*
X74334Y91118D1*
X74152Y90997D1*
X74092Y90815D1*
Y90694D1*
X74334Y91118D2*
X75123Y90389D1*
X29377Y59633D2*
X29256Y59755D1*
X29074Y59816D1*
X28831D1*
X28648Y59755D1*
X28526Y59633D1*
Y59512D1*
X28588Y59390D1*
X28648Y59330D1*
X28769Y59270D1*
X29134Y59147D1*
X29256Y59087D1*
X29317Y59025D1*
X29377Y58905D1*
Y58722D1*
X29256Y58601D1*
X29074Y58540D1*
X28831D1*
X28648Y58601D1*
X28526Y58722D1*
X29769Y59571D2*
X29891Y59633D1*
X30074Y59814D1*
Y58540D1*
X75326Y114571D2*
Y113660D1*
X75387Y113478D1*
X75509Y113357D1*
X75691Y113295D1*
X75812D1*
X75994Y113357D1*
X76117Y113478D1*
X76177Y113660D1*
Y114571D1*
X76569Y114327D2*
X76691Y114389D1*
X76874Y114570D1*
Y113295D1*
X24138Y97145D2*
Y96234D1*
X24198Y96052D1*
X24320Y95931D1*
X24503Y95869D1*
X24623D1*
X24806Y95931D1*
X24928Y96052D1*
X24988Y96234D1*
Y97145D1*
X25442Y96841D2*
Y96901D1*
X25503Y97023D1*
X25563Y97084D1*
X25685Y97144D1*
X25928D1*
X26049Y97084D1*
X26109Y97023D1*
X26171Y96901D1*
Y96780D1*
X26109Y96658D1*
X25988Y96477D1*
X25380Y95869D1*
X26231D1*
X21812Y117089D2*
Y116178D1*
X21872Y115995D1*
X21994Y115874D1*
X22177Y115813D1*
X22298D1*
X22480Y115874D1*
X22602Y115995D1*
X22663Y116178D1*
Y117089D1*
X23177Y117087D2*
X23844D1*
X23480Y116602D1*
X23663D1*
X23783Y116541D1*
X23844Y116481D1*
X23906Y116298D1*
Y116178D1*
X23844Y115995D1*
X23723Y115873D1*
X23541Y115813D1*
X23358D1*
X23177Y115873D1*
X23117Y115935D1*
X23055Y116055D1*
X35883Y83821D2*
Y82910D1*
X35944Y82728D1*
X36066Y82607D1*
X36248Y82545D1*
X36369D1*
X36552Y82607D1*
X36674Y82728D1*
X36734Y82910D1*
Y83821D1*
X37917Y83396D2*
X37855Y83213D1*
X37734Y83091D1*
X37552Y83031D1*
X37491D1*
X37309Y83091D1*
X37188Y83213D1*
X37126Y83396D1*
Y83456D1*
X37188Y83639D1*
X37309Y83759D1*
X37491Y83820D1*
X37552D1*
X37734Y83759D1*
X37855Y83639D1*
X37917Y83396D1*
Y83091D1*
X37855Y82788D1*
X37734Y82606D1*
X37552Y82545D1*
X37431D1*
X37248Y82606D1*
X37188Y82728D1*
X74926Y122157D2*
X75777Y120881D1*
Y122157D2*
X74926Y120881D1*
X76169Y121913D2*
X76291Y121975D1*
X76474Y122156D1*
Y120881D1*
X26694Y17078D2*
D128*
Y17611D1*
X27083Y17320D1*
Y17466D1*
X27131Y17563D1*
X27179Y17611D1*
X27325Y17660D1*
X27422D1*
X27568Y17611D1*
X27666Y17514D1*
X27714Y17368D1*
Y17222D1*
X27666Y17078D1*
X27616Y17029D1*
X27520Y16980D1*
X27616Y18022D2*
X27666Y17974D1*
X27714Y18022D1*
X27666Y18072D1*
X27616Y18022D1*
X26694Y18483D2*
Y19017D1*
X27083Y18726D1*
Y18872D1*
X27131Y18968D1*
X27179Y19017D1*
X27325Y19066D1*
X27422D1*
X27568Y19017D1*
X27666Y18920D1*
X27714Y18774D1*
Y18628D1*
X27666Y18483D1*
X27616Y18435D1*
X27520Y18386D1*
X27033Y19380D2*
X27714Y19672D1*
X27033Y19963D1*
X30037Y16821D2*
Y17258D1*
X29988Y17404D1*
X29939Y17453D1*
X29843Y17502D1*
X29745D1*
X29648Y17453D1*
X29599Y17404D1*
X29551Y17258D1*
Y16821D1*
X30572D1*
X30037Y17161D2*
X30572Y17502D1*
X30183Y17815D2*
Y18398D1*
X30085D1*
X29988Y18350D1*
X29939Y18302D1*
X29891Y18204D1*
Y18058D1*
X29939Y17961D1*
X30037Y17864D1*
X30183Y17815D1*
X30280D1*
X30426Y17864D1*
X30522Y17961D1*
X30572Y18058D1*
Y18204D1*
X30522Y18302D1*
X30426Y18398D1*
X30037Y19247D2*
X29939Y19198D1*
X29891Y19052D1*
Y18906D1*
X29939Y18760D1*
X30037Y18712D1*
X30134Y18760D1*
X30183Y18858D1*
X30231Y19101D1*
X30280Y19198D1*
X30377Y19247D1*
X30426D1*
X30522Y19198D1*
X30572Y19052D1*
Y18906D1*
X30522Y18760D1*
X30426Y18712D1*
X29551Y19706D2*
X30377D1*
X30522Y19755D1*
X30572Y19852D1*
Y19949D1*
X29891Y19560D2*
Y19901D1*
X32968Y17709D2*
X32872Y17660D1*
X32774Y17563D1*
X32726Y17466D1*
Y17272D1*
X32774Y17174D1*
X32872Y17078D1*
X32968Y17028D1*
X33114Y16980D1*
X33358D1*
X33503Y17028D1*
X33601Y17078D1*
X33697Y17174D1*
X33747Y17272D1*
Y17466D1*
X33697Y17563D1*
X33601Y17660D1*
X33503Y17709D1*
X33358D1*
Y17466D1*
X32726Y18703D2*
X33747D1*
X32726Y18023D1*
X33747D1*
X32726Y19017D2*
X33747D1*
Y19357D1*
X33697Y19503D1*
X33601Y19601D1*
X33503Y19649D1*
X33358Y19697D1*
X33114D1*
X32968Y19649D1*
X32872Y19601D1*
X32774Y19503D1*
X32726Y19357D1*
Y19017D1*
X36143Y17709D2*
X36047Y17661D1*
X35949Y17563D1*
X35901Y17466D1*
Y17272D1*
X35949Y17174D1*
X36047Y17078D1*
X36143Y17028D1*
X36289Y16980D1*
X36533D1*
X36678Y17028D1*
X36776Y17078D1*
X36872Y17174D1*
X36922Y17272D1*
Y17466D1*
X36872Y17563D1*
X36776Y17661D1*
X36678Y17709D1*
X36533D1*
Y17466D1*
X35901Y18703D2*
X36922D1*
X35901Y18023D1*
X36922D1*
X35901Y19017D2*
X36922D1*
Y19357D1*
X36872Y19503D1*
X36776Y19601D1*
X36678Y19649D1*
X36533Y19697D1*
X36289D1*
X36143Y19649D1*
X36047Y19601D1*
X35949Y19503D1*
X35901Y19357D1*
Y19017D1*
X44324Y15710D2*
Y16147D1*
X44275Y16293D1*
X44227Y16342D1*
X44130Y16390D1*
X44032D1*
X43936Y16342D1*
X43886Y16293D1*
X43838Y16147D1*
Y15710D1*
X44859D1*
X44324Y16050D2*
X44859Y16390D1*
X43838Y16704D2*
X44567D1*
X44713Y16753D1*
X44810Y16850D1*
X44859Y16996D1*
Y17093D1*
X44810Y17239D1*
X44713Y17337D1*
X44567Y17385D1*
X43838D1*
Y18379D2*
X44859D1*
X43838Y17699D1*
X44859D1*
X44034Y19680D2*
X43984Y19778D1*
X43839Y19924D1*
X44859D1*
X47182Y15551D2*
Y15988D1*
X47133Y16134D1*
X47084Y16183D1*
X46988Y16232D1*
X46890D1*
X46793Y16183D1*
X46744Y16134D1*
X46696Y15988D1*
Y15551D1*
X47717D1*
X47182Y15891D2*
X47717Y16232D1*
X46696Y16545D2*
X47425D1*
X47571Y16594D1*
X47667Y16691D1*
X47717Y16837D1*
Y16934D1*
X47667Y17080D1*
X47571Y17178D1*
X47425Y17226D1*
X46696D1*
Y18220D2*
X47717D1*
X46696Y17540D1*
X47717D1*
X46939Y19571D2*
X46891D1*
X46793Y19619D1*
X46745Y19668D1*
X46697Y19765D1*
Y19960D1*
X46745Y20056D1*
X46793Y20105D1*
X46891Y20154D1*
X46988D1*
X47085Y20105D1*
X47230Y20008D1*
X47717Y19522D1*
Y20202D1*
X49881Y15551D2*
Y15988D1*
X49831Y16134D1*
X49783Y16183D1*
X49686Y16232D1*
X49589D1*
X49492Y16183D1*
X49443Y16134D1*
X49394Y15988D1*
Y15551D1*
X50415D1*
X49881Y15891D2*
X50415Y16232D1*
X49394Y16545D2*
X50123D1*
X50269Y16594D1*
X50366Y16691D1*
X50415Y16837D1*
Y16934D1*
X50366Y17080D1*
X50269Y17178D1*
X50123Y17226D1*
X49394D1*
Y18220D2*
X50415D1*
X49394Y17540D1*
X50415D1*
X49396Y19619D2*
Y20153D1*
X49784Y19862D1*
Y20008D1*
X49832Y20105D1*
X49881Y20153D1*
X50027Y20202D1*
X50123D1*
X50269Y20153D1*
X50367Y20056D1*
X50415Y19910D1*
Y19764D1*
X50367Y19619D1*
X50318Y19571D1*
X50221Y19522D1*
X52897Y15392D2*
Y15829D1*
X52848Y15975D1*
X52799Y16025D1*
X52703Y16073D1*
X52605D1*
X52508Y16025D1*
X52459Y15975D1*
X52411Y15829D1*
Y15392D1*
X53432D1*
X52897Y15733D2*
X53432Y16073D1*
X52411Y16387D2*
X53140D1*
X53286Y16435D1*
X53382Y16533D1*
X53432Y16679D1*
Y16775D1*
X53382Y16921D1*
X53286Y17019D1*
X53140Y17067D1*
X52411D1*
Y18062D2*
X53432D1*
X52411Y17381D1*
X53432D1*
Y19849D2*
X52412D1*
X53091Y19363D1*
Y20092D1*
X60834Y15659D2*
X60737Y15561D1*
X60688Y15463D1*
Y15319D1*
X60737Y15221D1*
X60834Y15124D1*
X60980Y15075D1*
X61077D1*
X61223Y15124D1*
X61320Y15221D1*
X61369Y15319D1*
Y15463D1*
X61320Y15561D1*
X61223Y15659D1*
X60688Y16215D2*
X60737Y16119D1*
X60834Y16021D1*
X60980Y15973D1*
X61077D1*
X61223Y16021D1*
X61320Y16119D1*
X61369Y16215D1*
Y16361D1*
X61320Y16459D1*
X61223Y16556D1*
X61077Y16605D1*
X60980D1*
X60834Y16556D1*
X60737Y16459D1*
X60688Y16361D1*
Y16215D1*
Y16919D2*
X61369D1*
X60883D2*
X60737Y17065D1*
X60688Y17162D1*
Y17307D1*
X60737Y17405D1*
X60883Y17453D1*
X61369D1*
X60883D2*
X60737Y17599D1*
X60688Y17697D1*
Y17842D1*
X60737Y17940D1*
X60883Y17989D1*
X61369D1*
X60688Y18303D2*
X61369D1*
X60883D2*
X60737Y18449D1*
X60688Y18546D1*
Y18691D1*
X60737Y18789D1*
X60883Y18837D1*
X61369D1*
X60883D2*
X60737Y18983D1*
X60688Y19081D1*
Y19226D1*
X60737Y19324D1*
X60883Y19373D1*
X61369D1*
X60688Y19929D2*
X60737Y19833D1*
X60834Y19735D1*
X60980Y19687D1*
X61077D1*
X61223Y19735D1*
X61320Y19833D1*
X61369Y19929D1*
Y20075D1*
X61320Y20173D1*
X61223Y20270D1*
X61077Y20319D1*
X60980D1*
X60834Y20270D1*
X60737Y20173D1*
X60688Y20075D1*
Y19929D1*
Y20633D2*
X61369D1*
X60883D2*
X60737Y20779D1*
X60688Y20876D1*
Y21021D1*
X60737Y21119D1*
X60883Y21167D1*
X61369D1*
X63120Y15248D2*
D129*
X63885D1*
X63120Y14738D1*
X63885D1*
X63301Y16030D2*
X63229Y15994D1*
X63156Y15921D1*
X63120Y15848D1*
Y15703D1*
X63156Y15629D1*
X63229Y15557D1*
X63301Y15520D1*
X63411Y15484D1*
X63594D1*
X63702Y15520D1*
X63776Y15557D1*
X63848Y15629D1*
X63885Y15703D1*
Y15848D1*
X63848Y15921D1*
X63776Y15994D1*
X63702Y16030D1*
X63301Y17553D2*
X63229Y17517D1*
X63156Y17443D1*
X63120Y17371D1*
Y17225D1*
X63156Y17152D1*
X63229Y17079D1*
X63301Y17042D1*
X63411Y17006D1*
X63594D1*
X63702Y17042D1*
X63776Y17079D1*
X63848Y17152D1*
X63885Y17225D1*
Y17371D1*
X63848Y17443D1*
X63776Y17517D1*
X63702Y17553D1*
X63120Y18299D2*
X63885D1*
X63120Y17788D1*
X63885D1*
X63120Y18789D2*
X63885D1*
X63120Y18534D2*
Y19044D1*
X63885Y19863D2*
X63120Y19571D1*
X63885Y19280D1*
X63630Y19389D2*
Y19754D1*
X63301Y20645D2*
X63229Y20609D1*
X63156Y20536D1*
X63120Y20463D1*
Y20318D1*
X63156Y20244D1*
X63229Y20172D1*
X63301Y20135D1*
X63411Y20099D1*
X63594D1*
X63702Y20135D1*
X63776Y20172D1*
X63848Y20244D1*
X63885Y20318D1*
Y20463D1*
X63848Y20536D1*
X63776Y20609D1*
X63702Y20645D1*
X63120Y21136D2*
X63885D1*
X63120Y20881D2*
Y21391D1*
X66136Y15248D2*
X66901D1*
X66136Y14738D1*
X66901D1*
X66318Y16030D2*
X66245Y15994D1*
X66172Y15921D1*
X66136Y15848D1*
Y15703D1*
X66172Y15629D1*
X66245Y15557D1*
X66318Y15520D1*
X66427Y15484D1*
X66610D1*
X66719Y15520D1*
X66792Y15557D1*
X66864Y15629D1*
X66901Y15703D1*
Y15848D1*
X66864Y15921D1*
X66792Y15994D1*
X66719Y16030D1*
X66318Y17553D2*
X66245Y17517D1*
X66172Y17443D1*
X66136Y17371D1*
Y17225D1*
X66172Y17152D1*
X66245Y17079D1*
X66318Y17042D1*
X66427Y17006D1*
X66610D1*
X66719Y17042D1*
X66792Y17079D1*
X66864Y17152D1*
X66901Y17225D1*
Y17371D1*
X66864Y17443D1*
X66792Y17517D1*
X66719Y17553D1*
X66136Y18299D2*
X66901D1*
X66136Y17788D1*
X66901D1*
X66136Y18789D2*
X66901D1*
X66136Y18534D2*
Y19044D1*
X66901Y19863D2*
X66136Y19571D1*
X66901Y19280D1*
X66646Y19389D2*
Y19754D1*
X66318Y20645D2*
X66245Y20609D1*
X66172Y20536D1*
X66136Y20463D1*
Y20318D1*
X66172Y20244D1*
X66245Y20172D1*
X66318Y20135D1*
X66427Y20099D1*
X66610D1*
X66719Y20135D1*
X66792Y20172D1*
X66864Y20244D1*
X66901Y20318D1*
Y20463D1*
X66864Y20536D1*
X66792Y20609D1*
X66719Y20645D1*
X66136Y21136D2*
X66901D1*
X66136Y20881D2*
Y21391D1*
X69311Y15248D2*
X70076D1*
X69311Y14738D1*
X70076D1*
X69311Y15703D2*
X69347Y15629D1*
X69420Y15557D1*
X69493Y15520D1*
X69602Y15484D1*
X69785D1*
X69894Y15520D1*
X69967Y15557D1*
X70039Y15629D1*
X70076Y15703D1*
Y15848D1*
X70039Y15921D1*
X69967Y15994D1*
X69894Y16030D1*
X69785Y16066D1*
X69602D1*
X69493Y16030D1*
X69420Y15994D1*
X69347Y15921D1*
X69311Y15848D1*
Y15703D1*
X69493Y17589D2*
X69420Y17553D1*
X69347Y17480D1*
X69311Y17407D1*
Y17261D1*
X69347Y17188D1*
X69420Y17116D1*
X69493Y17079D1*
X69602Y17042D1*
X69785D1*
X69894Y17079D1*
X69967Y17116D1*
X70039Y17188D1*
X70076Y17261D1*
Y17407D1*
X70039Y17480D1*
X69967Y17553D1*
X69894Y17589D1*
X69311Y18335D2*
X70076D1*
X69311Y17824D1*
X70076D1*
X69311Y18825D2*
X70076D1*
X69311Y18570D2*
Y19081D1*
X70076Y19900D2*
X69311Y19607D1*
X70076Y19316D1*
X69821Y19425D2*
Y19790D1*
X69493Y20681D2*
X69420Y20645D1*
X69347Y20572D1*
X69311Y20500D1*
Y20354D1*
X69347Y20281D1*
X69420Y20208D1*
X69493Y20171D1*
X69602Y20135D1*
X69785D1*
X69894Y20171D1*
X69967Y20208D1*
X70039Y20281D1*
X70076Y20354D1*
Y20500D1*
X70039Y20572D1*
X69967Y20645D1*
X69894Y20681D1*
X69311Y21172D2*
X70076D1*
X69311Y20917D2*
Y21427D1*
X77516Y13277D2*
D128*
X78197D1*
X77662D2*
X77564Y13180D1*
X77516Y13082D1*
Y12937D1*
X77564Y12840D1*
X77662Y12743D1*
X77808Y12694D1*
X77905D1*
X78051Y12743D1*
X78147Y12840D1*
X78197Y12937D1*
Y13082D1*
X78147Y13180D1*
X78051Y13277D1*
X77662Y14174D2*
X77564Y14077D1*
X77516Y13979D1*
Y13834D1*
X77564Y13736D1*
X77662Y13640D1*
X77808Y13590D1*
X77905D1*
X78051Y13640D1*
X78147Y13736D1*
X78197Y13834D1*
Y13979D1*
X78147Y14077D1*
X78051Y14174D1*
X77564Y16058D2*
X78343D1*
X78487Y16010D1*
X78537Y15962D1*
X78585Y15864D1*
Y15718D1*
X78537Y15622D1*
X77710Y16058D2*
X77614Y15962D1*
X77564Y15864D1*
Y15718D1*
X77614Y15622D1*
X77710Y15524D1*
X77856Y15476D1*
X77954D1*
X78099Y15524D1*
X78197Y15622D1*
X78245Y15718D1*
Y15864D1*
X78197Y15962D1*
X78099Y16058D1*
X77516Y16372D2*
X78197D1*
X77808D2*
X77662Y16422D1*
X77564Y16518D1*
X77516Y16616D1*
Y16762D1*
Y17318D2*
X77564Y17222D1*
X77662Y17124D1*
X77808Y17076D1*
X77905D1*
X78051Y17124D1*
X78147Y17222D1*
X78197Y17318D1*
Y17464D1*
X78147Y17562D1*
X78051Y17658D1*
X77905Y17708D1*
X77808D1*
X77662Y17658D1*
X77564Y17562D1*
X77516Y17464D1*
Y17318D1*
Y18022D2*
X78002D1*
X78147Y18070D1*
X78197Y18168D1*
Y18314D1*
X78147Y18410D1*
X78002Y18556D1*
X77516D2*
X78197D1*
X77516Y18870D2*
X78197D1*
X77710D2*
X77564Y19016D1*
X77516Y19114D1*
Y19259D1*
X77564Y19356D1*
X77710Y19405D1*
X78197D1*
X77176Y20301D2*
X78197D1*
X77662D2*
X77564Y20205D1*
X77516Y20107D1*
Y19961D1*
X77564Y19864D1*
X77662Y19767D1*
X77808Y19718D1*
X77905D1*
X78051Y19767D1*
X78147Y19864D1*
X78197Y19961D1*
Y20107D1*
X78147Y20205D1*
X78051Y20301D1*
X80436Y12902D2*
X80387D1*
X80290Y12950D1*
X80241Y12998D1*
X80193Y13096D1*
Y13290D1*
X80241Y13387D1*
X80290Y13435D1*
X80387Y13485D1*
X80484D1*
X80582Y13435D1*
X80726Y13339D1*
X81213Y12852D1*
Y13533D1*
Y14333D2*
X80193D1*
X80872Y13847D1*
Y14576D1*
X80532Y14889D2*
X81213Y15181D1*
X80532Y15472D1*
Y17356D2*
X81213D1*
X80678D2*
X80580Y17260D1*
X80532Y17162D1*
Y17017D1*
X80580Y16920D1*
X80678Y16823D1*
X80824Y16774D1*
X80921D1*
X81067Y16823D1*
X81163Y16920D1*
X81213Y17017D1*
Y17162D1*
X81163Y17260D1*
X81067Y17356D1*
X80678Y18254D2*
X80580Y18156D1*
X80532Y18059D1*
Y17914D1*
X80580Y17816D1*
X80678Y17720D1*
X80824Y17670D1*
X80921D1*
X81067Y17720D1*
X81163Y17816D1*
X81213Y17914D1*
Y18059D1*
X81163Y18156D1*
X81067Y18254D1*
X83452Y12902D2*
X83404D1*
X83306Y12950D1*
X83258Y12998D1*
X83209Y13096D1*
Y13290D1*
X83258Y13387D1*
X83306Y13435D1*
X83404Y13485D1*
X83500D1*
X83598Y13435D1*
X83743Y13339D1*
X84229Y12852D1*
Y13533D1*
Y14333D2*
X83209D1*
X83889Y13847D1*
Y14576D1*
X83548Y14889D2*
X84229Y15181D1*
X83548Y15472D1*
Y17356D2*
X84229D1*
X83694D2*
X83597Y17260D1*
X83548Y17162D1*
Y17017D1*
X83597Y16920D1*
X83694Y16823D1*
X83840Y16774D1*
X83937D1*
X84083Y16823D1*
X84180Y16920D1*
X84229Y17017D1*
Y17162D1*
X84180Y17260D1*
X84083Y17356D1*
X83694Y18254D2*
X83597Y18156D1*
X83548Y18059D1*
Y17914D1*
X83597Y17816D1*
X83694Y17720D1*
X83840Y17670D1*
X83937D1*
X84083Y17720D1*
X84180Y17816D1*
X84229Y17914D1*
Y18059D1*
X84180Y18156D1*
X84083Y18254D1*
X86247Y13435D2*
X86928D1*
X86393D2*
X86295Y13339D1*
X86247Y13241D1*
Y13096D1*
X86295Y12998D1*
X86393Y12902D1*
X86539Y12852D1*
X86636D1*
X86782Y12902D1*
X86878Y12998D1*
X86928Y13096D1*
Y13241D1*
X86878Y13339D1*
X86782Y13435D1*
X86393Y14333D2*
X86295Y14235D1*
X86247Y14138D1*
Y13993D1*
X86295Y13895D1*
X86393Y13798D1*
X86539Y13749D1*
X86636D1*
X86782Y13798D1*
X86878Y13895D1*
X86928Y13993D1*
Y14138D1*
X86878Y14235D1*
X86782Y14333D1*
X86295Y16217D2*
X87074D1*
X87219Y16169D1*
X87268Y16121D1*
X87316Y16023D1*
Y15877D1*
X87268Y15780D1*
X86441Y16217D2*
X86345Y16121D1*
X86295Y16023D1*
Y15877D1*
X86345Y15780D1*
X86441Y15683D1*
X86587Y15634D1*
X86685D1*
X86830Y15683D1*
X86928Y15780D1*
X86976Y15877D1*
Y16023D1*
X86928Y16121D1*
X86830Y16217D1*
X86247Y16531D2*
X86928D1*
X86539D2*
X86393Y16580D1*
X86295Y16677D1*
X86247Y16775D1*
Y16921D1*
Y17477D2*
X86295Y17380D1*
X86393Y17283D1*
X86539Y17234D1*
X86636D1*
X86782Y17283D1*
X86878Y17380D1*
X86928Y17477D1*
Y17623D1*
X86878Y17721D1*
X86782Y17817D1*
X86636Y17867D1*
X86539D1*
X86393Y17817D1*
X86295Y17721D1*
X86247Y17623D1*
Y17477D1*
Y18180D2*
X86733D1*
X86878Y18229D1*
X86928Y18326D1*
Y18472D1*
X86878Y18569D1*
X86733Y18715D1*
X86247D2*
X86928D1*
X86247Y19029D2*
X86928D1*
X86441D2*
X86295Y19175D1*
X86247Y19272D1*
Y19417D1*
X86295Y19515D1*
X86441Y19563D1*
X86928D1*
X85907Y20460D2*
X86928D1*
X86393D2*
X86295Y20363D1*
X86247Y20266D1*
Y20120D1*
X86295Y20023D1*
X86393Y19925D1*
X86539Y19877D1*
X86636D1*
X86782Y19925D1*
X86878Y20023D1*
X86928Y20120D1*
Y20266D1*
X86878Y20363D1*
X86782Y20460D1*
X25211Y13285D2*
X25648D1*
X25794Y13335D1*
X25843Y13383D1*
X25891Y13479D1*
Y13577D1*
X25843Y13674D1*
X25794Y13723D1*
X25648Y13771D1*
X25211D1*
Y12751D1*
X25551Y13285D2*
X25891Y12751D1*
X26836Y13771D2*
X26205D1*
Y12751D1*
X26836D1*
X26205Y13285D2*
X26594D1*
X27831Y13625D2*
X27734Y13723D1*
X27588Y13771D1*
X27394D1*
X27248Y13723D1*
X27150Y13625D1*
Y13529D1*
X27199Y13431D1*
X27248Y13383D1*
X27344Y13335D1*
X27636Y13237D1*
X27734Y13189D1*
X27782Y13139D1*
X27831Y13043D1*
Y12897D1*
X27734Y12800D1*
X27588Y12751D1*
X27394D1*
X27248Y12800D1*
X27150Y12897D1*
X28775Y13771D2*
X28144D1*
Y12751D1*
X28775D1*
X28144Y13285D2*
X28533D1*
X29429Y13771D2*
Y12751D1*
X29089Y13771D2*
X29770D1*
X31071D2*
Y12751D1*
X31509D1*
X31655Y12800D1*
X31703Y12848D1*
X31752Y12945D1*
Y13091D1*
X31703Y13189D1*
X31655Y13237D1*
X31509Y13285D1*
X31655Y13335D1*
X31703Y13383D1*
X31752Y13479D1*
Y13577D1*
X31703Y13674D1*
X31655Y13723D1*
X31509Y13771D1*
X31071D1*
Y13285D2*
X31509D1*
X32065Y13771D2*
Y13043D1*
X32114Y12897D1*
X32211Y12800D1*
X32357Y12751D1*
X32454D1*
X32600Y12800D1*
X32698Y12897D1*
X32746Y13043D1*
Y13771D1*
X33400D2*
Y12751D1*
X33060Y13771D2*
X33740D1*
X34394D2*
Y12751D1*
X34054Y13771D2*
X34735D1*
X35340D2*
X35243Y13723D1*
X35146Y13625D1*
X35097Y13529D1*
X35048Y13383D1*
Y13139D1*
X35097Y12994D1*
X35146Y12897D1*
X35243Y12800D1*
X35340Y12751D1*
X35535D1*
X35631Y12800D1*
X35729Y12897D1*
X35777Y12994D1*
X35825Y13139D1*
Y13383D1*
X35777Y13529D1*
X35729Y13625D1*
X35631Y13723D1*
X35535Y13771D1*
X35340D1*
X36820D2*
Y12751D1*
X36139Y13771D1*
Y12751D1*
X59604D2*
X59215Y13771D1*
X58826Y12751D1*
X58972Y13091D2*
X59458D1*
X59918Y13771D2*
Y12751D1*
X60501D1*
X61593D2*
X61203Y13771D1*
X60815Y12751D1*
X60961Y13091D2*
X61447D1*
X61907Y13285D2*
X62344D1*
X62490Y13335D1*
X62539Y13383D1*
X62587Y13479D1*
Y13577D1*
X62539Y13674D1*
X62490Y13723D1*
X62344Y13771D1*
X61907D1*
Y12751D1*
X62247Y13285D2*
X62587Y12751D1*
X63678D2*
Y13771D1*
X63290Y12751D1*
X62901Y13771D1*
Y12751D1*
X65708Y13529D2*
X65660Y13625D1*
X65562Y13723D1*
X65466Y13771D1*
X65272D1*
X65174Y13723D1*
X65077Y13625D1*
X65028Y13529D1*
X64980Y13383D1*
Y13139D1*
X65028Y12994D1*
X65077Y12897D1*
X65174Y12800D1*
X65272Y12751D1*
X65466D1*
X65562Y12800D1*
X65660Y12897D1*
X65708Y12994D1*
X66314Y13771D2*
X66216Y13723D1*
X66120Y13625D1*
X66070Y13529D1*
X66022Y13383D1*
Y13139D1*
X66070Y12994D1*
X66120Y12897D1*
X66216Y12800D1*
X66314Y12751D1*
X66508D1*
X66605Y12800D1*
X66703Y12897D1*
X66751Y12994D1*
X66799Y13139D1*
Y13383D1*
X66751Y13529D1*
X66703Y13625D1*
X66605Y13723D1*
X66508Y13771D1*
X66314D1*
X67794D2*
Y12751D1*
X67113Y13771D1*
Y12751D1*
X68448Y13771D2*
Y12751D1*
X68107Y13771D2*
X68788D1*
X69880Y12751D2*
X69490Y13771D1*
X69102Y12751D1*
X69248Y13091D2*
X69734D1*
X70923Y13529D2*
X70874Y13625D1*
X70777Y13723D1*
X70680Y13771D1*
X70486D1*
X70388Y13723D1*
X70291Y13625D1*
X70242Y13529D1*
X70194Y13383D1*
Y13139D1*
X70242Y12994D1*
X70291Y12897D1*
X70388Y12800D1*
X70486Y12751D1*
X70680D1*
X70777Y12800D1*
X70874Y12897D1*
X70923Y12994D1*
X71577Y13771D2*
Y12751D1*
X71236Y13771D2*
X71917D1*
X42948Y13613D2*
X42316D1*
Y12592D1*
Y13126D2*
X42705D1*
X43262Y13613D2*
Y12592D1*
X43576Y13613D2*
Y12592D1*
X44159D1*
X44813Y13613D2*
Y12592D1*
X44472Y13613D2*
X45153D1*
X46098D2*
X45467D1*
Y12592D1*
X46098D1*
X45467Y13126D2*
X45855D1*
X46412D2*
X46849D1*
X46995Y13176D1*
X47044Y13224D1*
X47092Y13321D1*
Y13418D1*
X47044Y13515D1*
X46995Y13564D1*
X46849Y13613D1*
X46412D1*
Y12592D1*
X46752Y13126D2*
X47092Y12592D1*
X48394Y13126D2*
X48830D1*
X48976Y13176D1*
X49026Y13224D1*
X49074Y13321D1*
Y13418D1*
X49026Y13515D1*
X48976Y13564D1*
X48830Y13613D1*
X48394D1*
Y12592D1*
X48734Y13126D2*
X49074Y12592D1*
X49388Y13613D2*
Y12884D1*
X49436Y12738D1*
X49534Y12641D1*
X49680Y12592D1*
X49776D1*
X49922Y12641D1*
X50020Y12738D1*
X50068Y12884D1*
Y13613D1*
X51063D2*
Y12592D1*
X50382Y13613D1*
Y12592D1*
X52364Y13613D2*
Y12592D1*
X53358Y13613D2*
Y12592D1*
X52678Y13613D1*
Y12592D1*
X53672Y13613D2*
Y12592D1*
X54012D1*
X54158Y12641D1*
X54256Y12738D1*
X54304Y12836D1*
X54353Y12980D1*
Y13224D1*
X54304Y13370D1*
X54256Y13467D1*
X54158Y13564D1*
X54012Y13613D1*
X53672D1*
X89352Y13625D2*
X89255Y13723D1*
X89109Y13771D1*
X88915D1*
X88769Y13723D1*
X88671Y13625D1*
Y13529D1*
X88721Y13431D1*
X88769Y13383D1*
X88865Y13335D1*
X89157Y13237D1*
X89255Y13189D1*
X89303Y13139D1*
X89352Y13043D1*
Y12897D1*
X89255Y12800D1*
X89109Y12751D1*
X88915D1*
X88769Y12800D1*
X88671Y12897D1*
X89665Y13771D2*
Y13043D1*
X89714Y12897D1*
X89811Y12800D1*
X89957Y12751D1*
X90054D1*
X90200Y12800D1*
X90298Y12897D1*
X90346Y13043D1*
Y13771D1*
X90660Y13237D2*
X91098D1*
X91243Y13285D1*
X91292Y13335D1*
X91340Y13431D1*
Y13577D1*
X91292Y13674D1*
X91243Y13723D1*
X91098Y13771D1*
X90660D1*
Y12751D1*
X91654Y13237D2*
X92092D1*
X92237Y13285D1*
X92286Y13335D1*
X92335Y13431D1*
Y13577D1*
X92286Y13674D1*
X92237Y13723D1*
X92092Y13771D1*
X91654D1*
Y12751D1*
X92648Y13771D2*
Y12751D1*
X93231D1*
X93545Y13771D2*
X93934Y13285D1*
Y12751D1*
X94322Y13771D2*
X93934Y13285D1*
X81479Y77469D2*
X81915D1*
X82061Y77518D1*
X82111Y77567D1*
X82159Y77663D1*
Y77761D1*
X82111Y77858D1*
X82061Y77907D1*
X81915Y77955D1*
X81479D1*
Y76934D1*
X81819Y77469D2*
X82159Y76934D1*
X82473Y77955D2*
Y77226D1*
X82521Y77080D1*
X82619Y76984D1*
X82765Y76934D1*
X82861D1*
X83007Y76984D1*
X83105Y77080D1*
X83153Y77226D1*
Y77955D1*
X84148D2*
Y76934D1*
X83467Y77955D1*
Y76934D1*
X85741Y77955D2*
X85643Y77907D1*
X85547Y77809D1*
X85497Y77713D1*
X85449Y77567D1*
Y77323D1*
X85497Y77178D1*
X85547Y77080D1*
X85643Y76984D1*
X85741Y76934D1*
X85935D1*
X86032Y76984D1*
X86130Y77080D1*
X86178Y77178D1*
X86226Y77323D1*
Y77567D1*
X86178Y77713D1*
X86130Y77809D1*
X86032Y77907D1*
X85935Y77955D1*
X85741D1*
X86540D2*
Y76934D1*
X87221Y77955D2*
X86540Y77275D1*
X86783Y77518D2*
X87221Y76934D1*
X19227Y61055D2*
D129*
X18753D1*
Y60289D1*
Y60690D2*
X19044D1*
X19462Y61055D2*
Y60289D1*
X19698Y61055D2*
Y60289D1*
X20135D1*
X20625Y61055D2*
Y60289D1*
X20370Y61055D2*
X20880D1*
X21589D2*
X21116D1*
Y60289D1*
X21589D1*
X21116Y60690D2*
X21407D1*
X21824D2*
X22152D1*
X22262Y60727D1*
X22299Y60764D1*
X22335Y60836D1*
Y60909D1*
X22299Y60982D1*
X22262Y61019D1*
X22152Y61055D1*
X21824D1*
Y60289D1*
X22080Y60690D2*
X22335Y60289D1*
X23311Y61055D2*
Y60289D1*
X23639D1*
X23749Y60327D1*
X23785Y60363D1*
X23821Y60435D1*
Y60545D1*
X23785Y60618D1*
X23749Y60654D1*
X23639Y60690D1*
X23749Y60727D1*
X23785Y60764D1*
X23821Y60836D1*
Y60909D1*
X23785Y60982D1*
X23749Y61019D1*
X23639Y61055D1*
X23311D1*
Y60690D2*
X23639D1*
X24057Y61055D2*
Y60289D1*
X24494D1*
X24948Y61055D2*
X24875Y61019D1*
X24802Y60946D1*
X24765Y60873D1*
X24729Y60764D1*
Y60581D1*
X24765Y60472D1*
X24802Y60399D1*
X24875Y60327D1*
X24948Y60289D1*
X25094D1*
X25166Y60327D1*
X25239Y60399D1*
X25276Y60472D1*
X25312Y60581D1*
Y60764D1*
X25276Y60873D1*
X25239Y60946D1*
X25166Y61019D1*
X25094Y61055D1*
X24948D1*
X26094Y60873D2*
X26058Y60946D1*
X25984Y61019D1*
X25912Y61055D1*
X25766D1*
X25693Y61019D1*
X25620Y60946D1*
X25583Y60873D1*
X25547Y60764D1*
Y60581D1*
X25583Y60472D1*
X25620Y60399D1*
X25693Y60327D1*
X25766Y60289D1*
X25912D1*
X25984Y60327D1*
X26058Y60399D1*
X26094Y60472D1*
X26329Y61055D2*
Y60289D1*
X26840Y61055D2*
X26329Y60545D1*
X26511Y60727D2*
X26840Y60289D1*
X27548Y61055D2*
X27075D1*
Y60289D1*
X27548D1*
X27075Y60690D2*
X27366D1*
X27784Y61055D2*
Y60289D1*
X28039D1*
X28148Y60327D1*
X28222Y60399D1*
X28258Y60472D1*
X28294Y60581D1*
Y60764D1*
X28258Y60873D1*
X28222Y60946D1*
X28148Y61019D1*
X28039Y61055D1*
X27784D1*
X64016Y95894D2*
D128*
Y94873D1*
X64454D1*
X64600Y94923D1*
X64648Y94971D1*
X64697Y95067D1*
Y95213D1*
X64648Y95311D1*
X64600Y95359D1*
X64454Y95408D1*
X64600Y95457D1*
X64648Y95505D1*
X64697Y95602D1*
Y95700D1*
X64648Y95796D1*
X64600Y95846D1*
X64454Y95894D1*
X64016D1*
Y95408D2*
X64454D1*
X65010Y95894D2*
X65399Y95408D1*
Y94873D1*
X65788Y95894D2*
X65399Y95408D1*
X66101Y95359D2*
X66539D1*
X66684Y95408D1*
X66734Y95457D1*
X66782Y95554D1*
Y95700D1*
X66734Y95796D1*
X66684Y95846D1*
X66539Y95894D1*
X66101D1*
Y94873D1*
X67874D2*
X67484Y95894D1*
X67096Y94873D1*
X67242Y95213D2*
X67728D1*
X68868Y95748D2*
X68772Y95846D1*
X68626Y95894D1*
X68431D1*
X68285Y95846D1*
X68188Y95748D1*
Y95651D1*
X68237Y95554D1*
X68285Y95505D1*
X68382Y95457D1*
X68674Y95359D1*
X68772Y95311D1*
X68820Y95262D1*
X68868Y95165D1*
Y95019D1*
X68772Y94923D1*
X68626Y94873D1*
X68431D1*
X68285Y94923D1*
X68188Y95019D1*
X69863Y95748D2*
X69766Y95846D1*
X69620Y95894D1*
X69426D1*
X69280Y95846D1*
X69182Y95748D1*
Y95651D1*
X69231Y95554D1*
X69280Y95505D1*
X69376Y95457D1*
X69668Y95359D1*
X69766Y95311D1*
X69814Y95262D1*
X69863Y95165D1*
Y95019D1*
X69766Y94923D1*
X69620Y94873D1*
X69426D1*
X69280Y94923D1*
X69182Y95019D1*
X71456Y95894D2*
X71358Y95846D1*
X71262Y95748D1*
X71212Y95651D1*
X71164Y95505D1*
Y95262D1*
X71212Y95117D1*
X71262Y95019D1*
X71358Y94923D1*
X71456Y94873D1*
X71650D1*
X71747Y94923D1*
X71844Y95019D1*
X71893Y95117D1*
X71941Y95262D1*
Y95505D1*
X71893Y95651D1*
X71844Y95748D1*
X71747Y95846D1*
X71650Y95894D1*
X71456D1*
X72935D2*
Y94873D1*
X72255Y95894D1*
Y94873D1*
X112266Y27234D2*
D130*
X112363Y27041D1*
X112558Y26846D1*
X112751Y26749D1*
X113140D1*
X113335Y26846D1*
X113529Y27041D1*
X113627Y27234D1*
X113724Y27526D1*
Y28014D1*
X113627Y28304D1*
X113529Y28499D1*
X113335Y28692D1*
X113140Y28791D1*
X112751D1*
X112558Y28692D1*
X112363Y28499D1*
X112266Y28304D1*
Y28014D1*
X112751D1*
X111540Y27237D2*
Y27140D1*
X111443Y26945D1*
X111347Y26848D1*
X111151Y26752D1*
X110763D1*
X110570Y26848D1*
X110473Y26945D1*
X110374Y27140D1*
Y27333D1*
X110473Y27529D1*
X110666Y27818D1*
X111639Y28791D1*
X110278D1*
X109650Y27722D2*
X108776D1*
X108484Y27623D1*
X108386Y27526D1*
X108289Y27333D1*
Y27138D1*
X108386Y26945D1*
X108484Y26846D1*
X108776Y26749D1*
X109650D1*
Y28791D1*
X108970Y27722D2*
X108289Y28791D1*
X107662Y26749D2*
Y28791D1*
X106496D1*
X105868Y27771D2*
X104745D1*
X104118Y27140D2*
X103922Y27041D1*
X103630Y26752D1*
Y28791D1*
X102030D2*
Y26752D1*
X103003Y28110D1*
X101545D1*
X86622Y44901D2*
Y43931D1*
X87496Y43834D1*
X87399Y43931D1*
X87300Y44223D1*
Y44512D1*
X87399Y44804D1*
X87592Y45000D1*
X87884Y45096D1*
X88077D1*
X88369Y45000D1*
X88565Y44804D1*
X88661Y44512D1*
Y44223D1*
X88565Y43931D1*
X88466Y43834D1*
X88273Y43735D1*
X87300Y47699D2*
X88661Y48768D1*
X87300D2*
X88661Y47699D1*
X87107Y51470D2*
X87011D1*
X86815Y51566D1*
X86719Y51663D1*
X86622Y51858D1*
Y52247D1*
X86719Y52440D1*
X86815Y52537D1*
X87011Y52635D1*
X87204D1*
X87399Y52537D1*
X87689Y52343D1*
X88661Y51371D1*
Y52732D1*
X86622Y53943D2*
X86719Y53651D1*
X87011Y53456D1*
X87496Y53359D1*
X87788D1*
X88273Y53456D1*
X88565Y53651D1*
X88661Y53943D1*
Y54137D1*
X88565Y54429D1*
X88273Y54622D1*
X87788Y54721D1*
X87496D1*
X87011Y54622D1*
X86719Y54429D1*
X86622Y54137D1*
Y53943D1*
X87011Y54622D2*
X88273Y53456D1*
X87300Y55348D2*
X88661D1*
X87689D2*
X87397Y55640D1*
X87300Y55835D1*
Y56125D1*
X87397Y56321D1*
X87689Y56417D1*
X88661D1*
X87689D2*
X87397Y56709D1*
X87300Y56905D1*
Y57194D1*
X87397Y57390D1*
X87689Y57489D1*
X88661D1*
X87300Y58116D2*
X88661D1*
X87689D2*
X87397Y58408D1*
X87300Y58603D1*
Y58893D1*
X87397Y59089D1*
X87689Y59185D1*
X88661D1*
X87689D2*
X87397Y59477D1*
X87300Y59673D1*
Y59962D1*
X87397Y60158D1*
X87689Y60257D1*
X88661D1*
X92494Y44841D2*
Y43576D1*
X94536D1*
X93466D2*
Y44354D1*
X93174Y45469D2*
X94147Y45468D1*
X94437Y45565D1*
X94536Y45760D1*
Y46052D1*
X94437Y46246D1*
X94147Y46538D1*
X93174D2*
X94536D1*
X93466Y48234D2*
X93271Y48138D1*
X93174Y47846D1*
Y47554D1*
X93271Y47262D1*
X93466Y47165D1*
X93660Y47262D1*
X93758Y47457D1*
X93855Y47942D1*
X93952Y48138D1*
X94147Y48234D1*
X94244D1*
X94437Y48138D1*
X94536Y47846D1*
Y47554D1*
X94437Y47262D1*
X94244Y47165D1*
X93758Y48862D2*
Y50027D1*
X93563D1*
X93368Y49931D1*
X93271Y49834D1*
X93174Y49639D1*
Y49347D1*
X93271Y49154D1*
X93466Y48958D1*
X93758Y48862D1*
X93952D1*
X94244Y48958D1*
X94437Y49154D1*
X94536Y49347D1*
Y49639D1*
X94437Y49834D1*
X94244Y50027D1*
X92494Y52630D2*
X94536D1*
X92494Y53991D2*
X94536D1*
X93466Y52630D2*
Y53991D1*
X93174Y55104D2*
X93271Y54911D1*
X93466Y54715D1*
X93758Y54619D1*
X93952D1*
X94244Y54715D1*
X94437Y54911D1*
X94536Y55104D1*
Y55396D1*
X94437Y55591D1*
X94244Y55784D1*
X93952Y55883D1*
X93758D1*
X93466Y55784D1*
X93271Y55591D1*
X93174Y55396D1*
Y55104D1*
X92494Y56511D2*
X94536D1*
X92494Y58304D2*
X94536D1*
X93466D2*
X93271Y58111D1*
X93174Y57915D1*
Y57623D1*
X93271Y57430D1*
X93466Y57235D1*
X93758Y57138D1*
X93952D1*
X94244Y57235D1*
X94437Y57430D1*
X94536Y57623D1*
Y57915D1*
X94437Y58111D1*
X94244Y58304D1*
X93758Y58931D2*
Y60097D1*
X93563D1*
X93368Y60001D1*
X93271Y59904D1*
X93174Y59709D1*
Y59417D1*
X93271Y59223D1*
X93466Y59028D1*
X93758Y58931D1*
X93952D1*
X94244Y59028D1*
X94437Y59223D1*
X94536Y59417D1*
Y59709D1*
X94437Y59904D1*
X94244Y60097D1*
X93174Y60725D2*
X94536D1*
X93758D2*
X93466Y60823D1*
X93271Y61017D1*
X93174Y61212D1*
Y61504D1*
X43222Y36362D2*
D128*
Y35341D1*
X43903Y36362D2*
Y35341D1*
X43222Y35876D2*
X43903D1*
X44217Y36362D2*
Y35341D1*
X44557D1*
X44703Y35391D1*
X44801Y35487D1*
X44849Y35585D1*
X44897Y35730D1*
Y35974D1*
X44849Y36120D1*
X44801Y36216D1*
X44703Y36314D1*
X44557Y36362D1*
X44217D1*
X45211Y35876D2*
X45648D1*
X45794Y35925D1*
X45843Y35974D1*
X45892Y36070D1*
Y36168D1*
X45843Y36265D1*
X45794Y36314D1*
X45648Y36362D1*
X45211D1*
Y35341D1*
X45551Y35876D2*
X45892Y35341D1*
X46692D2*
Y36361D1*
X46205Y35682D1*
X46934D1*
X47248Y35173D2*
X48171D1*
X48534Y36119D2*
Y36167D1*
X48582Y36265D1*
X48631Y36313D1*
X48728Y36361D1*
X48923D1*
X49019Y36313D1*
X49068Y36265D1*
X49117Y36167D1*
Y36070D1*
X49068Y35973D1*
X48971Y35828D1*
X48485Y35341D1*
X49165D1*
X14644Y33287D2*
X15082D1*
X15227Y33336D1*
X15277Y33385D1*
X15325Y33482D1*
Y33628D1*
X15277Y33724D1*
X15227Y33774D1*
X15082Y33822D1*
X14644D1*
Y32801D1*
X15639Y33482D2*
Y32801D1*
Y33190D2*
X15688Y33336D1*
X15785Y33433D1*
X15882Y33482D1*
X16028D1*
X16585D2*
X16488Y33433D1*
X16390Y33336D1*
X16342Y33190D1*
Y33093D1*
X16390Y32947D1*
X16488Y32851D1*
X16585Y32801D1*
X16731D1*
X16828Y32851D1*
X16925Y32947D1*
X16974Y33093D1*
Y33190D1*
X16925Y33336D1*
X16828Y33433D1*
X16731Y33482D1*
X16585D1*
X17288D2*
Y32461D1*
Y33336D2*
X17386Y33432D1*
X17482Y33482D1*
X17628D1*
X17726Y33432D1*
X17823Y33336D1*
X17872Y33190D1*
Y33092D1*
X17823Y32947D1*
X17726Y32849D1*
X17628Y32801D1*
X17482D1*
X17386Y32849D1*
X17288Y32947D1*
X18186Y33287D2*
X18624D1*
X18769Y33336D1*
X18818Y33385D1*
X18866Y33482D1*
Y33628D1*
X18818Y33724D1*
X18769Y33774D1*
X18624Y33822D1*
X18186D1*
Y32801D1*
X19180Y33822D2*
Y32801D1*
X19494Y33482D2*
Y32995D1*
X19542Y32851D1*
X19640Y32801D1*
X19786D1*
X19882Y32851D1*
X20028Y32995D1*
Y33482D2*
Y32801D1*
X20925Y33433D2*
Y32655D1*
X20877Y32510D1*
X20828Y32461D1*
X20731Y32413D1*
X20585D1*
X20488Y32461D1*
X20925Y33287D2*
X20828Y33384D1*
X20731Y33433D1*
X20585D1*
X20488Y33384D1*
X20390Y33287D1*
X20342Y33141D1*
Y33044D1*
X20390Y32899D1*
X20488Y32801D1*
X20585Y32753D1*
X20731D1*
X20828Y32801D1*
X20925Y32899D1*
X114039Y47610D2*
X114135Y47659D1*
X114233Y47756D1*
X114281Y47853D1*
Y48047D1*
X114233Y48145D1*
X114135Y48242D1*
X114039Y48291D1*
X113893Y48339D1*
X113649D1*
X113504Y48291D1*
X113407Y48242D1*
X113310Y48145D1*
X113261Y48047D1*
Y47853D1*
X113310Y47756D1*
X113407Y47659D1*
X113504Y47610D1*
X114281Y46616D2*
X113261D1*
X114281Y47297D1*
X113261D1*
X114281Y46302D2*
X113795Y45914D1*
X113261D1*
X114281Y45525D2*
X113795Y45914D1*
X114086Y45211D2*
X114135Y45114D1*
X114280Y44968D1*
X113261D1*
Y44460D2*
X114280Y43973D1*
Y44654D1*
X114281Y43027D2*
Y43660D1*
X113261D1*
X113795D2*
Y43271D1*
X112514Y56371D2*
X112418Y56322D1*
X112320Y56225D1*
X112272Y56128D1*
Y55934D1*
X112320Y55836D1*
X112418Y55739D1*
X112514Y55690D1*
X112660Y55642D1*
X112904D1*
X113049Y55690D1*
X113147Y55739D1*
X113243Y55836D1*
X113293Y55934D1*
Y56128D1*
X113243Y56225D1*
X113147Y56322D1*
X113049Y56371D1*
X112272Y57365D2*
X113293D1*
X112272Y56684D1*
X113293D1*
X112272Y57679D2*
X112758Y58067D1*
X113293D1*
X112272Y58456D2*
X112758Y58067D1*
X112467Y58770D2*
X112418Y58867D1*
X112273Y59013D1*
X113293D1*
Y59521D2*
X112273Y60008D1*
Y59327D1*
X112272Y60954D2*
Y60321D1*
X113293D1*
X112758D2*
Y60710D1*
X114356Y76982D2*
X114453Y77031D1*
X114551Y77128D1*
X114599Y77225D1*
Y77419D1*
X114551Y77517D1*
X114453Y77613D1*
X114356Y77663D1*
X114210Y77711D1*
X113967D1*
X113822Y77663D1*
X113724Y77613D1*
X113628Y77517D1*
X113578Y77419D1*
Y77225D1*
X113628Y77128D1*
X113724Y77031D1*
X113822Y76982D1*
X114599Y75988D2*
X113578D1*
X114599Y76669D1*
X113578D1*
X114599Y75674D2*
X114113Y75286D1*
X113578D1*
X114599Y74897D2*
X114113Y75286D1*
X114404Y74583D2*
X114453Y74486D1*
X114598Y74340D1*
X113578D1*
Y73832D2*
X114598Y73345D1*
Y74026D1*
X114599Y72399D2*
Y73032D1*
X113578D1*
X114113D2*
Y72643D1*
X114356Y91430D2*
X114453Y91478D1*
X114551Y91576D1*
X114599Y91673D1*
Y91867D1*
X114551Y91965D1*
X114453Y92061D1*
X114356Y92111D1*
X114210Y92159D1*
X113967D1*
X113822Y92111D1*
X113724Y92061D1*
X113628Y91965D1*
X113578Y91867D1*
Y91673D1*
X113628Y91576D1*
X113724Y91478D1*
X113822Y91430D1*
X114599Y90436D2*
X113578D1*
X114599Y91116D1*
X113578D1*
X114599Y90122D2*
X114113Y89733D1*
X113578D1*
X114599Y89345D2*
X114113Y89733D1*
X114404Y89031D2*
X114453Y88933D1*
X114598Y88787D1*
X113578D1*
Y88279D2*
X114598Y87793D1*
Y88474D1*
X114599Y86847D2*
Y87479D1*
X113578D1*
X114113D2*
Y87091D1*
M02*
