G04 DipTrace 2.4.0.2*
%INBottom.gbr*%
%MOMM*%
%ADD12C,0.38*%
%ADD18R,1.5X1.5*%
%ADD19C,1.5*%
%ADD20O,1.981X3.981*%
%ADD23O,2.0X1.0*%
%ADD27R,3.0X3.0*%
%ADD28C,0.635*%
%FSLAX53Y53*%
G04*
G71*
G90*
G75*
G01*
%LNBottom*%
%LPD*%
X102118Y56042D2*
D12*
X73154D1*
X72174Y57023D1*
X71159D1*
Y57910D1*
X70372Y58697D1*
Y71096D1*
X66237Y77310D2*
Y54766D1*
X66281Y54722D1*
X66997D1*
X103438D1*
X104198Y55482D1*
Y59042D1*
X102118Y61122D1*
X66237Y42086D2*
Y53962D1*
X66997Y54722D1*
X36656Y25877D2*
X37976Y27197D1*
Y69537D1*
X24467Y50322D2*
X32136D1*
X32896Y51082D1*
Y69537D1*
X35436Y28612D2*
Y69537D1*
X24889Y38400D2*
Y37180D1*
Y28412D1*
X48136Y47233D2*
Y69537D1*
X44091Y32161D2*
X45696D1*
Y66647D1*
X45596Y66748D1*
Y69537D1*
X43056D2*
Y25039D1*
X42296Y24279D1*
X29842D1*
X29082Y25039D1*
Y40837D1*
X40516Y79313D2*
Y69537D1*
Y45147D1*
X48296Y29052D2*
Y31132D1*
X49456D1*
X53836D1*
X55916Y29052D1*
X49456Y31132D2*
Y75897D1*
X55916Y29052D2*
X57981D1*
X59728Y30798D1*
Y32862D1*
X61633Y34768D1*
X101642D1*
X101801Y34926D1*
X109739Y34768D2*
Y46199D1*
X111486Y47945D1*
Y79857D1*
X107040Y84303D1*
X82908D1*
X79891Y81286D1*
X17813Y71618D2*
X21054D1*
X26738D1*
X21054D2*
Y72012D1*
X19718Y73348D1*
X17178D1*
X16226Y72395D1*
Y26194D1*
X17972Y24448D1*
X22259D1*
X22894Y23813D1*
Y21749D1*
X23846Y20796D1*
X69254D1*
X74652Y26194D1*
X104341D1*
X107675Y29528D1*
Y46834D1*
X110057Y49215D1*
Y79857D1*
X107040Y82874D1*
X98943D1*
X97355Y81286D1*
X19261Y27399D2*
X25573D1*
X26333Y26639D1*
Y24279D1*
X27093Y23519D1*
X45303D1*
X50836Y29052D1*
Y27732D1*
X51596Y26972D1*
X52616D1*
X53376Y27732D1*
Y29052D1*
X23147Y50322D2*
Y51625D1*
X23907Y52385D1*
Y58458D1*
X23147Y59218D1*
X20830D1*
X23907Y52385D2*
X26370D1*
X20830Y61758D2*
X18373D1*
X17613Y60998D1*
Y27272D1*
X18373Y26512D1*
X24500D1*
Y22759D1*
X25260Y21999D1*
X68295D1*
X75507Y29211D1*
X77827D1*
X105929Y78428D2*
X77694D1*
X76806Y58038D2*
X92117Y73348D1*
X105929D1*
X54575Y59410D2*
Y47531D1*
X55590Y46516D1*
X54575Y45501D1*
Y36673D1*
X48878Y83352D2*
X53815D1*
X54575Y82592D1*
Y67330D1*
X67579Y67654D2*
Y79857D1*
X66237D1*
Y82065D1*
X28618Y78482D2*
Y77262D1*
Y64901D1*
X23427Y85097D2*
X69485D1*
Y64962D1*
X20179Y80200D2*
X52928D1*
X53688Y79440D1*
Y64141D1*
X62518Y55311D1*
Y39656D1*
X63278Y38896D1*
X102118D1*
X103893Y81123D2*
X107249D1*
X108009Y80363D1*
Y49866D1*
X102118Y43976D1*
X77694Y46516D2*
X102118D1*
X92839Y29211D2*
X88460D1*
X85900Y31771D1*
X73719D1*
X70841Y28893D1*
X102118Y63662D2*
Y72461D1*
X44809Y40530D2*
Y33048D1*
X38863Y58317D2*
Y61781D1*
D28*
X70372Y71096D3*
X71159Y57023D3*
X66237Y77310D3*
Y42086D3*
X36656Y25877D3*
X24467Y50322D3*
X35436Y28612D3*
X24889Y37180D3*
Y28412D3*
Y38400D3*
X48136Y47233D3*
X44091Y32161D3*
X29082Y40837D3*
X40516Y45147D3*
Y79313D3*
X49456Y75897D3*
X26738Y71618D3*
X17813D3*
X19261Y27399D3*
X23147Y50322D3*
X26370Y52385D3*
X24500Y26512D3*
X77694Y78428D3*
X76806Y58038D3*
X55590Y46516D3*
X54575Y59410D3*
Y36673D3*
Y67330D3*
X48878Y83352D3*
X66237Y82065D3*
X67579Y67654D3*
Y79857D3*
X28618Y64901D3*
Y78482D3*
Y77262D3*
X69485Y64962D3*
X23427Y85097D3*
X69485D3*
X20179Y80200D3*
X103893Y81123D3*
X77694Y46516D3*
X102118Y72461D3*
X44809Y33048D3*
Y40530D3*
X38863Y61781D3*
Y58317D3*
X101801Y34926D3*
X109739Y34768D3*
D18*
X102118Y38896D3*
Y41436D3*
Y43976D3*
Y46516D3*
Y56042D3*
Y58582D3*
Y61122D3*
Y63662D3*
X48296Y29052D3*
X50836D3*
X53376D3*
X55916D3*
X63220Y28893D3*
X65760D3*
X68300D3*
X70841D3*
X105929Y78428D3*
D19*
Y75888D3*
Y73348D3*
Y70808D3*
D20*
X77827Y29211D3*
Y21718D3*
X92839Y29211D3*
X97817D3*
X102821D3*
X92839Y21718D3*
X97817D3*
X102821D3*
G36*
X20080Y62258D2*
X19830Y62008D1*
Y61508D1*
X20080Y61258D1*
X21580D1*
X21830Y61508D1*
Y62008D1*
X21580Y62258D1*
X20080D1*
X19830Y62008D1*
Y61508D1*
X20080Y61258D1*
X21580D1*
X21830Y61508D1*
Y62008D1*
X21580Y62258D1*
X20080D1*
X19830Y62008D1*
Y61508D1*
X20080Y61258D1*
X21580D1*
X21830Y61508D1*
Y62008D1*
X21580Y62258D1*
X20080D1*
G37*
D23*
X20830Y60488D3*
Y59218D3*
D18*
X30356Y69537D3*
D19*
X32896D3*
X35436D3*
X37976D3*
X40516D3*
X43056D3*
X45596D3*
X48136D3*
D27*
X79891Y41595D3*
Y81286D3*
X97355D3*
X97514Y41595D3*
M02*
