M48
METRIC,0000.00
T01C0.305
T03C0.8
T03C0.9
T04C1.321
T05C1.5
T07C3.4
T07C3.5
%
T01
X+007037Y+007110
X+006758Y+006765
X+006948Y+006496
X+007116Y+005702
X+007681Y+005804
X+007769Y+004652
X+006624Y+004209
X+005559Y+004652
X+004814Y+004723
X+004481Y+004053
X+004052Y+004515
X+002908Y+004084
X+002489Y+003840
X+002489Y+003718
X+002489Y+002841
X+002450Y+002651
X+001926Y+002740
X+003544Y+002861
X+003666Y+002588
X+004409Y+003216
X+004481Y+003305
X+005457Y+003667
X+005457Y+005941
X+005458Y+006733
X+004946Y+007590
X+004888Y+008335
X+004052Y+007931
X+002862Y+007848
X+002862Y+007726
X+002674Y+007162
X+002862Y+006490
X+003886Y+006178
X+003886Y+005832
X+002637Y+005239
X+002447Y+005032
X+002315Y+005032
X+001781Y+007162
X+002018Y+008020
X+002343Y+008510
X+006624Y+008206
X+006758Y+007986
X+006624Y+007731
X+006948Y+008510
X+007769Y+007843
X+010212Y+007246
X+010389Y+008112
X+010180Y+003493
X+010974Y+003477
T03
X+002083Y+006176
X+002083Y+006049
X+002083Y+005922
T03
X+010212Y+003890
X+010212Y+004144
X+010212Y+004398
X+010212Y+004652
X+010212Y+005604
X+010212Y+005858
X+010212Y+006112
X+010212Y+006366
X+010593Y+007081
X+010593Y+007335
X+010593Y+007589
X+010593Y+007843
X+004814Y+006954
X+004560Y+006954
X+004306Y+006954
X+004052Y+006954
X+003798Y+006954
X+003544Y+006954
X+003290Y+006954
X+003036Y+006954
X+004830Y+002905
X+005084Y+002905
X+005338Y+002905
X+005592Y+002905
X+006322Y+002889
X+006576Y+002889
X+006830Y+002889
X+007084Y+002889
T04
X+007783Y+002921
X+007783Y+002172
X+009284Y+002172
X+009782Y+002172
X+010282Y+002172
X+010282Y+002921
X+009782Y+002921
X+009284Y+002921
T05
X+007989Y+004159
X+009751Y+004159
X+009736Y+008129
X+007989Y+008129
T07
X+011117Y+008700
X+011121Y+001707
X+001692Y+001707
T07
X+001702Y+008693
T00
M30
