G04 DipTrace 2.4.0.2*
%INTop.gbr*%
%MOMM*%
%ADD12C,0.38*%
%ADD14R,1.5X1.3*%
%ADD15R,1.5X1.7*%
%ADD16R,0.9X0.9*%
%ADD18R,1.5X1.5*%
%ADD19C,1.5*%
%ADD20O,1.981X3.981*%
%ADD22R,1.78X1.52*%
%ADD23O,2.0X1.0*%
%ADD24R,1.0X1.2*%
%ADD25R,1.3X1.5*%
%ADD26R,3.2X1.8*%
%ADD27R,3.0X3.0*%
%ADD28C,0.635*%
%FSLAX53Y53*%
G04*
G71*
G90*
G75*
G01*
%LNTop*%
%LPD*%
X71635Y72553D2*
D12*
Y71153D1*
X71577Y71096D1*
X70372D1*
X71159Y55565D2*
Y53879D1*
X51789D1*
Y52549D1*
X71159Y57023D2*
Y55565D1*
X70372Y71096D2*
X57346D1*
Y72553D1*
X66237Y77310D2*
X65092D1*
X64332Y78070D1*
Y79857D1*
X66237Y37943D2*
Y37993D1*
X52583D1*
Y36673D1*
X66237Y42086D2*
Y37943D1*
X36656Y25877D2*
X34325D1*
X24467Y50322D2*
Y47075D1*
X23147D1*
X35436Y28612D2*
X38171Y25877D1*
X39723D1*
X29244Y26512D2*
X27344Y28412D1*
X24889D1*
X27752Y47233D2*
X26242D1*
X25482Y47993D1*
Y51506D1*
X24722Y52266D1*
X26742Y54285D1*
X32974D1*
X24722Y52266D2*
X24334D1*
X23014D1*
X27634Y42737D2*
Y43957D1*
X22713D1*
Y42737D1*
X22417Y28412D2*
X20737D1*
Y22478D1*
X21497Y21718D1*
X77827D1*
X24889Y28412D2*
X22417D1*
X24889Y37180D2*
X27476D1*
X22554Y37016D2*
X24725D1*
X24889Y37180D1*
X23014Y52266D2*
X20020D1*
X19260Y51506D1*
Y37776D1*
X20020Y37016D1*
X22554D1*
X22713Y42737D2*
X24129D1*
X24889Y41977D1*
Y38400D1*
X48136Y47233D2*
X32832D1*
X31512D1*
X30752Y47993D1*
Y48373D1*
X29992Y49133D1*
X27752D1*
X44091Y32161D2*
X32205D1*
X31445Y32921D1*
Y35592D1*
X27476D1*
Y35280D1*
X43056Y69537D2*
X41736Y70858D1*
X33256D1*
X32496Y71618D1*
Y75305D1*
X29082Y40837D2*
X27634D1*
X40516Y45147D2*
X21497D1*
X20737Y44387D1*
Y40837D1*
X22713D1*
X40516Y79313D2*
X32336D1*
Y81328D1*
X49456Y75897D2*
X44041D1*
X101801Y34926D2*
X109580D1*
X109739Y34768D1*
X22417Y26512D2*
Y25292D1*
X23177Y24532D1*
X29581D1*
X32513Y27464D1*
X34325D1*
X26738Y71618D2*
X30369D1*
X31129Y72378D1*
Y78425D1*
X38181D1*
X38941Y77665D1*
Y75897D1*
X17813Y28412D2*
Y71618D1*
X46709Y36673D2*
X47929D1*
X50683D1*
Y37993D1*
X51789Y39099D1*
Y43500D1*
X19261Y27399D2*
Y26829D1*
X18943Y26512D1*
X17813D1*
X28907Y56489D2*
Y56417D1*
X37080D1*
X20830Y60488D2*
X26147D1*
X26907Y59728D1*
Y56489D1*
X23147Y48975D2*
Y50322D1*
X26370Y52385D2*
X32974D1*
X25752Y26512D2*
X24500D1*
X97514Y41595D2*
Y64616D1*
X100689Y67791D1*
X112279D1*
X113550Y69061D1*
Y78111D1*
X112914Y78746D1*
X106246D1*
X105929Y78428D1*
X77694D2*
X76582Y79540D1*
X74334D1*
X71696D1*
X70059Y81177D1*
X64972D1*
X61252Y84897D1*
X44041D1*
X79891Y41595D2*
X81796D1*
X84495Y44294D1*
X96085D1*
X96244Y44135D1*
Y65251D1*
X100054Y69061D1*
X111486D1*
X112597Y70173D1*
Y77317D1*
X107357D1*
X105929Y75888D1*
X103006Y78811D1*
Y84380D1*
X102246Y85140D1*
X74334D1*
X71011D1*
X69734Y86417D1*
X38941D1*
Y84897D1*
X105929Y70808D2*
X96284D1*
X87650Y62174D1*
X51297D1*
X49790Y63681D1*
X36987D1*
X76806Y58038D2*
X61078D1*
X57679Y54639D1*
X35161D1*
X34294Y55505D1*
X30207D1*
X29747Y55045D1*
X25214D1*
X24334Y54166D1*
X23014D1*
X57822Y36673D2*
X61554D1*
X62184Y36043D1*
X66237D1*
X70398D1*
X71159Y36803D1*
Y46516D1*
X55590D2*
X68619D1*
X55922Y36673D2*
X54575D1*
Y59410D2*
X54447Y59537D1*
X33031D1*
X31320Y61248D1*
X24046D1*
X23286Y62008D1*
Y75778D1*
X22066D1*
X33345Y35592D2*
Y37914D1*
X31395Y39864D1*
Y44110D1*
X41044D1*
X41763Y44830D1*
X47515D1*
X50531Y47846D1*
X72938D1*
X73699Y48606D1*
Y55565D1*
X32832Y49133D2*
X53569D1*
X54329Y49893D1*
Y52549D1*
X50225Y83352D2*
X48878D1*
X54575Y67330D2*
X56586D1*
X57346Y66570D1*
Y63504D1*
X48878Y83352D2*
X31129D1*
X30369Y82592D1*
Y76122D1*
X29609Y75362D1*
X27170D1*
X66237Y85097D2*
Y82065D1*
X71635Y63504D2*
Y66894D1*
X70875Y67654D1*
X67579D1*
Y79857D2*
X66232D1*
X28618Y64901D2*
X54806D1*
Y63504D1*
X28618Y78482D2*
X29149Y79013D1*
Y81451D1*
X27170Y77262D2*
X28618D1*
X23427Y85097D2*
Y81466D1*
X69485Y85097D2*
X68137D1*
X69485Y64962D2*
X69412D1*
X69095Y64644D1*
Y63504D1*
X74175Y72553D2*
Y70968D1*
X73415Y70208D1*
X52703D1*
X51293Y71618D1*
X36178D1*
X35418Y72378D1*
Y76445D1*
X34658Y77205D1*
X32496D1*
X59886Y72553D2*
Y80568D1*
X59126Y81328D1*
X34236D1*
X97817Y29211D2*
X96060D1*
X92739Y25890D1*
X66224D1*
X63220Y28893D1*
X20166Y80187D2*
Y75778D1*
X102118Y41436D2*
X95506Y34823D1*
X43589D1*
X42829Y35583D1*
Y42130D1*
X42069Y42890D1*
X32715D1*
X103893Y81123D2*
Y87177D1*
X103133Y87937D1*
X22287D1*
X21527Y87177D1*
Y81466D1*
X77694Y46516D2*
Y59537D1*
X76934Y60297D1*
X35762D1*
X34051Y62008D1*
X26610D1*
X25850Y62768D1*
Y81451D1*
X27249D1*
X65760Y28893D2*
Y27573D1*
X68300D1*
Y28893D1*
X71179Y31772D1*
X98618D1*
X99378Y31012D1*
Y29971D1*
X100138Y29211D1*
X102821D1*
X102118Y72461D2*
X100696Y73883D1*
X62106D1*
X61346Y74643D1*
Y82592D1*
X60586Y83352D1*
X52125D1*
X44809Y36673D2*
Y40530D1*
Y33048D2*
X40324D1*
X39564Y33808D1*
Y40230D1*
X38804Y40990D1*
X32715D1*
X44809Y40530D2*
X47778Y43500D1*
X49249D1*
X39723Y27464D2*
X37688Y29499D1*
X26536D1*
X25776Y30259D1*
Y34356D1*
X25016Y35116D1*
X22554D1*
X38863Y61781D2*
X36987D1*
X37080Y58317D2*
X38863D1*
D28*
X70372Y71096D3*
X71159Y57023D3*
X66237Y77310D3*
Y42086D3*
X36656Y25877D3*
X24467Y50322D3*
X35436Y28612D3*
X24889Y37180D3*
Y28412D3*
Y38400D3*
X48136Y47233D3*
X44091Y32161D3*
X29082Y40837D3*
X40516Y45147D3*
Y79313D3*
X49456Y75897D3*
X26738Y71618D3*
X17813D3*
X19261Y27399D3*
X23147Y50322D3*
X26370Y52385D3*
X24500Y26512D3*
X77694Y78428D3*
X76806Y58038D3*
X55590Y46516D3*
X54575Y59410D3*
Y36673D3*
Y67330D3*
X48878Y83352D3*
X66237Y82065D3*
X67579Y67654D3*
Y79857D3*
X28618Y64901D3*
Y78482D3*
Y77262D3*
X69485Y64962D3*
X23427Y85097D3*
X69485D3*
X20179Y80200D3*
X103893Y81123D3*
X77694Y46516D3*
X102118Y72461D3*
X44809Y33048D3*
Y40530D3*
X38863Y61781D3*
Y58317D3*
X101801Y34926D3*
X109739Y34768D3*
D14*
X32974Y54285D3*
Y52385D3*
D15*
X44041Y84897D3*
X38941D3*
Y75897D3*
X44041D3*
D14*
X36987Y63681D3*
Y61781D3*
X23014Y54166D3*
Y52266D3*
D16*
X25752Y26512D3*
X29244D3*
X39723Y27464D3*
Y25877D3*
X34325Y27464D3*
Y25877D3*
D18*
X102118Y38896D3*
Y41436D3*
Y43976D3*
Y46516D3*
Y56042D3*
Y58582D3*
Y61122D3*
Y63662D3*
X48296Y29052D3*
X50836D3*
X53376D3*
X55916D3*
X63220Y28893D3*
X65760D3*
X68300D3*
X70841D3*
D14*
X17813Y26512D3*
Y28412D3*
X37080Y56417D3*
Y58317D3*
D18*
X105929Y78428D3*
D19*
Y75888D3*
Y73348D3*
Y70808D3*
D20*
X77827Y29211D3*
Y21718D3*
X92839Y29211D3*
X97817D3*
X102821D3*
X92839Y21718D3*
X97817D3*
X102821D3*
D22*
X49249Y43500D3*
X51789D3*
X54329D3*
Y52549D3*
X51789D3*
X49249D3*
X68619Y46516D3*
X71159D3*
X73699D3*
Y55565D3*
X71159D3*
X68619D3*
X69095Y63504D3*
X71635D3*
X74175D3*
Y72553D3*
X71635D3*
X69095D3*
X54806Y63504D3*
X57346D3*
X59886D3*
Y72553D3*
X57346D3*
X54806D3*
G36*
X20080Y62258D2*
X19830Y62008D1*
Y61508D1*
X20080Y61258D1*
X21580D1*
X21830Y61508D1*
Y62008D1*
X21580Y62258D1*
X20080D1*
X19830Y62008D1*
Y61508D1*
X20080Y61258D1*
X21580D1*
X21830Y61508D1*
Y62008D1*
X21580Y62258D1*
X20080D1*
X19830Y62008D1*
Y61508D1*
X20080Y61258D1*
X21580D1*
X21830Y61508D1*
Y62008D1*
X21580Y62258D1*
X20080D1*
G37*
D23*
X20830Y60488D3*
Y59218D3*
D24*
X26907Y56489D3*
X28907D3*
D14*
X23147Y47075D3*
Y48975D3*
D25*
X46709Y36673D3*
X44809D3*
X57822D3*
X55922D3*
D14*
X66237Y37943D3*
Y36043D3*
D25*
X52583Y36673D3*
X50683D3*
D14*
X32832Y47233D3*
Y49133D3*
D25*
X31445Y35592D3*
X33345D3*
D14*
X27476Y37180D3*
Y35280D3*
X27752Y47233D3*
Y49133D3*
D25*
X64332Y79857D3*
X66232D3*
X52125Y83352D3*
X50225D3*
X32336Y81328D3*
X34236D3*
D14*
X32496Y75305D3*
Y77205D3*
X27634Y42737D3*
Y40837D3*
X22713Y42737D3*
Y40837D3*
X32715Y40990D3*
Y42890D3*
D25*
X22066Y75778D3*
X20166D3*
X29149Y81451D3*
X27249D3*
X23427Y81466D3*
X21527D3*
D26*
X74334Y79540D3*
Y85140D3*
D25*
X66237Y85097D3*
X68137D3*
D18*
X30356Y69537D3*
D19*
X32896D3*
X35436D3*
X37976D3*
X40516D3*
X43056D3*
X45596D3*
X48136D3*
D14*
X22554Y35116D3*
Y37016D3*
X27170Y75362D3*
Y77262D3*
X22417Y26512D3*
Y28412D3*
D27*
X79891Y41595D3*
Y81286D3*
X97355D3*
X97514Y41595D3*
M02*
