G04 DipTrace 2.4.0.2*
%INTopMask.gbr*%
%MOMM*%
%ADD15R,1.5X1.7*%
%ADD30C,3.4*%
%ADD31C,3.5*%
%ADD39R,3.2X3.2*%
%ADD41R,3.4X2.0*%
%ADD44R,1.2X1.4*%
%ADD46O,2.2X1.2*%
%ADD48R,1.98X1.72*%
%ADD50O,2.181X4.181*%
%ADD52C,1.7*%
%ADD54R,1.7X1.7*%
%ADD56R,1.1X1.1*%
%ADD58R,1.7X1.9*%
%ADD59R,1.7X1.5*%
%FSLAX53Y53*%
G04*
G71*
G90*
G75*
G01*
%LNTopMask*%
%LPD*%
D59*
X32974Y54285D3*
Y52385D3*
D58*
X44041Y84897D3*
X38941D3*
Y75897D3*
X44041D3*
D59*
X36987Y63681D3*
Y61781D3*
X23014Y54166D3*
Y52266D3*
D56*
X25752Y26512D3*
X29244D3*
X39723Y27464D3*
Y25877D3*
X34325Y27464D3*
Y25877D3*
D54*
X102118Y38896D3*
Y41436D3*
Y43976D3*
Y46516D3*
Y56042D3*
Y58582D3*
Y61122D3*
Y63662D3*
X48296Y29052D3*
X50836D3*
X53376D3*
X55916D3*
X63220Y28893D3*
X65760D3*
X68300D3*
X70841D3*
D59*
X17813Y26512D3*
Y28412D3*
X37080Y56417D3*
Y58317D3*
D54*
X105929Y78428D3*
D52*
Y75888D3*
Y73348D3*
Y70808D3*
D50*
X77827Y29211D3*
Y21718D3*
X92839Y29211D3*
X97817D3*
X102821D3*
X92839Y21718D3*
X97817D3*
X102821D3*
D48*
X49249Y43500D3*
X51789D3*
X54329D3*
Y52549D3*
X51789D3*
X49249D3*
X68619Y46516D3*
X71159D3*
X73699D3*
Y55565D3*
X71159D3*
X68619D3*
X69095Y63504D3*
X71635D3*
X74175D3*
Y72553D3*
X71635D3*
X69095D3*
X54806Y63504D3*
X57346D3*
X59886D3*
Y72553D3*
X57346D3*
X54806D3*
G36*
X20038Y62358D2*
X19730Y62049D1*
Y61467D1*
X20038Y61158D1*
X21621D1*
X21930Y61467D1*
Y62049D1*
X21621Y62358D1*
X20038D1*
X19730Y62049D1*
Y61467D1*
X20038Y61158D1*
X21621D1*
X21930Y61467D1*
Y62049D1*
X21621Y62358D1*
X20038D1*
X19730Y62049D1*
Y61467D1*
X20038Y61158D1*
X21621D1*
X21930Y61467D1*
Y62049D1*
X21621Y62358D1*
X20038D1*
G37*
D46*
X20830Y60488D3*
Y59218D3*
D44*
X26907Y56489D3*
X28907D3*
D59*
X23147Y47075D3*
Y48975D3*
D15*
X46709Y36673D3*
X44809D3*
X57822D3*
X55922D3*
D59*
X66237Y37943D3*
Y36043D3*
D15*
X52583Y36673D3*
X50683D3*
D59*
X32832Y47233D3*
Y49133D3*
D15*
X31445Y35592D3*
X33345D3*
D59*
X27476Y37180D3*
Y35280D3*
X27752Y47233D3*
Y49133D3*
D15*
X64332Y79857D3*
X66232D3*
X52125Y83352D3*
X50225D3*
X32336Y81328D3*
X34236D3*
D59*
X32496Y75305D3*
Y77205D3*
X27634Y42737D3*
Y40837D3*
X22713Y42737D3*
Y40837D3*
X32715Y40990D3*
Y42890D3*
D15*
X22066Y75778D3*
X20166D3*
X29149Y81451D3*
X27249D3*
X23427Y81466D3*
X21527D3*
D41*
X74334Y79540D3*
Y85140D3*
D15*
X66237Y85097D3*
X68137D3*
D54*
X30356Y69537D3*
D52*
X32896D3*
X35436D3*
X37976D3*
X40516D3*
X43056D3*
X45596D3*
X48136D3*
D59*
X22554Y35116D3*
Y37016D3*
X27170Y75362D3*
Y77262D3*
X22417Y26512D3*
Y28412D3*
D30*
X111168Y87002D3*
X16917Y17068D3*
D31*
X17015Y86926D3*
D30*
X111209Y17068D3*
D39*
X79891Y41595D3*
Y81286D3*
X97355D3*
X97514Y41595D3*
M02*
